<?xml version="1.0" encoding="UTF-8" standalone="no"?>
<!-- Created with Inkscape (http://www.inkscape.org/) -->

<svg
   width="320mm"
   height="90mm"
   viewBox="0 0 320 90"
   version="1.1"
   id="svg5"
   xmlns="http://www.w3.org/2000/svg"
   xmlns:svg="http://www.w3.org/2000/svg">
  <defs
     id="defs2" />
  <g
     id="layer1"
     transform="translate(-10.571746,-31.715239)">
    <path
       style="fill:#ff04a2;stroke-width:0.155634;fill-opacity:1"
       d="m 37.149217,96.038517 c -2.754902,-0.429168 -5.547899,-1.644759 -7.507077,-3.267296 -1.112536,-0.921371 -2.431349,-2.638036 -3.261585,-4.245526 -0.406137,-0.786359 -1.01799,-1.850625 -1.359673,-2.365038 -2.013812,-3.031854 -3.015323,-6.35327 -3.0029,-9.958838 0.02741,-7.954472 5.112603,-15.042425 12.763571,-17.790379 0.610234,-0.219176 2.565297,-0.792821 4.34458,-1.274767 7.019909,-1.901453 9.415042,-3.002294 11.823506,-5.434269 0.748338,-0.755644 1.31114,-1.518408 1.789449,-2.425232 0.65481,-1.241456 0.697521,-1.397133 0.693839,-2.529049 -0.0024,-0.752094 0.05849,-1.206162 0.161873,-1.206162 0.196547,0 1.262255,1.595982 1.863551,2.790815 0.683141,1.357464 1.448801,3.619824 1.807273,5.340091 0.393244,1.88714 0.441142,5.715189 0.09884,7.899375 -0.20732,1.322887 -0.20732,1.322887 123.918426,1.402886 124.12575,0.08 124.12575,0.08 125.52646,0.411124 7.14699,1.689548 11.0746,6.495163 11.58609,14.176156 0.15375,2.308978 -0.007,5.450249 -0.3649,7.135939 -1.35599,6.384476 -5.87975,10.477002 -12.61675,11.414031 -0.84031,0.116878 -40.623,0.161727 -134.05602,0.151125 C 60.705979,96.250944 38.271439,96.213341 37.149217,96.038517 Z"
       id="path3261" />
    <path
       style="fill:#ffffff;stroke-width:0.155894;fill-opacity:1"
       d="m 104.73749,86.029508 c 0,-0.670294 0.29881,-1.002407 0.99594,-1.106949 0.38502,-0.05774 0.81498,-0.231977 0.95545,-0.387198 0.22828,-0.252248 2.56952,-8.415659 2.56952,-8.959378 0,-0.198246 -0.86345,-0.544023 -1.36407,-0.546255 -0.24715,-0.0011 -0.24465,-0.04763 0.0391,-0.726623 0.23392,-0.559846 0.23392,-0.559846 4.94963,-0.476679 5.04193,0.08892 6.24368,0.237172 7.48711,0.923638 1.28985,0.712096 1.7186,2.032529 1.00684,3.1008 -0.38497,0.577799 -1.63032,1.281612 -2.75549,1.557274 -0.69208,0.169555 -0.69208,0.169555 0.1328,0.448805 1.5443,0.522796 2.2741,1.324106 2.2741,2.496919 0,1.485469 -1.32255,2.657115 -3.67991,3.260026 -1.80173,0.460803 -4.19878,0.639312 -8.58482,0.639312 -3.39369,0 -4.02615,-0.03514 -4.02615,-0.223692 z m 9.78034,-1.568017 c 1.50559,-0.608956 2.08093,-2.133607 1.20014,-3.180366 -0.45844,-0.544821 -1.19789,-0.793874 -2.36076,-0.79512 -0.90467,-9.35e-4 -0.77414,-0.244919 -1.74194,3.25553 -0.31846,1.151835 -0.31846,1.151835 0.96177,1.069482 0.70412,-0.04529 1.57748,-0.20258 1.94079,-0.349526 z m 0.85593,-5.564347 c 1.2696,-0.380384 1.95787,-1.572301 1.51931,-2.631086 -0.24887,-0.600829 -0.83913,-0.904272 -1.99375,-1.024952 -0.91443,-0.09558 -0.91443,-0.09558 -1.40695,1.694314 -0.27089,0.984441 -0.49252,1.870167 -0.49252,1.968282 0,0.238455 1.57061,0.234115 2.37391,-0.0066 z m 19.97395,7.083242 c 0.0418,-0.150047 0.11903,-0.423037 0.17153,-0.606643 0.0718,-0.251216 0.26258,-0.358892 0.77079,-0.435103 0.37144,-0.0557 0.79781,-0.19083 0.94751,-0.300286 0.18295,-0.133782 0.64814,-1.575194 1.41922,-4.3976 0.63088,-2.309223 1.14925,-4.355419 1.15193,-4.547103 0.004,-0.284314 -0.12437,-0.381057 -0.69666,-0.525162 -0.72963,-0.183722 -0.80404,-0.317367 -0.54948,-0.986897 0.15203,-0.399883 0.15203,-0.399883 4.13118,-0.399883 3.68654,0 3.97899,0.02006 3.97702,0.272814 -0.006,0.776986 -0.16302,0.935591 -1.1103,1.121957 -0.70608,0.138912 -0.96499,0.264881 -1.07754,0.524266 -0.14113,0.325219 -2.48684,8.911795 -2.48684,9.103167 0,0.05037 0.6901,0.05356 1.53356,0.0071 2.15528,-0.118762 2.97704,-0.594806 4.06471,-2.354696 0.33441,-0.541099 0.40881,-0.580831 1.00595,-0.53724 0.35466,0.02589 0.63416,0.117222 0.62111,0.202964 -0.013,0.08574 -0.2857,1.050333 -0.60589,2.143537 -0.58218,1.987644 -0.58218,1.987644 -6.96303,1.987644 -6.00206,0 -6.37633,-0.0162 -6.30477,-0.272814 z m 27.15431,-0.23384 c 0.14766,-0.688436 0.15035,-0.691248 0.77514,-0.808458 0.30287,-0.05682 0.78865,-0.312246 1.07949,-0.567614 0.29085,-0.255366 2.16592,-2.742063 4.16683,-5.525991 3.638,-5.061689 3.638,-5.061689 5.53531,-5.062231 1.89732,-4.68e-4 1.89732,-4.68e-4 1.98339,0.428165 0.0473,0.235789 0.40343,2.322815 0.79131,4.637835 0.9358,5.585224 0.95155,5.647687 1.49471,5.928568 0.2438,0.126076 0.55199,0.229231 0.68486,0.229231 0.27777,0 0.3069,0.275594 0.0896,0.847266 -0.15205,0.399883 -0.15205,0.399883 -4.12199,0.399883 -2.18347,0 -3.99887,-0.05261 -4.03421,-0.11692 -0.0353,-0.06431 -0.004,-0.337104 0.0687,-0.606217 0.11012,-0.405205 0.23295,-0.508055 0.71474,-0.598439 1.07288,-0.201271 1.15284,-0.301239 1.10137,-1.376926 -0.0462,-0.964998 -0.0462,-0.964998 -2.46252,-1.006617 -2.41635,-0.04162 -2.41635,-0.04162 -2.88403,0.692336 -0.81524,1.279386 -0.79093,1.520348 0.17155,1.700912 0.59102,0.110874 0.59954,0.130389 0.35882,0.820928 -0.17114,0.490943 -0.17114,0.490943 -2.89642,0.490943 -2.72527,0 -2.72527,0 -2.61661,-0.506654 z m 9.99442,-5.300384 c -0.0492,-0.27866 -0.17209,-1.138023 -0.27308,-1.909697 -0.10099,-0.771673 -0.22821,-1.454 -0.28275,-1.516281 -0.0822,-0.09384 -1.19466,1.424488 -2.56155,3.495988 -0.28812,0.436644 -0.28812,0.436644 1.45937,0.436644 1.74749,0 1.74749,0 1.65801,-0.506654 z m 21.11138,5.534224 c 0.006,-0.150047 0.061,-0.399635 0.12211,-0.554637 0.0611,-0.155001 2.3537,-2.529728 5.09457,-5.277168 4.98339,-4.995343 4.98339,-4.995343 3.03472,-4.892979 -2.33812,0.122824 -3.03896,0.389098 -3.75205,1.425556 -0.43717,0.635397 -0.52275,0.686105 -1.15797,0.686105 -0.67831,0 -0.68438,-0.0048 -0.54588,-0.428708 0.077,-0.235789 0.32315,-1.042538 0.54695,-1.792777 0.4069,-1.364069 0.4069,-1.364069 6.39937,-1.364069 6.47955,0 6.17855,-0.04202 5.85194,0.817015 -0.0773,0.203298 -2.36302,2.575499 -5.07941,5.271559 -4.93888,4.901928 -4.93888,4.901928 -3.982,4.948565 1.54715,0.0754 3.69173,-0.221709 4.29601,-0.595177 0.29217,-0.180575 0.75567,-0.674705 1.03,-1.098065 0.47119,-0.727163 0.53615,-0.769747 1.17405,-0.769747 0.3714,0 0.67527,0.04484 0.67527,0.09964 0,0.0548 -0.2151,0.808937 -0.478,1.675857 -0.26288,0.866918 -0.51316,1.698982 -0.55612,1.849029 -0.0728,0.254037 -0.51199,0.272814 -6.38134,0.272814 -5.90327,0 -6.30248,-0.01731 -6.29222,-0.272814 z m 27.89614,0 c 0.006,-0.736553 0.17545,-0.942187 0.86266,-1.045242 0.37438,-0.05614 0.81879,-0.220998 0.98758,-0.366345 0.41463,-0.357063 2.73841,-8.878177 2.49961,-9.165902 -0.0884,-0.106575 -0.43738,-0.240499 -0.77542,-0.297609 -0.67901,-0.114719 -0.68789,-0.131403 -0.44345,-0.832636 0.17116,-0.490943 0.17116,-0.490943 6.59951,-0.490943 3.53559,0 6.46626,0.03792 6.51263,0.08428 0.0463,0.04635 -0.10422,0.835563 -0.33458,1.753803 -0.41884,1.669529 -0.41884,1.669529 -1.10792,1.669529 -0.67794,0 -0.69066,-0.0097 -0.78608,-0.596664 -0.15169,-0.933141 -0.53604,-1.201056 -1.97221,-1.374681 -0.68645,-0.08299 -1.6193,-0.129376 -2.07298,-0.103082 -0.82488,0.04781 -0.82488,0.04781 -1.24174,1.606746 -0.73214,2.737912 -0.78502,2.416351 0.39731,2.416351 1.24133,0 1.47935,-0.11518 2.09889,-1.015645 0.38276,-0.556336 0.57319,-0.699185 0.93204,-0.699185 0.24804,0 0.49194,0.06626 0.54199,0.147233 0.05,0.08098 -0.17177,1.133261 -0.49293,2.338404 -0.58392,2.191173 -0.58392,2.191173 -1.251,2.191173 -0.65539,0 -0.66707,-0.0093 -0.66707,-0.532878 0,-0.976527 -0.0674,-1.026059 -1.39531,-1.026059 -1.20606,0 -1.20606,0 -1.70442,1.874288 -0.27409,1.030857 -0.54249,1.989318 -0.59643,2.12991 -0.0891,0.232224 0.0934,0.245946 1.9939,0.149898 2.57868,-0.130322 3.20857,-0.383623 4.03047,-1.620824 0.51526,-0.775587 0.57874,-0.818442 1.21232,-0.818442 0.36772,0 0.6686,0.04007 0.6686,0.08904 0,0.04897 -0.25855,0.925874 -0.57456,1.94867 -0.57456,1.859627 -0.57456,1.859627 -7.24906,1.859627 -6.25355,0 -6.67435,-0.01721 -6.67235,-0.272815 z"
       id="path3445" />
  </g>
</svg>
