<?xml version="1.0" encoding="UTF-8" standalone="no"?>
<!-- Created with Inkscape (http://www.inkscape.org/) -->

<svg
   width="160mm"
   height="160mm"
   viewBox="0 0 160 160"
   version="1.1"
   id="svg5"
   xmlns="http://www.w3.org/2000/svg"
   xmlns:svg="http://www.w3.org/2000/svg">
  <defs
     id="defs2" />
  <g
     id="layer1"
     transform="translate(-10.571746,-31.715239)">
    <path
       style="fill:#ffffff;stroke-width:0.0772572;fill-opacity:1"
       d="M 78.686959,184.19957 C 70.832148,183.69529 64.116574,181.7969 57.489267,178.2073 46.982293,172.51633 37.434652,162.43771 30.093469,149.28791 c -1.02473,-1.83553 -3.009471,-5.82156 -3.789121,-7.60984 -4.75141,-10.89823 -7.391658,-22.11864 -7.962498,-33.83866 -0.126639,-2.60006 -0.04767,-7.78115 0.156028,-10.236587 1.189555,-14.339438 5.809889,-26.239065 14.053288,-36.194113 7.297408,-8.812634 16.81877,-15.168601 27.997907,-18.689949 17.927723,-5.647105 36.951135,-3.66685 55.904607,5.819428 11.05381,5.53247 23.48503,14.844552 31.56771,23.647005 10.63122,11.577931 16.13465,23.3133 16.99717,36.244326 0.53341,7.99678 -0.93375,16.55486 -4.15036,24.20946 -4.6629,11.09636 -13.36445,21.53591 -25.28129,30.33081 -4.41714,3.25995 -9.50526,6.53026 -14.40847,9.26081 -12.46173,6.93981 -23.96692,10.84159 -34.881644,11.82949 -1.295939,0.11729 -6.47634,0.21224 -7.609837,0.13948 z"
       id="path2902" />
  </g>
</svg>
