<?xml version="1.0" encoding="UTF-8" standalone="no"?>
<!-- Created with Inkscape (http://www.inkscape.org/) -->

<svg
   width="160mm"
   height="160mm"
   viewBox="0 0 160 160"
   version="1.1"
   id="svg5"
   xmlns="http://www.w3.org/2000/svg"
   xmlns:svg="http://www.w3.org/2000/svg">
  <defs
     id="defs2" />
  <g
     id="layer1"
     transform="translate(-10.571746,-31.715239)">
    <path
       style="fill:#ffffff;fill-opacity:1;stroke-width:0.153392"
       d="m 94.229731,182.5451 c -4.15608,-0.41942 -9.352182,-2.5191 -15.774484,-6.37427 -7.661186,-4.59885 -13.286853,-9.44515 -16.904576,-14.56264 -0.744172,-1.05268 -1.91796,-3.10358 -3.328702,-5.81607 -0.518557,-0.99705 -0.518557,-0.99705 -3.576942,-1.09709 -4.190156,-0.13705 -5.419704,-0.51909 -8.06544,-2.50603 -3.553961,-2.66902 -6.430409,-6.60274 -7.709291,-10.54294 -0.79039,-2.43516 -0.935577,-3.42967 -0.935577,-6.40852 0,-2.39408 0.03838,-2.80048 0.354918,-3.75812 0.485866,-1.4699 1.252153,-2.59474 2.060252,-3.02426 0.559641,-0.29747 0.882265,-0.34656 2.263298,-0.34443 1.546752,0.002 1.657798,0.0254 2.800327,0.57971 1.523727,0.73926 3.07648,2.26105 3.83944,3.76286 0.477009,0.93895 0.665332,1.60194 1.204787,4.24147 0.549574,2.68904 2.519968,6.51297 5.017654,9.73774 1.320435,1.70481 4.129994,4.5235 5.391488,5.40901 1.051209,0.73789 3.662408,2.18003 3.763757,2.07868 0.03276,-0.0327 -0.700532,-0.85019 -1.62953,-1.81653 -4.445163,-4.62383 -6.569643,-7.81381 -7.861404,-11.80418 -0.977424,-3.01936 -1.145916,-6.09301 -0.400156,-7.29967 0.223787,-0.3621 0.527247,-1.43033 0.841104,-2.96084 0.270052,-1.3169 0.536542,-2.50116 0.592198,-2.63168 0.08591,-0.20147 -0.02951,-0.22896 -0.764318,-0.182 -1.361285,0.087 -1.474569,-0.0675 -0.416408,-0.56794 0.510794,-0.24157 1.24053,-0.7395 1.621637,-1.10651 0.56933,-0.54828 0.753681,-0.87249 1.03359,-1.81774 0.334452,-1.12945 1.152805,-3.05311 2.838608,-6.67257 3.968959,-8.52146 4.634174,-9.67638 6.86879,-11.92527 1.672011,-1.68269 3.082158,-2.72622 4.939866,-3.65557 2.565967,-1.28368 2.14817,-1.23466 11.734519,-1.37685 4.682303,-0.0695 8.927438,-0.192803 9.433633,-0.274108 2.235625,-0.359093 6.810631,-2.671304 9.124421,-4.611491 1.31821,-1.105361 1.32307,-1.110713 1.95608,-2.152964 0.68651,-1.130316 1.0448,-1.436058 1.2696,-1.083406 0.0807,0.126549 0.14774,0.374697 0.14903,0.55144 0.007,0.964387 2.88306,4.175292 4.45073,4.968981 0.98971,0.501078 3.46221,1.360474 5.52213,1.919393 6.7699,1.836875 10.16488,4.346545 11.72354,8.666385 0.62932,1.74418 0.98083,4.45476 1.40236,10.81417 0.27334,4.1237 0.34254,4.37168 1.21982,4.37168 0.4297,0 0.53334,0.0592 0.53334,0.30443 0,0.28002 -0.0727,0.29683 -0.90701,0.20964 -0.907,-0.0948 -0.907,-0.0948 -0.83338,1.49792 0.0405,0.87601 0.13802,1.92401 0.21673,2.3289 0.32198,1.65611 0.002,6.3855 -0.76574,11.32304 -0.0868,0.55822 -0.92997,4.07858 -1.87368,7.82301 -0.94372,3.74443 -1.71253,6.94611 -1.70848,7.11485 0.008,0.32714 -0.40844,1.22287 -0.62082,1.72861 -0.49859,1.18734 -3.13373,6.80983 -3.79541,7.93511 -2.73904,4.65806 -7.27282,10.07364 -11.87741,14.18749 -4.55763,4.07189 -6.003,4.69809 -11.120953,4.81813 -1.476402,0.0346 -2.960473,0.0351 -3.297936,0.001 z m -41.18586,-32.10133 c 0,-0.0732 -0.263079,-0.30711 -0.584619,-0.51989 -0.776326,-0.51375 -1.851852,-1.43762 -3.230672,-2.77513 -2.737542,-2.65553 -3.076023,-4.27472 -1.467246,-7.01886 0.379358,-0.64708 0.766381,-1.54665 0.860051,-1.99903 0.153394,-0.74084 0.136033,-0.89489 -0.174814,-1.55122 -0.444577,-0.93869 -1.682532,-2.06475 -2.96285,-2.69505 -1.690781,-0.83237 -3.666771,-0.83273 -4.112034,-7.7e-4 -0.32103,0.59985 0.03396,1.01437 1.624981,1.89745 1.486681,0.82517 1.633174,0.98973 0.882007,0.99075 -0.625239,9.2e-4 -1.358417,0.51666 -1.675697,1.17889 -0.429675,0.89684 -0.357744,2.63395 0.156529,3.78016 1.37986,3.07542 6.152824,7.2304 9.824734,8.55268 0.936617,0.33729 0.85963,0.32296 0.85963,0.16 z m 34.447793,-8.78615 c 3.539226,-0.18069 3.539226,-0.18069 4.01543,-1.11454 1.038301,-2.03615 1.402586,-4.49481 0.979274,-6.60938 -0.345191,-1.72433 -1.407089,-3.74939 -2.804012,-5.3473 -0.651757,-0.74553 -0.651757,-0.74553 0.567277,-0.13506 1.702104,0.85239 2.996133,1.29587 3.610296,1.23728 0.496165,-0.0473 0.525622,-0.0834 0.570198,-0.69848 0.104115,-1.43659 -1.751476,-4.27121 -3.95851,-6.04706 -1.495171,-1.20306 -4.941909,-2.6038 -7.951249,-3.23135 -2.1594,-0.45031 -6.591839,-0.47932 -8.615131,-0.0564 -4.053351,0.84729 -10.636595,3.64007 -13.670637,5.79945 -1.39153,0.99037 -1.797406,1.43211 -1.546438,1.68308 0.137113,0.13711 1.908303,-0.28141 2.715595,-0.64167 0.554039,-0.24726 5.027612,-1.78127 5.828911,-1.99877 5.532491,-1.50171 8.555677,-1.83509 11.657822,-1.28556 0.759293,0.13451 1.605508,0.27992 1.880479,0.32315 0.274972,0.0432 0.537894,0.13999 0.584275,0.21504 0.04638,0.075 0.183186,0.13644 0.304013,0.13644 0.26878,0 2.400257,0.94111 2.317931,1.02343 -0.03239,0.0324 -0.258293,-0.0177 -0.502,-0.11121 -0.819206,-0.3145 -2.886208,-0.60501 -4.306232,-0.60522 -4.160059,-6.2e-4 -7.389194,1.81109 -9.01911,5.06017 -1.269886,2.53141 -1.132688,5.77117 0.379157,8.95333 0.330621,0.6959 0.725083,1.37274 0.876585,1.5041 0.316581,0.27448 6.042423,1.61801 8.098472,1.90024 1.837788,0.25228 3.73709,0.26329 7.987604,0.0463 z m 32.847006,-1.19644 c 4.39238,-0.6714 4.95677,-0.84725 6.12341,-1.90798 0.63,-0.57281 0.72346,-0.75208 1.00884,-1.93513 0.46362,-1.92199 0.45809,-5.03374 -0.0117,-6.56335 -1.18709,-3.86539 -4.34536,-6.03497 -7.88728,-5.41817 -4.64141,0.80826 -8.50083,6.00575 -8.80909,11.86323 -0.0835,1.58641 0.11056,3.53138 0.43835,4.39353 0.14191,0.37325 0.14191,0.37325 2.62945,0.27783 1.71329,-0.0657 3.73891,-0.28669 6.50798,-0.70996 z m -8.43914,-11.69501 c 1.36272,-0.74695 3.21549,-2.09411 5.26236,-3.82631 1.87763,-1.58898 3.98077,-2.77965 5.93441,-3.35971 0.91643,-0.2721 3.26654,-0.11616 4.41427,0.2929 1.08609,0.3871 1.00236,0.378 1.00236,0.10894 0,-0.40675 -1.94488,-1.7315 -3.37378,-2.29804 -0.9071,-0.35966 -2.88819,-0.70199 -3.65582,-0.63173 -2.24961,0.20592 -3.26734,0.49196 -5.30077,1.48986 -2.44799,1.20134 -4.1754,2.65762 -5.14979,4.34147 -0.78216,1.35166 -0.8897,1.56708 -1.2089,2.42169 -0.79122,2.11829 -0.0611,2.63217 2.07566,1.46093 z M 27.094284,128.0281 c -1.335801,-3.02907 -2.431428,-9.80198 -2.425947,-14.99663 0.0039,-3.7244 0.675623,-10.01997 1.370375,-12.8441 0.08302,-0.337458 0.299338,-1.234804 0.480711,-1.994096 2.154655,-9.020176 6.391512,-18.101319 11.618727,-24.903206 1.09503,-1.424902 1.187005,-1.534308 3.049818,-3.627781 5.687594,-6.391846 13.109128,-11.330077 20.96774,-13.951771 5.223313,-1.742536 10.713439,-2.837942 18.268706,-3.645024 2.492164,-0.266223 12.672729,-0.266378 14.648975,-1.53e-4 5.452411,0.734312 9.537431,2.039877 14.188801,4.534713 0.61775,0.331342 1.42332,1.008601 1.20787,1.015486 -0.095,0.003 -0.57768,-0.173607 -1.07271,-0.392534 -1.16235,-0.514048 -4.10987,-1.521946 -5.32393,-1.820508 -2.39873,-0.589896 -3.62066,-0.768328 -3.31173,-0.483598 0.0352,0.0324 0.68515,0.377089 1.44445,0.765977 1.38053,0.707071 1.38053,0.707071 -1.22714,0.695162 -4.008492,-0.01831 -4.782262,0.0079 -4.52508,0.153231 0.126549,0.07151 0.644249,0.179927 1.150444,0.240917 1.168811,0.14083 3.498436,0.71795 4.985256,1.235004 5.98152,2.080125 11.81833,6.896019 14.24059,11.749781 1.24978,2.50432 1.62849,4.276269 1.50396,7.036814 -0.0661,1.463975 -0.17089,2.043352 -0.61528,3.399933 -0.92241,2.815809 -1.63074,4.003167 -1.63074,2.733509 0,-0.243964 -0.0647,-0.774848 -0.14385,-1.179738 -0.0791,-0.40489 -0.25742,-1.460943 -0.39625,-2.346784 -0.61316,-3.912617 -1.55093,-6.056145 -3.55377,-8.123069 -0.69288,-0.71505 -1.30822,-1.251645 -1.36743,-1.192439 -0.0592,0.05921 0.0815,0.643578 0.31275,1.298599 0.67278,1.905939 0.9769,3.108352 0.78618,3.108352 -0.0562,0 -0.48442,-0.412844 -0.95158,-0.917433 -1.07021,-1.155946 -1.96577,-1.814283 -3.5122,-2.581843 -1.85837,-0.922396 -3.20614,-1.341723 -6.58979,-2.05026 -1.48884,-0.311765 -7.934918,-0.266945 -9.748854,0.06778 -4.27909,0.789627 -8.456328,2.528298 -13.066689,5.438684 -4.150122,2.619852 -7.076962,4.977473 -10.759368,8.666862 -3.275744,3.281957 -3.257065,3.576025 0.08844,1.392452 2.621877,-1.711269 4.466219,-2.804028 5.952533,-3.526838 4.448039,-2.163124 7.244909,-3.049476 10.123899,-3.208354 3.41367,-0.188383 6.681983,0.489271 10.566478,2.190861 2.461784,1.078376 3.425205,1.386848 4.914722,1.573617 1.390459,0.174349 2.505099,0.631388 3.692849,1.514195 2.3373,1.737207 2.76107,2.074485 2.76107,2.197556 0,0.07347 -0.67301,0.133636 -1.49558,0.133705 -3.3832,3.07e-4 -6.266511,1.046411 -8.337514,3.025034 -0.642708,0.614039 -1.256986,1.116435 -1.365065,1.116435 -0.108077,0 -0.54908,-0.300895 -0.980005,-0.668654 -1.690368,-1.442595 -3.802449,-2.351319 -6.458288,-2.778687 -2.276451,-0.366316 -3.532075,-0.289341 -6.338127,0.388554 -1.65921,0.400837 -4.040455,1.189504 -5.343608,1.7698 -0.265848,0.118382 -0.522377,0.21524 -0.570065,0.21524 -0.146824,0 -4.103311,1.958657 -5.149113,2.549064 -2.031955,1.147142 -6.261165,4.067821 -9.750273,6.733509 -4.709518,3.598094 -11.095245,7.406574 -12.913374,7.701614 -0.579163,0.094 -0.579163,0.094 -0.191445,-0.36679 0.213245,-0.25343 1.419862,-1.39214 2.68137,-2.53048 2.763301,-2.4935 5.19803,-5.019878 8.106253,-8.411398 3.051153,-3.558201 3.519326,-4.141038 3.412317,-4.248048 -0.05179,-0.05179 -0.630004,0.38609 -1.284912,0.973077 -2.205114,1.976421 -3.139514,2.69139 -3.303323,2.52758 -0.237105,-0.237105 0.725133,-2.120644 2.204166,-4.314558 1.457481,-2.161948 2.132607,-3.275332 2.132607,-3.516992 0,-0.664139 -1.563661,0.614542 -5.227574,4.274839 -3.31786,3.314586 -4.918869,5.127887 -6.279228,7.111842 -1.535647,2.239599 -1.452054,1.76705 0.286528,-1.619744 1.886998,-3.675913 3.107837,-5.681442 4.974821,-8.172363 5.585141,-7.451673 12.349093,-13.506757 20.704518,-18.534665 1.866733,-1.123314 4.534669,-2.458368 7.322656,-3.66431 0.379646,-0.164216 0.828319,-0.358817 0.99705,-0.432448 1.272525,-0.555305 3.557592,-1.342823 5.598823,-1.92956 2.319235,-0.666648 2.791343,-0.781175 5.905607,-1.432618 1.687317,-0.352952 3.102362,-0.679025 3.144545,-0.724605 0.1134,-0.122533 -3.622101,0.09721 -5.828912,0.342887 -3.297904,0.367148 -5.786407,0.912375 -9.203544,2.016483 -0.632743,0.204444 -1.288496,0.432732 -1.457228,0.507305 -0.168731,0.07457 -0.686431,0.272881 -1.150443,0.440683 -3.905442,1.412337 -8.875861,4.256375 -13.601798,7.782852 -1.403669,1.047414 -2.609959,1.904389 -2.680642,1.904389 -0.182755,0 0.666129,-0.994799 3.011066,-3.528639 2.057635,-2.223392 3.607653,-4.029425 3.607653,-4.203524 0,-0.243208 -0.413184,0.01652 -2.016845,1.267786 -4.390621,3.425813 -9.07002,8.03929 -13.246866,13.06025 -0.736916,0.885841 -1.4885,1.783187 -1.670189,1.994101 -3.07385,3.568309 -8.644654,11.024574 -10.682983,14.298686 -0.886726,1.424325 -1.236111,1.560412 -0.854193,0.33271 0.128217,-0.412161 0.402425,-1.301596 0.60935,-1.976523 1.408918,-4.595454 3.462377,-8.85778 6.466235,-13.421835 2.63817,-4.008432 5.421696,-7.417193 9.839406,-12.049531 1.248189,-1.30883 2.326076,-2.480906 2.395307,-2.604613 0.257894,-0.46083 -0.335061,-0.212203 -1.522222,0.638275 -2.173972,1.557426 -4.315365,3.507651 -8.308226,7.566532 -7.313747,7.434673 -10.265048,11.886282 -13.917147,20.992 -1.020726,2.544958 -1.545298,3.678617 -1.652558,3.571357 -0.10726,-0.10726 -0.09448,-0.438699 0.04026,-1.044131 1.407367,-6.323763 4.588701,-12.660833 10.032536,-19.984345 0.595767,-0.801475 1.121504,-1.491741 1.168307,-1.533924 0.0468,-0.04218 0.391778,-0.456342 0.766613,-0.920354 2.142258,-2.651923 5.616754,-6.217661 8.445676,-8.667465 2.089875,-1.809801 4.872857,-3.767626 7.626709,-5.365387 0.696018,-0.403824 1.265487,-0.793935 1.265487,-0.866914 0,-0.174677 -0.395844,-0.169344 -0.730695,0.0098 -0.146496,0.0784 -1.57786,0.775128 -3.180811,1.548296 -2.612958,1.260338 -4.949032,2.510147 -6.508676,3.482173 -0.301057,0.187628 -0.74774,0.453701 -0.992631,0.591274 -1.551185,0.871415 -5.011845,3.603951 -7.783687,6.146001 -7.528216,6.904108 -12.084731,13.530678 -14.698324,21.375871 -0.527277,1.582718 -1.177184,3.963756 -1.381665,5.061949 -0.07069,0.379646 -0.239782,1.276996 -0.375761,1.994106 -1.185139,6.25003 -2.011864,15.61573 -2.281524,25.84662 -0.01779,0.67492 -0.07801,1.12359 -0.133812,0.99705 z m 22.114777,-8.6953 c -1.263526,-0.20935 -4.908557,-1.72271 -4.908557,-2.03796 0,-0.10147 0.895672,-0.1576 2.514722,-0.1576 2.30036,0 5.58505,-0.22563 5.754717,-0.3953 0.269571,-0.26957 -0.802969,-0.37771 -5.049862,-0.50913 -5.245313,-0.16233 -5.854457,-0.25179 -7.553971,-1.1094 -0.83938,-0.42357 -2.583044,-1.54937 -3.373575,-2.17816 -0.259455,-0.20637 -0.368687,-0.56318 -0.17241,-0.56318 0.05281,0 0.704021,0.24326 1.447124,0.54057 3.01729,1.20719 5.420422,1.53528 10.268065,1.40184 2.188076,-0.0602 3.649814,-0.1812 4.805699,-0.39771 1.850226,-0.34658 4.837635,-1.30724 6.333875,-2.03678 0.539002,-0.2628 1.026908,-0.43092 1.084237,-0.37359 0.143796,0.14379 -0.681864,1.9593 -1.582218,3.47907 -1.352353,2.28273 -3.048531,3.64673 -5.246862,4.21932 -0.795479,0.2072 -3.359998,0.27724 -4.320984,0.11801 z m 85.209479,-1.0822 c 2.37093,-1.54747 6.50094,-5.97402 8.14536,-8.73021 0.69981,-1.17294 1.7404,-3.66659 2.07033,-4.96133 0.27714,-1.08755 0.28228,-5.272091 0.008,-6.442483 -0.10877,-0.464012 -0.30124,-1.292331 -0.42771,-1.840708 -0.51375,-2.227681 -1.61916,-4.931029 -2.71999,-6.65191 -0.3111,-0.486319 -1.15035,-1.490771 -1.86501,-2.232114 -1.60281,-1.662666 -1.55101,-1.214568 -0.68417,-5.918343 0.0777,-0.421829 0.24373,-1.491741 0.36888,-2.377583 0.21219,-1.501981 0.29675,-2.135837 0.70172,-5.259955 0.0852,-0.657281 0.15491,-1.448621 0.15491,-1.758534 0,-1.177296 0.30825,-0.548433 3.17718,6.481616 2.97892,7.299578 3.80254,9.744421 4.42576,13.13755 0.28567,1.555347 0.68033,5.34313 0.6769,6.496678 -0.004,1.27304 -0.38935,4.397286 -0.69096,5.598826 -0.13765,0.54837 -0.29047,1.16961 -0.33959,1.38053 -0.21679,0.9308 -1.43259,3.73726 -2.12276,4.90002 -1.5712,2.64706 -3.86045,5.02654 -6.29702,6.54518 -1.38802,0.86512 -4.02718,2.02669 -4.87475,2.14552 -0.62733,0.0879 -0.62733,0.0879 0.29302,-0.51275 z m 4.61816,-10.79325 c -0.0425,-0.20202 -0.10887,-1.74785 -0.14747,-3.43517 -0.0523,-2.28694 -0.13631,-3.28259 -0.32998,-3.9115 -0.32572,-1.057734 -1.47937,-3.198684 -1.974,-3.663366 -0.34939,-0.328232 -0.3828,-0.33315 -0.52593,-0.0774 -0.0941,0.168149 -0.12244,1.307819 -0.0737,2.965635 0.0703,2.392221 0.0432,2.834951 -0.24303,3.969371 -0.34066,1.35032 -1.16366,3.24824 -1.40854,3.24824 -0.18237,0 -0.18303,-0.0874 -0.003,-0.42391 0.27403,-0.51285 0.64198,-1.91679 0.81691,-3.11701 0.46548,-3.193624 -0.99444,-7.276677 -3.30585,-9.245703 -1.70239,-1.450222 -2.46307,-1.627799 -7.01032,-1.636508 -3.29496,-0.0063 -7.13471,-0.29429 -7.87382,-0.590533 -0.23887,-0.09574 -0.40591,-0.25924 -0.37121,-0.363336 0.0626,-0.187871 0.39068,-0.314449 2.85197,-1.100393 2.88832,-0.922307 7.11259,-3.353004 9.33272,-5.37017 3.15614,-2.867603 6.90781,-9.037782 5.8811,-9.672326 -0.26704,-0.165035 -0.87169,0.274552 -2.63962,1.919031 -2.5127,2.33723 -4.47545,3.701535 -7.48792,5.204835 -1.87089,0.933625 -4.44838,1.794777 -4.44838,1.48623 0,-0.04866 0.60398,-0.483881 1.34218,-0.967164 1.66014,-1.086851 3.23637,-2.640588 3.70991,-3.656979 1.26927,-2.72429 1.42345,-6.408705 0.41723,-9.970506 -0.9248,-3.273566 -3.30174,-7.147057 -6.02098,-9.811842 -0.98438,-0.964674 -2.23197,-2.411419 -2.15008,-2.493309 0.14241,-0.142412 2.21413,1.622903 4.00262,3.410639 3.01788,3.016613 5.52569,7.173814 6.52224,10.811917 0.10399,0.379646 0.24494,0.875727 0.31321,1.102401 0.0683,0.226674 0.24558,1.417382 0.39401,2.646019 0.17613,1.457964 0.33258,2.233884 0.4504,2.233884 0.23898,0 2.48012,-2.342255 3.091,-3.230459 2.1656,-3.148706 3.47564,-7.943018 4.04112,-14.789189 0.0904,-1.094578 0.18563,-2.011394 0.21161,-2.037367 0.29395,-0.293949 0.92358,3.878971 1.31361,8.705977 0.36491,4.516072 0.16387,11.351038 -0.33386,11.351038 -0.062,0 -0.1326,-0.632913 -0.15686,-1.406472 -0.0491,-1.564437 -0.26474,-1.887734 -0.57397,-0.860329 -0.31213,1.037095 -0.37299,3.007803 -0.15861,5.136428 0.2444,2.426686 0.2279,3.840109 -0.061,5.225655 -0.29951,1.436447 -0.83119,2.433476 -2.03181,3.810122 -0.60331,0.691763 -0.96919,1.238412 -0.91807,1.371632 0.21832,0.568944 1.70241,-0.03316 2.69682,-1.094113 0.35887,-0.382892 0.68525,-0.663414 0.72528,-0.623382 0.04,0.04003 -0.071,0.397915 -0.24681,0.795298 -0.57984,1.310807 -0.47895,1.6887 0.87286,3.269647 2.1326,2.494088 2.8488,4.08546 3.09028,6.866566 0.14633,1.685131 -0.007,4.442371 -0.30665,5.503061 -0.22291,0.78986 -0.92021,2.56691 -1.0771,2.7449 -0.0665,0.0755 -0.15573,-0.0281 -0.19824,-0.23009 z m 16.47426,-38.660417 c -0.79549,-0.726565 -1.5341,-0.75591 -3.06959,-0.121955 -1.41674,0.584931 -1.62555,0.519833 -1.78747,-0.557238 -0.20742,-1.379838 -1.14413,-2.927465 -2.80775,-4.638974 -0.43559,-0.448131 -0.76494,-0.896804 -0.73189,-0.997051 0.0331,-0.100245 0.58254,-0.45837 1.2211,-0.795833 0.63855,-0.337463 1.43973,-0.837598 1.78039,-1.111408 0.69375,-0.557612 1.85978,-2.069119 2.47018,-3.202062 0.60398,-1.121042 0.83158,-1.438745 1.03067,-1.438745 0.0992,0 0.5069,0.638496 0.90607,1.418879 0.80402,1.571845 1.81777,2.980605 2.46653,3.427597 0.23323,0.160692 1.08299,0.637302 1.88836,1.059131 0.80536,0.421829 1.4643,0.862704 1.4643,0.979719 0,0.117017 -0.61032,0.559832 -1.35625,0.984034 -1.7635,1.00287 -2.03958,1.417324 -2.1205,3.183311 -0.0564,1.232023 -0.3245,2.132541 -0.6679,2.24381 -0.086,0.02788 -0.39485,-0.167067 -0.68625,-0.433215 z M 123.11305,57.505939 c -0.12764,-0.14764 -0.51855,-0.856143 -0.86868,-1.57445 -1.12571,-2.309435 -3.01099,-4.236625 -5.19148,-5.306887 -1.28701,-0.631711 -1.8851,-1.067536 -1.8851,-1.373676 0,-0.317366 1.10228,-1.076687 2.70212,-1.861401 2.11771,-1.038723 2.79272,-1.709899 3.79213,-3.770593 1.06021,-2.186055 1.48216,-3.133956 1.48216,-3.329619 0,-0.332782 0.31115,-0.121534 0.95777,0.650246 0.86937,1.03765 1.27031,1.748646 1.41057,2.501409 0.16213,0.870017 2.18484,2.816676 3.89582,3.749332 1.754,0.956103 2.94213,1.808466 2.85119,2.045445 -0.0848,0.221044 -1.15218,0.886108 -2.73507,1.704212 -1.9566,1.011249 -2.86377,1.975082 -4.09055,4.346062 -0.69248,1.338338 -1.56801,2.488357 -1.89443,2.488357 -0.1069,0 -0.2988,-0.120797 -0.42645,-0.268437 z"
       id="path2306" />
  </g>
</svg>
