<?xml version="1.0" encoding="UTF-8" standalone="no"?>
<!-- Created with Inkscape (http://www.inkscape.org/) -->

<svg
   width="160mm"
   height="160mm"
   viewBox="0 0 160 159.99999"
   version="1.1"
   id="svg5800"
   xmlns="http://www.w3.org/2000/svg"
   xmlns:svg="http://www.w3.org/2000/svg">
  <defs
     id="defs5797" />
  <path
     style="fill:#ffffff;stroke-width:0.147784;fill-opacity:1"
     d="m 106.05008,147.16047 c -0.29283,-0.0581 -0.82485,-0.27939 -1.18227,-0.49185 -0.81639,-0.4853 -16.704394,-16.40335 -17.073493,-17.10578 -0.404494,-0.76979 -0.379083,-2.67986 0.0462,-3.47291 0.715383,-1.33401 2.034375,-2.13516 3.520254,-2.13818 1.590327,-0.003 1.878407,0.21591 6.87194,5.22734 l 4.507409,4.52356 0.0739,-20.72759 0.0739,-20.727591 0.41423,-0.843535 c 0.69876,-1.422956 1.93522,-2.186029 3.54217,-2.186029 1.1653,0 2.23823,0.492502 2.99241,1.373588 1.0122,1.182525 0.95761,-0.107385 0.95761,22.630257 v 20.55117 l 4.61824,-4.61122 c 5.05627,-5.04857 5.26379,-5.20675 6.835,-5.20995 1.62385,-0.003 3.10796,1.0249 3.6939,2.55916 0.33138,0.86771 0.24422,2.2928 -0.19144,3.13017 -0.4254,0.81766 -16.46783,16.79785 -17.24634,17.17943 -0.70411,0.34512 -1.7186,0.48568 -2.4536,0.33996 z M 57.961669,111.27949 c -4.212056,-0.58598 -8.552487,-3.3787 -10.93157,-7.03359 -1.598645,-2.45594 -2.348114,-4.698635 -2.602138,-7.786596 -0.09992,-1.214584 -0.134792,-12.451542 -0.101829,-32.807971 0.0499,-30.814464 0.0516,-30.966956 0.359633,-32.290728 0.70433,-3.026827 2.024797,-5.520332 4.067664,-7.681169 2.639888,-2.792336 5.966075,-4.468532 9.799374,-4.938291 1.850132,-0.226728 36.425835,-0.226728 38.275966,0 3.766841,0.461615 6.903011,2.019145 9.605941,4.770649 2.21727,2.257122 3.52426,4.666093 4.25839,7.848811 0.30092,1.30462 0.30777,1.709143 0.35826,21.155439 l 0.0515,19.825387 -5.06806,0.07023 c -4.06598,0.05635 -5.28721,0.120317 -6.176436,0.323531 -3.332687,0.76162 -5.958526,2.214228 -8.225286,4.550212 -1.756526,1.810166 -2.805788,3.486322 -3.644352,5.821703 -0.835585,2.32709 -0.839756,2.405953 -0.839756,15.88084 v 12.397503 l -14.37196,-0.0221 c -7.904578,-0.0122 -14.571468,-0.0499 -14.815311,-0.0838 z"
     id="path5263" />
</svg>
