<?xml version="1.0" encoding="UTF-8" standalone="no"?>
<!-- Created with Inkscape (http://www.inkscape.org/) -->

<svg
   width="160mm"
   height="160mm"
   viewBox="0 0 160 159.99999"
   version="1.1"
   id="svg5800"
   xmlns="http://www.w3.org/2000/svg"
   xmlns:svg="http://www.w3.org/2000/svg">
  <defs
     id="defs5797" />
  <path
     style="fill:#ffffff;fill-opacity:1;stroke-width:0.135494"
     d="m 84.827517,137.70968 c -0.590132,-0.19026 -1.273852,-0.65959 -1.545575,-1.06094 -0.687479,-1.01545 -0.655428,-0.51106 -0.697021,-10.96902 l -0.03892,-9.78584 -11.749045,-0.0375 -11.749044,-0.0375 -0.812963,-0.40114 c -1.039163,-0.51276 -2.202459,-1.67606 -2.715216,-2.71522 l -0.401142,-0.81296 -0.03735,-12.328061 c -0.03628,-11.973289 -0.0296,-12.353461 0.231978,-13.210652 0.374605,-1.227575 1.041545,-2.27404 1.826831,-2.866395 2.570483,-1.938962 6.41182,-1.42982 8.067129,1.06924 0.826621,1.24797 0.823595,1.211181 0.856462,10.413419 0.02908,8.142679 0.03792,8.400119 0.304041,8.860569 0.162686,0.28148 0.519496,0.5986 0.877884,0.78024 l 0.603795,0.30601 7.319493,-0.035 7.319494,-0.035 0.06775,-21.814512 0.06775,-21.814506 0.436803,-0.925491 c 0.708375,-1.500891 1.557683,-2.203162 4.440975,-3.672123 6.351635,-3.235988 10.912779,-5.573003 11.652472,-5.970431 0.44713,-0.240237 1.742602,-0.906501 2.878832,-1.480587 1.66642,-0.841969 2.08215,-1.108673 2.15008,-1.379351 0.0565,-0.225119 0.005,-0.423583 -0.15781,-0.603006 -0.23899,-0.264074 -0.47103,-0.266994 -18.409348,-0.231654 l -18.167312,0.03579 -0.4424,0.315543 c -0.853415,0.608701 -0.898744,0.823846 -0.928721,4.407885 -0.01487,1.77815 -0.06819,3.454886 -0.11848,3.726081 -0.25214,1.359676 -1.48508,2.861257 -2.890217,3.51996 -0.70408,0.33006 -0.911823,0.360469 -2.462621,0.360469 -1.569333,0 -1.748752,-0.02708 -2.443938,-0.368811 -1.066997,-0.524511 -1.779145,-1.183669 -2.26196,-2.093652 -0.871224,-1.642039 -0.864566,-1.564063 -0.821041,-9.616438 l 0.03944,-7.296716 0.462002,-0.920772 c 0.828627,-1.651457 2.366223,-2.771351 4.212535,-3.068161 1.225829,-0.197063 62.591761,-0.197063 63.817591,0 2.12287,0.341268 3.78809,1.732154 4.47938,3.741449 0.25768,0.748935 0.26291,1.492366 0.26291,37.372792 0,35.880432 -0.005,36.623862 -0.26291,37.372802 -0.31391,0.91241 -0.87605,1.7615 -1.59802,2.41376 -0.55662,0.50287 -1.45909,1.00756 -5.65898,3.16469 -1.41591,0.72723 -3.24508,1.67223 -4.06482,2.1 -0.81973,0.42777 -2.58793,1.34246 -3.92932,2.03263 -1.34139,0.69018 -3.23153,1.66588 -4.20031,2.16824 -0.96878,0.50236 -2.70648,1.40188 -3.86157,1.99894 -1.15508,0.59706 -3.83786,1.98377 -5.961733,3.08157 -4.85041,2.50713 -7.056796,3.64977 -9.926562,5.14078 -2.368212,1.23042 -3.161432,1.45866 -4.061269,1.16856 z M 45.09205,92.66019 C 43.425385,92.243189 43.567262,92.368706 34.1443,82.974747 27.958167,76.807655 25.104786,73.871321 24.823332,73.382803 24.235319,72.362192 23.965646,70.935474 24.155105,69.84752 c 0.333623,-1.915804 0.06449,-1.602731 9.610818,-11.179733 4.813459,-4.828924 9.0197,-8.958712 9.347202,-9.177308 1.537833,-1.026452 3.612241,-1.296983 5.209595,-0.679402 3.126222,1.208682 4.37504,4.728457 2.796138,7.88087 -0.191316,0.381978 -1.583366,1.886057 -3.903948,4.218123 l -3.606605,3.62446 h 13.957926 c 11.935269,0 14.070373,0.02929 14.733888,0.202112 2.761075,0.719169 4.481642,2.993303 4.469912,5.908042 -0.01,2.483583 -1.41719,4.594981 -3.712495,5.570329 l -0.731227,0.310721 -14.355422,0.03746 -14.355423,0.03746 3.603378,3.62087 c 3.723154,3.741229 4.040233,4.142373 4.440293,5.617547 0.105501,0.389018 0.150767,1.085094 0.114946,1.76757 -0.134189,2.556625 -1.859333,4.544592 -4.419178,5.09243 -0.882649,0.188897 -1.387097,0.18023 -2.262853,-0.03889 z"
     id="path4373" />
</svg>
