<?xml version="1.0" encoding="UTF-8" standalone="no"?>
<!-- Created with Inkscape (http://www.inkscape.org/) -->

<svg
   width="160mm"
   height="160mm"
   viewBox="0 0 160 159.99999"
   version="1.1"
   id="svg5800"
   xmlns="http://www.w3.org/2000/svg"
   xmlns:svg="http://www.w3.org/2000/svg">
  <defs
     id="defs5797" />
  <g
     id="layer1"
     transform="translate(158.32051,-20.958313)">
    <path
       style="fill:#ffffff;stroke-width:0.145842;fill-opacity:1"
       d="m -121.49663,165.16513 c -5.1794,-0.55557 -10.17632,-3.57616 -13.06294,-7.89643 -1.58916,-2.37843 -2.41066,-4.68307 -2.7052,-7.58918 -0.29709,-2.93127 0.12534,-5.43688 1.49719,-8.88062 3.0785,-7.72793 9.34451,-15.29261 16.27151,-19.6439 1.70557,-1.07138 10.88047,-6.31269 12.26696,-7.00771 1.20094,-0.602 1.20094,-0.602 2.19896,0.0377 6.409856,4.10862 14.03138,6.78442 22.341223,7.84367 2.363666,0.3013 10.350479,0.25557 12.688257,-0.0727 8.029761,-1.12735 15.506034,-3.82227 21.781056,-7.85128 0.852727,-0.54751 0.852727,-0.54751 2.041789,0.0493 1.427369,0.71645 10.974306,6.17179 12.418899,7.09645 5.244636,3.35701 10.460561,8.8789 13.673825,14.47593 1.393887,2.42795 3.044467,6.25954 3.51301,8.15497 1.9537,7.90345 -1.738375,15.70489 -9.207598,19.45587 -1.18772,0.59646 -3.049969,1.24637 -4.697791,1.63949 -1.037307,0.24747 -3.38804,0.26214 -45.502714,0.28405 -24.424896,0.0127 -44.907286,-0.0303 -45.516436,-0.0957 z m 41.214096,-59.21802 c -14.09151,-1.71604 -25.537626,-11.690172 -29.026216,-25.293416 -0.79663,-3.106343 -1.00478,-4.836944 -1.00799,-8.380717 -0.003,-3.38557 0.19401,-5.166812 0.88553,-8.003582 1.13906,-4.672675 3.45116,-9.416059 6.43761,-13.207072 1.04178,-1.32244 4.038161,-4.319825 5.356314,-5.358111 3.808635,-2.999998 8.536684,-5.305386 13.215984,-6.444089 9.099029,-2.21424 18.872241,-0.489825 26.686083,4.708572 6.311548,4.198949 11.02716,10.343284 13.395699,17.454288 1.228984,3.689749 1.757151,6.961953 1.757151,10.886249 0,8.052078 -2.804117,15.667272 -8.073063,21.924162 -5.435686,6.454896 -13.642838,10.798526 -22.14695,11.721266 -1.640896,0.17805 -5.992158,0.17365 -7.480152,-0.008 z"
       id="path10665" />
  </g>
</svg>
