<?xml version="1.0" encoding="UTF-8" standalone="no"?>
<!-- Created with Inkscape (http://www.inkscape.org/) -->

<svg
   width="200.99998"
   height="160"
   viewBox="0 0 53.181246 42.333334"
   version="1.1"
   id="svg5"
   xmlns="http://www.w3.org/2000/svg"
   xmlns:svg="http://www.w3.org/2000/svg">
  <defs
     id="defs2" />
  <g
     id="layer1"
     style="display:inline;opacity:1"
     transform="translate(-14.179463,-46.302082)">
    <path
       id="path3943"
       style="display:inline;opacity:1;fill:#ffffff;fill-opacity:1;stroke-width:0.0387573"
       d="m 52.193146,65.375169 c -0.176989,-0.02744 -0.330049,-0.05814 -0.340134,-0.06822 -0.01008,-0.01009 0.112706,-0.116962 0.272863,-0.237509 1.289536,-0.970582 2.607837,-2.261447 3.567292,-3.493053 0.544153,-0.698499 1.323798,-1.923294 1.27477,-2.002623 -0.01148,-0.01858 -0.128624,0.06006 -0.260314,0.174745 -0.305124,0.265736 -0.999174,0.776615 -1.595942,1.174753 -1.472753,0.982562 -3.029385,1.768703 -4.39895,2.221593 -0.803923,0.265844 -0.775212,0.261821 -0.77484,0.108525 5.43e-4,-0.231846 0.187985,-1.032793 0.367121,-1.568883 0.588622,-1.761541 1.710633,-3.212629 3.200912,-4.13971 1.152758,-0.717114 2.794252,-1.17297 4.814366,-1.33699 0.59106,-0.04799 2.138642,-0.07145 2.177178,-0.033 0.04206,0.04196 -0.169067,1.283423 -0.327026,1.922957 -0.216921,0.878259 -0.387046,1.415753 -0.677086,2.139207 -0.892483,2.22614 -2.206598,3.815084 -3.800316,4.595105 -0.614927,0.300966 -0.989005,0.426601 -1.563833,0.525211 -0.515685,0.08847 -1.426593,0.09689 -1.936061,0.0179 z m -8.379209,-0.452223 c -0.120085,-0.04761 -0.139795,-0.06254 -0.174714,-0.08371 -0.02839,-0.01721 -0.147873,-0.07352 -0.254065,-0.126817 -1.429309,-0.717296 -3.240767,-2.304667 -4.596105,-3.973939 -1.000302,-1.232004 -1.573204,-2.602806 -1.852725,-4.433087 -0.22587,-1.478958 -0.145731,-3.487716 0.211107,-5.291658 0.129538,-0.654874 0.374752,-1.627999 0.422377,-1.676205 0.03677,-0.03722 0.823126,0.124163 1.476981,0.303124 1.960234,0.536513 3.963931,1.457103 5.496978,2.52556 0.999015,0.696266 2.14973,1.753607 2.81977,2.590966 1.135774,1.419395 1.685701,2.766059 1.748026,4.2806 0.04566,1.109543 -0.202123,2.192247 -0.758677,3.315088 -0.256942,0.518374 -0.770328,1.357872 -0.807597,1.320603 -0.0098,-0.0098 -0.05107,-0.215316 -0.09172,-0.456711 -0.174265,-1.034947 -0.564508,-2.314697 -1.022351,-3.352663 -0.28425,-0.644413 -0.934988,-1.852276 -1.280409,-2.376607 -0.696778,-1.057682 -1.560933,-1.964102 -2.538356,-2.662497 -0.377488,-0.269723 -0.960902,-0.614062 -0.990411,-0.584552 -0.01096,0.01096 0.131751,0.201006 0.317143,0.422322 0.748964,0.894119 1.155354,1.508355 1.546291,2.337164 0.436279,0.924938 0.786156,2.085253 0.954649,3.165953 0.116939,0.750043 0.128682,2.449006 0.02153,3.114197 -0.125171,0.777033 -0.377271,1.690534 -0.464758,1.684069 -0.02603,-0.0019 -0.108361,-0.02046 -0.182969,-0.0412 z M 41.759802,84.591418 C 38.616118,84.451353 35.711366,83.495409 33.27968,81.800643 32.581433,81.313995 31.938028,80.76787 31.235262,80.065325 29.96362,78.794071 28.974236,77.421176 28.12315,75.746851 27.616538,74.750211 27.330944,74.062169 26.890498,72.777234 26.75167,72.37222 26.551884,71.865857 26.44653,71.651982 c -0.634143,-1.287349 -1.660303,-1.991759 -2.689479,-1.846206 -0.892695,0.126252 -1.627694,0.857361 -1.937182,1.926922 -0.129439,0.447329 -0.211232,0.611974 -0.425352,0.85621 -0.468903,0.534851 -1.185185,0.762922 -1.74189,0.554632 -0.297728,-0.111396 -0.569133,-0.378301 -0.727173,-0.715122 -0.111764,-0.238194 -0.129105,-0.318821 -0.142111,-0.660741 -0.01251,-0.32879 0.0011,-0.449209 0.08732,-0.773184 0.295776,-1.111264 0.833292,-2.034904 1.636157,-2.811476 0.774869,-0.749496 1.649962,-1.191546 2.727006,-1.377538 0.539568,-0.09318 1.429805,-0.05836 1.968737,0.07699 0.783637,0.196814 1.544097,0.579022 2.151362,1.081278 l 0.18624,0.154033 -0.217374,-0.286389 c -0.254387,-0.335165 -0.492155,-0.803105 -0.588611,-1.158432 -0.09372,-0.345269 -0.09295,-1.088033 0.0015,-1.434019 0.195647,-0.716726 0.744977,-1.450909 1.514754,-2.02447 0.338468,-0.25219 1.095785,-0.711545 1.727164,-1.047621 1.222152,-0.650529 2.933495,-1.30417 4.457086,-1.702358 0.540171,-0.141174 0.634472,-0.155099 0.935344,-0.138108 1.401684,0.07915 1.956913,1.606155 0.929783,2.5571 -0.2974,0.275339 -0.455494,0.345292 -1.339079,0.592513 -1.199673,0.335661 -2.040275,0.648762 -3.074397,1.14513 -1.001282,0.480606 -2.141281,1.189058 -2.141281,1.330696 0,0.06861 0.336913,0.379972 0.600738,0.555182 2.418388,1.606055 8.399324,2.764428 13.271736,2.570433 1.7275,0.116968 6.426044,-0.521264 9.700461,-1.286392 3.297932,-0.770623 5.578245,-0.528543 5.648693,2.429223 0.0019,0.487833 -0.05645,0.915935 -0.212623,1.560422 -0.445596,1.83883 -1.422922,4.029449 -2.540221,5.693744 -1.227919,1.829076 -2.889296,3.450688 -4.725956,4.61284 -2.766421,1.750461 -6.289503,2.65735 -9.728075,2.504142 z m 1.957242,-3.076412 c 2.744557,-0.235765 5.153449,-1.157428 7.226548,-2.764955 0.541776,-0.420106 1.431124,-1.288517 1.927438,-1.882065 1.005747,-1.202789 1.866868,-2.718966 2.468377,-4.346081 0.231152,-0.625287 0.466296,-1.413416 0.525118,-1.760049 0.02532,-0.149216 0.05277,-0.304217 0.061,-0.344451 0.01396,-0.06826 -0.0063,-0.07176 -0.302547,-0.05237 -0.178659,0.01169 -0.893781,0.148448 -1.635258,0.31272 -5.880082,1.30271 -10.195297,1.693809 -14.592112,1.322526 -4.667483,-0.394142 -9.030548,-1.655648 -11.07299,-3.201567 -0.13653,-0.103342 -0.257232,-0.187891 -0.268223,-0.187891 -0.011,0 0.06667,0.100284 0.172578,0.222854 0.571619,0.661524 1.091118,1.645242 1.499247,2.83897 0.441453,1.291175 0.789765,2.113887 1.280432,3.024342 1.095912,2.033524 2.517261,3.618843 4.309893,4.807102 0.574612,0.38088 1.77006,0.991776 2.373744,1.213022 1.115903,0.40897 2.374898,0.69065 3.54932,0.794109 0.550613,0.0485 1.932244,0.05061 2.477435,0.0038 z" />
  </g>
</svg>
