<?xml version="1.0" encoding="UTF-8" standalone="no"?>
<!-- Created with Inkscape (http://www.inkscape.org/) -->

<svg
   width="388.40833"
   height="160.5"
   viewBox="0 0 102.76637 42.465626"
   version="1.1"
   id="svg5"
   xmlns="http://www.w3.org/2000/svg"
   xmlns:svg="http://www.w3.org/2000/svg">
  <defs
     id="defs2" />
  <g
     id="layer1"
     style="display:inline;opacity:1"
     transform="translate(-14.047172,-46.169792)">
    <path
       style="fill:#ffffff;fill-opacity:1;stroke-width:0.0387573"
       d="M 41.759802,84.591418 C 38.616118,84.451353 35.711366,83.495409 33.27968,81.800643 32.581433,81.313995 31.938028,80.76787 31.235262,80.065325 29.96362,78.794071 28.974236,77.421176 28.12315,75.746851 27.616538,74.750211 27.330944,74.062169 26.890498,72.777234 26.75167,72.37222 26.551884,71.865857 26.44653,71.651982 c -0.634143,-1.287349 -1.660303,-1.991759 -2.689479,-1.846206 -0.892695,0.126252 -1.627694,0.857361 -1.937182,1.926922 -0.129439,0.447329 -0.211232,0.611974 -0.425352,0.85621 -0.468903,0.534851 -1.185185,0.762922 -1.74189,0.554632 -0.297728,-0.111396 -0.569133,-0.378301 -0.727173,-0.715122 -0.111764,-0.238194 -0.129105,-0.318821 -0.142111,-0.660741 -0.01251,-0.32879 0.0011,-0.449209 0.08732,-0.773184 0.295776,-1.111264 0.833292,-2.034904 1.636157,-2.811476 0.774869,-0.749496 1.649962,-1.191546 2.727006,-1.377538 0.539568,-0.09318 1.429805,-0.05836 1.968737,0.07699 0.783637,0.196814 1.544097,0.579022 2.151362,1.081278 l 0.18624,0.154033 -0.217374,-0.286389 c -0.254387,-0.335165 -0.492155,-0.803105 -0.588611,-1.158432 -0.09372,-0.345269 -0.09295,-1.088033 0.0015,-1.434019 0.195647,-0.716726 0.744977,-1.450909 1.514754,-2.02447 0.338468,-0.25219 1.095785,-0.711545 1.727164,-1.047621 1.222152,-0.650529 2.933495,-1.30417 4.457086,-1.702358 0.540171,-0.141174 0.634472,-0.155099 0.935344,-0.138108 1.401684,0.07915 1.956913,1.606155 0.929783,2.5571 -0.2974,0.275339 -0.455494,0.345292 -1.339079,0.592513 -1.199673,0.335661 -2.040275,0.648762 -3.074397,1.14513 -1.001282,0.480606 -2.141281,1.189058 -2.141281,1.330696 0,0.06861 0.336913,0.379972 0.600738,0.555182 2.418388,1.606055 8.399324,2.764428 13.271736,2.570433 1.7275,0.116968 6.426044,-0.521264 9.700461,-1.286392 3.297932,-0.770623 5.578245,-0.528543 5.648693,2.429223 0.0019,0.487833 -0.05645,0.915935 -0.212623,1.560422 -0.445596,1.83883 -1.422922,4.029449 -2.540221,5.693744 -1.227919,1.829076 -2.889296,3.450688 -4.725956,4.61284 -2.766421,1.750461 -6.289503,2.65735 -9.728075,2.504142 z m 1.957242,-3.076412 c 2.744557,-0.235765 5.153449,-1.157428 7.226548,-2.764955 0.541776,-0.420106 1.431124,-1.288517 1.927438,-1.882065 1.005747,-1.202789 1.866868,-2.718966 2.468377,-4.346081 0.231152,-0.625287 0.466296,-1.413416 0.525118,-1.760049 0.02532,-0.149216 0.05277,-0.304217 0.061,-0.344451 0.01396,-0.06826 -0.0063,-0.07176 -0.302547,-0.05237 -0.178659,0.01169 -0.893781,0.148448 -1.635258,0.31272 -5.880082,1.30271 -10.195297,1.693809 -14.592112,1.322526 -4.667483,-0.394142 -9.030548,-1.655648 -11.07299,-3.201567 -0.13653,-0.103342 -0.257232,-0.187891 -0.268223,-0.187891 -0.011,0 0.06667,0.100284 0.172578,0.222854 0.571619,0.661524 1.091118,1.645242 1.499247,2.83897 0.441453,1.291175 0.789765,2.113887 1.280432,3.024342 1.095912,2.033524 2.517261,3.618843 4.309893,4.807102 0.574612,0.38088 1.77006,0.991776 2.373744,1.213022 1.115903,0.40897 2.374898,0.69065 3.54932,0.794109 0.550613,0.0485 1.932244,0.05061 2.477435,0.0038 z m 44.241421,2.983647 c -0.553302,-0.05182 -1.079793,-0.192085 -1.627805,-0.433683 -0.557341,-0.245709 -1.286303,-0.871658 -1.635789,-1.404633 -0.764681,-1.166159 -1.019092,-2.46192 -0.884464,-4.504742 0.03533,-0.536094 0.07267,-1.195243 0.157552,-2.781624 0.108427,-2.026199 0.158664,-2.732791 0.206669,-2.906795 0.237291,-0.860074 0.741682,-1.52687 1.387851,-1.834723 0.177361,-0.0845 0.435837,-0.18214 0.574395,-0.216982 0.253945,-0.06386 1.147354,-0.128384 1.247185,-0.09008 0.04562,0.01751 0.04635,0.111222 0.0048,0.616124 -0.05845,0.710262 -0.16645,2.295601 -0.166644,2.446142 v 0.106582 h 1.766699 1.7667 l -0.0251,0.57167 c -0.01381,0.314418 -0.04125,0.772239 -0.06098,1.017378 -0.01973,0.24514 -0.03606,0.570728 -0.03628,0.723529 -3.88e-4,0.1528 -0.01098,0.305407 -0.02393,0.339126 -0.02097,0.05465 -0.213712,0.06131 -1.775854,0.06131 h -1.75233 l -0.05465,0.765456 c -0.03006,0.421001 -0.055,1.227637 -0.05543,1.792524 -7.75e-4,1.025021 -5.43e-4,1.027738 0.109466,1.363372 0.219106,0.6684 0.61107,1.089397 1.223036,1.313619 0.294609,0.107943 0.394006,0.124376 0.856508,0.141627 0.339688,0.01267 0.604796,0.0027 0.755767,-0.02842 0.443623,-0.09144 0.426531,-0.100812 0.424954,0.232873 -0.0026,0.553771 -0.105075,2.4226 -0.136085,2.482186 -0.03652,0.07019 -0.488364,0.178659 -0.967121,0.232171 -0.375767,0.042 -0.802001,0.04066 -1.27899,-0.004 z m 8.487842,0 c -0.447162,-0.04188 -1.076673,-0.18602 -1.337126,-0.306171 -0.04263,-0.01967 -0.164718,-0.0737 -0.271301,-0.120078 -0.306686,-0.133445 -0.798737,-0.470052 -1.093238,-0.747872 -0.64923,-0.61245 -1.14656,-1.568514 -1.343474,-2.58268 -0.180632,-0.930298 -0.178934,-1.55279 0.01272,-4.67025 0.02097,-0.341064 0.06656,-1.14334 0.10132,-1.782835 0.03807,-0.700541 0.09059,-1.301372 0.132127,-1.511533 0.143413,-0.725656 0.471684,-1.351427 0.935248,-1.782834 0.459455,-0.427578 1.016622,-0.628388 1.852116,-0.667521 l 0.480552,-0.02251 -0.0236,0.189984 c -0.0342,0.275347 -0.182046,2.580312 -0.18186,2.835168 v 0.164718 h 1.74179 c 1.087234,0 1.75055,0.01417 1.765095,0.03772 0.01282,0.02074 0.0044,0.382635 -0.01873,0.804213 -0.02312,0.421575 -0.05106,0.975788 -0.06209,1.231586 -0.01103,0.255798 -0.02806,0.504329 -0.03786,0.552291 l -0.01781,0.0872 H 97.323145 95.5661 l -0.05263,0.726699 c -0.02895,0.399684 -0.0533,1.20632 -0.05412,1.792524 l -0.0015,1.065824 0.113167,0.345487 c 0.2172,0.663098 0.606939,1.079773 1.22011,1.304437 0.29461,0.107943 0.394007,0.124376 0.856509,0.141627 0.339688,0.01267 0.604795,0.0027 0.755766,-0.02842 0.437275,-0.09013 0.426528,-0.09504 0.424997,0.194115 -0.0029,0.552198 -0.101687,2.427194 -0.131751,2.50117 -0.02439,0.06003 -0.104839,0.09511 -0.337053,0.146983 -0.612477,0.136828 -1.199596,0.167807 -1.913435,0.100959 z m 8.332813,-0.004 c -0.94426,-0.08933 -1.95389,-0.470393 -2.68354,-1.012843 -0.36602,-0.272107 -0.91298,-0.843866 -1.13375,-1.185124 -0.39247,-0.606706 -0.6983,-1.413671 -0.81312,-2.145505 -0.0767,-0.4889 -0.0771,-1.558841 -8.1e-4,-2.025486 0.34377,-2.102101 1.66397,-3.754541 3.62354,-4.53543 0.42683,-0.170094 0.60503,-0.22156 1.16272,-0.335808 0.54798,-0.112265 1.81158,-0.12164 2.34481,-0.0174 1.21579,0.237675 2.05097,0.656912 2.74117,1.375999 0.95028,0.990058 1.3165,2.012343 0.98236,2.742205 -0.14066,0.30724 -0.31891,0.512219 -0.68586,0.788729 -0.5742,0.432671 -1.09573,0.643162 -2.97953,1.202561 -0.15988,0.04747 -0.42585,0.127938 -0.59105,0.17881 -0.1652,0.05087 -0.43554,0.134112 -0.60074,0.184981 -0.1652,0.05087 -0.43117,0.130655 -0.59105,0.177291 -0.15987,0.04664 -0.33428,0.09972 -0.38757,0.117962 -0.13445,0.04601 -1.17064,0.366679 -1.4534,0.449782 -0.1279,0.03759 -0.2483,0.08173 -0.26757,0.09809 -0.0197,0.01669 0.0132,0.09432 0.0749,0.176872 0.29732,0.397848 0.77047,0.704964 1.34759,0.874698 0.37663,0.110768 1.33983,0.118581 1.75186,0.01421 0.57185,-0.144863 1.04694,-0.363477 1.54362,-0.710304 0.16686,-0.116524 0.3259,-0.20322 0.35342,-0.192659 0.0275,0.01056 0.0927,0.09475 0.14483,0.187085 0.0521,0.09234 0.30479,0.525421 0.56146,0.962409 0.45678,0.777684 0.59414,1.023165 0.59414,1.061798 0,0.01056 -0.14388,0.130915 -0.31975,0.267456 -1.32003,1.024913 -2.93139,1.468711 -4.71869,1.299628 z m -0.81068,-6.46939 c 0.49916,-0.151165 0.99042,-0.299411 1.09167,-0.329437 0.10125,-0.03003 0.26694,-0.07917 0.36819,-0.109198 0.10126,-0.03003 0.50676,-0.153708 0.90111,-0.274836 0.39436,-0.121128 0.79985,-0.244806 0.90111,-0.274835 0.10125,-0.03003 0.26694,-0.07921 0.36819,-0.109288 0.40784,-0.121151 0.61126,-0.186605 0.62716,-0.20179 0.0308,-0.02946 -0.247,-0.292365 -0.47116,-0.445836 -0.55685,-0.381259 -1.35209,-0.545625 -2.12293,-0.438783 -0.47091,0.06527 -0.80625,0.173702 -1.17511,0.37998 -0.68041,0.380507 -1.21324,1.126515 -1.38101,1.933523 -0.0166,0.07994 -0.0267,0.14534 -0.0225,0.14534 0.004,0 0.41612,-0.123679 0.91528,-0.27484 z m -29.807562,6.141806 c -1.440662,-0.260987 -2.647939,-1.156648 -3.28483,-2.43696 -0.422904,-0.850144 -0.571534,-1.524932 -0.567697,-2.577347 0.0038,-1.04824 0.167397,-1.772145 0.596463,-2.639645 0.670404,-1.355446 1.743604,-2.318901 3.275442,-2.940506 0.313992,-0.127414 0.736373,-0.242787 1.220854,-0.333483 0.515309,-0.09646 1.855539,-0.09819 2.325436,-0.003 0.930659,0.188535 1.629356,0.484679 2.238849,0.948941 0.921873,0.702208 1.546834,1.746863 1.865465,3.118216 0.07785,0.335075 0.166528,1.43015 0.141917,1.752584 -0.02795,0.366233 -0.132767,2.449165 -0.160897,3.197474 -0.02173,0.578139 -0.0593,0.777673 -0.2007,1.065825 -0.201104,0.409824 -0.429756,0.610036 -0.86478,0.757205 -0.200227,0.06774 -0.309147,0.08063 -0.558767,0.06614 -0.545191,-0.03165 -0.970218,-0.270212 -1.209804,-0.679031 -0.08769,-0.149638 -0.10256,-0.216374 -0.09484,-0.425679 0.01051,-0.284575 0.02469,-0.284978 -0.323166,0.0091 -0.639821,0.540986 -1.486144,0.931322 -2.402873,1.108241 -0.464239,0.08959 -1.532036,0.09595 -1.996077,0.01189 z m 2.635494,-2.800619 c 0.743175,-0.221614 1.320154,-0.557512 1.800771,-1.048349 l 0.192345,-0.196438 0.03488,-0.687926 c 0.02454,-0.483834 0.02148,-0.807058 -0.01031,-1.089478 -0.127833,-1.135584 -0.654025,-1.869046 -1.515498,-2.112461 -0.965634,-0.272848 -2.09285,-0.05173 -2.819499,0.55307 -0.680953,0.566771 -1.023548,1.34945 -1.020703,2.331889 0.0036,1.25348 0.708688,2.119441 1.903993,2.338493 0.237935,0.0436 1.187112,-0.01517 1.434019,-0.0888 z m -11.804204,2.369359 c 0.08483,-1.459246 0.158874,-2.841942 0.216374,-4.040445 0.01994,-0.415671 0.05428,-1.0697 0.0763,-1.453397 0.02202,-0.383697 0.06615,-1.194693 0.09805,-1.802213 0.0319,-0.60752 0.0757,-1.418516 0.09733,-1.802213 0.04151,-0.736423 0.07837,-1.44648 0.172009,-3.313747 0.03154,-0.628836 0.06776,-1.21835 0.0805,-1.31003 l 0.02316,-0.166695 0.181427,0.0243 c 0.319271,0.04277 0.792981,0.174114 1.092416,0.302889 0.855358,0.367856 1.37974,0.983047 1.592354,1.868108 0.07708,0.320856 0.08151,0.410586 0.05839,1.18053 -0.01376,0.458305 -0.04201,1.094893 -0.06276,1.414641 -0.02075,0.319747 -0.05588,0.938895 -0.07806,1.375883 -0.05483,1.080285 -0.139255,2.696665 -0.211534,4.050134 -0.03301,0.618179 -0.08536,1.612303 -0.116318,2.209165 -0.03096,0.596861 -0.0681,1.263971 -0.08253,1.482465 l -0.02623,0.397262 H 66.53549 64.967945 Z"
       id="path1042" />
  </g>
  <g
     id="g3945"
     style="display:inline;opacity:1"
     transform="translate(-14.047172,-46.169792)">
    <path
       style="fill:#65ffa0;fill-opacity:1;stroke-width:0.0387573"
       d="m 107.51151,65.818879 c -1.10313,-0.183718 -1.8523,-0.568864 -2.5386,-1.305078 -0.70944,-0.761034 -1.10584,-1.719753 -1.26262,-3.053731 -0.0698,-0.593952 -0.0645,-0.970634 0.0389,-2.771145 0.0324,-0.564887 0.0765,-1.349722 0.0979,-1.744077 0.11451,-2.109543 0.16944,-2.619503 0.33801,-3.137994 0.35381,-1.088289 0.96025,-1.708703 1.91176,-1.955812 0.13855,-0.03599 0.46557,-0.07567 0.7267,-0.08818 l 0.47477,-0.02276 v 0.09284 c 0,0.05106 -0.0423,0.607345 -0.0937,1.236182 -0.0514,0.628837 -0.10522,1.295946 -0.11956,1.482466 l -0.0261,0.339126 h 1.70562 c 0.9381,0 1.73396,0.01087 1.76858,0.02415 0.0534,0.02049 0.0598,0.0719 0.0423,0.339126 -0.0113,0.173234 -0.0387,0.672509 -0.0608,1.109497 -0.0221,0.436988 -0.0497,0.88591 -0.0613,0.997608 l -0.0211,0.20308 -1.75103,0.01008 -1.75103,0.01008 -0.0251,0.232543 c -0.0503,0.465576 -0.11882,1.914873 -0.11993,2.538601 -8.5e-4,0.475668 0.0162,0.713964 0.0667,0.930175 0.19356,0.82984 0.66782,1.373794 1.39617,1.601365 0.50643,0.158227 1.20583,0.179109 1.68594,0.05033 0.11724,-0.03145 0.22822,-0.04249 0.24661,-0.02453 0.0188,0.0183 0.015,0.285354 -0.008,0.60769 -0.023,0.316271 -0.0534,0.906416 -0.0675,1.31143 -0.0141,0.405013 -0.0391,0.762603 -0.0556,0.794644 -0.11788,0.228784 -1.63012,0.343382 -2.53738,0.192283 z M 66.965463,65.502995 c -0.531261,-0.07924 -0.926818,-0.353649 -1.143122,-0.793024 -0.122857,-0.249558 -0.124256,-0.258802 -0.115501,-0.76293 0.0049,-0.280668 0.01674,-0.54519 0.02636,-0.587823 0.0096,-0.04263 0.04402,-0.618179 0.07644,-1.27899 0.120531,-2.456835 0.150161,-2.757917 0.350877,-3.565669 0.391557,-1.575773 1.287935,-2.766218 2.565084,-3.406593 0.760762,-0.381457 1.451991,-0.527269 2.499499,-0.527269 0.667931,0 1.100946,0.05483 1.637401,0.207316 0.553008,0.157192 1.108838,0.476838 1.56736,0.901347 l 0.235109,0.217668 0.261484,-0.211273 c 0.582669,-0.470785 1.098753,-0.734264 1.831153,-0.934876 0.867194,-0.237535 2.391556,-0.246085 3.139338,-0.01761 1.328088,0.405788 2.144673,1.081122 2.67414,2.211582 0.456723,0.975145 0.595269,1.924965 0.50734,3.47819 -0.02353,0.415672 -0.06879,1.261549 -0.100564,1.879728 -0.100439,1.953734 -0.112051,2.073761 -0.22433,2.319017 -0.197721,0.431869 -0.441488,0.64858 -0.901932,0.801803 -0.712599,0.237136 -1.453379,-0.06564 -1.803752,-0.737249 -0.116721,-0.223737 -0.122954,0.05609 0.08506,-3.81759 0.05821,-1.08394 0.03104,-1.936515 -0.07191,-2.256224 -0.26053,-0.809124 -0.826289,-1.171035 -1.830618,-1.171035 -0.635705,0 -1.087002,0.147909 -1.464102,0.479846 -0.564888,0.497232 -0.767832,1.246852 -0.860908,3.179956 -0.159176,3.306007 -0.161377,3.331532 -0.313104,3.628936 -0.275669,0.540362 -0.976579,0.869202 -1.587188,0.744647 C 73.507,65.383277 73.157495,65.125503 72.94245,64.70113 c -0.114698,-0.226342 -0.124081,-0.477668 -0.0595,-1.593834 0.110233,-1.905281 0.162191,-3.012568 0.16004,-3.41064 -0.007,-1.287931 -0.415947,-1.982531 -1.288419,-2.188185 -0.305907,-0.07211 -0.985985,-0.07528 -1.275634,-0.006 -0.911826,0.218242 -1.471001,0.967273 -1.63015,2.183619 -0.03706,0.283234 -0.0654,0.775859 -0.209087,3.633986 l -0.05844,1.162381 -0.118175,0.240043 c -0.262278,0.532765 -0.906695,0.868586 -1.497627,0.780448 z m 19.287682,-0.0068 c -0.458134,-0.09952 -0.830161,-0.372263 -1.020308,-0.748019 -0.174745,-0.345311 -0.179601,-0.407098 -0.120729,-1.535791 0.03026,-0.580057 0.07221,-1.394743 0.09323,-1.810414 0.03835,-0.758499 0.08762,-1.638514 0.158393,-2.829281 0.09642,-1.622371 0.261875,-2.128766 0.890735,-2.726256 0.160599,-0.152587 0.404769,-0.343168 0.542602,-0.423508 0.486791,-0.28375 1.179763,-0.493419 1.630778,-0.493419 h 0.201344 l -0.02594,0.668563 c -0.01427,0.367709 -0.04288,0.930174 -0.06358,1.249922 -0.0207,0.319747 -0.06424,1.095861 -0.09676,1.724698 -0.03253,0.628837 -0.07641,1.431112 -0.09754,1.782834 -0.02112,0.351723 -0.05715,1.005752 -0.08007,1.453398 -0.02292,0.447646 -0.06269,1.217172 -0.08839,1.710056 l -0.04673,0.896157 -0.145072,0.293536 c -0.219587,0.444302 -0.572394,0.702607 -1.089893,0.797954 -0.277425,0.05112 -0.365322,0.04969 -0.642065,-0.01043 z m 5.413189,0.0087 c -0.603404,-0.08977 -1.040473,-0.437441 -1.227493,-0.976427 -0.06128,-0.176609 -0.06579,-0.271336 -0.03821,-0.801031 0.01721,-0.330406 0.05088,-0.975714 0.07483,-1.434019 0.115276,-2.206738 0.17797,-2.792345 0.37464,-3.499475 0.522769,-1.879611 1.805228,-3.314537 3.464558,-3.876444 0.766003,-0.259399 1.272223,-0.336847 2.199491,-0.336522 1.171175,4.27e-4 1.973388,0.179559 2.800197,0.625322 0.800903,0.431794 1.482253,1.139456 1.897863,1.971159 0.50855,1.017685 0.69403,2.119112 0.62004,3.681941 -0.14412,3.044023 -0.18852,3.602519 -0.30443,3.829028 -0.11491,0.224556 -0.33002,0.45622 -0.53537,0.576561 -0.85295,0.499864 -1.943203,0.201925 -2.326745,-0.63584 -0.09608,-0.209875 -0.09834,-0.23304 -0.07441,-0.762557 0.05049,-1.117039 0.101098,-2.077599 0.145437,-2.760413 0.1054,-1.623282 -0.05823,-2.440568 -0.607396,-3.033733 -0.250969,-0.271076 -0.559601,-0.442371 -0.991749,-0.550438 -0.273254,-0.06833 -0.403781,-0.07798 -0.846307,-0.06256 -0.306225,0.01067 -0.619667,0.04453 -0.755767,0.08162 -0.69596,0.189698 -1.265239,0.658482 -1.584292,1.30462 -0.330941,0.670214 -0.373663,0.955817 -0.489667,3.273315 -0.111331,2.224175 -0.128461,2.350768 -0.370221,2.735628 -0.272189,0.433294 -0.914188,0.726253 -1.424997,0.650257 z M 52.193146,65.375169 c -0.176989,-0.02744 -0.330049,-0.05814 -0.340134,-0.06822 -0.01008,-0.01009 0.112706,-0.116962 0.272863,-0.237509 1.289536,-0.970582 2.607837,-2.261447 3.567292,-3.493053 0.544153,-0.698499 1.323798,-1.923294 1.27477,-2.002623 -0.01148,-0.01858 -0.128624,0.06006 -0.260314,0.174745 -0.305124,0.265736 -0.999174,0.776615 -1.595942,1.174753 -1.472753,0.982562 -3.029385,1.768703 -4.39895,2.221593 -0.803923,0.265844 -0.775212,0.261821 -0.77484,0.108525 5.43e-4,-0.231846 0.187985,-1.032793 0.367121,-1.568883 0.588622,-1.761541 1.710633,-3.212629 3.200912,-4.13971 1.152758,-0.717114 2.794252,-1.17297 4.814366,-1.33699 0.59106,-0.04799 2.138642,-0.07145 2.177178,-0.033 0.04206,0.04196 -0.169067,1.283423 -0.327026,1.922957 -0.216921,0.878259 -0.387046,1.415753 -0.677086,2.139207 -0.892483,2.22614 -2.206598,3.815084 -3.800316,4.595105 -0.614927,0.300966 -0.989005,0.426601 -1.563833,0.525211 -0.515685,0.08847 -1.426593,0.09689 -1.936061,0.0179 z m -8.379209,-0.452223 c -0.120085,-0.04761 -0.139795,-0.06254 -0.174714,-0.08371 -0.02839,-0.01721 -0.147873,-0.07352 -0.254065,-0.126817 -1.429309,-0.717296 -3.240767,-2.304667 -4.596105,-3.973939 -1.000302,-1.232004 -1.573204,-2.602806 -1.852725,-4.433087 -0.22587,-1.478958 -0.145731,-3.487716 0.211107,-5.291658 0.129538,-0.654874 0.374752,-1.627999 0.422377,-1.676205 0.03677,-0.03722 0.823126,0.124163 1.476981,0.303124 1.960234,0.536513 3.963931,1.457103 5.496978,2.52556 0.999015,0.696266 2.14973,1.753607 2.81977,2.590966 1.135774,1.419395 1.685701,2.766059 1.748026,4.2806 0.04566,1.109543 -0.202123,2.192247 -0.758677,3.315088 -0.256942,0.518374 -0.770328,1.357872 -0.807597,1.320603 -0.0098,-0.0098 -0.05107,-0.215316 -0.09172,-0.456711 -0.174265,-1.034947 -0.564508,-2.314697 -1.022351,-3.352663 -0.28425,-0.644413 -0.934988,-1.852276 -1.280409,-2.376607 -0.696778,-1.057682 -1.560933,-1.964102 -2.538356,-2.662497 -0.377488,-0.269723 -0.960902,-0.614062 -0.990411,-0.584552 -0.01096,0.01096 0.131751,0.201006 0.317143,0.422322 0.748964,0.894119 1.155354,1.508355 1.546291,2.337164 0.436279,0.924938 0.786156,2.085253 0.954649,3.165953 0.116939,0.750043 0.128682,2.449006 0.02153,3.114197 -0.125171,0.777033 -0.377271,1.690534 -0.464758,1.684069 -0.02603,-0.0019 -0.108361,-0.02046 -0.182969,-0.0412 z M 86.347628,53.441454 c -0.438368,-0.08391 -0.433167,-0.08056 -0.484896,-0.311702 -0.07686,-0.343467 -0.02679,-1.172775 0.0956,-1.583296 0.358536,-1.202607 1.139495,-1.963734 2.472633,-2.409826 0.412947,-0.138182 1.231903,-0.330766 1.406567,-0.330766 h 0.09755 v 0.463102 c 0,0.254705 -0.02604,0.660203 -0.05786,0.901107 -0.223462,1.691448 -0.987674,2.817998 -2.164919,3.19137 -0.381956,0.12114 -0.969745,0.155603 -1.364674,0.08001 z"
       id="path3943" />
  </g>
</svg>
