<?xml version="1.0" encoding="UTF-8" standalone="no"?>
<!-- Created with Inkscape (http://www.inkscape.org/) -->

<svg
   width="160mm"
   height="535mm"
   viewBox="0 0 160 534.99997"
   version="1.1"
   id="svg5800"
   xmlns="http://www.w3.org/2000/svg"
   xmlns:svg="http://www.w3.org/2000/svg">
  <defs
     id="defs5797" />
  <path
     style="fill:#ffffff;fill-opacity:1;stroke-width:0.352778"
     d="m 66.15866,516.55329 c -31.002305,-2.50271 -47.677001,-17.98602 -51.410188,-47.737 -0.590798,-4.70825 -0.624534,-15.55338 -0.624534,-200.76877 0,-205.60785 -0.04631,-199.01231 1.452759,-206.90416 0.276419,-1.455209 0.893137,-4.074584 1.370484,-5.820834 5.355276,-19.590868 19.342078,-31.750677 40.744812,-35.422614 10.253112,-1.759066 31.810018,-1.863012 42.821057,-0.206484 23.76881,3.575844 38.6285,17.417115 43.21976,40.25768 1.70309,8.472552 1.62446,-1.592724 1.62446,207.920032 0,189.36359 -0.0253,197.21159 -0.64919,201.78889 -3.78486,27.76601 -18.76909,42.68889 -46.623032,46.43222 -4.728845,0.63549 -25.966134,0.9422 -31.926388,0.46104 z m 30.868055,-7.89026 c 7.638875,-1.0002 13.364275,-2.61168 18.364715,-5.16893 12.49699,-6.39103 19.29003,-17.09346 21.92296,-34.53963 0.57437,-3.80584 0.61951,-16.01195 0.7293,-197.20278 0.0811,-133.9146 0.002,-194.901898 -0.25836,-198.872154 C 136.60337,54.849645 131.539,43.335402 121.42853,35.69106 116.01814,31.600359 108.79577,28.696112 100.48032,27.267397 92.361419,25.872454 74.343217,25.543894 64.041993,26.602951 41.147534,28.956702 27.543806,40.32123 23.29414,60.643632 c -1.843225,8.81452 -1.718896,-4.757818 -1.849826,201.935838 -0.08088,127.68619 -7.05e-4,193.37412 0.241759,198.10102 0.599192,11.68079 2.100325,18.50175 5.665197,25.74191 3.893439,7.90752 9.258484,13.2763 17.111557,17.12359 6.605467,3.23606 13.959543,5.00306 23.445417,5.63333 6.290683,0.41797 24.441075,0.0962 29.118471,-0.51629 z"
     id="path5649" />
</svg>
