<?xml version="1.0" encoding="UTF-8" standalone="no"?>
<!-- Created with Inkscape (http://www.inkscape.org/) -->

<svg
   width="160mm"
   height="160mm"
   viewBox="0 0 160 159.99999"
   version="1.1"
   id="svg5800"
   xmlns="http://www.w3.org/2000/svg"
   xmlns:svg="http://www.w3.org/2000/svg">
  <defs
     id="defs5797" />
  <g
     id="layer1"
     transform="translate(158.32051,-20.958313)">
    <path
       style="fill:#ffffff;stroke-width:0.130365;fill-opacity:1"
       d="m -130.0838,156.21314 c -0.0271,-0.0717 -0.0343,-23.53742 -0.016,-52.14604 l 0.0333,-52.015686 9.50843,-0.03345 c 7.52049,-0.02646 9.53018,7.83e-4 9.61243,0.130366 0.0572,0.0901 0.10491,23.52341 0.106,52.07403 0.002,41.38893 -0.031,51.93076 -0.16096,52.01157 -0.25081,0.15601 -19.02407,0.13556 -19.08325,-0.0208 z m 66.047286,-26.08948 c -16.118506,-1.44192 -29.90669,-12.96471 -34.221249,-28.59868 -3.303887,-11.971751 -0.62117,-25.00746 7.144904,-34.718191 5.338016,-6.674677 12.827496,-11.534008 20.899223,-13.559852 9.047833,-2.270826 18.175478,-1.37823 26.481302,2.58962 10.802662,5.160635 18.690464,15.113649 21.330913,26.915842 0.841214,3.760026 1.113552,9.010342 0.666114,12.841763 -1.34197,11.491298 -7.551724,21.667308 -17.140739,28.088768 -4.820976,3.22845 -10.076308,5.2602 -16.03491,6.19922 -1.321129,0.2082 -7.631166,0.3752 -9.125558,0.24151 z"
       id="path9642" />
  </g>
</svg>
