<?xml version="1.0" encoding="UTF-8" standalone="no"?>
<!-- Created with Inkscape (http://www.inkscape.org/) -->

<svg
   width="469.52631mm"
   height="117.36755mm"
   viewBox="0 0 469.52631 117.36755"
   version="1.1"
   id="svg5800"
   xmlns="http://www.w3.org/2000/svg"
   xmlns:svg="http://www.w3.org/2000/svg">
  <defs
     id="defs5797" />
  <g
     id="layer1"
     transform="translate(158.32051,-20.958313)">
    <path
       style="fill:#ffffff;fill-opacity:1;stroke-width:0.219925"
       d="m 183.63867,110.72482 c -5.92514,-1.06504 -11.05864,-3.69139 -15.07945,-7.71475 -10.87749,-10.8844 -11.09148,-29.817399 -0.4627,-40.942401 4.56123,-4.774205 10.13913,-7.487021 17.29328,-8.410618 3.29638,-0.425561 4.53977,-0.425295 7.889,0.0017 3.07802,0.392414 5.07615,0.90373 7.79258,1.994111 9.11326,3.658054 15.38137,11.887177 16.983,22.296212 0.31821,2.068197 0.27141,7.065307 -0.0865,9.236831 -1.04552,6.342675 -3.59198,11.403485 -7.92254,15.745085 -4.35,4.36108 -9.11168,6.77894 -15.50327,7.87213 -2.81202,0.48095 -7.99934,0.4437 -10.90336,-0.0783 z m 8.01372,-11.45607 c 5.5748,-0.90451 9.89967,-4.41537 12.10023,-9.82281 1.72843,-4.247254 1.8069,-9.537013 0.20503,-13.823745 -1.66995,-4.469005 -4.9744,-7.906725 -9.05875,-9.42413 -5.32337,-1.977709 -11.65332,-0.896964 -15.63457,2.669361 -8.91132,7.982607 -7.0912,24.013424 3.29889,29.054944 2.75979,1.33912 6.09186,1.83269 9.08917,1.34638 z m -320.30684,10.07455 c -0.0657,-0.27216 -0.0923,-12.61817 -0.0592,-27.435585 l 0.0603,-26.940756 12.7476,-0.05679 c 11.98667,-0.0534 12.86623,-0.03092 14.73495,0.376582 7.496797,1.634787 12.872679,6.719933 14.890595,14.085263 0.442065,1.613513 0.511176,2.365999 0.504992,5.498114 -0.0075,3.77417 -0.134843,4.535541 -1.251149,7.477434 -1.189531,3.134866 -4.166735,6.976048 -6.768931,8.733268 -1.65319,1.11637 -3.962807,2.196 -6.047927,2.82713 -1.93524,0.58576 -2.13488,0.60135 -8.96194,0.7 l -6.9826,0.10091 v 7.56463 7.56463 h -6.37363 -6.37362 z m 23.15511,-25.56854 c 1.86098,-0.438754 2.98969,-1.048143 4.20812,-2.271946 2.77806,-2.790337 3.4391,-7.783747 1.52668,-11.532383 -0.77732,-1.523684 -2.7667,-3.297656 -4.38689,-3.911897 -1.34424,-0.509625 -1.64508,-0.534502 -6.46808,-0.534841 l -5.05826,-4.4e-4 -0.0575,9.016693 c -0.0316,4.959182 -0.01,9.140497 0.0481,9.291812 0.1609,0.419317 8.3621,0.373366 10.18785,-0.05708 z m 30.837507,25.87887 c 0,-0.10493 0.253696,-0.87332 0.563767,-1.70755 0.31007,-0.83423 0.694869,-1.91264 0.855116,-2.39647 0.160241,-0.48384 1.003943,-2.85902 1.874882,-5.2782 1.503068,-4.175 2.219513,-6.18116 4.947984,-13.855242 1.453651,-4.088505 2.907114,-8.153759 4.953726,-13.855246 2.442638,-6.804747 3.674791,-10.264101 4.954405,-13.909827 0.647366,-1.844395 1.238301,-3.452593 1.313197,-3.573774 0.08546,-0.138284 2.331278,-0.220325 6.031274,-0.220325 h 5.895104 l 0.345006,0.93468 c 0.18976,0.514073 1.397127,3.854177 2.683043,7.422453 1.285923,3.568276 3.162388,8.763993 4.16994,11.546039 2.136775,5.90008 5.022912,13.884124 7.711509,21.332682 1.047854,2.903 2.539319,7.01714 3.314366,9.14253 0.775047,2.12539 1.409178,4.03049 1.409178,4.23355 0,0.33783 -0.587971,0.3692 -6.919537,0.3692 h -6.919537 l -1.049315,-3.29886 -1.049314,-3.29887 h -9.632011 c -7.51195,0 -9.651437,0.0605 -9.72023,0.2749 -0.0485,0.1512 -0.515503,1.61095 -1.037744,3.24389 l -0.949526,2.96898 -6.872638,0.0581 c -3.779955,0.032 -6.872645,-0.0277 -6.872645,-0.13266 z m 31.609437,-17.35448 c -0.06028,-0.33264 -0.458847,-1.79239 -0.88567,-3.24389 -0.426829,-1.451499 -1.125732,-3.826684 -1.553128,-5.278187 -1.908059,-6.48012 -2.364811,-8.048169 -2.930791,-10.061547 -0.331522,-1.179345 -0.658606,-2.144264 -0.72685,-2.144264 -0.06825,0 -1.002509,2.94424 -2.076143,6.542755 -1.073627,3.598515 -2.481108,8.299739 -3.127732,10.447161 -0.64663,2.147422 -1.175686,4.003042 -1.175686,4.123582 0,0.14052 2.258502,0.21918 6.292813,0.21918 h 6.292807 z m 40.4719008,-4.288529 -0.05605,-21.82751 -6.1029063,-0.05846 -6.1029065,-0.05846 V 60.461593 54.856996 H 3.9611905 22.764739 v 5.608077 5.608075 h -6.157886 -6.157888 v 21.534618 c 0,11.844044 -0.06007,21.691164 -0.133492,21.882494 -0.117464,0.3061 -0.8962834,0.34787 -6.4867075,0.34787 H -2.5244452 Z M 42.118103,82.350885 V 54.856996 h 12.820901 c 11.929266,0 12.957838,0.03005 14.789926,0.432078 7.490274,1.643645 12.778689,6.65876 14.850378,14.082942 0.455948,1.633917 0.51999,2.326393 0.508488,5.498114 -0.01188,3.299658 -0.06756,3.808261 -0.613106,5.608076 -1.456736,4.805742 -4.561081,8.878624 -8.476331,11.120914 -0.725092,0.41525 -1.321285,0.83292 -1.324892,0.92814 -0.0053,0.13933 3.993478,6.56083 6.26035,10.05336 2.221985,3.4234 4.289496,6.8011 4.289496,7.00775 0,0.18143 -2.016862,0.24976 -7.372112,0.24976 h -7.372126 l -1.818563,-2.80403 c -1.000208,-1.54223 -3.186355,-4.95655 -4.858102,-7.58741 l -3.039542,-4.78335 h -2.831723 -2.831719 l -0.05787,7.53242 -0.05787,7.53241 -6.432793,0.0583 -6.432793,0.0583 z m 23.317655,1.409906 c 3.974972,-0.904088 6.64488,-4.523031 6.630262,-8.987021 -0.01315,-4.015988 -1.892992,-7.110702 -5.242731,-8.630917 -1.266603,-0.574826 -1.350159,-0.582609 -6.45145,-0.600941 l -5.168226,-0.01858 -0.0575,9.016693 c -0.03162,4.959182 -0.01,9.140497 0.04808,9.291812 0.166376,0.433565 8.270111,0.377346 10.241561,-0.07105 z m 41.001772,25.802439 c -0.0576,-0.1512 -0.0792,-12.49722 -0.0481,-27.435591 l 0.0566,-27.16068 16.77322,-0.05636 16.77324,-0.05636 -0.059,5.224583 -0.059,5.224582 -10.28147,0.05715 -10.28148,0.05715 v 5.933613 5.933612 l 10.28148,0.05715 10.28147,0.05715 0.059,5.113245 0.059,5.113246 h -10.34052 -10.3405 v 5.82583 5.82582 l 10.28148,0.0572 10.28147,0.0572 0.059,5.22321 0.059,5.22321 h -16.72516 c -13.17768,0 -16.74734,-0.0583 -16.82978,-0.27491 z M 239.0594,109.3433 c -0.0657,-0.27216 -0.0924,-12.61817 -0.0592,-27.435585 l 0.0603,-26.940756 6.71039,-0.05808 6.7104,-0.05808 1.30651,2.367292 c 0.71858,1.30201 2.16109,3.901265 3.20558,5.776122 1.04448,1.874856 2.22411,4.002626 2.62136,4.728378 0.39727,0.725751 0.89589,1.616445 1.10805,1.97932 0.21218,0.362876 0.62861,1.105121 0.92544,1.649434 0.29681,0.544314 2.70899,4.89882 5.36035,9.67668 l 4.82068,8.687025 0.0563,-17.432344 0.0563,-17.432341 6.43147,0.0583 6.43147,0.0583 0.0603,26.940756 c 0.0332,14.817409 0.007,27.163419 -0.0592,27.435579 l -0.11946,0.49483 h -6.56661 c -4.98822,0 -6.62002,-0.0661 -6.78874,-0.2749 -0.12217,-0.1512 -2.32531,-4.03562 -4.89586,-8.63204 -2.57056,-4.59642 -5.78621,-10.33645 -7.1459,-12.755619 -3.26367,-5.806778 -3.09097,-5.498296 -5.31462,-9.492916 l -1.93869,-3.482633 -0.0563,17.319058 -0.0563,17.31905 h -6.3723 -6.37229 z"
       id="path8859" />
  </g>
</svg>
