<?xml version="1.0" encoding="UTF-8" standalone="no"?>
<!-- Created with Inkscape (http://www.inkscape.org/) -->

<svg
   width="160mm"
   height="160mm"
   viewBox="0 0 160 159.99999"
   version="1.1"
   id="svg5800"
   xmlns="http://www.w3.org/2000/svg"
   xmlns:svg="http://www.w3.org/2000/svg">
  <defs
     id="defs5797" />
  <g
     id="layer1"
     transform="translate(158.32051,-20.958313)">
    <path
       style="fill:#ffffff;stroke-width:0.167239;fill-opacity:1"
       d="m -99.967361,145.26404 c -3.118449,-0.62594 -5.886819,-2.752 -7.290289,-5.59883 -1.22933,-2.49359 -1.14947,0.14971 -1.14947,-38.04688 0,-38.298087 -0.0858,-35.541239 1.18586,-38.120784 1.77134,-3.593259 5.7746,-5.90584 9.762485,-5.63954 2.782824,0.185829 5.214809,1.346747 7.075756,3.377642 1.211643,1.322296 1.944336,2.66564 2.377356,4.358731 0.323795,1.266028 0.330371,1.983075 0.330371,36.023951 0,34.04088 -0.0066,34.75793 -0.330371,36.02395 -0.490049,1.91608 -1.221597,3.16736 -2.757444,4.71649 -1.524256,1.53744 -3.086836,2.41202 -5.054289,2.8289 -1.224877,0.25953 -3.068396,0.29346 -4.149965,0.0764 z m 41.085233,-0.0744 c -2.822066,-0.64222 -5.720829,-2.91927 -6.938073,-5.45002 -1.195242,-2.48502 -1.112556,0.34323 -1.112077,-38.03766 5.01e-4,-38.297476 -0.0716,-35.785452 1.094484,-38.145419 1.589762,-3.217429 4.985816,-5.452299 8.656917,-5.696932 4.016566,-0.267654 8.012074,2.033465 9.789355,5.637947 1.284675,2.605437 1.200481,-0.22114 1.151638,38.662914 -0.04375,34.82893 -0.04375,34.82893 -0.514205,36.16684 -1.123218,3.19428 -3.498943,5.55804 -6.637204,6.60377 -1.415277,0.4716 -4.016467,0.59409 -5.490835,0.25856 z"
       id="path11457" />
  </g>
</svg>
