<?xml version="1.0" encoding="UTF-8" standalone="no"?>
<!-- Created with Inkscape (http://www.inkscape.org/) -->

<svg
   width="160mm"
   height="160mm"
   viewBox="0 0 160 159.99999"
   version="1.1"
   id="svg5800"
   xmlns="http://www.w3.org/2000/svg"
   xmlns:svg="http://www.w3.org/2000/svg">
  <defs
     id="defs5797" />
  <path
     style="fill:#ffffff;stroke-width:0.173989;fill-opacity:1"
     d="m 51.597885,122.67012 c -2.605227,-0.65977 -4.955698,-2.62496 -6.190275,-5.17559 -0.389445,-0.80459 -0.883689,-2.12153 -1.09832,-2.92654 l -0.390238,-1.46364 V 80.307474 47.510598 l 0.389716,-1.478904 c 1.139832,-4.325474 3.693282,-7.169602 7.258846,-8.085178 2.655923,-0.681994 6.170149,-0.111379 9.431717,1.53146 2.397382,1.207549 53.221439,30.614849 54.360399,31.453459 1.70116,1.252563 3.62261,3.352511 4.36027,4.765338 0.87281,1.671703 1.21654,2.974415 1.21654,4.610701 0,2.756142 -1.04273,5.018065 -3.41645,7.411085 -0.86334,0.870354 -2.03947,1.895952 -2.61364,2.279104 -2.02647,1.352314 -53.433233,30.925507 -54.764963,31.505097 -2.212079,0.96273 -3.51415,1.27724 -5.609122,1.35489 -1.329627,0.0493 -2.225436,-0.008 -2.93448,-0.18753 z"
     id="path1059" />
</svg>
