<?xml version="1.0" encoding="UTF-8" standalone="no"?>
<!-- Created with Inkscape (http://www.inkscape.org/) -->

<svg
   width="160mm"
   height="160mm"
   viewBox="0 0 160 159.99999"
   version="1.1"
   id="svg5800"
   xmlns="http://www.w3.org/2000/svg"
   xmlns:svg="http://www.w3.org/2000/svg">
  <defs
     id="defs5797" />
  <path
     style="fill:#ffffff;fill-opacity:1;stroke-width:0.155158"
     d="m 60.191265,124.30516 c 1.791005,-0.62282 2.391674,-0.91362 3.30374,-1.59944 1.129273,-0.84916 1.993021,-1.88647 2.610331,-3.13486 0.580761,-1.17448 0.721886,-1.80254 0.793372,-3.53083 0.07256,-1.75427 -0.06382,-2.41592 -0.848732,-4.11776 -0.523368,-1.13476 -0.791722,-1.41918 -10.796629,-11.44287 L 44.993427,90.200216 h 45.585018 45.585025 l 1.33581,-0.328845 c 0.73469,-0.180864 1.58492,-0.471553 1.88938,-0.645977 0.30446,-0.174422 0.75578,-0.420661 1.00293,-0.547197 0.68558,-0.35101 2.1947,-1.933224 2.72202,-2.853862 1.26917,-2.215837 1.55692,-5.064655 0.72871,-7.214638 -0.6089,-1.580655 -1.46702,-2.830444 -2.57858,-3.755495 -1.20538,-1.003124 -2.17964,-1.498932 -3.6966,-1.881232 -1.1674,-0.294204 -2.19394,-0.300841 -46.884678,-0.303172 l -45.691145,-0.0024 10.09512,-10.124029 c 6.14173,-6.159307 10.293344,-10.442023 10.60131,-10.936069 1.614615,-2.590204 1.700695,-5.916668 0.226087,-8.736804 -0.209645,-0.400937 -0.769105,-1.157658 -1.243244,-1.6816 -3.059382,-3.380725 -8.397483,-3.753049 -11.840363,-0.825846 -0.97544,0.829339 -34.92493,34.797858 -35.6815,35.701503 -0.34887,0.416682 -0.6343,0.806956 -0.6343,0.867277 0,0.06032 -0.12743,0.295004 -0.28317,0.521518 -0.55725,0.81047 -0.9582,2.432043 -0.95625,3.867359 0.002,1.556192 0.23694,2.57354 0.93271,4.040772 0.46164,0.973486 1.62102,2.166104 18.82428,19.363831 16.99386,16.9884 18.40597,18.36139 19.34086,18.80497 0.55469,0.26318 1.32272,0.56294 1.70673,0.66612 0.91515,0.24589 3.519262,0.31477 4.111678,0.10876 z"
     id="path4865" />
</svg>
