<?xml version="1.0" encoding="UTF-8" standalone="no"?>
<!-- Created with Inkscape (http://www.inkscape.org/) -->

<svg
   width="160mm"
   height="160mm"
   viewBox="0 0 160 159.99999"
   version="1.1"
   id="svg5800"
   xmlns="http://www.w3.org/2000/svg"
   xmlns:svg="http://www.w3.org/2000/svg">
  <defs
     id="defs5797" />
  <path
     style="fill:#ffffff;fill-opacity:1;stroke-width:0.152555"
     d="m 76.809049,134.09758 c -4.030258,-0.46364 -6.838099,-0.92679 -8.848206,-1.45951 -0.503432,-0.13342 -1.121281,-0.29589 -1.372997,-0.36105 -0.523405,-0.13547 -1.533612,-0.45794 -1.983219,-0.63305 -0.167811,-0.0654 -0.854309,-0.30418 -1.525552,-0.53071 -2.438844,-0.82305 -5.862279,-2.36571 -8.390541,-3.78091 -9.044518,-5.0627 -16.661667,-13.0107 -21.079987,-21.99561 -0.371343,-0.75515 -0.73309,-1.4808 -0.803882,-1.61255 -0.217449,-0.40472 -1.275373,-3.06821 -1.843852,-4.642209 -0.800134,-2.215397 -1.815311,-6.647914 -2.201198,-9.610983 -0.550697,-4.228578 -0.447514,-10.071142 0.24787,-14.035085 0.08832,-0.503432 0.211342,-1.258581 0.273393,-1.678108 0.129766,-0.877366 0.686436,-3.187616 1.010875,-4.19527 0.12157,-0.377574 0.42081,-1.306832 0.664978,-2.065017 0.244169,-0.758186 0.527455,-1.581984 0.629527,-1.830663 0.341086,-0.830995 0.557817,-1.363194 0.77065,-1.892403 0.116111,-0.288707 0.669177,-1.455755 1.229037,-2.593439 4.449508,-9.041802 12.074831,-17.015324 21.044547,-22.005517 2.498289,-1.389893 4.137445,-2.170915 6.946639,-3.309922 1.934555,-0.784378 7.623981,-2.458639 8.354879,-2.458639 0.205467,0 0.541567,-0.06387 0.746885,-0.141931 0.638649,-0.242813 2.847303,-0.549714 6.664098,-0.926 2.153853,-0.212341 7.816898,-0.126241 9.916092,0.150763 3.549357,0.468363 7.545651,1.266171 9.534705,1.903478 0.335622,0.107536 0.884821,0.278494 1.220442,0.379908 1.162265,0.351196 2.861268,0.993286 4.256468,1.60861 0.28537,0.125858 0.56229,0.228833 0.61536,0.228833 0.2122,0 4.95559,2.37292 5.88332,2.943179 3.0123,1.8516 5.23959,3.420407 7.2357,5.096493 0.32975,0.276884 0.66708,0.503424 0.74963,0.503424 0.0825,0 0.60222,-0.398209 1.15484,-0.88491 0.55262,-0.486701 1.31199,-1.121713 1.68749,-1.411136 0.3755,-0.289425 0.78284,-0.619739 0.9052,-0.734032 0.38409,-0.358772 4.75283,-4.039689 5.41157,-4.559561 1.42218,-1.122374 2.69428,-1.477001 4.12663,-1.150398 1.51731,0.345976 2.41817,1.017791 3.03778,2.265429 l 0.37435,0.753785 0.0535,16.628525 0.0535,16.628524 -0.44629,0.881291 c -1.13585,2.242997 -3.43919,3.618881 -5.71446,3.413503 -0.55514,-0.05011 -1.69584,-0.196993 -2.5349,-0.326408 -0.83905,-0.129415 -2.04042,-0.297234 -2.66972,-0.372934 -0.62929,-0.0757 -1.59038,-0.207684 -2.13577,-0.2933 -0.54538,-0.08561 -1.54081,-0.23291 -2.21205,-0.327324 -0.67124,-0.09441 -1.66667,-0.241141 -2.21205,-0.326061 -0.54539,-0.08492 -1.47216,-0.215351 -2.0595,-0.289844 -0.58734,-0.07449 -1.78871,-0.244221 -2.66972,-0.377176 -0.881,-0.132954 -2.08237,-0.303916 -2.66971,-0.379916 -0.58734,-0.076 -1.75439,-0.240696 -2.59344,-0.365991 -2.2064,-0.32948 -2.41409,-0.359286 -4.34783,-0.623966 -5.264786,-0.72062 -6.902688,-1.006295 -7.491344,-1.306604 -0.881252,-0.449581 -1.427339,-0.984944 -1.864852,-1.828233 -0.33241,-0.640707 -0.407341,-0.989791 -0.407341,-1.897704 0,-1.997798 0.328624,-2.424685 4.387929,-5.699973 0.347411,-0.280313 0.765257,-0.623562 0.928544,-0.762776 0.163288,-0.139215 1.707364,-1.420166 3.431284,-2.846558 1.72391,-1.426392 3.17376,-2.687954 3.22188,-2.80347 0.12624,-0.303047 -0.0554,-0.471582 -1.71072,-1.587266 -1.70418,-1.148618 -4.436874,-2.604078 -6.216202,-3.310817 -1.983387,-0.78779 -2.258313,-0.890282 -2.89855,-1.080578 -0.335622,-0.09976 -0.777872,-0.245782 -0.982778,-0.324502 -0.204908,-0.07872 -0.651132,-0.203552 -0.99161,-0.277405 -0.340479,-0.07385 -1.133926,-0.246246 -1.763217,-0.383095 -4.409738,-0.958974 -9.965191,-1.008543 -14.569028,-0.129994 -2.003701,0.382364 -4.365765,1.026446 -5.797101,1.580738 -7.706419,2.984347 -13.398932,7.474978 -17.794158,14.037212 -0.989799,1.477804 -2.625299,4.617276 -3.258405,6.254766 -0.145983,0.377574 -0.32061,0.823798 -0.388061,0.991609 -0.06745,0.167811 -0.237903,0.71701 -0.37878,1.220442 -0.140877,0.503433 -0.317716,1.086957 -0.392976,1.29672 -0.155236,0.432671 -0.342549,1.297187 -0.710659,3.279938 -0.197294,1.062682 -0.255635,2.303944 -0.258136,5.49199 -0.0036,4.618262 0.06355,5.176246 1.12935,9.38215 0.347295,1.3705 0.854333,2.694243 1.858668,4.852502 0.324394,0.697098 0.589805,1.296577 0.589805,1.332171 0,0.05211 0.581644,1.056285 1.339205,2.312045 0.247177,0.40973 1.624431,2.41646 1.707046,2.48726 0.04896,0.0419 0.326796,0.3852 0.617417,0.76277 2.690822,3.49592 6.447683,6.66619 10.749643,9.07121 1.631749,0.91224 5.630319,2.67555 6.067193,2.67555 0.118889,0 0.265254,0.0491 0.325255,0.1091 0.264916,0.26491 4.569842,1.25846 6.883023,1.58855 1.78906,0.2553 8.023188,0.25195 9.458427,-0.005 0.587338,-0.10518 1.651411,-0.29577 2.364607,-0.42353 0.713195,-0.12775 1.468344,-0.2862 1.678108,-0.3521 0.209763,-0.0659 0.827612,-0.23918 1.372997,-0.38506 1.019277,-0.27264 2.131521,-0.62257 2.669717,-0.83994 0.167811,-0.0678 0.819985,-0.33074 1.449275,-0.58437 6.123995,-2.46823 11.455165,-6.76881 15.757125,-12.71106 1.34989,-1.86457 2.07697,-2.620586 3.35793,-3.463067 1.19526,-0.786119 3.38421,-1.908876 6.58668,-1.159248 3.32363,0.77799 5.19992,3.157065 6.04661,4.939905 1.042,2.1941 0.81173,4.43774 -0.70426,6.86199 -2.16141,3.45636 -5.56231,7.52235 -8.69879,10.39995 -1.94123,1.781 -6.6741,5.48239 -7.0102,5.48239 -0.055,0 -0.31845,0.15463 -0.58555,0.34363 -0.62311,0.44092 -1.01974,0.68807 -1.40096,0.87297 -0.16781,0.0814 -0.78566,0.42511 -1.37299,0.76382 -2.2186,1.27941 -5.74288,2.86088 -8.161712,3.66244 -0.545386,0.18073 -1.12891,0.38661 -1.296721,0.45752 -0.16781,0.0709 -0.476735,0.17067 -0.686498,0.22171 -0.209764,0.051 -0.758963,0.20054 -1.220443,0.33222 -2.336715,0.66677 -5.305768,1.2594 -8.69565,1.73565 -1.553768,0.2183 -9.246882,0.33081 -10.755147,0.1573 z"
     id="path1695" />
</svg>
