<?xml version="1.0" encoding="UTF-8" standalone="no"?>
<!-- Created with Inkscape (http://www.inkscape.org/) -->

<svg
   width="512mm"
   height="512mm"
   viewBox="0 0 512 512"
   version="1.1"
   id="svg5"
   xmlns="http://www.w3.org/2000/svg"
   xmlns:svg="http://www.w3.org/2000/svg">
  <defs
     id="defs2" />
  <g
     id="layer1"
     transform="translate(-10.571746,-31.715239)"
     style="display:inline">
    <path
       style="fill:#65ffa0;fill-opacity:1;stroke-width:0.250576"
       d="m 309.04126,223.7906 c -2.3301,-0.35703 -2.63104,-0.46571 -2.63104,-0.95011 0,-0.48168 1.02535,-1.5338 2.63084,-2.69954 0.55114,-0.40019 1.2277,-0.93654 1.50345,-1.19189 0.27574,-0.25535 1.62895,-1.4573 3.00711,-2.67098 1.37817,-1.2137 3.57697,-3.41863 4.88623,-4.89985 1.30926,-1.48122 2.49483,-2.81636 2.63463,-2.96697 0.38744,-0.41743 2.72032,-3.64512 3.50685,-4.85193 0.82335,-1.2633 0.65341,-1.66665 -0.3182,-0.75529 -1.74566,1.6374 -8.70851,6.01404 -12.97296,8.15443 -4.75725,2.38773 -11.05407,4.71032 -12.07534,4.45399 -0.77405,-0.19427 -0.93545,-1.07367 -0.56535,-3.08064 0.8065,-4.37362 3.05738,-9.68369 5.69075,-13.42513 6.43599,-9.14413 16.38021,-13.48609 31.77663,-13.8747 6.31253,-0.15933 6.37911,-0.14094 6.37723,1.76176 -0.003,1.4447 -1.3259,7.74299 -2.27102,10.79944 -2.06469,6.67707 -5.45458,13.16608 -8.81846,16.8806 -2.33238,2.57551 -6.39346,5.80509 -8.83026,7.02229 -3.86368,1.92994 -9.58199,2.89962 -13.53109,2.29452 z m -34.70473,-2.16398 c -2.52646,-0.8569 -7.41506,-3.96718 -11.15062,-7.09435 -1.74884,-1.46401 -7.08135,-6.80891 -8.78531,-8.80571 -4.48093,-5.25104 -7.03971,-10.87275 -8.42602,-18.5122 -0.74908,-4.12791 -0.75163,-13.13717 -0.005,-18.16674 0.91504,-6.16522 2.00914,-10.5526 2.81294,-11.28004 0.59826,-0.54141 1.97519,-0.41863 5.5081,0.49117 11.96604,3.08151 23.14327,9.13088 30.8501,16.69676 6.46263,6.34441 9.64268,11.63162 10.99895,18.28695 1.42144,6.97511 -0.38037,15.03665 -4.8413,21.66051 -1.12208,1.66613 -1.3595,1.88911 -1.82241,1.71148 -0.43736,-0.16783 -0.58429,-0.60584 -1.12068,-3.34022 -0.70592,-3.59865 -0.85681,-4.19694 -1.67542,-6.6435 -3.20972,-9.59266 -7.5065,-16.71279 -13.56469,-22.47797 -2.04416,-1.94526 -4.25313,-3.70394 -4.65232,-3.70394 -0.0801,0 0.4056,0.76112 1.07928,1.69138 1.97077,2.72144 3.79479,5.92844 4.81,8.45693 0.11068,0.27564 0.36454,0.89581 0.56417,1.37817 0.5319,1.28531 1.46293,4.23349 1.70133,5.38738 1.11531,5.39833 1.21903,6.34431 1.22304,11.15619 0.004,4.22865 -0.0791,5.29304 -0.6097,7.85155 -0.63271,3.05117 -1.31152,5.17281 -1.65498,5.17281 -0.10782,0 -0.3462,0.0474 -0.52974,0.10543 -0.18355,0.058 -0.50286,0.0481 -0.70958,-0.0221 z"
       id="path4111" />
  </g>
  <g
     id="g4624"
     transform="translate(-10.571746,-31.715239)"
     style="display:inline">
    <path
       style="fill:#ff1168;fill-opacity:0.50114942;stroke-width:0.250576"
       d="m 194.77287,506.46739 c -2.76774,-0.4433 -5.24431,-1.36313 -6.32116,-2.34777 -0.80925,-0.73995 -0.76023,-2.07502 0.10952,-2.98285 0.8694,-0.90746 1.92909,-0.91917 4.51864,-0.0499 1.41621,0.47542 2.49063,0.65774 3.95184,0.67062 2.20327,0.0195 3.22073,-0.34126 4.09381,-1.45121 0.46157,-0.58677 0.9817,-2.52513 0.74193,-2.7649 -0.0563,-0.0563 -0.66846,0.1126 -1.36024,0.37546 -1.93891,0.73674 -3.94768,0.8732 -5.95492,0.40458 -3.33395,-0.77839 -5.63921,-2.55602 -7.00887,-5.40474 -0.71087,-1.47853 -0.78261,-1.84978 -0.77778,-4.0253 0.005,-2.18718 0.0758,-2.53971 0.81219,-4.03552 2.37832,-4.83105 8.45507,-7.00277 13.40607,-4.79106 1.35644,0.60597 1.47238,0.6197 1.90744,0.22597 1.22824,-1.11156 3.30506,-0.97396 4.29499,0.28453 0.48722,0.61939 0.51041,0.94374 0.46003,6.43418 -0.0877,9.56357 -0.29022,12.56457 -0.96484,14.30073 -0.77462,1.99353 -2.6866,3.8847 -4.68699,4.636 -1.62131,0.60892 -5.1043,0.86028 -7.22166,0.52115 z m 5.83864,-14.13375 1.32239,-0.78403 -0.0695,-3.25274 -0.0695,-3.25275 -1.20963,-0.74742 c -1.5351,-0.9485 -3.55427,-1.14924 -5.39855,-0.53666 -2.16969,0.72066 -3.20971,2.52881 -2.97068,5.16479 0.22056,2.43239 1.39494,3.76122 3.7365,4.22792 1.6335,0.3256 3.18974,0.052 4.65901,-0.81911 z m 123.58958,6.17754 c -3.82559,-0.38636 -6.85264,-2.3403 -8.22139,-5.30681 -0.84755,-1.83692 -1.06607,-5.46869 -0.45321,-7.53236 0.92139,-3.1027 3.06105,-5.36768 5.94741,-6.29576 2.4153,-0.77664 5.9749,-0.63897 8.03316,0.31066 3.13402,1.44597 5.19796,4.35025 5.41283,7.6167 0.0919,1.39741 0.0255,1.91863 -0.30991,2.43046 -0.73905,1.12797 -1.63436,1.24626 -7.92153,1.04668 -3.15965,-0.10031 -5.74484,-0.0906 -5.74484,0.0215 0,0.5558 1.24305,1.92758 2.14635,2.36861 1.45086,0.70843 4.67018,0.69197 6.90499,-0.0353 1.87814,-0.61118 2.6989,-0.51916 3.6243,0.40624 0.88589,0.88588 0.82487,2.15202 -0.14295,2.96636 -1.80232,1.51656 -5.71804,2.3621 -9.27521,2.00288 z m 5.01151,-13.09253 c 0,-0.39455 -1.27808,-1.77342 -1.98047,-2.13663 -1.83286,-0.9478 -4.07744,-0.64493 -5.45902,0.73664 -1.54024,1.54024 -1.35569,1.63135 3.305,1.63135 2.36022,0 4.13449,-0.0993 4.13449,-0.23136 z m 42.97374,13.10203 c -4.87829,-0.74779 -7.82102,-3.31945 -8.65622,-7.56463 -0.78728,-4.00174 0.77987,-8.37068 3.73794,-10.42064 3.25185,-2.25353 8.80759,-2.2206 12.13967,0.0719 2.01092,1.38355 3.49513,3.93727 3.80461,6.54613 0.20332,1.71412 -0.11799,2.60153 -1.18467,3.27162 -0.79097,0.49689 -1.04099,0.50935 -6.91972,0.34462 l -6.09914,-0.17094 0.37288,0.72105 c 0.87238,1.687 2.36068,2.35178 5.23971,2.34045 1.39178,-0.006 2.52922,-0.16786 3.45346,-0.49298 1.84792,-0.65004 2.57482,-0.62153 3.47544,0.13629 0.95081,0.80006 1.16377,1.45344 0.77761,2.38573 -0.36391,0.87854 -1.35216,1.52064 -3.39405,2.20522 -1.50972,0.50616 -5.26003,0.85418 -6.74752,0.62616 z m 4.95839,-13.68419 c -1.32202,-2.2636 -4.6656,-2.81792 -6.83771,-1.1336 -0.59482,0.46126 -1.22477,1.35205 -1.24401,1.75919 -0.005,0.10336 1.91841,0.18793 4.27399,0.18793 h 4.28284 z m -210.17989,13.25528 c -3.46791,-0.89756 -5.34099,-3.2106 -5.08636,-6.28108 0.13637,-1.64448 0.99147,-3.06687 2.50116,-4.16048 1.57479,-1.14077 3.18529,-1.52566 7.03292,-1.68079 3.07775,-0.12411 3.44542,-0.18628 3.44542,-0.58276 0,-0.24412 -0.33712,-0.7275 -0.74914,-1.0742 -1.06475,-0.89591 -3.01244,-1.09384 -5.6549,-0.57464 -2.88662,0.56718 -3.66414,0.53129 -4.45942,-0.20575 -0.76416,-0.7082 -0.89029,-1.95645 -0.285,-2.82063 0.8361,-1.19369 5.20317,-2.21459 8.63602,-2.01886 3.57052,0.20359 6.12053,1.68219 7.3828,4.28088 0.83991,1.72915 0.95174,3.14112 0.71133,8.98196 -0.17769,4.31722 -0.26179,4.99245 -0.67933,5.45381 -0.96843,1.07011 -3.13089,1.09353 -4.24595,0.046 l -0.54802,-0.51483 -1.49501,0.60344 c -1.86604,0.7532 -4.76895,0.99766 -6.50652,0.54793 z m 6.32192,-4.6796 c 1.42706,-0.71311 1.80727,-1.17036 1.81837,-2.18685 0.004,-0.39892 -4.93589,-0.43485 -6.3359,-0.0461 -1.14161,0.31703 -1.63449,1.13498 -1.18735,1.97048 0.68215,1.2746 3.4267,1.40086 5.70488,0.26245 z m 60.58179,4.84879 c -1.89021,-0.41593 -3.23391,-1.31379 -3.88959,-2.59905 -0.45021,-0.88247 -0.49548,-1.48726 -0.49548,-6.61915 v -5.64793 h -1.12759 c -1.28117,0 -2.1299,-0.62945 -2.1299,-1.57958 0,-0.64591 0.51659,-1.17139 4.07452,-4.1445 1.83315,-1.53184 2.62884,-2.04377 3.17665,-2.04377 0.97498,0 1.76956,1.01311 1.76956,2.25619 0,0.88661 0.0493,0.94387 0.93966,1.09105 0.51681,0.0854 1.45989,0.15654 2.09572,0.15807 1.41207,0.003 2.47728,0.88829 2.47728,2.058 0,1.74576 -1.1186,2.45512 -3.87148,2.45512 h -1.89176 v 5.04732 5.04732 l 2.00289,-0.13729 c 1.77722,-0.12181 2.09483,-0.0755 2.81897,0.41077 1.07654,0.72293 1.2676,2.15698 0.40913,3.07078 -0.98073,1.04394 -4.22956,1.64513 -6.35858,1.17665 z m 19.19619,-0.086 c -3.02207,-0.63927 -5.84914,-2.72794 -6.95156,-5.13597 -2.80962,-6.13703 0.40928,-12.75042 6.8741,-14.12318 6.88867,-1.46278 12.91915,2.51947 13.28099,8.77015 0.28011,4.83885 -2.20028,8.64489 -6.59042,10.11264 -1.49195,0.49882 -5.07124,0.70251 -6.61311,0.37636 z m 4.35228,-4.78607 c 3.38108,-0.93866 4.57119,-6.07939 1.98817,-8.58801 -0.87271,-0.84757 -2.3814,-1.4075 -3.78487,-1.4047 -2.03463,0.004 -4.06625,1.30134 -4.60783,2.94234 -0.38294,1.16031 -0.38742,3.21225 -0.01,4.35733 0.74502,2.25741 3.62603,3.46707 6.41404,2.69304 z m 47.5713,4.67482 c -1.22471,-0.53273 -1.51741,-1.23191 -1.64718,-3.93454 -0.12714,-2.64796 -0.50579,-3.62418 -1.77217,-4.5691 -0.64328,-0.47998 -1.09905,-0.53483 -5.07416,-0.61068 l -4.36741,-0.0833 v 3.54121 c 0,4.44434 -0.25443,5.03632 -2.42472,5.64149 -0.67117,0.18715 -2.04768,-0.36933 -2.68615,-1.08595 -0.45732,-0.5133 -0.4683,-0.94612 -0.29126,-11.49691 0.19865,-11.84063 0.21296,-11.95497 1.57141,-12.57394 0.75095,-0.34214 10.56249,-0.3575 12.89457,-0.0203 3.4492,0.49892 5.97395,1.90716 7.31866,4.08216 0.58472,0.94577 0.75617,1.55687 0.85091,3.03296 0.10183,1.5869 0.0315,2.03871 -0.49722,3.19201 -0.3387,0.7389 -1.08451,1.83071 -1.65738,2.42623 l -1.04154,1.08279 0.73779,0.92181 c 1.37108,1.71314 1.83853,3.16926 1.96349,6.11646 0.13007,3.06807 -0.11226,3.73069 -1.59018,4.34819 -1.03378,0.43194 -1.27242,0.43084 -2.28746,-0.0108 z m -3.00115,-14.87342 c 1.47882,-0.6221 1.66671,-2.09597 1.66671,-3.54425 0,-1.23451 -0.8253,-1.89521 -2.14764,-2.57888 -0.65072,-0.33642 -8.36017,-0.49415 -9.00052,-0.24841 -0.30936,0.1187 -0.37832,0.36378 -0.37832,2.91645 0,2.75741 -0.007,3.54536 0.38011,3.65797 0.24118,0.0701 2.12989,0.0986 4.19714,0.0634 2.94447,-0.0502 4.44459,0.0862 5.28252,-0.26628 z m 91.40581,14.96901 c -3.60142,-0.70778 -5.94924,-3.61578 -5.42491,-6.71931 0.22988,-1.36063 1.4134,-3.13916 2.57822,-3.8745 1.77866,-1.12283 3.22704,-1.45339 7.01083,-1.6001 1.96389,-0.0761 3.57071,-0.17095 3.57071,-0.21064 0,-0.0397 -0.10793,-0.35599 -0.2398,-0.70291 -0.53403,-1.40461 -3.37506,-1.97244 -6.52575,-1.30428 -2.74443,0.58199 -3.41589,0.52965 -4.27905,-0.33351 -0.83537,-0.83537 -0.91673,-1.50929 -0.30691,-2.54169 0.49857,-0.84401 1.52864,-1.30084 4.15763,-1.84386 5.99227,-1.23775 10.68953,0.52939 12.23118,4.60144 0.49476,1.30686 0.52082,1.75619 0.41866,7.22074 -0.10675,5.70997 -0.12085,5.83987 -0.70139,6.45782 -1.11531,1.1872 -2.99508,1.27192 -4.16494,0.18775 l -0.67726,-0.62766 -1.09619,0.53257 c -1.01341,0.49233 -3.78086,1.04846 -4.95529,0.99574 -0.27563,-0.0123 -0.9937,-0.11928 -1.59574,-0.2376 z m 6.02156,-4.8101 c 1.40042,-0.72344 1.59727,-0.91583 1.66653,-1.62874 l 0.0785,-0.80841 -2.83484,0.014 c -3.46551,0.0173 -4.55592,0.32472 -4.66966,1.31655 -0.23083,2.0132 2.85619,2.60627 5.75946,1.10647 z m -52.05645,4.23636 c -0.42515,-0.19257 -1.00197,-0.64123 -1.28184,-0.99702 -0.41478,-0.52731 -6.38517,-13.68554 -6.93085,-15.27502 -0.21266,-0.6194 0.41262,-2.0249 1.12183,-2.52164 0.86762,-0.6077 2.56078,-0.52919 3.34591,0.15518 0.52731,0.45963 3.28259,6.54003 5.11798,11.2944 0.12772,0.33083 0.86028,-1.03989 2.65387,-4.96591 2.78468,-6.09538 3.20038,-6.64171 5.05357,-6.64171 1.41763,0 2.59255,1.01533 2.59255,2.24035 0,0.46637 -0.90924,2.64623 -2.28131,5.46929 -1.25471,2.58163 -2.89566,5.95896 -3.64656,7.50519 -0.88588,1.82417 -1.61709,2.99062 -2.08243,3.32198 -0.94004,0.66937 -2.66861,0.86517 -3.66272,0.41491 z m 68.13096,0.0602 c -0.43924,-0.12368 -1.03734,-0.52836 -1.32913,-0.89929 -0.52596,-0.66866 -0.52914,-0.75727 -0.37253,-10.33319 0.0869,-5.31228 0.19896,-10.16613 0.24907,-10.78631 0.0501,-0.62017 0.0979,-1.5591 0.10622,-2.08652 0.0226,-1.43712 1.0987,-2.42384 2.64332,-2.42384 2.697,0 2.95394,0.64498 2.77703,6.97057 -0.0759,2.71248 -0.20489,7.8603 -0.28673,11.43963 -0.0819,3.57935 -0.25616,6.70841 -0.38732,6.95347 -0.53327,0.99647 -2.09676,1.5324 -3.39993,1.16548 z M 116.1122,497.43278 c -0.60381,-0.11802 -1.2214,-0.46439 -1.58803,-0.89062 l -0.59996,-0.6975 0.17764,-10.67262 c 0.1947,-11.6981 0.22866,-11.95762 1.66169,-12.69868 0.74103,-0.3832 1.41169,-0.41302 6.0962,-0.27105 3.42103,0.10367 5.78986,0.29433 6.76702,0.54463 4.01471,1.02839 7.15429,3.5359 8.83533,7.05651 0.93016,1.94805 0.93706,1.98589 0.92824,5.09483 -0.008,2.66701 -0.0924,3.33183 -0.57138,4.47624 -1.52597,3.6462 -4.44328,6.31147 -8.31517,7.5968 -1.43709,0.47707 -2.26268,0.54738 -7.01612,0.59765 -2.96306,0.0313 -5.83202,-0.03 -6.37546,-0.13619 z m 11.86992,-5.2882 c 3.04826,-1.06259 4.84258,-3.50062 4.99284,-6.78401 0.16119,-3.52239 -1.11648,-5.77893 -4.10515,-7.25023 -1.46653,-0.72196 -1.94117,-0.8171 -5.15577,-1.03345 -1.9473,-0.13105 -3.62615,-0.14443 -3.73076,-0.0297 -0.10462,0.11471 -0.25144,3.67096 -0.32627,7.90276 l -0.13605,7.69422 1.67128,0.0987 c 2.62316,0.15493 5.30766,-0.0816 6.78988,-0.5983 z m 17.75388,4.7647 -0.76837,-0.76839 0.12727,-7.95879 c 0.1382,-8.64145 0.17568,-8.86582 1.58862,-9.5096 1.20351,-0.54835 2.35656,-0.30239 3.51447,0.74965 0.51518,0.4681 0.54055,0.4652 1.72415,-0.19632 0.89273,-0.49895 1.66578,-0.70121 3.00974,-0.78746 1.71789,-0.11026 1.84917,-0.0797 2.6215,0.61037 0.63414,0.56663 0.81905,0.93861 0.84037,1.69061 0.0408,1.43941 -0.99176,2.27232 -3.08868,2.49148 -1.83344,0.19164 -3.52679,0.92798 -4.25081,1.84842 -0.46339,0.5891 -0.50213,1.01461 -0.50213,5.51555 0,3.88369 -0.079,5.04376 -0.38793,5.69473 -0.45854,0.96629 -1.26383,1.38811 -2.65004,1.38811 -0.79275,0 -1.17494,-0.16515 -1.77816,-0.76836 z"
       id="path4622" />
  </g>
  <g
     id="g5011"
     transform="translate(-10.571746,-31.715239)"
     style="display:inline">
    <path
       style="fill:#ff1168;fill-opacity:1;stroke-width:0.250576"
       d="m 263.43648,404.56938 c -3.71178,-0.35735 -9.60511,-1.75694 -12.02763,-2.85639 -3.8218,-1.73453 -5.93036,-2.85368 -8.11828,-4.30887 -7.76843,-5.16677 -13.29715,-12.0684 -16.65573,-20.79177 -1.87324,-4.8654 -2.63143,-8.64336 -2.84065,-14.1544 -0.27343,-7.20222 1.23742,-14.17865 4.4967,-20.76368 2.54055,-5.13294 4.47822,-7.65002 12.82745,-16.66328 6.02924,-6.50875 8.44129,-10.87844 8.48167,-15.36545 0.0334,-3.7112 -1.28754,-6.40061 -4.88633,-9.94846 -1.70717,-1.68299 -8.58008,-7.18155 -11.21563,-8.97286 -8.08234,-5.49335 -13.74612,-11.25361 -19.06903,-19.39388 -3.26043,-4.98612 -7.17825,-13.41679 -9.05604,-19.48745 -0.63511,-2.05326 -1.97527,-4.72877 -3.197,-6.38257 -2.83251,-3.83423 -6.84979,-5.29312 -10.65502,-3.8694 -2.45384,0.9181 -4.72528,3.77637 -5.73612,7.21806 -1.47724,5.02971 -6.30841,7.49119 -10.08453,5.13807 -3.40088,-2.11928 -3.62947,-6.74996 -0.64813,-13.12949 1.71995,-3.6804 4.44431,-6.84833 7.87765,-9.16029 3.6271,-2.44242 6.98424,-3.44961 11.47305,-3.44206 4.09965,0.007 7.63824,0.93026 10.60521,2.76735 0.52693,0.32626 1.04909,0.55837 1.16037,0.51581 0.11128,-0.0426 -0.1134,-0.86168 -0.49927,-1.82025 -2.27763,-5.65787 -0.1244,-11.56108 5.77284,-15.82662 5.49096,-3.97167 15.17314,-8.44592 22.79508,-10.53388 3.34211,-0.91553 7.19438,-1.83183 7.71868,-1.83596 0.4312,-0.003 0.94975,0.52401 2.12989,2.16625 0.85796,1.1939 2.68022,3.68903 4.04946,5.54473 2.34244,3.17464 2.46176,3.3943 2.01936,3.71779 -0.2586,0.18909 -0.71293,0.3438 -1.00963,0.3438 -1.96913,0 -12.27373,2.57886 -16.15333,4.04259 -7.00033,2.64113 -14.78397,6.85858 -14.78397,8.01048 0,0.80252 3.38179,2.99145 7.07877,4.58185 0.51681,0.22232 1.30612,0.56158 1.75402,0.7539 2.90895,1.24902 10.96174,3.4883 15.84892,4.4072 16.11252,3.0295 30.67557,3.32247 47.73467,0.96029 1.99834,-0.27671 4.3099,-0.59327 5.1368,-0.70347 1.66558,-0.22197 7.41559,-1.26089 10.52418,-1.90152 1.10253,-0.22721 2.45564,-0.49683 3.00691,-0.59916 1.13711,-0.21107 5.31842,-1.15914 6.64025,-1.50561 1.77049,-0.46407 5.80424,-1.0073 7.45192,-1.00355 1.93357,0.004 5.05391,0.72089 6.62089,1.5203 1.54031,0.78581 3.73671,2.98591 4.52394,4.53157 2.06272,4.04998 1.88874,8.80239 -0.60393,16.49609 -4.44001,13.70426 -12.05159,25.18199 -22.12732,33.36631 -3.04158,2.47065 -5.81914,4.37049 -14.4081,9.85517 -13.04905,8.33279 -15.06491,14.65878 -7.74625,24.30867 1.66052,2.18943 3.20665,3.95148 8.21961,9.3674 7.4098,8.00541 11.21271,15.70879 12.69377,25.7132 0.87132,5.8857 0.0905,13.90823 -1.90227,19.5449 -3.10742,8.78945 -8.14143,15.73778 -15.1901,20.96657 -1.92928,1.43114 -6.37923,4.21629 -6.73655,4.21629 -0.054,0 -0.74983,0.29032 -1.54636,0.64513 -0.79653,0.35484 -1.7865,0.79533 -2.19995,0.97888 -1.51358,0.67191 -4.87302,1.58631 -8.39429,2.28477 -1.80755,0.35855 -9.07793,0.65646 -11.15062,0.4569 z m 8.39429,-18.76962 c 3.19068,-0.36241 5.19799,-0.77859 5.62542,-1.16638 0.13093,-0.11878 0.42423,-0.21595 0.65178,-0.21595 1.02124,0 4.88615,-2.54046 6.45057,-4.24007 2.75974,-2.99818 4.10661,-7.30252 3.58548,-11.45852 -0.55134,-4.39695 -2.26974,-7.3344 -5.82493,-9.95705 -1.43482,-1.05848 -1.39874,-1.47442 0.28503,-3.28435 2.36975,-2.5473 3.25889,-4.86964 3.25889,-8.51188 0,-3.87019 -1.43455,-7.10956 -4.36057,-9.8467 -2.59955,-2.43173 -5.78196,-3.77595 -10.26142,-4.33423 -6.72002,-0.83755 -13.41079,0.97552 -17.05752,4.62227 -2.58308,2.58306 -3.77788,5.1354 -4.05975,8.67245 -0.29018,3.64129 0.88517,6.98628 3.32642,9.46685 0.7378,0.74967 1.34145,1.56364 1.34145,1.80883 0,0.24516 -0.82393,1.16302 -1.83096,2.03966 -2.88738,2.51355 -3.94939,4.16397 -4.80556,7.46803 -0.47896,1.84838 -0.48887,5.33366 -0.0203,7.13267 1.73466,6.65982 7.18996,10.77485 15.6415,11.79863 3.51711,0.42605 4.34854,0.42665 8.05446,0.006 z m -6.89083,-8.88667 c -3.09536,-0.49238 -5.31286,-1.82301 -6.54668,-3.92835 -2.53704,-4.32915 0.0777,-8.81034 5.98564,-10.25814 1.95126,-0.47818 6.40559,-0.39576 7.95302,0.14713 2.89039,1.01408 4.62455,2.29052 5.58601,4.1116 0.7503,1.42109 0.75215,4.12618 0.004,5.52976 -0.9117,1.70997 -2.82795,3.25177 -4.96338,3.99347 -1.42061,0.49343 -6.00555,0.72474 -8.01842,0.40453 z m 0.75173,-23.77603 c -1.76308,-0.23782 -4.07737,-1.47123 -4.90592,-2.61463 -1.0509,-1.4502 -1.37271,-3.1438 -0.87838,-4.62252 0.49693,-1.48651 1.86913,-2.96706 3.38178,-3.64878 0.97712,-0.44036 1.6761,-0.52102 4.6577,-0.53749 3.35836,-0.0185 3.56932,0.0108 4.94376,0.68565 3.7885,1.86038 4.55859,5.83586 1.6888,8.71813 -0.74514,0.74837 -1.58447,1.29681 -2.38741,1.55996 -1.44084,0.47221 -4.69922,0.70264 -6.50033,0.45968 z m 10.8298,-65.58137 c 5.67674,-0.81981 9.33081,-1.76377 13.8519,-3.57839 13.57792,-5.4498 24.00911,-16.27869 29.78927,-30.92507 1.63232,-4.13616 2.94784,-8.67403 2.70105,-9.31719 -0.25964,-0.67661 -1.71033,-0.46482 -9.31207,1.35952 -7.44718,1.78725 -20.2062,3.79835 -30.41746,4.79447 -6.26376,0.61103 -19.77468,0.74574 -24.95977,0.24885 -7.24974,-0.69474 -14.70006,-1.72467 -18.29202,-2.52869 -0.55127,-0.12339 -1.848,-0.41127 -2.88162,-0.63973 -4.60035,-1.01681 -11.78623,-3.11647 -14.15753,-4.13672 -0.55126,-0.23718 -1.62248,-0.68079 -2.38047,-0.98581 -0.75799,-0.30501 -2.76729,-1.28429 -4.46511,-2.17617 -3.22937,-1.69642 -3.31581,-1.68949 -2.0534,0.1645 0.75155,1.10372 2.1398,3.84482 2.60158,5.1368 0.24628,0.68908 0.5425,1.47839 0.65824,1.75403 0.11575,0.27563 0.51475,1.40322 0.88666,2.50575 4.63695,13.74616 12.50611,24.40825 22.87107,30.98854 4.65071,2.95254 10.83486,5.41395 16.83674,6.70133 4.86881,1.04435 13.78963,1.34642 18.72294,0.63398 z m 2.95186,-152.59199 c -5.29384,-0.85924 -10.74586,-2.98066 -11.83329,-4.60443 -1.25749,-1.87768 -0.43853,-4.44963 1.75491,-5.51146 1.52207,-0.73682 2.60148,-0.66326 5.20699,0.35486 3.53296,1.38054 5.22535,1.7103 8.8806,1.73036 3.90121,0.0214 5.08734,-0.33104 6.58611,-1.957 1.02911,-1.11646 1.65983,-2.67738 1.90385,-4.71156 l 0.14079,-1.17377 -1.58098,0.73983 c -2.11821,0.99124 -4.54757,1.47358 -7.42563,1.47437 -5.13841,10e-4 -9.67157,-1.8444 -13.16285,-5.35963 -3.04309,-3.06395 -4.38046,-6.38326 -4.40211,-10.92575 -0.0145,-3.06961 0.45124,-5.380586 1.51814,-7.530903 1.67019,-3.366282 4.29036,-5.898978 7.87462,-7.611683 2.9297,-1.399937 4.6042,-1.749116 8.42277,-1.756383 3.74461,-0.0071 5.11094,0.285398 8.01842,1.716667 0.89581,0.44098 1.74151,0.796562 1.87932,0.79018 0.13782,-0.0064 0.64574,-0.313585 1.1287,-0.682676 1.19188,-0.910848 2.05795,-1.20661 3.53324,-1.20661 2.04051,0 3.58882,1.000158 4.34315,2.805554 0.34041,0.814691 0.32978,2.280018 -0.10354,14.273644 -0.26558,7.35116 -0.6127,14.36836 -0.77137,15.59378 -0.51453,3.97416 -1.68307,6.55199 -4.16043,9.17813 -1.81861,1.92782 -4.3638,3.3883 -7.22723,4.1471 -2.13448,0.56564 -7.69937,0.68587 -10.52418,0.22738 z m 8.269,-22.29017 c 0.55126,-0.23318 1.69201,-0.86885 2.535,-1.4126 l 1.53269,-0.98864 0.15982,-3.31246 c 0.31111,-6.44777 0.28052,-7.424218 -0.24544,-7.837843 -3.26159,-2.564883 -4.35162,-2.976363 -7.866,-2.969322 -3.12505,0.0063 -4.31624,0.307138 -6.09826,1.540349 -2.16034,1.494994 -3.31925,4.415636 -3.11974,7.862156 0.29518,5.09873 3.88255,7.88108 9.84444,7.6353 1.35913,-0.056 2.65342,-0.26143 3.25749,-0.51694 z M 102.94454,134.1943 c -1.15739,-0.50191 -1.97015,-1.28917 -2.40667,-2.3312 -0.36362,-0.86797 -0.35048,-1.40291 0.77585,-31.59851 0.30891,-8.281565 0.38997,-9.13688 0.96217,-10.15211 0.73215,-1.299035 2.32594,-2.126095 4.09709,-2.126095 1.63222,0 2.71713,0.432329 3.69542,1.472594 0.40478,0.430423 0.86841,0.782588 1.03029,0.782588 0.16187,0 1.01466,-0.323236 1.89507,-0.718301 2.52145,-1.131434 4.0432,-1.413795 7.48929,-1.389627 2.78569,0.01954 3.38841,0.106632 5.44816,0.787278 5.72039,1.890298 10.24447,6.479058 11.45632,11.620093 0.54615,2.31694 0.49769,6.47046 -0.10289,8.81871 -1.24769,4.87842 -4.43493,8.64005 -9.20437,10.86314 -2.60008,1.21192 -4.77237,1.67395 -7.97308,1.6958 -3.23576,0.0221 -5.48703,-0.46865 -8.03809,-1.75216 -0.93333,-0.46959 -1.72436,-0.82639 -1.75786,-0.7929 -0.0335,0.0335 -0.16321,2.78807 -0.28828,6.1213 -0.22257,5.93204 -0.24122,6.08132 -0.88093,7.04797 -1.20682,1.82364 -4.05207,2.5818 -6.19749,1.65143 z m 19.68716,-21.17888 c 1.67747,-0.62762 3.23735,-1.99334 4.00341,-3.50509 1.28809,-2.54192 1.38085,-6.67588 0.20538,-9.15299 -1.97135,-4.15432 -8.44044,-5.559511 -13.57988,-2.94977 -3.02282,1.534949 -2.7766,0.957573 -3.03689,7.12128 l -0.22731,5.38291 0.67031,0.70707 c 0.91388,0.96399 4.37452,2.6257 6.0577,2.90875 1.79894,0.30252 4.31224,0.0846 5.90728,-0.51216 z m 42.49599,21.04038 c -0.61638,-0.3051 -1.3612,-0.954 -1.7236,-1.50162 -0.61097,-0.92324 -0.63684,-1.11124 -0.60699,-4.4114 0.0171,-1.89588 0.0902,-4.29275 0.1623,-5.32637 0.0721,-1.03363 0.35931,-8.47573 0.6382,-16.538 0.2789,-8.062272 0.61714,-15.005083 0.75165,-15.428468 0.29164,-0.917959 1.58648,-2.227089 2.56926,-2.597613 1.8798,-0.708711 4.81833,2.5e-4 5.94671,1.434774 0.4851,0.616699 0.56142,0.635156 1.3165,0.318349 3.82321,-1.604101 4.97995,-1.863767 8.31882,-1.867411 3.64991,-0.004 5.33188,0.344254 8.26899,1.712041 4.56282,2.124854 8.00243,6.221306 9.16543,10.915668 0.46917,1.8938 0.41042,6.46825 -0.11066,8.61647 -1.34824,5.55823 -6.13396,10.20637 -12.32643,11.97206 -1.58625,0.4523 -2.60101,0.56521 -4.99733,0.55602 -3.45046,-0.0132 -5.30239,-0.42026 -7.92783,-1.74241 -0.93876,-0.47275 -1.74987,-0.85954 -1.80247,-0.85954 -0.0526,0 -0.17791,2.62037 -0.27846,5.82305 -0.22452,7.15118 -0.46518,7.93214 -2.7706,8.9908 -1.36837,0.62835 -3.2447,0.60123 -4.59349,-0.0664 z m 18.13112,-20.53311 c 2.86414,-0.52946 5.06352,-2.1715 6.17908,-4.61323 0.48934,-1.07108 0.57295,-1.67104 0.57616,-4.1345 0.003,-2.65554 -0.0515,-2.99416 -0.7006,-4.31598 -1.26238,-2.570725 -3.66853,-4.035944 -7.16073,-4.36051 -3.04219,-0.282742 -5.11944,0.377317 -8.97364,2.851431 -0.20987,0.13472 -0.35377,1.867929 -0.47629,5.736439 l -0.17556,5.5434 1.10273,0.81234 c 2.18475,1.60942 4.93448,2.60703 7.50903,2.72431 0.35369,0.0161 1.3076,-0.0936 2.11982,-0.2437 z m 69.72845,8.30334 c -1.50783,-0.29204 -2.84723,-1.33761 -3.32879,-2.59854 -0.38587,-1.01039 -0.39948,-1.70575 -0.1512,-7.72431 0.41156,-9.97657 0.37654,-11.868448 -0.24337,-13.149017 -0.77201,-1.594744 -2.21813,-2.229232 -4.99646,-2.192199 -1.26691,0.01689 -2.56435,0.190397 -3.20217,0.428238 -1.25113,0.466547 -3.30866,1.791206 -4.61454,2.970896 l -0.91744,0.828782 -0.29329,8.64486 c -0.33687,9.92915 -0.40338,10.25976 -2.28578,11.36285 -2.11778,1.24102 -4.43038,1.09638 -6.11465,-0.38242 -1.31481,-1.15442 -1.46584,-1.59027 -1.41713,-4.08959 0.0979,-5.02062 0.82127,-23.860106 0.94556,-24.624424 0.1644,-1.011025 1.45441,-2.522761 2.53972,-2.976233 2.12683,-0.888647 5.13505,-0.113213 6.21371,1.601725 0.27563,0.438222 0.63822,0.801108 0.80575,0.806418 0.16752,0.0053 1.01322,-0.376475 1.87931,-0.848409 2.58508,-1.408604 4.14644,-1.759964 7.83912,-1.764076 3.88409,-0.0043 5.93832,0.520754 8.35757,2.136266 1.9001,1.26884 3.07372,2.620202 4.15822,4.787987 1.37132,2.741116 1.45438,3.880007 1.04956,14.390506 -0.37346,9.69623 -0.43911,10.16145 -1.57471,11.1589 -1.19789,1.05218 -3.04689,1.54209 -4.64899,1.23179 z m 103.71147,-0.1164 c -1.42227,-0.38555 -2.83617,-1.64668 -3.15966,-2.81827 -0.13839,-0.50119 -0.092,-4.12414 0.12055,-9.4077 0.19006,-4.72595 0.27719,-8.98728 0.19362,-9.46964 -0.22138,-1.277552 -0.96103,-2.616473 -1.7202,-3.113896 -0.36439,-0.238763 -1.40232,-0.549289 -2.3065,-0.690057 -3.05129,-0.475039 -6.28735,0.639216 -8.93987,3.078202 l -1.25836,1.157071 -0.31766,8.67832 c -0.34732,9.48886 -0.41908,9.9123 -1.86511,11.00424 -2.44682,1.8477 -5.77759,1.37567 -7.4126,-1.0505 -0.71043,-1.05422 -0.71342,0.25992 0.0474,-20.854569 0.78042,-21.659615 0.66568,-20.095111 1.55449,-21.193279 1.04315,-1.288856 2.18836,-1.822527 3.91091,-1.822527 2.2594,0 3.76663,0.927556 4.54868,2.799269 0.32141,0.769209 0.34216,1.669385 0.14142,6.129933 -0.12939,2.875579 -0.23824,5.591251 -0.24185,6.034828 l -0.007,0.806502 1.44081,-0.840886 c 5.63929,-3.291207 13.62854,-2.743847 18.05629,1.237077 1.64222,1.476502 2.71742,3.195571 3.48518,5.572237 0.61253,1.896186 0.62331,2.060461 0.47166,7.202535 -0.27245,9.23863 -0.42074,13.00195 -0.55613,14.11439 -0.31094,2.55489 -3.31083,4.22625 -6.18644,3.44672 z m 27.13938,-0.0691 c -7.31438,-1.22954 -12.76107,-5.87188 -14.39142,-12.26611 -0.56851,-2.22974 -0.51977,-6.52765 0.10158,-8.95712 1.58647,-6.203069 6.46847,-10.664476 13.18881,-12.0526 2.3969,-0.495098 7.10737,-0.486754 9.56853,0.01694 6.99079,1.430755 12.06995,6.139599 13.46521,12.48347 0.61068,2.77664 0.40974,6.80177 -0.47664,9.54777 -1.81843,5.63347 -6.62062,9.70262 -12.98857,11.00591 -1.79094,0.36654 -6.8223,0.49829 -8.4675,0.22173 z m 6.82605,-8.34424 c 2.98458,-0.92184 4.90322,-2.96569 5.6124,-5.97865 0.93086,-3.95483 -0.19615,-7.667111 -2.92267,-9.626962 -3.96373,-2.849183 -10.79983,-1.919472 -13.28928,1.807343 -1.08171,1.619379 -1.36446,2.826069 -1.35388,5.778069 0.008,2.34084 0.0819,2.77034 0.66665,3.89398 1.98589,3.81603 6.70521,5.54133 11.28678,4.12622 z m 30.82613,8.1525 c -3.17595,-0.71866 -5.39159,-2.35021 -6.64986,-4.8968 -0.65267,-1.32094 -0.70171,-3.33806 -0.34198,-14.06637 l 0.21539,-6.423809 -2.04522,-0.181043 c -1.63253,-0.144512 -2.19053,-0.303322 -2.76538,-0.787014 -0.86166,-0.72503 -1.1652,-1.862065 -0.75897,-2.842811 0.32891,-0.794054 9.34873,-8.278863 11.10013,-9.211085 1.35574,-0.721623 2.66279,-0.548324 3.70195,0.490823 0.6953,0.695312 0.73559,0.849246 0.73559,2.810682 v 2.075083 l 3.32632,0.126927 c 2.75688,0.105199 3.50924,0.220251 4.3949,0.672081 2.27761,1.16195 2.7864,4.10014 1.00165,5.784232 -1.23193,1.162425 -1.81642,1.297651 -5.49214,1.270637 -1.91473,-0.01408 -3.48842,0.06138 -3.49711,0.16766 -0.2289,2.798599 -0.59858,16.387597 -0.45648,16.780407 0.25752,0.71194 1.53167,0.95892 3.56858,0.69172 2.63295,-0.3454 3.9287,-0.19605 5.0394,0.58082 2.75433,1.92653 1.73621,5.55934 -1.87822,6.70174 -1.86375,0.58908 -7.08472,0.73444 -9.19855,0.25612 z m -274.82208,-0.34297 c -1.1729,-0.55995 -1.98687,-1.38285 -2.37128,-2.39733 -0.19835,-0.52346 -0.20172,-2.68371 -0.0121,-7.76784 0.79941,-21.434508 0.66118,-20.067049 2.17308,-21.497533 0.92392,-0.874173 1.84003,-1.206176 3.32821,-1.206176 1.47725,0 2.68384,0.48214 3.55437,1.420286 1.25819,1.35591 1.2932,1.5637 1.10775,6.574459 -0.84086,22.718814 -0.79727,21.930164 -1.26695,22.919954 -0.66038,1.39164 -2.01943,2.1943 -3.93704,2.32522 -1.19818,0.0818 -1.81292,-0.007 -2.57604,-0.37104 z m 62.39335,-0.0136 c -1.8838,-0.86505 -2.65832,-2.39791 -2.484,-4.91612 0.0572,-0.8269 0.28175,-6.69037 0.49892,-13.02993 0.4373,-12.765877 0.41055,-12.592624 2.15897,-13.985953 0.76658,-0.610901 1.21862,-0.75732 2.63104,-0.85222 1.45763,-0.09794 1.86927,-0.02679 2.83302,0.489625 1.82161,0.976095 2.25457,1.848426 2.25851,4.550504 0.007,4.721057 -0.77922,24.117774 -1.01265,24.986584 -0.72051,2.68175 -4.10039,4.03566 -6.88381,2.75751 z M 147.47718,85.398728 c -2.0875,-0.649325 -3.44001,-2.380888 -3.44001,-4.404101 0,-2.785099 2.10188,-4.639795 5.26209,-4.643263 2.60162,-0.0029 4.61438,1.302984 5.24316,3.401655 0.49688,1.658436 0.14355,2.910257 -1.20196,4.258504 -1.62988,1.63319 -3.58521,2.095805 -5.86328,1.387205 z m 62.83726,0.112543 c -4.40794,-1.157391 -5.26232,-6.235335 -1.42726,-8.482829 1.60909,-0.942989 4.15834,-0.969089 5.80263,-0.05941 3.28261,1.816049 3.31766,6.169582 0.0641,7.965748 -1.13852,0.628542 -3.21456,0.898124 -4.43951,0.576487 z"
       id="path5009" />
  </g>
</svg>
