<?xml version="1.0" encoding="UTF-8" standalone="no"?>
<!-- Created with Inkscape (http://www.inkscape.org/) -->

<svg
   width="160mm"
   height="160mm"
   viewBox="0 0 160 159.99999"
   version="1.1"
   id="svg5800"
   xmlns="http://www.w3.org/2000/svg"
   xmlns:svg="http://www.w3.org/2000/svg">
  <defs
     id="defs5797" />
  <path
     style="fill:#ffffff;fill-opacity:1;stroke-width:0.156954"
     d="m 76.946767,134.01249 c -4.120809,-0.40821 -7.168512,-0.87432 -8.197943,-1.25379 -0.709486,-0.26152 -1.832982,-1.39207 -1.978228,-1.99066 -0.04661,-0.19209 -0.653127,-3.31569 -1.347811,-6.94132 -1.409592,-7.35682 -1.414607,-7.37812 -1.953648,-8.29792 -1.290188,-2.20155 -4.187748,-3.54286 -6.704568,-3.10365 -0.553594,0.0966 -4.008272,1.21166 -7.677062,2.47789 -7.378645,2.54662 -7.877121,2.65355 -9.198939,1.97338 -1.436595,-0.73924 -5.526299,-5.84785 -8.099751,-10.11773 -2.008026,-3.33171 -4.370225,-8.496316 -4.835343,-10.571764 -0.204987,-0.914697 0.0078,-1.986231 0.52172,-2.62626 0.189806,-0.236417 2.852436,-2.461845 5.916955,-4.945395 3.380246,-2.739422 5.804749,-4.820735 6.163959,-5.291445 1.676286,-2.19661 1.551353,-5.557616 -0.282017,-7.586939 -0.323278,-0.357829 -3.074848,-2.666106 -6.114603,-5.129507 -4.099973,-3.322594 -5.620789,-4.646094 -5.890789,-5.126494 -0.731114,-1.300843 -0.408786,-2.769603 1.591376,-7.25148 2.253682,-5.049946 6.118886,-10.865114 9.5514,-14.369999 1.452326,-1.482948 2.201348,-1.853069 3.417575,-1.688759 0.323362,0.04368 3.606959,1.11025 7.296886,2.370146 3.689927,1.259897 7.151927,2.36786 7.69333,2.462143 1.709062,0.297619 3.989882,-0.380436 5.377282,-1.598588 0.716309,-0.628927 1.434783,-1.670103 1.730137,-2.507224 0.126382,-0.358208 0.796585,-3.625579 1.489341,-7.260828 0.692755,-3.63525 1.299849,-6.750802 1.349097,-6.92345 0.204135,-0.715634 0.908837,-1.500138 1.687105,-1.878163 0.95214,-0.462477 4.408095,-1.063517 7.74772,-1.347439 5.909394,-0.502394 15.514794,0.224903 17.873807,1.35336 1.475553,0.705844 1.479072,0.715887 2.968865,8.471262 0.725396,3.776162 1.399726,7.12043 1.498506,7.431707 0.88527,2.789508 4.284744,4.784204 7.240144,4.248285 0.52521,-0.09523 3.96381,-1.200986 7.64133,-2.457219 3.67752,-1.256231 6.95097,-2.319915 7.27434,-2.36374 1.21581,-0.164777 1.96512,0.205434 3.41757,1.688507 3.43251,3.504885 7.29772,9.320053 9.5514,14.369999 2.02809,4.544449 2.33592,5.94033 1.59771,7.244798 -0.28113,0.496761 -1.75393,1.779275 -5.8996,5.137392 -3.03873,2.461449 -5.78931,4.76798 -6.11242,5.125625 -1.83308,2.028989 -1.95794,5.391337 -0.28172,7.585918 0.35805,0.468775 2.85135,2.609271 6.30741,5.4149 6.28798,5.104583 6.37825,5.200685 6.34799,6.758557 -0.0266,1.371683 -1.86264,5.899974 -3.84017,9.471374 -2.6327,4.75465 -7.46151,11.04077 -9.14769,11.90845 -1.32182,0.68017 -1.82029,0.57324 -9.19894,-1.97338 -3.66879,-1.26623 -7.12347,-2.38128 -7.67706,-2.47789 -1.28342,-0.22397 -2.79183,0.0241 -4.08948,0.67254 -1.20811,0.6037 -2.537244,2.02894 -2.969484,3.18419 -0.17759,0.47467 -0.89164,3.84966 -1.586769,7.49997 -0.695129,3.65031 -1.379892,6.90427 -1.521699,7.23102 -0.316284,0.72879 -1.238068,1.5858 -1.950386,1.81334 -0.634488,0.20266 -2.863683,0.58987 -5.239223,0.91005 -1.642428,0.22137 -9.981832,0.42243 -11.457612,0.27623 z m 6.866962,-38.748449 c 9.549649,-1.439454 15.725857,-10.433656 13.37153,-19.472515 -1.198881,-4.602816 -5.032746,-8.859708 -9.547245,-10.600683 -1.932175,-0.745127 -3.47329,-1.08181 -5.433301,-1.187005 -5.012692,-0.269036 -9.616799,1.521531 -13.045406,5.073443 -5.232374,5.42055 -5.765905,13.719206 -1.270798,19.766304 3.626893,4.879127 9.756382,7.350309 15.92522,6.420456 z"
     id="path3969" />
</svg>
