<?xml version="1.0" encoding="UTF-8" standalone="no"?>
<!-- Created with Inkscape (http://www.inkscape.org/) -->

<svg
   width="100mm"
   height="578mm"
   viewBox="0 0 100 578"
   version="1.1"
   id="svg5"
   xmlns="http://www.w3.org/2000/svg"
   xmlns:svg="http://www.w3.org/2000/svg">
  <defs
     id="defs2" />
  <g
     id="layer1"
     transform="translate(-10.571746,-31.715239)">
    <path
       style="fill:#ffffff;stroke-width:0.283091;fill-opacity:1"
       d="m 48.695392,597.58997 c -4.992828,-0.75823 -9.556707,-2.57973 -13.048309,-5.20772 -4.60067,-3.46274 -7.572089,-8.21207 -9.245024,-14.77669 -0.637036,-2.49975 -0.637036,-2.49975 -0.637036,-256.43236 0,-253.932606 0,-253.932606 0.650466,-256.390452 1.377289,-5.204206 3.193558,-8.669269 6.232978,-11.891215 6.118499,-6.48593 12.639755,-8.447118 28.048629,-8.435281 14.647979,0.01125 20.907596,1.748288 26.869368,7.456216 5.000233,4.787328 7.428864,10.611969 7.984688,19.149855 0.355735,5.464403 0.361371,494.934607 0.0057,500.443247 -0.544684,8.4375 -2.939201,14.18651 -7.925608,19.02869 -3.303558,3.20802 -7.351037,5.35484 -12.362602,6.5573 -2.306609,0.55344 -3.419066,0.60864 -13.692672,0.67936 -6.150152,0.0423 -11.946439,-0.0391 -12.88064,-0.18095 z"
       id="path1857" />
  </g>
</svg>
