<?xml version="1.0" encoding="UTF-8" standalone="no"?>
<!-- Created with Inkscape (http://www.inkscape.org/) -->

<svg
   width="160mm"
   height="160mm"
   viewBox="0 0 160 159.99999"
   version="1.1"
   id="svg5800"
   xmlns="http://www.w3.org/2000/svg"
   xmlns:svg="http://www.w3.org/2000/svg">
  <defs
     id="defs5797" />
  <path
     style="fill:#ffffff;fill-opacity:1;stroke-width:0.150216"
     d="m 89.451372,128.72099 c -1.161236,-0.25285 -2.485667,-0.81297 -3.861376,-1.63304 -0.601092,-0.35831 -8.077538,-5.25896 -16.614327,-10.89033 l -15.521432,-10.23886 -7.912196,-0.003 c -4.43797,-0.002 -8.373911,-0.0687 -8.963705,-0.15275 -4.719212,-0.6722 -8.52734,-4.00619 -9.869163,-8.640389 L 26.363677,95.969426 V 82.224701 c 0,-12.867297 0.01756,-13.807054 0.275101,-14.721125 1.031111,-3.659663 3.584024,-6.594411 6.979689,-8.023626 2.098725,-0.883341 2.087675,-0.882418 11.349941,-0.949474 l 8.540287,-0.06183 2.800989,-1.840235 c 1.540543,-1.012128 8.681926,-5.71744 15.869741,-10.456247 7.187815,-4.738809 13.60953,-8.902057 14.270479,-9.251664 3.785172,-2.00216 7.264615,-1.795366 9.47046,0.562859 0.766687,0.819651 1.576224,2.407561 1.979455,3.88271 0.252606,0.924112 0.266899,3.116275 0.266899,40.933742 0,38.243719 -0.01178,39.999209 -0.274518,40.933739 -1.22339,4.35135 -4.343319,6.37963 -8.440828,5.48744 z M 117.5751,101.51858 c -2.07265,-0.56863 -3.31403,-2.197107 -3.31403,-4.34743 0,-1.935141 3e-4,-1.935437 6.94988,-8.900319 l 6.18288,-6.196438 -6.32407,-6.346561 c -5.90624,-5.927248 -6.3414,-6.399947 -6.58636,-7.154577 -0.34183,-1.053052 -0.25247,-2.693939 0.19416,-3.565146 0.80419,-1.568707 2.64737,-2.579434 4.41208,-2.419415 1.66443,0.150924 1.83512,0.289942 8.50016,6.923255 l 6.19642,6.166923 6.27147,-6.244778 c 7.03266,-7.00273 6.78995,-6.817093 8.90024,-6.80729 0.92168,0.0043 1.26662,0.07813 1.89623,0.405983 2.14291,1.115855 3.06017,3.688267 2.07624,5.822729 -0.31951,0.69311 -1.37718,1.823726 -6.5665,7.019293 l -6.18565,6.193105 6.24655,6.274787 c 5.88371,5.910301 6.26607,6.327138 6.58278,7.176078 0.71134,1.906778 0.13448,4.020702 -1.42087,5.206831 -0.85806,0.65436 -1.79443,0.94774 -2.94908,0.924 -1.66341,-0.0342 -1.75232,-0.10595 -8.57997,-6.923717 l -6.2715,-6.262425 -6.2715,6.260786 c -6.66645,6.655066 -6.7678,6.738846 -8.38199,6.929716 -0.46093,0.0545 -1.05303,0.003 -1.55757,-0.13539 z"
     id="path3260" />
</svg>
