<?xml version="1.0" encoding="UTF-8" standalone="no"?>
<!-- Created with Inkscape (http://www.inkscape.org/) -->

<svg
   width="160mm"
   height="160mm"
   viewBox="0 0 160 159.99999"
   version="1.1"
   id="svg5800"
   xmlns="http://www.w3.org/2000/svg"
   xmlns:svg="http://www.w3.org/2000/svg">
  <defs
     id="defs5797" />
  <path
     style="fill:#ffffff;fill-opacity:1;stroke-width:0.149774"
     d="m 89.253645,128.18816 c -0.617819,-0.15792 -1.763593,-0.61216 -2.546165,-1.00944 -0.782571,-0.39727 -8.545737,-5.42034 -17.251481,-11.16237 L 53.627376,105.5763 H 45.69893 c -8.751357,0 -9.577258,-0.0643 -11.689045,-0.90989 -2.938631,-1.17669 -5.425689,-3.66457 -6.603277,-6.605458 -0.912869,-2.279782 -0.924251,-2.498291 -0.873518,-16.771366 0.04547,-12.791928 0.04953,-12.94487 0.374736,-14.096534 0.180823,-0.640362 0.647902,-1.786136 1.037952,-2.546165 0.580518,-1.131161 0.968682,-1.641704 2.139506,-2.814038 1.265627,-1.267259 1.611408,-1.520279 3.002956,-2.197363 2.709271,-1.318248 2.345572,-1.277002 12.131728,-1.375829 l 8.612029,-0.08697 15.27699,-10.094952 c 17.266402,-11.409547 17.219777,-11.3798 18.777882,-11.980027 3.29456,-1.269159 6.071883,-0.860472 8.018035,1.179865 0.998566,1.046892 1.719163,2.490085 2.132123,4.270154 0.267018,1.150969 0.277968,2.741919 0.277968,40.364205 0,37.442298 -0.0121,39.218748 -0.274559,40.364208 -1.099849,4.79977 -4.414109,7.02971 -8.786791,5.91202 z m 23.847415,-22.4691 c -1.64611,-0.82257 -2.47833,-2.15301 -2.47833,-3.96201 0,-1.16798 0.31449,-2.058123 1.02353,-2.897086 0.6555,-0.775597 1.45291,-1.198171 3.03618,-1.608953 3.53925,-0.918261 5.89837,-2.201393 8.10566,-4.408683 4.54666,-4.546659 5.90691,-11.323052 3.47038,-17.288432 -1.16718,-2.857617 -3.3738,-5.54532 -5.90999,-7.198496 -1.67493,-1.091771 -2.85207,-1.61604 -4.92071,-2.191548 -2.62607,-0.730592 -3.69352,-1.622857 -4.25592,-3.557453 -0.74912,-2.576852 1.18296,-5.381414 3.9005,-5.661889 1.92068,-0.198232 6.50157,1.36453 9.56105,3.261739 6.93861,4.302688 11.44135,11.735759 11.92383,19.683728 0.37233,6.133378 -1.26419,11.713153 -4.89797,16.699848 -1.0511,1.44244 -3.66935,4.060695 -5.11179,5.111795 -3.02579,2.20488 -6.14045,3.63357 -9.12417,4.18524 -2.29348,0.42404 -3.20898,0.3885 -4.32225,-0.1678 z"
     id="path2820" />
</svg>
