<?xml version="1.0" encoding="UTF-8" standalone="no"?>
<!-- Created with Inkscape (http://www.inkscape.org/) -->

<svg
   width="619.10791mm"
   height="99.770851mm"
   viewBox="0 0 619.10791 99.770851"
   version="1.1"
   id="svg5"
   xmlns="http://www.w3.org/2000/svg"
   xmlns:svg="http://www.w3.org/2000/svg">
  <defs
     id="defs2" />
  <g
     id="layer1"
     transform="translate(-10.571746,-31.715239)">
    <path
       style="fill:#ffffff;stroke-width:0.311482;fill-opacity:1"
       d="m 36.68059,120.2215 c -9.168599,-1.19394 -15.024035,-6.31448 -17.258558,-15.0925 -0.704772,-2.7686 -0.711723,-2.99062 -0.711723,-22.730751 0,-19.586925 0.0121,-19.98228 0.693275,-22.653072 2.304602,-9.036012 8.387778,-14.08219 18.307121,-15.186309 3.879787,-0.43186 558.967995,-0.43186 562.847785,0 5.8039,0.646029 9.77087,2.376588 13.11715,5.72225 2.61692,2.616451 4.16218,5.434281 5.18998,9.464059 0.68118,2.670792 0.69326,3.066147 0.69326,22.653072 0,19.740131 -0.007,19.962151 -0.71173,22.730751 -2.00402,7.87254 -6.37152,12.30246 -14.39514,14.60085 -2.33611,0.66919 -2.33611,0.66919 -284.07149,0.70833 -154.95445,0.0215 -282.619421,-0.076 -283.69993,-0.21668 z"
       id="path990" />
  </g>
</svg>
