<?xml version="1.0" encoding="UTF-8" standalone="no"?>
<!-- Created with Inkscape (http://www.inkscape.org/) -->

<svg
   width="160mm"
   height="160mm"
   viewBox="0 0 160 159.99999"
   version="1.1"
   id="svg5800"
   xmlns="http://www.w3.org/2000/svg"
   xmlns:svg="http://www.w3.org/2000/svg">
  <defs
     id="defs5797" />
  <g
     id="layer1"
     transform="translate(158.32051,-20.958313)">
    <path
       style="fill:#ffffff;fill-opacity:1;stroke-width:0.148509"
       d="m -118.92251,133.20438 c -2.20711,-0.51867 -3.4603,-1.23572 -4.81389,-2.75441 -1.7974,-2.01663 -2.60479,-5.02537 -2.02475,-7.54519 0.59196,-2.57161 -0.0747,-1.63856 10.24895,-14.34329 0.90145,-1.10937 4.04286,-4.98546 6.9809,-8.613546 2.93805,-3.62808 5.41073,-6.67115 5.49484,-6.76239 0.0841,-0.0912 0.79658,-0.96001 1.58324,-1.93062 1.8429,-2.27381 9.95977,-12.2794 10.57452,-13.0351 0.25848,-0.31774 1.82935,-2.25578 3.49083,-4.30677 3.43339,-4.23829 4.10514,-4.97489 5.14714,-5.64405 2.60314,-1.67172 5.704408,-1.83096 8.637281,-0.44349 1.649406,0.7803 2.296087,1.46355 7.912361,8.3598 0.770938,0.94664 1.440149,1.75457 1.487134,1.79541 0.04699,0.0408 0.356242,0.4084 0.68724,0.8168 0.732253,0.90349 3.904753,4.75413 5.261271,6.3859 0.543217,0.65344 3.484425,4.2288 6.536018,7.94524 5.19871,6.33136 7.31004,8.896416 9.12068,11.080706 0.41388,0.4993 1.12948,1.36808 1.59021,1.93062 0.46073,0.56254 3.11068,3.78476 5.88878,7.16049 2.77809,3.37572 5.2586,6.52703 5.51223,7.0029 0.25364,0.47586 0.59327,1.38951 0.75474,2.03032 1.18098,4.68691 -1.57998,9.31251 -6.28065,10.52231 -1.72756,0.44462 -3.94117,0.2169 -5.69449,-0.58579 -1.44024,-0.65937 -2.32905,-1.46317 -4.38976,-3.96989 -1.08618,-1.32127 -2.63944,-3.20945 -3.45169,-4.19595 -0.81226,-0.98651 -2.34933,-2.85643 -3.41572,-4.15538 -1.06639,-1.29894 -2.473521,-3.00965 -3.126962,-3.80155 -0.65344,-0.79191 -1.920736,-2.33547 -2.816211,-3.43014 -0.895477,-1.09466 -1.666471,-2.02371 -1.71332,-2.06455 -0.04685,-0.0408 -0.817843,-0.97061 -1.713319,-2.06615 -1.896322,-2.32 -4.480197,-5.47201 -5.184646,-6.32462 -1.068019,-1.29266 -5.701968,-6.919716 -6.9026,-8.381896 -3.259419,-3.96947 -3.632327,-4.3899 -3.893597,-4.3899 -0.18006,0 -2.31194,2.51456 -6.29542,7.42546 -5.29993,6.533836 -15.89842,19.588336 -17.95583,22.116756 -0.40376,0.4962 -2.59995,3.20778 -4.88042,6.02574 -4.70788,5.81749 -4.92362,6.06094 -6.04345,6.81991 -1.82892,1.23957 -4.39033,1.77782 -6.31164,1.32631 z"
       id="path11011" />
  </g>
</svg>
