<?xml version="1.0" encoding="UTF-8" standalone="no"?>
<svg xmlns="http://www.w3.org/2000/svg" shape-rendering="geometricPrecision" text-rendering="geometricPrecision" viewBox="0 0 900 900" style="white-space: pre;">
    <defs>
        <mask id="Mask-nsfw">
            <path id="path-nsfw" d="M0,0C19.8821,-33.9652,28.9947,-35.2079,28.9947,-35.2079C28.9947,-35.2079,43.9062,-40.5926,66.6878,-4.55631C89.4694,31.48,101.895,55.5042,154.086,56.3326C206.277,57.161,232.372,14.9116,241.899,-4.55631C251.426,-24.0242,247.697,-35.6222,242.727,-34.7937C237.757,-33.9652,190.951,-19.0536,132.133,-25.2668C73.3152,-31.48,66.2736,-40.1784,66.2736,-40.1784C66.2736,-40.1784,28.1663,-62.5457,102.31,-77.8715" stroke="#ffffff" fill="none" stroke-width="29.25" stroke-miterlimit="1" stroke-linecap="round" stroke-dasharray="1111" stroke-dashoffset="493" stroke-opacity="1" transform="translate(-6.57748,7.36129)"/>
        </mask>
    </defs>
    <g id="leaves-nsfw" transform="translate(491.018,297.364) translate(-76.4995,-52.7532)">
        <path id="big-leaf-nsfw" d="M0.0901294,0.457617C0.0901294,0.457617,-28.3353,-13.8871,-39.7107,-36.2215C-54.3016,-64.8691,-41.3099,-101.557,-41.3099,-101.557C-41.3099,-101.557,7.3596,-93.404,28.4122,-56.6583C43.0088,-31.181,22.54,-7.34637,22.54,-7.34637C22.54,-7.34637,20.0539,-22.9003,13.56,-37.1726C3.83177,-58.5534,-14.4439,-68.0646,-14.4439,-68.0646C-14.4439,-68.0646,-0.498459,-53.3353,2.82461,-33.2307C6.14768,-13.1261,0.0901294,0.457617,0.0901294,0.457617Z" fill="#65ffa0" stroke-width="0.25" stroke-linecap="square" stroke="none" opacity="1" transform="translate(46.6378,101.557) translate(0,0) translate(0,0)"/>
        <path id="small-leaf-nsfw" d="M-0.916139,1.10248C-0.916139,1.10248,2.50415,-26.5131,20.9282,-37.5112C42.5519,-50.4192,68.4782,-47.3301,68.4782,-47.3301C68.4782,-47.3301,65.8905,-19.4953,52.4939,-3.02414C32.2232,21.8989,11.1093,12.2453,11.1093,12.2453C11.1093,12.2453,20.4859,6.4963,31.6297,-5.73767C41.7796,-16.8805,44.4908,-24.3657,44.4908,-24.3657C44.4908,-24.3657,39.5731,-19.087,26.9961,-11.2539C12.8684,-2.45503,-0.916139,1.10248,-0.916139,1.10248Z" fill="#65ffa0" stroke-width="0.25" stroke-linecap="square" stroke="none" opacity="1" transform="translate(84.5208,91.4216) translate(0,0) translate(0,0)"/>
    </g>
    <path id="cup-bg-nsfw" d="M1.27198,0.3851C-9.04275,-0.414619,-6.33096,-13.4612,-6.33096,-13.4612C-6.33096,-13.4612,-4.36277,-25.3739,5.06384,-33.0395C13.1848,-39.6433,20.3788,-41.8892,29.3788,-41.3892C38.3788,-40.8892,45.0036,-37.3323,49.5036,-32.8323C54.0036,-28.3323,58.4122,-23.5093,63.0737,-12.2181C69.0313,2.21258,72.8772,15.1278,83.3772,26.6278C93.8772,38.1278,115.211,53.4026,144.877,53.4026C161.342,53.4026,176.745,50.4331,193.999,38.9848C211.378,27.4538,220.304,13.7067,228.606,-7.32475C230.804,-12.8918,230.608,-13.8282,230.96,-17.1056C231.008,-17.5563,231.026,-18.3234,230.921,-18.315C229.83,-18.2272,220.229,-14.7473,197.954,-11.4607C175.679,-8.17408,166.305,-5.70166,133.099,-6.96718C104.523,-8.05625,78.1603,-15.4727,63.1881,-22.7762C48.2159,-30.0797,40.7575,-43.3743,44.5085,-52.09C50.4606,-65.92,65.7229,-71.8426,80.6951,-77.6854C95.6673,-83.5282,105.564,-85.3207,108.828,-76.9131C112.469,-67.5355,104.9,-63.9432,98.2367,-62.1296C79.5918,-57.0547,69.4826,-50.3733,63.6792,-46.8547C61.8584,-45.7508,81.5833,-31.966,118.461,-28.0711C144.775,-25.2919,165.994,-25.913,187.652,-29.9332C208.993,-33.8946,216.479,-36.7268,230.012,-37.9671C245.859,-39.4195,252.689,-28.0257,250.827,-14.961C248.732,-0.259088,239.441,24.6982,222.373,41.6092C199.533,64.2394,177.858,71.3079,156.8,72.8487C127.702,74.9778,106.841,67.0355,95.2626,60.6304C77.4371,50.7696,65.1455,36.3652,57.2844,23.7476C49.5001,11.2534,48.269,5.20253,42.5287,-9.90644C38.4056,-20.7588,22.2921,-28.4393,13.7653,-11.0786C11.9627,-7.40848,11.742,1.19686,1.27198,0.3851Z" fill="#ff0fd7" stroke-linecap="square" stroke="none" fill-rule="nonzero" stroke-width="0.25" mask="url(#Mask-nsfw)" transform="translate(306,398.713)"/>
    <path id="RevealText" d="M241.852,65.0575C236.806,64.6892,231.816,63.6469,226.843,61.922C221.761,60.1598,219.972,58.9432,218.808,56.4609C218.038,54.8167,217.989,52.2417,218.699,50.67C219.791,48.253,221.964,46.7424,224.598,46.5695C225.898,46.4845,226.398,46.5637,227.784,47.0765C231.962,48.6209,235.746,49.8162,237.456,50.1332C240.625,50.7195,244.862,50.9496,247.671,50.6879C254.04,50.0953,256.582,48.2782,256.582,44.3179C256.582,43.398,256.465,42.9126,256.146,42.5075C254.931,40.9626,251.542,39.561,244.05,37.5043C237.135,35.606,233.637,34.4174,230.821,33.0091C224.911,30.0523,221.48,26.34,220.046,21.3473C219.61,19.8268,219.543,19.1118,219.557,16.0709C219.57,12.9092,219.631,12.3581,220.16,10.6229C223.538,-0.457654,233.968,-6.17302,248.945,-5.15193C254.587,-4.76741,260.01,-3.66604,264.294,-2.03537C265.837,-1.44776,266.366,-1.10822,267.478,0.00514493C269.021,1.55088,269.451,2.65847,269.414,4.99433C269.373,7.64499,267.628,10.3541,265.324,11.3455C263.518,12.1222,262.029,12.0353,258.78,10.9638C254.174,9.44455,251.673,9.04704,246.688,9.04249C241.877,9.03805,240.554,9.26723,237.762,10.59C235.808,11.5157,234.753,12.636,234.383,14.1776C233.969,15.9015,234.237,17.1379,235.265,18.2532C236.862,19.9848,239.437,21.0159,247.458,23.1343C255.567,25.2757,260.2,27.0425,263.368,29.2009C268.711,32.8398,271.306,37.783,271.306,44.321C271.306,55.5497,262.779,63.6563,249.579,64.9782C247.453,65.1912,244.148,65.225,241.852,65.0575ZM189.839,64.5969C188.512,64.125,186.779,63.0476,185.969,62.1926C185.651,61.8549,179.776,52.9224,172.914,42.3426C166.053,31.7623,159.666,21.9186,158.723,20.4679L157.008,17.8295L156.943,38.1653C156.882,57.3331,156.855,58.5619,156.471,59.5533C155.91,61.0075,154.161,62.854,152.636,63.6028C151.565,64.1291,151.117,64.2174,149.516,64.2174C147.955,64.2174,147.444,64.1214,146.406,63.6352C144.251,62.6243,142.69,60.6767,142.281,58.487C142.177,57.9311,142.221,50.5304,142.382,41.6204C142.541,32.8884,142.735,21.0942,142.816,15.4112C142.897,9.72825,143.039,4.27038,143.133,3.28293C143.457,-0.151527,145.348,-2.90334,148.365,-4.33248C149.795,-5.01003,149.945,-5.03434,152.715,-5.03434C155.585,-5.03434,155.585,-5.03434,157.242,-4.21545C158.297,-3.69447,159.253,-3.01415,159.869,-2.34638C160.403,-1.76921,167.171,8.46932,174.909,20.4058L188.978,42.109L189.088,21.5053L189.198,0.901651L189.948,-0.480194C191.353,-3.07222,193.506,-4.35902,196.453,-4.36757C197.937,-4.37212,198.406,-4.27752,199.457,-3.76242C201.643,-2.69037,203.39,-0.485524,203.728,1.63238C203.852,2.40819,203.569,23.7233,203.272,35.9667C203.212,38.4458,203.104,44.1837,203.031,48.7181C202.959,53.2526,202.806,57.3956,202.692,57.9256C202.143,60.4745,199.977,63.1273,197.505,64.2768C196.385,64.7977,195.92,64.8756,193.595,64.9315C191.491,64.9819,190.732,64.9144,189.839,64.5969ZM404.585,64.5658C402.397,63.7536,400.497,62.0251,399.493,59.9261C399.231,59.384,397.988,55.2309,396.728,50.6965C395.468,46.1621,393.122,37.7285,391.518,31.955C389.912,26.1816,388.543,21.4576,388.475,21.4576C388.407,21.4571,385.756,29.693,382.577,39.7591C379.403,49.8253,376.516,58.664,376.165,59.4002C375.377,61.0512,373.576,62.8099,371.838,63.6243C370.727,64.1449,370.303,64.2169,368.363,64.2169C366.251,64.2169,366.08,64.1804,364.472,63.3875C362.577,62.451,361.321,61.1962,360.488,59.4078C360.2,58.7883,358.709,54.1755,357.178,49.1575C355.644,44.1396,351.852,31.7732,348.745,21.6769C343.383,4.23207,343.104,3.23208,343.1,1.56076C343.094,-0.443219,343.527,-1.64174,344.752,-3.03802C348.039,-6.77772,354.194,-6.12305,356.706,-1.76655C357.031,-1.21048,358.53,3.97003,360.565,11.5639C362.397,18.3954,364.891,27.6952,366.111,32.2292C367.327,36.7637,368.385,40.5485,368.471,40.6398C368.552,40.7312,371.424,31.7281,374.851,20.6337C378.277,9.53916,381.275,0.0767633,381.51,-0.394141C382.581,-2.54636,384.918,-4.24776,387.44,-4.71334C390.541,-5.28429,394.27,-3.58099,395.859,-0.869598C396.183,-0.318081,397.539,4.27127,399.34,10.9106C407.638,41.5038,407.701,41.7231,407.885,41.2278C407.984,40.9608,410.794,31.8276,414.134,20.9321C417.475,10.0362,420.402,0.697678,420.645,0.18036C422.878,-4.62462,429.303,-5.62961,432.865,-1.73179C434.526,0.0857572,434.995,2.11461,434.36,4.7485C434.197,5.4135,430.528,16.1973,426.206,28.7119C421.879,41.2264,417.75,53.1971,417.026,55.3133C416.301,57.4294,415.409,59.7284,415.039,60.4218C414.202,62.0049,412.59,63.5262,410.961,64.2768C409.245,65.0665,406.301,65.2003,404.585,64.5658ZM290.875,64.134C288.858,63.4709,287.112,61.9918,286.236,60.2016C285.519,58.7356,285.509,57.9377,285.907,34.6051C286.377,7.1501,286.475,2.60406,286.618,1.46039C286.891,-0.715147,288.541,-2.96196,290.61,-3.97672C292.275,-4.79262,292.74,-4.80206,313.357,-4.41754L330.007,-4.10686L331.425,-3.40811C334.185,-2.05058,335.629,0.401433,335.454,3.42972C335.305,6.01598,333.937,8.14743,331.672,9.31398C330.128,10.11,328.817,10.1384,313.662,9.70438C306.666,9.50407,300.912,9.37027,300.875,9.40769C300.84,9.445,300.776,12.468,300.736,16.1258L300.66,22.7763L301.979,22.7763C306.742,22.7777,325.031,23.0253,325.873,23.1001C327.985,23.2873,330.375,25.1063,331.37,27.2829C332.132,28.947,332.086,31.4669,331.262,33.1544C330.493,34.7267,328.835,36.244,327.31,36.7749C326.301,37.127,325.548,37.1657,321.006,37.0991C318.169,37.0577,315.697,36.9951,315.509,36.9604C315.324,36.9258,311.834,36.8253,307.759,36.7366L300.349,36.5759L300.286,47.7581L300.222,58.9409L299.705,59.9778C298.931,61.5352,297.602,62.9116,296.225,63.5861C295.248,64.0643,294.622,64.2021,293.208,64.252C292.231,64.2867,291.182,64.2336,290.875,64.134Z" fill="#ff0fd7" fill-opacity="1" transform="translate(260.697,232.858) translate(-99.6967,-102.347)"/>
    <path id="RevealText-2" d="M174.404,665.141C172.319,664.862,169.255,664.074,166.774,663.173C163.392,661.949,162.137,660.184,163.063,657.965C164.059,655.57,166.306,654.912,169.325,656.127C172.458,657.388,176.381,658.086,178.803,657.816C182.869,657.352,184.592,655.668,185.048,651.697L185.193,650.428L183.569,651.193C176.196,654.646,166.363,651.503,162.734,644.529C162.238,643.574,161.663,642.161,161.458,641.396C160.951,639.49,160.962,635.236,161.48,633.305C163.199,626.902,168.976,622.499,176.128,622.134C179.208,621.981,181.516,622.435,184.093,623.706L186.022,624.659L186.45,624.056C187.069,623.187,188.924,622.444,190.174,622.566C191.546,622.696,192.736,623.305,193.443,624.236L194.035,625.016L193.971,635.254C193.895,647.222,193.656,653.088,193.168,654.943C191.876,659.86,188.485,663.327,183.59,664.727C181.662,665.281,176.999,665.493,174.404,665.141ZM182.163,643.336C183.01,642.882,184.013,642.242,184.393,641.913L185.083,641.315L185.214,636.532L185.345,631.756L184.195,630.842C181.849,628.973,179.238,628.27,176.234,628.69C173.287,629.104,171.481,630.292,170.365,632.562C169.054,635.222,169.275,639.036,170.875,641.364C172.291,643.421,174.577,644.313,178.207,644.218C180.527,644.16,180.686,644.128,182.163,643.336ZM377.822,652.422C371.096,651.462,366.549,648.009,364.729,642.49C364.252,641.039,364.198,640.495,364.198,637.244C364.202,634.326,364.283,633.363,364.612,632.301C365.832,628.384,367.949,625.555,371.118,623.601C374.792,621.333,380.97,620.82,385.585,622.391C389.925,623.868,393.343,627.334,394.706,631.639C395.089,632.841,395.193,633.71,395.193,635.596C395.193,637.757,395.139,638.09,394.697,638.712C394.428,639.095,393.742,639.63,393.185,639.9L392.162,640.395L382.613,640.243L373.068,640.09L373.212,640.594C373.455,641.445,374.495,642.805,375.486,643.557C376.989,644.709,378.466,645.047,381.893,645.033C384.729,645.025,384.967,644.983,387.206,644.21C388.493,643.763,389.88,643.408,390.28,643.417C393.01,643.48,394.982,646.1,393.887,648.217C393.126,649.685,390.6,651.067,386.989,651.994C385.058,652.494,379.965,652.728,377.822,652.422ZM386.179,631.585C385.121,629.019,382.699,627.573,379.443,627.573C377.611,627.573,375.94,628.158,374.671,629.247C373.824,629.968,372.879,631.4,372.879,631.958C372.879,632.098,374.568,632.205,377.552,632.246C380.123,632.282,383.19,632.332,384.369,632.359L386.516,632.409ZM454.063,652.417C451.69,652.08,450.001,651.567,447.93,650.549C444.301,648.771,441.852,645.736,440.784,641.71C440.141,639.275,440.146,635.173,440.794,632.737C442.28,627.163,445.854,623.458,451.114,622.03C453.527,621.377,458.24,621.382,460.676,622.039C466.975,623.746,471.131,628.694,471.528,634.966C471.685,637.424,471.572,637.902,470.582,638.995C469.313,640.404,469.285,640.41,458.79,640.238C452.149,640.134,449.388,640.157,449.388,640.324C449.388,640.828,450.271,642.229,451.073,643.003C453.513,645.362,458.844,645.807,463.805,644.078C466.035,643.3,466.944,643.246,468.196,643.813C470.694,644.948,471.176,647.613,469.204,649.392C468.254,650.252,465.724,651.364,463.279,651.999C461.338,652.503,456.287,652.728,454.063,652.417ZM462.576,632.043C462.576,631.364,461.473,629.788,460.451,629.004C457.745,626.942,453.252,627.109,450.798,629.37C449.938,630.167,449.168,631.381,449.168,631.944C449.168,632.102,450.681,632.201,453.837,632.246C456.408,632.282,459.425,632.332,460.546,632.359C462.315,632.404,462.576,632.363,462.576,632.043ZM237.345,652.273C232.86,651.738,230.519,650.346,229.13,647.384L228.552,646.15L228.628,637.411L228.705,628.671L227.133,628.671C225.436,628.671,224.52,628.342,223.948,627.523C223.536,626.938,223.496,625.384,223.879,624.871C224.03,624.668,226.182,622.773,228.662,620.658C233.637,616.407,234.242,616.06,235.752,616.596C237.168,617.096,237.569,617.83,237.542,619.874L237.518,621.594L238.173,621.725C238.534,621.796,239.88,621.859,241.165,621.863C243.86,621.868,244.984,622.238,245.806,623.39C246.984,625.047,246.369,627.398,244.499,628.388C243.634,628.842,243.25,628.892,240.529,628.892L237.517,628.892L237.375,631.477C237.127,635.978,237.168,644.525,237.439,644.795C237.72,645.073,240.023,645.097,241.985,644.84C243.714,644.615,244.667,644.926,245.685,646.05C246.341,646.78,246.469,647.082,246.469,647.919C246.469,650.314,244.702,651.607,240.642,652.187C239.107,652.408,238.592,652.417,237.345,652.273ZM129.555,651.751C125.207,650.612,122.454,647.928,121.805,644.201C121.118,640.252,123.281,636.375,127.239,634.475C129.957,633.165,132.15,632.823,137.7,632.832C141.062,632.836,142.482,632.764,142.482,632.593C142.482,631.828,141.869,630.544,141.237,629.99C140.179,629.063,138.998,628.798,135.886,628.789C133.62,628.784,132.661,628.897,130.423,629.414C128.028,629.972,127.603,630.018,126.816,629.779C125.033,629.247,124.014,628.009,124.014,626.375C124.014,624.079,125.691,622.985,131.16,621.72C133.381,621.202,139.718,621.138,141.603,621.611C145.953,622.706,149.192,625.52,150.569,629.396L151.132,630.982L151.08,638.014C151.012,647.249,150.852,649.486,150.198,650.41C148.522,652.759,144.142,652.579,142.755,650.103C142.59,649.806,142.308,649.882,140.709,650.643C137.519,652.161,132.882,652.625,129.555,651.751ZM138.245,645.25C138.822,645.056,140.011,644.457,140.888,643.916L142.482,642.93L142.482,641.629L142.482,640.324L138.927,640.324C132.785,640.324,130.388,641.063,130.39,642.958C130.391,643.66,131.1,644.836,131.724,645.169C133.019,645.862,136.283,645.903,138.245,645.25ZM265.728,651.837C257.452,650.062,252.499,643.259,253.458,634.984C253.913,631.062,255.166,628.356,257.7,625.831C261.009,622.53,265.539,620.986,271.091,621.269C274.3,621.436,275.954,621.841,278.566,623.102C280.336,623.958,280.941,624.398,282.529,626.006C285.574,629.085,286.7,631.953,286.7,636.618C286.7,642.854,283.944,647.599,278.735,650.338C276.316,651.611,273.557,652.201,270.129,652.179C268.485,652.17,266.592,652.021,265.728,651.837ZM273.398,644.264C274.345,643.907,275.067,643.417,275.965,642.521C277.025,641.462,277.287,641.031,277.695,639.685C278.331,637.591,278.239,634.637,277.482,632.913C274.998,627.249,265.481,627.145,262.721,632.755C262.239,633.732,262.188,634.115,262.188,636.695C262.188,639.378,262.226,639.63,262.801,640.805C264.505,644.277,269.248,645.826,273.398,644.264ZM348.039,651.859C346.157,651.008,345.62,650.004,345.612,647.316C345.594,641.567,344.432,638.914,341.429,637.762C340.614,637.446,339.394,637.37,334.054,637.299L327.652,637.208L327.548,642.998C327.435,649.333,327.382,649.617,326.067,650.72C323.91,652.535,320.281,651.854,319.209,649.437C318.786,648.482,318.786,648.239,319.133,631.504C319.525,612.382,319.407,613.467,321.258,612.238C322.123,611.666,322.325,611.629,325.158,611.567C326.797,611.53,331.258,611.598,335.068,611.725C340.528,611.9,342.388,612.039,343.874,612.378C350.556,613.899,354.342,617.551,354.954,623.066C355.342,626.541,353.414,630.787,350.469,632.949L349.398,633.737L350.533,634.894C352.951,637.37,353.95,640.329,354.135,645.529C354.244,648.667,354.22,648.919,353.757,649.882C353.068,651.306,351.956,651.999,350.186,652.115C349.236,652.179,348.57,652.098,348.039,651.859ZM341.902,627.613C343.793,626.992,345.103,626.024,345.629,624.867C346.472,623.012,345.962,620.463,344.54,619.455C342.685,618.132,339.687,617.681,332.735,617.681L327.877,617.681L327.733,619.694C327.656,620.801,327.593,623.12,327.593,624.845L327.593,627.983L328.304,628.082C328.701,628.14,331.591,628.163,334.739,628.136C339.921,628.09,340.587,628.042,341.902,627.613ZM487.061,651.773C483.612,650.837,481.153,649,479.951,646.456C477.845,641.999,479.843,636.861,484.602,634.512C487.286,633.187,489.578,632.823,495.17,632.832C500.478,632.841,500.257,632.913,499.609,631.359C498.767,629.343,497.376,628.78,493.248,628.784C490.847,628.789,489.974,628.888,487.799,629.424C485.472,629.99,485.111,630.027,484.278,629.779C482.464,629.234,481.482,628.042,481.482,626.375C481.482,624.628,482.657,623.449,485.174,622.656C488.894,621.49,490.154,621.305,494.346,621.319C498.033,621.333,498.425,621.373,500.077,621.922C503.351,623.007,505.877,625.06,507.273,627.762C508.465,630.067,508.574,630.842,508.551,636.695C508.515,645.371,508.317,649.09,507.835,650.044C506.849,652.008,503.778,652.719,501.653,651.472C501.081,651.134,500.608,650.787,500.604,650.702C500.599,650.616,500.46,650.369,500.294,650.148C500.01,649.77,499.915,649.788,498.474,650.517C496.237,651.643,494.715,651.985,491.487,652.102C489.123,652.183,488.358,652.13,487.061,651.773ZM495.935,645.164C496.633,644.917,497.821,644.299,498.578,643.786L499.951,642.854L499.951,641.567L499.951,640.274L495.498,640.373C492.063,640.45,490.798,640.562,489.946,640.855C488.66,641.296,487.858,642.089,487.862,642.917C487.862,643.647,488.555,644.826,489.177,645.16C490.577,645.912,493.801,645.912,495.935,645.164ZM415.949,651.341C414.873,651.116,413.234,650.13,412.716,649.392C412.113,648.532,402.109,625.844,401.969,625.016C401.825,624.187,402.19,622.985,402.829,622.174C403.838,620.891,406.588,620.338,408.119,621.112C409.668,621.891,409.894,622.31,413.567,631.171C415.526,635.903,417.201,639.856,417.287,639.95C417.372,640.049,419.209,636.289,421.366,631.598C424.504,624.773,425.449,622.908,426.106,622.269C428.052,620.373,431.465,620.788,432.811,623.084C433.864,624.885,433.914,624.74,427.714,637.47C424.206,644.664,421.825,649.288,421.393,649.752C420.164,651.063,417.85,651.738,415.949,651.341ZM97.7425,651.026C96.5777,650.566,95.9064,649.981,95.4368,649.014C94.9798,648.068,94.9789,648.018,95.2108,636.227C95.3387,629.712,95.5399,624.03,95.6579,623.592C96.0649,622.089,97.8604,620.81,99.6115,620.774C101.261,620.743,102.982,621.684,103.713,623.02C103.913,623.39,104.015,623.364,105.065,622.656C106.902,621.418,108.448,620.936,110.944,620.81C112.884,620.715,113.264,620.761,114.057,621.166C117.836,623.093,116.414,628.221,112.096,628.235C109.248,628.244,106.507,629.32,104.76,631.107L103.975,631.913L103.805,640.134C103.622,648.942,103.606,649.054,102.432,650.152C101.285,651.225,99.2278,651.607,97.7425,651.026ZM521.973,650.855C521.423,650.576,520.77,649.996,520.433,649.482C519.749,648.442,519.775,650.711,520.176,627.573C520.329,618.776,520.528,612.422,520.662,611.962C521.109,610.45,522.936,609.118,524.575,609.113C526.556,609.104,528.474,610.365,528.911,611.968C529.096,612.643,529.006,619.775,528.488,645.285C528.425,648.37,528.384,648.653,527.893,649.374C527.011,650.657,526.034,651.184,524.377,651.269C523.22,651.324,522.733,651.243,521.973,650.855ZM51.1187,650.905C48.9369,650.783,48.5861,650.702,47.7464,650.148C47.135,649.742,46.6631,649.194,46.388,648.572C45.9755,647.641,45.9738,647.284,46.3042,630.945C46.5024,621.138,46.7343,613.984,46.8671,613.57C47.1598,612.665,48.5739,611.396,49.6127,611.107C50.6019,610.833,62.6469,611,65.8215,611.328C68.6157,611.616,70.9242,612.233,73.1619,613.277C78.7894,615.912,82.382,619.986,84.1537,625.75C84.6921,627.501,84.7475,628,84.7422,631.089C84.7372,634.146,84.676,634.696,84.1474,636.434C81.9497,643.651,76.2982,648.789,68.6131,650.557C67.2772,650.864,65.6922,650.945,60.2591,650.99C56.5712,651.017,52.4577,650.982,51.1187,650.905ZM66.6346,643.066C73.0213,641.431,76.6759,636.456,76.2397,629.99C75.9448,625.628,73.6787,622.205,69.8223,620.31C67.1137,618.973,66.0187,618.771,60.396,618.532C57.6301,618.415,55.3352,618.351,55.297,618.392C55.2186,618.469,54.7648,637.924,54.7635,641.247L54.7625,643.381L56.2466,643.476C59.3654,643.664,65.1732,643.44,66.6346,643.066Z" fill="#ff0fd7" fill-opacity="0.6" transform="translate(260.697,232.858) translate(-99.6967,-102.347)"/>
    <path id="ellipse15" d="M230.094,141.103C211.992,141.103,194.632,148.317,181.829,161.164C169.03,174.012,161.838,191.434,161.838,209.604C161.838,227.767,169.03,245.194,181.829,258.042C194.632,270.885,211.992,278.103,230.094,278.103C248.197,278.103,265.557,270.885,278.355,258.042C291.158,245.194,298.351,227.767,298.351,209.604C298.351,191.434,291.158,174.012,278.355,161.164C265.557,148.317,248.197,141.103,230.094,141.103ZM207.008,169.839L254.887,170.79C254.887,170.79,259.854,170.626,262.123,176.26C264.131,181.239,259.676,187.956,259.676,187.956L227.403,247.469C225.12,251.627,221.059,252.414,216.652,250.587C212.245,248.757,211.179,243.116,213.032,239.997C214.479,237.554,243.648,185.214,243.648,185.214L206.586,184.797C206.586,184.797,198.839,185.033,198.896,177.107C198.945,170.076,207.008,169.839,207.008,169.839Z" display="inline" fill="#ff0fd7" stroke-width="0.329022" fill-opacity="1" transform="translate(449.95,566.1) translate(0,0) translate(-230.095,-209.603)"/>
    <path id="JoinBottom" d="M0,0C0,0,20.4284,-18.9337,21.4249,-32.8847C22.4214,-46.8357,32.4485,-65.7218,49.8571,-64.9183C66.5685,-64.147,76.3383,-45.6359,76.7309,-29.8951C77.0328,-17.791,98.9931,1.34485,98.9931,1.34485C98.9931,1.34485,0,0,0,0Z" fill="#ff0fd7" stroke-width="0.329022" stroke="none" fill-opacity="1" transform="translate(401.093,518.183) translate(0,0) translate(0,0)"/>
    <path id="JoinBottom-2" d="M-2.62801,-6.38485C-2.62801,-6.38485,20.3307,-16.0676,21.4249,-35.6202C22.1401,-48.3997,32.4485,-65.6554,49.8571,-64.9204C66.5685,-64.2149,77.0197,-47.2858,76.7309,-32.8856C76.3781,-15.2964,100.189,-3.7677,100.189,-3.7677C100.189,-3.7677,-2.62801,-6.38485,-2.62801,-6.38485Z" fill="#ff0fd7" stroke-width="0.329022" stroke="none" fill-opacity="1" transform="translate(499.048,454.165) translate(0,0) rotate(180) translate(0,0)"/>
    <script><![CDATA[/*
 KeyshapeJS v1.2.1 (c) 2018-2022 Pixofield Ltd | pixofield.com/keyshapejs/mit-license */
window.KeyshapeJS=function(){function r(a){return"undefined"!==typeof a}function u(a,b){return a&&0===a.indexOf(b)}function X(a){var b={},c;for(c in a)b[c]=a[c];return b}function F(a){if(!isFinite(a))throw Error("Non-finite value");}function Y(a){if(14>=a)return 16;var b=Z[a];b||(b=r(ka[a])?0|(a.toLowerCase().indexOf("color")===a.length-5?48:0):1);return b}function N(a){return 0<=a?Math.pow(a,1/3):-Math.pow(-a,1/3)}function la(a,b,c,d){if(0===a)return 0===b?b=-d/c:(a=Math.sqrt(c*c-4*b*d),d=(-c+a)/
(2*b),0<=d&&1>=d?b=d:(d=(-c-a)/(2*b),b=0<=d&&1>=d?d:0)),b;var e=c/a-b*b/(a*a)/3;c=b*b*b/(a*a*a)/13.5-b*c/(a*a)/3+d/a;var f=c*c/4+e*e*e/27;b=-b/(3*a);if(0>=f){if(0===e&&0===c)return-N(d/a);a=Math.sqrt(c*c/4-f);d=Math.acos(-c/2/a);c=Math.cos(d/3);d=Math.sqrt(3)*Math.sin(d/3);a=N(a);e=2*a*c+b;if(0<=e&&1>=e)return e;e=-a*(c+d)+b;if(0<=e&&1>=e)return e;e=a*(d-c)+b;if(0<=e&&1>=e)return e}else{a=N(-c/2+Math.sqrt(f));c=N(-c/2-Math.sqrt(f));d=a+c+b;if(0<=d&&1>=d)return d;d=-(a+c)/2+b;if(0<=d&&1>=d)return d}return 0}
function ma(a,b){if(48===a&&"number"===typeof b)return"rgba("+(b>>>24)+","+(b>>>16&255)+","+(b>>>8&255)+","+(b&255)/255+")";if(64===a)return b=b.map(function(f){return f+"px"}),b.join(",");if(96===a){for(var c="",d=b.length,e=0;e<d;e+=2)c+=b[e],c+=b[e+1].join(",");return c}if(80===a){if(0===b[0])return"none";c="";d=b.length;for(e=0;e<d;)c+=aa[b[e]],1===b[e]?c+="("+b[e+1]+") ":5===b[e]?(c+="("+b[e+1]+"px "+b[e+2]+"px "+b[e+3]+"px rgba("+(b[e+4]>>>24)+","+(b[e+4]>>16&255)+","+(b[e+4]>>8&255)+","+(b[e+
4]&255)/255+")) ",e+=3):c=2===b[e]?c+("("+b[e+1]+"px) "):7===b[e]?c+("("+b[e+1]+"deg) "):c+("("+(0>b[e+1]?0:b[e+1])+") "),e+=2;return c}return 32===a?b+"px":b}function B(a){return 0>=a?0:255<=a?255:a}function na(a,b,c,d){if(16===a||32===a)return(c-b)*d+b;if(0===a)return.5>d?b:c;if(112===a)return 0>=d?b:1<=d?c:"visible";if(48===a){if("number"===typeof b&&"number"===typeof c){a=1-d;var e=a*(b>>>16&255)+d*(c>>>16&255),f=a*(b>>>8&255)+d*(c>>>8&255),m=a*(b&255)+d*(c&255);return B(a*(b>>>24)+d*(c>>>24))<<
24|B(e)<<16|B(f)<<8|B(m)}return.5>d?b:c}if(64===a){0===b.length&&(b=[0]);0===c.length&&(c=[0]);a=b.length;b.length!==c.length&&(a=b.length*c.length);e=[];for(f=0;f<a;++f)m=b[f%b.length],m=(c[f%c.length]-m)*d+m,0>m&&(m=0),e.push(m);return e}if(96===a){if(b.length!==c.length)return.5>d?b:c;a=b.length;e=[];for(f=0;f<a;f+=2){if(b[f]!==c[f])return.5>d?b:c;e[f]=b[f];e[f+1]=[];for(m=0;m<b[f+1].length;++m)e[f+1].push((c[f+1][m]-b[f+1][m])*d+b[f+1][m])}return e}if(80===a){a=b.length;if(a!==c.length)return.5>
d?b:c;e=[];for(f=0;f<a;){if(b[f]!==c[f]||1===b[f])return.5>d?b:c;e[f]=b[f];e[f+1]=(c[f+1]-b[f+1])*d+b[f+1];if(5===b[f]){e[f+2]=(c[f+2]-b[f+2])*d+b[f+2];e[f+3]=(c[f+3]-b[f+3])*d+b[f+3];m=1-d;var k=b[f+4],h=c[f+4],g=m*(k>>>24)+d*(h>>>24),n=m*(k>>8&255)+d*(h>>8&255),p=m*(k&255)+d*(h&255);e[f+4]=(B(m*(k>>16&255)+d*(h>>16&255))<<16|B(n)<<8|B(p))+16777216*(B(g)|0);f+=3}f+=2}return e}return 0}function ba(a,b){a:{var c=a+b[2];for(var d=b[4].length,e=0;e<d;++e)if(c<b[4][e]){c=e;break a}c=d-1}d=b[2];e=b[4][c-
1]-d;d=(a-e)/(b[4][c]-d-e);if(b[6]&&b[6].length>c-1)if(e=b[6][c-1],1===e[0])if(0>=d)d=0;else if(1<=d)d=1;else{var f=e[1],m=e[3];d=la(3*f-3*m+1,-6*f+3*m,3*f,-d);d=3*d*(1-d)*(1-d)*e[2]+3*d*d*(1-d)*e[4]+d*d*d}else 2===e[0]?(e=e[1],d=Math.ceil(d*e)/e):3===e[0]&&(e=e[1],d=Math.floor(d*e)/e);return na(b[1]&240,b[5][c-1],b[5][c],d)}function O(){C||(z=(new Date).getTime()+ca)}function U(a){if(a||!J){for(var b=!1,c=0;c<D.length;++c)D[c].O(a)&&(b=!0);if(a)for(;0<K.length;)if(a=K.shift(),c=a[0],1===a[1])c.onfinish&&
(c.onfinish(),b=!0),c.N();else if(2===a[1]&&c.onloop)c.onloop();return b}}function da(){O();U(!0)&&!C?(J=!0,P(da)):J=!1}function Q(){J||(J=!0,P(da))}function ea(a,b){var c=[];a.split(b).forEach(function(d){c.push(parseFloat(d))});return c}function G(a){-1===a.indexOf(",")&&(a=a.replace(" ",","));return ea(a,",")}function fa(a){a._ks||(a._ks={});if(!a._ks.transform){for(var b=a._ks.transform=[],c=0;14>=c;++c)b[c]=0;b[10]=1;b[11]=1;if(a=a.getAttribute("transform")){a=a.trim().split(") ");for(c=a.length-
2;0<=c;--c)if(u(a[c],"translate(")){for(var d=0;d<c;d++)a.shift();break}c=a.shift();u(c,"translate(")&&(c=G(c.substring(10)),b[1]=c[0],b[2]=r(c[1])?c[1]:0,c=a.shift());u(c,"rotate(")&&(c=G(c.substring(7)),b[6]=c[0],c=a.shift());u(c,"skewX(")&&(c=G(c.substring(6)),b[7]=c[0],c=a.shift());u(c,"skewY(")&&(c=G(c.substring(6)),b[8]=c[0],c=a.shift());u(c,"scale(")&&(c=G(c.substring(6)),b[10]=c[0],b[11]=r(c[1])?c[1]:c[0],c=a.shift());u(c,"translate(")&&(c=G(c.substring(10)),b[13]=c[0],b[14]=r(c[1])?c[1]:
0)}}}function ha(a){this.m=a;this.I=[];this.G=[];this.D=0;this.B=this.g=this.i=null;this.o=this.j=this.l=0;this.h=1;this.s=this.K=this.A=!1}function H(a,b,c){b=a[b];void 0===b&&(b=a[c]);return b}function oa(a){return Array.isArray(a)?a:u(a,"cubic-bezier(")?(a=a.substring(13,a.length-1).split(","),[1,parseFloat(a[0]),parseFloat(a[1]),parseFloat(a[2]),parseFloat(a[3])]):u(a,"steps(")?(a=a.substring(6,a.length-1).split(","),[a[1]&&"start"===a[1].trim()?2:3,parseFloat(a[0])]):[0]}function pa(a){a=a.trim();
return u(a,"#")?(parseInt(a.substring(1),16)<<8)+255:u(a,"rgba(")?(a=a.substring(5,a.length-1),a=a.split(","),(parseInt(a[0],10)<<24)+(parseInt(a[1],10)<<16)+(parseInt(a[2],10)<<8)+255*parseFloat(a[3])<<0):a}function ia(a){!1===a.s&&(D.push(a),a.s=!0,!1!==a.m.autoplay&&a.play());return this}function V(a){if(!0===a.s){a._cancel();var b=D.indexOf(a);-1<b&&D.splice(b,1);b=K.indexOf(a);-1<b&&K.splice(b,1);a.s=!1}return this}var W=Error("Not in timeline list"),ja="mpath posX posY    rotate skewX skewY  scaleX scaleY  anchorX anchorY".split(" "),
qa=" translate translate    rotate skewX skewY  scale scale  translate translate".split(" "),aa="none url blur brightness contrast drop-shadow grayscale hue-rotate invert opacity saturate sepia".split(" "),P=window.requestAnimationFrame||window.webkitRequestAnimationFrame||window.mozRequestAnimationFrame||window.oRequestAnimationFrame||window.msRequestAnimationFrame||null;P||(P=function(a){window.setTimeout(a,16)});var ra=/apple/i.test(navigator.vendor),Z={d:97,fill:48,fillOpacity:16,filter:80,height:33,
opacity:16,offsetDistance:33,stroke:48,strokeDasharray:64,strokeDashoffset:32,strokeOpacity:16,strokeWidth:32,transform:1,visibility:113,width:33},ka=window.getComputedStyle(document.documentElement),J=!1,z=(new Date).getTime(),C,ca=0,D=[],K=[];ha.prototype={J:function(a){var b=0;if(null!==this.i){var c=this.u();0<this.h&&null!==c&&c>=this.j?this.o?(this.i=z-this.l/this.h,this.o--,b=2):(b=1,a?this.g=c:this.g=this.B?Math.max(this.B,this.j):this.j):0>this.h&&null!==c&&c<=this.l?this.o&&Infinity!==this.j?
(this.i=z-this.j/this.h,this.o--,b=2):(this.o=0,b=1,a?this.g=c:this.g=this.B?Math.min(this.B,this.l):this.l):null!==c&&0!==this.h&&(a&&null!==this.g&&(this.i=z-this.g/this.h),this.g=null)}this.B=this.u();return b},O:function(a){a&&(this.A&&(this.A=!1,null===this.i&&(0!==this.h&&null!==this.g?(this.i=z-this.g/this.h,this.g=null):this.i=z)),null===this.g&&null!==this.i&&(a=this.J(!1),0!==a&&K.push([this,a])));a=this.u();if(null===a)return!1;for(var b=this.I,c=this.G,d=0;d<b.length;++d){for(var e=b[d],
f=!1,m=0;m<c[d].length;++m){var k=c[d][m],h=k[0];if(null!==h){var g=k[2];var n=k[4].length,p=k[4][n-1]-g;g=0===p?k[5][n-1]:a<g?!k[9]||k[9][0]&1?k[5][0]:k[9][1]:a>=g+k[3]?!k[9]||k[9][0]&2?0===k[3]%p?k[5][n-1]:ba(k[3]%p,k):k[9][1]:ba((a-g)%p,k);0===h?(e._ks.mpath=k[8],e._ks.transform[h]=g,f=!0):14>=h?(e._ks.transform[h]=g,f=!0):(g=ma(k[1]&240,g),k[1]&1?e.setAttribute(h,g):e.style[h]=g)}}if(f){f=e;fa(f);m=f._ks.transform;k="";if(h=f._ks.mpath)n=m[0],0>n&&(n=0),100<n&&(n=100),n=n*h[2]/100,g=h[1].getPointAtLength(n),
k="translate("+g.x+","+g.y+") ",h[0]&&(.5>n?(n=g,g=h[1].getPointAtLength(.5)):n=h[1].getPointAtLength(n-.5),k+="rotate("+180*Math.atan2(g.y-n.y,g.x-n.x)/Math.PI+") ");for(h=1;h<m.length;++h)g=m[h],g!==(10===h||11===h?1:0)&&(k+=" "+qa[h]+"(",k=2>=h?k+(1===h?g+",0":"0,"+g):13<=h?k+(13===h?g+",0":"0,"+g):10<=h?k+(10===h?g+",1":"1,"+g):k+g,k+=")");f.setAttribute("transform",k)}ra&&e.setAttribute("opacity",e.getAttribute("opacity"))}return"running"===this.v()},N:function(){!1!==this.m.autoremove&&"finished"===
this.v()&&V(this)},H:function(){if(!this.K){this.K=!0;for(var a=this.I,b=this.G,c=0;c<a.length;++c)for(var d=a[c],e=0;e<b[c].length;++e)14>=b[c][e][0]&&fa(d)}},C:function(a){if("number"===typeof a)return[a,0];if(!r(this.m.markers)||!r(this.m.markers[a]))throw Error("Invalid marker: "+a);a=this.m.markers[a];return r(a.time)?[+a.time,+(a.dur||0)]:[+a,0]},play:function(a){r(a)&&null!==a&&(a=this.C(a)[0],F(a),0>this.h&&a<this.l&&(a=this.l),0<this.h&&a>this.j&&(a=this.j),this.F(a,!0));if(!this.s)throw W;
a=this.u();if(0<this.h&&(null===a||a>=this.j||a<this.l))this.g=this.l;else if(0>this.h&&(null===a||a<=this.l||a>this.j)){if(Infinity===this.j)throw Error("Cannot seek to Infinity");this.g=this.j}else 0===this.h&&null===a&&(this.g=this.l);if(null===this.g)return this;this.i=null;this.A=!0;this.H();Q();return this},pause:function(a){if(!this.s)throw W;r(a)&&(a=this.C(a)[0],F(a));if("paused"!==this.v()){O();var b=this.u();if(null===b)if(0<=this.h)this.g=this.l;else{if(Infinity===this.j)throw Error("Cannot seek to Infinity");
this.g=this.j}null!==this.i&&null===this.g&&(this.g=b);this.i=null;this.A=!1;this.J(!1);this.H();Q()}r(a)&&this.F(a,!0);return this},range:function(a,b){if(0===arguments.length)return{"in":this.l,out:this.j};var c=this.C(a)[0],d=this.D;r(b)&&(d=this.C(b)[0]);F(c);if(0>c||0>d||c>=d||isNaN(d))throw Error("Invalid range");var e=this.v();this.l=c;this.j=d;"finished"===e&&"running"===this.v()&&this.play();return this},loop:function(a){if(!r(a))return{count:this.o};this.o=!0===a?Infinity:Math.floor(a);
if(0>this.o||isNaN(this.o))this.o=0;return this},u:function(){return null!==this.g?this.g:null===this.i?null:(z-this.i)*this.h},F:function(a,b){b&&O();null!==a&&(this.H(),null!==this.g||null===this.i||0===this.h?(this.g=a,U(!1)):this.i=z-a/this.h,this.s||(this.i=null),this.B=null,this.J(!0),Q())},L:function(){return this.u()},time:function(a){if(r(a)){if(!this.s)throw W;a=this.C(a)[0];F(a);this.F(a,!0);return this}return this.L()},v:function(){var a=this.u();return this.A?"running":null===a?"idle":
null===this.i?"paused":0<this.h&&a>=this.j||0>this.h&&a<=this.l?"finished":"running"},state:function(){return this.v()},duration:function(){return this.D},M:function(a){F(a);O();var b=this.u();this.h=a;null!==b&&this.F(b,!1)},rate:function(a){return r(a)?(this.M(a),this):this.h},markers:function(a){return r(a)?(this.m.markers=X(a),this):r(this.m.markers)?this.m.markers:{}},marker:function(a){return r(this.m.markers)?this.m.markers[a]:void 0},_cancel:function(){if(!this.s||"idle"===this.v())return this;
this.i=this.g=null;this.A=!1;return this}};return{version:"1.2.1",animate:function(){var a={};1===arguments.length%2&&(a=X(arguments[arguments.length-1]));a=new ha(a);for(var b=arguments,c=0,d=0;d<b.length-1;d+=2){var e=b[d];var f=e instanceof Element?e:document.getElementById(e.substring(1));if(!f)throw Error("Invalid target: "+e);e=f;f=b[d+1];e._ks||(e._ks={});for(var m=[],k=0;k<f.length;++k){var h=f[k],g=H(h,"p","property");if("string"!==typeof g||-1!==g.indexOf("-")||""===g||!(0<Z[g]||0<=ja.indexOf(g)))throw Error("Invalid property: "+
g);var n=ja.indexOf(g);""!==g&&0<=n&&(g=n);n=Y(g);var p=H(h,"t","times");if(!p||2>p.length)throw Error("Not enough times");p=p.slice();if(!isFinite(p[0])||0>p[0])throw Error("Invalid time: "+p[0]);for(var w=1;w<p.length;++w)if(!isFinite(p[w])||0>p[w]||p[w]<p[w-1])throw Error("Invalid time: "+p[w]);w=p[0];var R=p[p.length-1]-w,S=h.iterations||0;1>S&&(S=1);R*=S;c<R+w&&(c=R+w);var I=H(h,"v","values");if(!I||I.length!==p.length)throw Error("Values do not match times");I=I.slice();for(var x=g,l=I,L=Y(x)&
240,q=0;q<l.length;++q)if(96===L){for(var E=l[q].substring(6,l[q].length-2).match(/[A-DF-Za-df-z][-+0-9eE., ]*/ig),M=[],t=0;t<E.length;++t){M.push(E[t][0]);for(var v=1<E[t].trim().length?E[t].substring(1).split(","):[],A=0;A<v.length;++A)v[A]=parseFloat(v[A]);M.push(v)}l[q]=M}else if(48===L)u(l[q],"#")?(E=9===l[q].length,l[q]=parseInt(l[q].substring(1),16),E||(l[q]=256*l[q]|255)):u(l[q],"url(")||"none"===l[q]||(console.warn("unsupported color: "+l[q]),l[q]=0);else if(80===L){E=l;M=q;t=l[q];if("none"===
t)t=[0];else{v=[];for(var y=t.indexOf("(");0<y;)if(A=aa.indexOf(t.substring(0,y)),0<=A){v.push(A);var T=t.indexOf(") ");0>T&&(T=t.length-1);y=t.substring(y+1,T).split(" ");5===A?(v.push(parseFloat(y[0])),v.push(parseFloat(y[1])),v.push(parseFloat(y[2])),v.push(pa(y[3]))):1===A?v.push(y[0]):v.push(parseFloat(y[0]));t=t.substring(T+1).trim();y=t.indexOf("(")}else break;t=v}E[M]=t}else 64===L?"none"!==l[q]?/^[0-9 .]*$/.test(l[q])?l[q]=ea(l[q]," "):(console.warn("unsupported value: "+l[q]),l[q]=[0]):
l[q]=[0]:32===L?(F(l[q]),l[q]=parseFloat(l[q])):0===x&&(l[q]=parseFloat(l[q]));x=H(h,"e","easing");l=p.length;for(x||(x=[]);x.length<l;)x.push([1,0,0,.58,1]);for(l=0;l<x.length;++l)x[l]=oa(x[l]);n=[g,n,w,R,p,I,x,S];p=H(h,"mp","motionPath");r(p)&&0===g&&(n[8]=[],n[8][0]=h.motionRotate,g=document.createElementNS("http://www.w3.org/2000/svg","path"),p||(p="M0,0"),g.setAttribute("d",p),n[8][1]=g,n[8][2]=g.getTotalLength());h=H(h,"f","fill");r(h)&&(n[9]=h.slice());m.push(n)}0<m.length&&(a.I.push(e),a.G.push(m))}a.D=
c;a.l=0;a.j=a.D;ia(a);return a},add:ia,remove:V,removeAll:function(){for(var a=D.length-1;0<=a;--a)V(D[a]);return this},timelines:function(){return D.slice()},globalPlay:function(){C&&(ca=C-(new Date).getTime(),C=void 0,Q());return this},globalPause:function(){C||(C=z,U(!1));return this},globalState:function(){return C?"paused":"running"}}}();
]]></script>
    <script>
    window.ks=document.ks=KeyshapeJS;
    document.tl = undefined;
    document.playNSFW = function(){
        document.tl = window.ks.animate("#big-leaf-nsfw",[{p:'mpath',t:[100,600],v:['0%','100%'],e:[[1,0.42,0,0.58,1],[0]],mp:"M46.6378,101.557L114.64,90.56"},{p:'rotate',t:[0,500],v:[0,9],e:[[1,0.42,0,0.58,1],[0]]},{p:'fillOpacity',t:[0,300,500],v:[1,1,0],e:[[0],[0],[0]]}],
"#small-leaf-nsfw",[{p:'mpath',t:[0,500],v:['0%','100%'],e:[[1,0.42,0,0.58,1],[0]],mp:"M84.5208,91.4216L161.52,74.42"},{p:'rotate',t:[0,500],v:[0,12],e:[[1,0.42,0,0.58,1],[0]]},{p:'fillOpacity',t:[0,300,500],v:[1,1,0],e:[[0],[0],[0]]}],
"#path-nsfw",[{p:'strokeOpacity',t:[0,500,600],v:[1,1,0],e:[[0],[0],[0]]},{p:'strokeDashoffset',t:[0,1000],v:[493,1116],e:[[0],[0]]}],
"#RevealText",[{p:'fillOpacity',t:[0,200],v:[1,0],e:[[0],[0]]}],
"#RevealText-2",[{p:'fillOpacity',t:[0,200],v:[0.6,0],e:[[0],[0]]}],
"#ellipse15",[{p:'mpath',t:[0,400,500,700],v:['0%','13.624845%','21.111622%','100%'],e:[[1,0.43282,0,0.644748,0.740104],[1,0.302639,0.622476,0.631281,1],[1,0.42,0,0.58,1],[0]],mp:"M449.95,566.1L449.95,596.497L449.95,613.2L449.95,437.2"},{p:'scaleX',t:[0,400,700,800],v:[1,0.9,1.5,1.4],e:[[0],[1,0.42,0,0.58,1],[0],[0]]},{p:'scaleY',t:[0,400,700,800],v:[1,1,1.5,1.4],e:[[0],[1,0.42,0,0.58,1],[0],[0]]},{p:'anchorX',t:[0,700],v:[-230.094,-230.094],e:[[0],[0]]},{p:'anchorY',t:[0,700],v:[-209.603,-224.6],e:[[0],[0]]},{p:'fillOpacity',t:[0,1000,1300],v:[1,1,0],e:[[0],[1,0,0,0.58,1],[0]]}],
"#JoinBottom",[{p:'mpath',t:[0,400,500],v:['0%','71.125966%','100%'],e:[[1,0.433964,0,0.659745,0.689593],[1,0.296462,0.607823,0.621891,1],[0]],mp:"M401.093,518.183L401.093,545.92L401.093,557.18"},{p:'scaleX',t:[0,400,500],v:[1,1,1],e:[[1,0.433964,0,0.659745,0.689593],[1,0.296462,0.607823,0.621891,1],[0]]},{p:'scaleY',t:[0,400,500],v:[1,1.261,0.1],e:[[1,0.433964,0,0.659745,0.689593],[1,0.296462,0.607823,0.621891,1],[0]]},{p:'fillOpacity',t:[0,500,600],v:[1,1,0],e:[[0],[0],[0]]}],
"#JoinBottom-2",[{p:'mpath',t:[0,400,500],v:['0%','50%','100%'],e:[[1,0.433964,0,0.659745,0.689593],[1,0.296462,0.607823,0.621891,1],[0]],mp:"M499.048,454.165L499.048,451.43L499.048,454.165"},{p:'scaleX',t:[0,400,500],v:[1,1,1],e:[[1,0.433964,0,0.659745,0.689593],[1,0.296462,0.607823,0.621891,1],[0]]},{p:'scaleY',t:[0,400,500],v:[1,1.348,0.2],e:[[1,0.433964,0,0.659745,0.689593],[1,0.296462,0.607823,0.621891,1],[0]]},{p:'fillOpacity',t:[0,500,600],v:[1,1,0],e:[[0],[0],[0]]}],
{autoremove:false}).range(0,1300);
    };
    document.wobbleNSFW = function(){
        document.tl = window.ks.animate("#big-leaf-nsfw",[{p:'mpath',t:[0,900],v:['0%','0%'],e:[[0],[0]],mp:"M46.6378,101.557L46.6378,101.557"},{p:'rotate',t:[0,300,600],v:[0,10,0],e:[[1,0.42,0,0.58,1],[1,0.42,0,0.58,1],[0]]},{p:'fillOpacity',t:[0,900],v:[1,0.99],e:[[0],[0]]}],
"#small-leaf-nsfw",[{p:'mpath',t:[0,900],v:['0%','0%'],e:[[0],[0]],mp:"M84.5208,91.4216L84.5208,91.4216"},{p:'rotate',t:[0,200,500,700],v:[0,8,-5,0],e:[[1,0.42,0,0.58,1],[1,0.42,0,0.58,1],[1,0.42,0,0.58,1],[0]]},{p:'fillOpacity',t:[0,900],v:[1,1],e:[[0],[0]]}],
"#path-nsfw",[{p:'strokeOpacity',t:[0,900],v:[1,1],e:[[0],[0]]},{p:'strokeDashoffset',t:[0,900],v:[493,493],e:[[0],[0]]}],
"#RevealText",[{p:'fillOpacity',t:[0,900],v:[1,1],e:[[0],[0]]}],
"#RevealText-2",[{p:'fillOpacity',t:[0,900],v:[0.6,0.6],e:[[0],[0]]}],
"#ellipse15",[{p:'mpath',t:[0,200,400,600,900],v:['0%','34.082404%','84.082404%','96.310861%','100%'],e:[[1,0.42,0,0.58,1],[1,0,0,0.58,1],[1,0.433203,0,0.682003,0.615478],[1,0.288922,0.578991,0.606405,1],[0]],mp:"M449.95,566.1L449.95,602.5L449.95,549.1L449.95,562.16L449.95,566.1"},{p:'scaleX',t:[0,200,400,600,900],v:[1,0.9,1,1,1],e:[[1,0.42,0,0.58,1],[1,0.42,0,0.58,1],[1,0.433203,0,0.682003,0.615478],[1,0.288922,0.578991,0.606405,1],[0]]},{p:'scaleY',t:[0,200,400,600,900],v:[1,1,0.8,0.953645,1],e:[[1,0.42,0,0.58,1],[1,0.42,0,0.58,1],[1,0.433203,0,0.682003,0.615478],[1,0.288922,0.578991,0.606405,1],[0]]},{p:'anchorX',t:[0,200,400,900],v:[-230.094,-230.094,-230.094,-230.094],e:[[1,0.42,0,0.58,1],[1,0.42,0,0.58,1],[1,0.42,0,0.58,1],[0]]},{p:'anchorY',t:[0,200,400,900],v:[-209.603,-224.6,-209.603,-209.603],e:[[1,0.42,0,0.58,1],[1,0.42,0,0.58,1],[1,0.42,0,0.58,1],[0]]},{p:'fillOpacity',t:[0,900],v:[1,1],e:[[0],[0]]}],
"#JoinBottom",[{p:'mpath',t:[0,200,300,400,600,900],v:['0%','39.920851%','77.874223%','89.920851%','97.664096%','100%'],e:[[1,0.42,0,0.58,1],[1,0.42,0,0.71,0.5],[1,0.29,0.5,0.58,1],[1,0.433203,0,0.682003,0.615478],[1,0.288922,0.578991,0.606405,1],[0]],mp:"M401.093,518.183L401.093,545.92L401.093,519.55L401.093,511.18L401.09,516.56L401.093,518.183"},{p:'scaleX',t:[0,200,400,600,900],v:[1,1,1,1,1],e:[[1,0.42,0,0.58,1],[1,0.42,0,0.58,1],[1,0.433203,0,0.682003,0.615478],[1,0.288922,0.578991,0.606405,1],[0]]},{p:'scaleY',t:[0,200,400,600,900],v:[1,1.261,0.8,0.953645,1],e:[[1,0.42,0,0.58,1],[1,0.42,0,0.58,1],[1,0.433203,0,0.682003,0.615478],[1,0.288922,0.578991,0.606405,1],[0]]},{p:'fillOpacity',t:[0,900],v:[1,1],e:[[0],[0]]}],
"#JoinBottom-2",[{p:'mpath',t:[0,200,400,600,900],v:['0%','30.355099%','71.864437%','91.509338%','100%'],e:[[1,0.42,0,0.58,1],[1,0.42,0,0.58,1],[1,0.433203,0,0.682003,0.615478],[1,0.288922,0.578991,0.606405,1],[0]],mp:"M499.048,454.165L499.048,451.43L499.048,455.17L499.048,453.4L499.048,454.165"},{p:'scaleX',t:[0,200,400,600,900],v:[1,1,1,1,1],e:[[1,0.42,0,0.58,1],[1,0.42,0,0.58,1],[1,0.433203,0,0.682003,0.615478],[1,0.288922,0.578991,0.606405,1],[0]]},{p:'scaleY',t:[0,200,400,600,900],v:[1,1.348,0.8,0.953645,1],e:[[1,0.42,0,0.58,1],[1,0.42,0,0.58,1],[1,0.433203,0,0.682003,0.615478],[1,0.288922,0.578991,0.606405,1],[0]]},{p:'fillOpacity',t:[0,900],v:[1,1],e:[[0],[0]]}],
{autoremove:false}).range(0,900);
    };
    </script>
    <style>
        pointer-events: none;
        -webkit-user-select: none;
        -webkit-touch-callout: none;
        -webkit-tap-highlight-color:
        rgba(255, 255, 255, 0);
        user-select: none;
    </style>
</svg>