<?xml version="1.0" encoding="UTF-8" standalone="no"?>
<svg xmlns="http://www.w3.org/2000/svg" shape-rendering="geometricPrecision" text-rendering="geometricPrecision" viewBox="0 0 900 900" style="white-space: pre;">
    <defs>
        <mask id="Mask-nsfw">
            <path id="path-nsfw" d="M0,0C19.8821,-33.9652,28.9947,-35.2079,28.9947,-35.2079C28.9947,-35.2079,43.9062,-40.5926,66.6878,-4.55631C89.4694,31.48,101.895,55.5042,154.086,56.3326C206.277,57.161,232.372,14.9116,241.899,-4.55631C251.426,-24.0242,247.697,-35.6222,242.727,-34.7937C237.757,-33.9652,190.951,-19.0536,132.133,-25.2668C73.3152,-31.48,66.2736,-40.1784,66.2736,-40.1784C66.2736,-40.1784,28.1663,-62.5457,102.31,-77.8715" stroke="#ffffff" fill="none" stroke-width="29.25" stroke-miterlimit="1" stroke-linecap="round" stroke-dasharray="1111" stroke-dashoffset="493" stroke-opacity="1" transform="translate(-6.57748,7.36129)"/>
        </mask>
    </defs>
    <g id="leaves-nsfw" transform="translate(491.018,297.364) translate(-76.4995,-52.7532)">
        <path id="big-leaf-nsfw" d="M0.0901294,0.457617C0.0901294,0.457617,-28.3353,-13.8871,-39.7107,-36.2215C-54.3016,-64.8691,-41.3099,-101.557,-41.3099,-101.557C-41.3099,-101.557,7.3596,-93.404,28.4122,-56.6583C43.0088,-31.181,22.54,-7.34637,22.54,-7.34637C22.54,-7.34637,20.0539,-22.9003,13.56,-37.1726C3.83177,-58.5534,-14.4439,-68.0646,-14.4439,-68.0646C-14.4439,-68.0646,-0.498459,-53.3353,2.82461,-33.2307C6.14768,-13.1261,0.0901294,0.457617,0.0901294,0.457617Z" fill="#65ffa0" stroke-width="0.25" stroke-linecap="square" stroke="none" opacity="1" fill-opacity="1" transform="translate(46.6378,101.557) translate(0,0) translate(0,0)"/>
    </g>
    <path id="cup-bg-nsfw" d="M1.27198,0.3851C-9.04275,-0.414619,-6.33096,-13.4612,-6.33096,-13.4612C-6.33096,-13.4612,-4.36277,-25.3739,5.06384,-33.0395C13.1848,-39.6433,20.3788,-41.8892,29.3788,-41.3892C38.3788,-40.8892,45.0036,-37.3323,49.5036,-32.8323C54.0036,-28.3323,58.4122,-23.5093,63.0737,-12.2181C69.0313,2.21258,72.8772,15.1278,83.3772,26.6278C93.8772,38.1278,115.211,53.4026,144.877,53.4026C161.342,53.4026,176.745,50.4331,193.999,38.9848C211.378,27.4538,220.304,13.7067,228.606,-7.32475C230.804,-12.8918,230.608,-13.8282,230.96,-17.1056C231.008,-17.5563,231.026,-18.3234,230.921,-18.315C229.83,-18.2272,220.229,-14.7473,197.954,-11.4607C175.679,-8.17408,166.305,-5.70166,133.099,-6.96718C104.523,-8.05625,78.1603,-15.4727,63.1881,-22.7762C48.2159,-30.0797,40.7575,-43.3743,44.5085,-52.09C50.4606,-65.92,65.7229,-71.8426,80.6951,-77.6854C95.6673,-83.5282,105.564,-85.3207,108.828,-76.9131C112.469,-67.5355,104.9,-63.9432,98.2367,-62.1296C79.5918,-57.0547,69.4826,-50.3733,63.6792,-46.8547C61.8584,-45.7508,81.5833,-31.966,118.461,-28.0711C144.775,-25.2919,165.994,-25.913,187.652,-29.9332C208.993,-33.8946,216.479,-36.7268,230.012,-37.9671C245.859,-39.4195,252.689,-28.0257,250.827,-14.961C248.732,-0.259088,239.441,24.6982,222.373,41.6092C199.533,64.2394,177.858,71.3079,156.8,72.8487C127.702,74.9778,106.841,67.0355,95.2626,60.6304C77.4371,50.7696,65.1455,36.3652,57.2844,23.7476C49.5001,11.2534,48.269,5.20253,42.5287,-9.90644C38.4056,-20.7588,22.2921,-28.4393,13.7653,-11.0786C11.9627,-7.40848,11.742,1.19686,1.27198,0.3851Z" fill="#ff3400" stroke-linecap="square" stroke="none" fill-rule="nonzero" stroke-width="0.25" mask="url(#Mask-nsfw)" transform="translate(306,398.713)"/>
    <path id="ellipse19" d="M202.389,92.6155C184.287,92.6155,166.927,99.8328,154.124,112.679C141.326,125.526,134.134,142.948,134.134,161.117C134.134,179.281,141.326,196.708,154.124,209.554C166.927,222.397,184.287,229.616,202.389,229.616C220.491,229.616,237.851,222.397,250.654,209.554C263.452,196.708,270.644,179.281,270.644,161.117C270.644,142.948,263.452,125.526,250.654,112.679C237.851,99.8328,220.491,92.6155,202.389,92.6155ZM182.301,130.261C183.145,130.288,184.065,130.385,185.051,130.603C187.388,131.114,189.147,133.148,189.076,135.858C189,138.568,187.534,178.348,187.534,178.348L194.189,178.561C194.189,178.561,199.635,178.766,199.484,183.781C199.315,189.325,193.247,188.996,193.247,188.996L166.145,188.09C166.145,188.09,160.934,187.881,161.09,182.817C161.241,177.833,166.536,177.619,166.536,177.619L175.229,177.908L176.473,143.53L170.467,146.142C170.467,146.142,164.643,148.199,162.555,143.477C160.548,138.946,164.79,136.56,164.79,136.56L176.424,131.545C176.424,131.545,178.645,130.163,182.301,130.261ZM227.692,130.625C228.536,130.621,229.456,130.687,230.451,130.87C232.805,131.3,234.635,133.268,234.657,135.978C234.68,138.692,234.6,178.499,234.6,178.499L241.259,178.481C241.259,178.481,246.709,178.499,246.731,183.51C246.758,189.058,240.677,188.943,240.677,188.943L213.561,188.983C213.561,188.983,208.346,188.956,208.324,183.887C208.302,178.903,213.588,178.503,213.588,178.503L222.286,178.49L222.33,144.085L216.418,146.906C216.418,146.906,210.669,149.163,208.417,144.521C206.254,140.061,210.412,137.528,210.412,137.528L221.859,132.109C221.859,132.109,224.036,130.652,227.692,130.625Z" display="inline" fill="#ff3400" stroke-width="0.329022" fill-opacity="1" transform="translate(449.945,566.1) translate(0,0) translate(-202.389,-161.116)"/>
    <path id="JoinBottom" d="M0,0C0,0,20.4284,-18.9337,21.4249,-32.8847C22.4214,-46.8357,32.4485,-65.7218,49.8571,-64.9183C66.5685,-64.147,76.3383,-45.6359,76.7309,-29.8951C77.0328,-17.791,98.9931,1.34485,98.9931,1.34485C98.9931,1.34485,0,0,0,0Z" fill="#ff3400" stroke-width="0.329022" stroke="none" fill-opacity="1" transform="translate(401.093,518.183) translate(0,0) translate(0,0)"/>
    <path id="JoinBottom-2" d="M-2.62801,-6.38485C-2.62801,-6.38485,20.3307,-16.0676,21.4249,-35.6202C22.1401,-48.3997,32.4485,-65.6554,49.8571,-64.9204C66.5685,-64.2149,77.0197,-47.2858,76.7309,-32.8856C76.3781,-15.2964,100.189,-3.7677,100.189,-3.7677C100.189,-3.7677,-2.62801,-6.38485,-2.62801,-6.38485Z" fill="#ff3400" stroke-width="0.329022" stroke="none" fill-opacity="1" transform="translate(499.048,454.165) translate(0,0) rotate(180) translate(0,0)"/>
    <path id="BH-text" d="M495.264,209.168C490.962,208.642,485.787,207.36,481.493,205.757C475.799,203.631,473.886,201.789,473.886,198.437C473.886,196.586,474.445,195.27,475.812,193.903C477.364,192.351,478.471,191.93,480.981,191.938C482.961,191.944,483.175,191.993,485.128,192.879C489.643,194.928,494.577,195.999,499.467,195.992C505.79,195.983,508.879,194.227,510.413,189.769C510.838,188.534,511.369,185.441,511.187,185.259C511.135,185.207,510.28,185.536,509.287,185.99C506.249,187.378,503.815,187.898,499.735,188.028C496.978,188.116,495.682,188.057,493.923,187.763C489.847,187.082,485.909,185.55,482.642,183.376C474.796,178.156,470.829,169.712,471.715,160.118C472.32,153.578,474.477,148.86,478.878,144.452C482.702,140.623,487.219,138.278,493.286,136.974C495.865,136.42,501.644,136.418,504.272,136.97C507.364,137.62,510.16,138.71,512.863,140.32L513.872,140.921L514.699,140.006C515.16,139.496,516.169,138.774,516.981,138.375C518.302,137.724,518.617,137.659,520.418,137.665C522.533,137.672,523.671,138.029,525.409,139.229C526.463,139.956,527.71,141.795,527.978,143.017C528.111,143.625,528.116,145.768,527.99,148.839C527.881,151.512,527.546,160.224,527.245,168.201C526.619,184.852,526.548,186.166,526.129,188.857C524.485,199.444,517.904,206.551,507.678,208.786C505.395,209.285,498.069,209.51,495.264,209.168ZM504.05,174.576C504.714,174.4,505.841,173.949,506.556,173.574C508.031,172.801,510.983,170.849,511.194,170.508C511.271,170.383,511.478,166.797,511.654,162.539L511.975,154.797L511.035,153.97C509.592,152.7,507.179,151.141,505.781,150.576C503.915,149.823,502.483,149.598,499.548,149.599C495.33,149.6,492.315,150.651,489.853,152.976C487.588,155.116,486.475,158.283,486.475,162.587C486.475,166.255,487.206,168.629,489.027,170.874C490.587,172.796,494.001,174.426,497.461,174.899C499.278,175.148,502.491,174.99,504.05,174.576ZM197.5,188.934C193.863,188.517,189.224,186.906,186.678,185.176L185.87,184.627L184.681,185.787C183.115,187.317,181.572,187.922,179.187,187.944C175.435,187.978,172.515,185.968,171.688,182.781C171.44,181.823,171.522,178.513,172.272,159.223C173.836,119.003,173.655,122.367,174.33,120.988C175.038,119.539,176.294,118.36,177.952,117.586C179.014,117.09,179.479,117.009,181.274,117.011C183.107,117.013,183.53,117.09,184.744,117.647C186.583,118.49,188.169,120.203,188.653,121.866C188.972,122.964,188.973,123.795,188.671,131.242C188.488,135.736,188.379,139.453,188.428,139.502C188.477,139.551,189.302,139.233,190.261,138.794C193.624,137.257,196.801,136.629,201.155,136.641C204.702,136.651,207.153,137.027,210.094,138.012C217.192,140.388,222.716,145.201,225.769,151.67C228.88,158.262,228.745,167.579,225.439,174.384C220.577,184.392,209.265,190.283,197.5,188.934ZM203.805,175.227C207.072,174.393,210.071,172.139,211.338,169.565C212.423,167.361,212.781,165.535,212.789,162.158C212.799,157.792,211.966,155.428,209.602,153.116C206.583,150.162,201.41,148.943,196.261,149.973C194.216,150.382,190.158,152.319,188.811,153.529L187.887,154.358L187.617,162.316C187.307,171.438,187.117,170.451,189.514,172.158C191.808,173.79,194.622,175.034,196.875,175.41C198.326,175.652,202.58,175.54,203.805,175.227ZM451.07,188.961C448.632,188.549,446.275,186.798,445.373,184.727C444.764,183.33,444.764,183.167,445.391,167.585C445.855,156.057,445.828,154.922,445.048,153.054C444.518,151.786,443.48,150.793,442.132,150.264C441.054,149.841,440.472,149.774,437.915,149.778C435.432,149.782,434.738,149.861,433.652,150.257C431.213,151.149,428.465,152.917,426.236,155.028C425.185,156.022,425.171,156.054,425.172,157.394C425.176,160.776,424.244,182.126,424.062,182.826C423.556,184.769,421.746,186.59,419.469,187.448C417.857,188.056,414.821,187.966,413.258,187.264C411.796,186.608,410.154,184.996,409.555,183.629C409.121,182.639,409.057,182.153,409.089,180.066C409.148,176.166,410.425,143.473,410.565,142.296C411.094,137.836,416.495,135.039,421.102,136.84C422.916,137.548,423.794,138.324,425.285,140.533C425.476,140.815,425.789,140.698,427.37,139.758C431.134,137.519,434.853,136.601,440.112,136.611C447.372,136.625,452.828,138.944,456.728,143.671C459.673,147.242,461.021,151.365,461.012,156.775C461.006,160.546,460.161,182.406,459.981,183.472C459.526,186.159,456.924,188.432,453.705,188.954C452.936,189.079,452.258,189.17,452.197,189.157C452.137,189.144,451.63,189.056,451.07,188.961ZM611.892,188.942C609.201,188.648,606.618,186.624,605.859,184.215C605.499,183.071,605.505,182.387,605.991,169.566C606.413,158.439,606.454,155.888,606.228,154.797C605.61,151.813,604.206,150.413,601.292,149.874C598.456,149.35,595.204,149.747,592.732,150.919C591.123,151.681,587.973,153.905,586.801,155.105L585.954,155.973L585.446,169.077C585.041,179.514,584.866,182.399,584.584,183.249C584.105,184.688,582.816,186.093,581.137,187.003C579.795,187.731,579.667,187.756,577.332,187.756C575.088,187.756,574.822,187.71,573.629,187.105C571.953,186.256,570.535,184.675,570.04,183.105C569.672,181.938,569.685,181.198,570.379,163.072C571.747,127.387,571.948,122.766,572.17,121.94C573.315,117.689,578.982,115.579,583.312,117.792C584.974,118.642,586.496,120.296,586.876,121.667C587.164,122.702,587.147,126.195,586.817,134.29L586.56,140.589L587.878,139.827C591.153,137.936,594.058,137.041,598.144,136.666C603.224,136.198,608.327,137.111,611.939,139.132C617.416,142.198,620.809,147.357,621.597,153.816C621.806,155.531,621.753,158.304,621.293,169.629C620.987,177.182,620.642,183.687,620.526,184.084C619.567,187.359,615.962,189.388,611.892,188.942ZM302.744,188.441C301.576,187.961,299.716,186.692,299.7,186.365C299.696,186.284,299.508,185.998,299.283,185.728L298.874,185.238L296.819,186.198C292.534,188.198,289.033,188.837,283.228,188.68C279.034,188.566,277.393,188.248,274.241,186.936C269.202,184.84,265.418,180.545,264.415,175.781C263.917,173.417,264.101,170.272,264.871,167.983C267.1,161.361,273.121,157.281,282.568,155.994C284.572,155.721,293.937,155.673,297.159,155.919L299.115,156.068L298.98,155.231C298.756,153.853,297.803,152.161,296.903,151.545C295.603,150.656,293.581,150.099,290.696,149.836C287.314,149.527,284.195,149.808,279.422,150.851C275.478,151.713,274.977,151.747,273.346,151.263C268.914,149.947,267.165,145.494,269.636,141.818C270.447,140.612,272.111,139.649,274.881,138.783C280.684,136.968,285.408,136.319,291.341,136.521C299.455,136.797,304.358,138.649,308.845,143.133C312.549,146.835,314.421,151.309,314.434,156.491C314.446,161.71,313.498,182.973,313.206,184.039C312.867,185.275,311.864,186.674,310.705,187.529C308.657,189.038,305.168,189.438,302.744,188.441ZM289.49,175.993C291.263,175.74,292.679,175.306,294.543,174.444C296.004,173.768,298.358,172.294,298.752,171.809C298.892,171.637,299.039,170.764,299.08,169.869C299.147,168.384,299.115,168.236,298.716,168.174C297.399,167.967,286.466,168.043,285.205,168.267C282.716,168.71,281.426,169.19,280.657,169.958C280.024,170.591,279.932,170.828,279.932,171.815C279.932,174.285,281.402,175.543,284.804,175.985C286.778,176.241,287.738,176.243,289.49,175.993ZM656.401,188.756C643.218,187.233,634.024,179.115,632.253,167.432C631.391,161.746,632.251,155.573,634.569,150.811C638.248,143.252,645.328,138.253,654.449,136.774C657.424,136.291,663.148,136.347,666.322,136.89C680.885,139.38,689.814,150.798,688.403,165.127C688.04,168.816,687.303,171.464,685.777,174.573C682.229,181.796,675.705,186.601,667.098,188.329C664.707,188.809,658.878,189.042,656.401,188.756ZM663.883,175.347C666.28,174.734,668.061,173.728,669.748,172.034C672.059,169.714,672.967,167.359,673.178,163.143C673.333,160.038,672.991,157.979,671.986,155.97C670.525,153.05,668.172,151.201,664.445,150.045C662.32,149.386,658.499,149.334,656.323,149.934C651.575,151.245,648.572,154.318,647.636,158.824C647.196,160.944,647.197,164.988,647.638,166.89C648.594,171.011,651.851,174.152,656.405,175.346C658.555,175.91,661.681,175.91,663.883,175.347ZM716.528,188.839C716.226,188.786,715.251,188.636,714.362,188.505C710.97,188.004,707.874,186.623,705.788,184.68C703.438,182.492,702.214,180.117,701.823,176.99C701.656,175.651,702.104,160.274,702.56,151.692L702.678,149.466L700.32,149.314C697.333,149.122,696.496,148.902,695.53,148.054C694.447,147.103,694.045,146.219,694.044,144.785C694.042,142.675,694.298,142.398,702.495,135.659C706.596,132.287,710.453,129.257,711.068,128.925C713.174,127.785,715.845,128.223,717.369,129.958C718.405,131.139,718.506,131.546,718.506,134.562L718.506,137.26L723.084,137.392C726.9,137.501,727.853,137.596,728.809,137.959C732.119,139.217,733.74,142.416,732.747,145.731C732.399,146.89,730.795,148.638,729.406,149.371L728.284,149.963L723.065,149.929L717.847,149.895L717.847,151.028C717.847,151.651,717.644,157.228,717.396,163.422C716.881,176.261,716.839,175.788,718.509,176.04C720.177,176.291,721.708,176.236,723.271,175.869C729.528,174.401,734.462,179.387,731.736,184.422C730.266,187.138,726.172,188.706,720.154,188.857C718.462,188.899,716.83,188.891,716.528,188.839ZM243.533,188.31C242.198,188.026,240.84,187.285,239.758,186.25C238.419,184.969,237.912,183.879,237.801,182.043C237.75,181.198,238.212,167.602,238.829,151.831C239.734,128.671,240.016,122.956,240.294,122.111C240.784,120.618,242.46,118.864,244.096,118.13C248.306,116.24,253.496,118.179,254.848,122.146C255.236,123.284,255.181,125.44,254.01,155.309L252.921,183.067L252.393,184.222C250.996,187.272,247.101,189.07,243.533,188.31ZM358.044,188.409C357.803,188.365,351.722,188.166,344.531,187.966C330.762,187.583,329.476,187.471,327.262,186.457C325.626,185.708,323.879,183.9,323.355,182.413C322.76,180.726,322.931,178.291,323.759,176.66C324.461,175.277,323.878,175.865,338.902,161.389L350.076,150.623L346.977,150.484C345.273,150.407,341.183,150.277,337.888,150.194C333.838,150.093,331.47,149.939,330.579,149.721C326.419,148.703,324.213,144.653,325.779,140.907C326.528,139.115,328.892,137.309,331.007,136.913C331.562,136.81,338.697,136.947,347.924,137.238C364.962,137.775,365.267,137.803,367.273,138.977C368.536,139.716,369.919,141.222,370.503,142.493C370.916,143.39,371.006,143.954,370.996,145.569C370.983,147.662,370.712,148.59,369.675,150.092C369.375,150.526,363.697,156.206,357.056,162.714C350.415,169.222,345.021,174.586,345.07,174.635C345.119,174.684,349.436,174.864,354.664,175.036C359.892,175.207,364.571,175.455,365.062,175.587C366.343,175.932,367.078,176.354,368.21,177.393C370.967,179.924,370.949,183.96,368.169,186.513C366.389,188.146,365.578,188.391,361.78,188.443C359.967,188.468,358.286,188.452,358.044,188.409ZM385.704,188.229C383.244,187.602,381.147,185.745,380.471,183.596C380.106,182.438,380.122,181.627,380.872,162.442C381.51,146.11,381.716,142.304,382.008,141.45C382.493,140.034,384.042,138.368,385.576,137.615C386.717,137.054,387.043,137,389.246,137C391.488,137,391.755,137.047,392.947,137.65C394.505,138.438,396.003,140.045,396.476,141.435C396.945,142.811,396.933,143.546,396.084,164.905C395.259,185.647,395.427,184.362,393.285,186.372C391.419,188.124,388.295,188.89,385.704,188.229ZM387.735,134.448C385.898,134.017,382.725,132.076,381.66,130.731C380.744,129.575,379.291,126.412,378.993,124.924C378.338,121.663,379.837,116.233,382.301,112.937C383.884,110.821,385.361,109.809,390.674,107.2C393.393,105.864,396.557,104.148,397.705,103.385C401.198,101.065,403.849,97.867,403.855,95.9656C403.858,95.0838,404.109,95.2178,404.881,96.5149C406.73,99.6179,408.779,105.967,409.367,110.413C409.89,114.37,409.227,118.92,407.675,122.016C406.759,123.842,405.055,126.572,404.001,127.901C401.766,130.719,397.54,133.386,393.943,134.248C392,134.714,389.245,134.803,387.735,134.448Z" fill="#ff3400" fill-opacity="1" transform="translate(448.611,445.623) translate(-448.611,-445.623)"/>
    <path id="BH-text-2" d="M511.633,795.545C510.534,795.065,509.379,793.602,509.21,792.477C509.027,791.261,509.117,790.984,511.33,785.924C512.298,783.709,513.099,781.749,513.108,781.567C513.118,781.386,510.738,775.436,507.82,768.345C503.846,758.689,502.515,755.227,502.515,754.551C502.515,753.32,502.956,752.36,503.907,751.526C505.839,749.83,508.75,750.121,510.256,752.16C510.553,752.563,512.416,756.922,514.395,761.847C516.374,766.772,518.052,770.801,518.123,770.801C518.193,770.801,520.061,766.821,522.273,761.957C524.485,757.093,526.544,752.781,526.848,752.375C528.422,750.28,532.014,750.347,533.658,752.502C534.113,753.099,534.267,753.584,534.334,754.625C534.419,755.966,534.396,756.026,531.242,762.894C529.495,766.699,525.613,775.151,522.616,781.677C519.619,788.203,516.912,793.879,516.6,794.291C515.563,795.66,513.241,796.246,511.633,795.545ZM188.805,783.109C184.319,782.608,180.06,780.321,177.63,777.11C175.395,774.158,174.462,771.137,174.464,766.865C174.467,761.641,175.77,758.269,179.064,754.959C180.579,753.437,181.309,752.892,182.813,752.158C185.767,750.717,186.973,750.475,191.162,750.481C195.33,750.487,196.551,750.735,199.453,752.158C202.91,753.854,205.961,757.374,207.101,760.981C207.791,763.168,208.095,766.168,207.86,768.494C207.427,772.777,206.111,775.646,203.26,778.517C201.664,780.124,201.063,780.562,199.292,781.41C196.125,782.926,192.468,783.519,188.805,783.109ZM193.848,774.959C197.675,773.67,199.476,770.61,199.235,765.803C199.149,764.087,199.025,763.551,198.436,762.354C197.588,760.632,196.254,759.399,194.52,758.735C190.066,757.031,185.217,758.872,183.661,762.858C183.267,763.868,183.174,764.57,183.16,766.626C183.141,769.486,183.376,770.502,184.409,772.037C186.332,774.896,190.347,776.139,193.848,774.959ZM288.611,783.109C285.748,782.704,283.311,781.375,282.049,779.529C280.604,777.415,280.545,776.856,280.715,767.011L280.866,758.276L279.795,758.266C277.988,758.25,276.801,757.927,276.267,757.307C275.545,756.467,275.403,755.37,275.898,754.449C276.432,753.457,285.149,745.671,286.095,745.341C287.108,744.988,288.16,745.241,288.923,746.022C289.681,746.797,289.917,747.864,289.705,749.559L289.555,750.754L292.599,750.85C296.096,750.959,296.904,751.208,297.865,752.468C298.405,753.175,298.499,753.498,298.499,754.65C298.499,755.793,298.403,756.128,297.883,756.81C296.797,758.233,296.271,758.391,292.76,758.346L289.657,758.306L289.52,760.982C289.246,766.333,289.274,774.957,289.567,775.251C289.876,775.56,292.223,775.591,294.343,775.315C295.884,775.114,296.803,775.431,297.853,776.527C298.377,777.074,298.491,777.401,298.555,778.549C298.679,780.754,297.787,781.77,294.947,782.656C293.333,783.16,290.439,783.367,288.611,783.108ZM342.444,783C341.549,782.818,340.009,782.234,338.759,781.604L336.613,780.522L336.159,781.16C335.006,782.779,332.293,783.262,330.442,782.177C329.328,781.524,328.861,780.936,328.544,779.789C328.365,779.14,328.57,762.516,328.983,744.324C329.062,740.823,329.215,740.226,330.286,739.226C331.491,738.101,333.77,737.721,335.149,738.416C336.285,738.988,337.271,740.067,337.527,741.019C337.69,741.623,337.715,743.606,337.606,747.234C337.518,750.165,337.502,752.563,337.57,752.563C337.639,752.563,338.022,752.372,338.421,752.138C340.977,750.642,345.66,749.978,348.855,750.659C354.589,751.881,359.114,755.828,360.885,761.155C362.033,764.606,361.9,769.753,360.571,773.285C358.971,777.538,354.916,781.18,350.134,782.658C348.136,783.276,344.572,783.435,342.444,783ZM347.607,774.96C348.836,774.653,350.715,773.407,351.493,772.384C353.411,769.862,353.624,764.587,351.923,761.75C351.103,760.383,349.516,759.122,347.996,758.631C346.313,758.087,343.343,758.157,341.627,758.78C339.873,759.416,337.745,760.818,337.482,761.51C337.371,761.802,337.28,764.304,337.28,767.07L337.28,772.099L338.307,772.883C341.163,775.063,344.349,775.775,347.607,774.96ZM555.688,783.109C552.582,782.718,550.336,781.913,547.981,780.347C543.308,777.241,540.851,771.825,541.264,765.546C541.74,758.309,545.783,753.124,552.612,750.991C554.069,750.536,554.693,750.476,557.996,750.476C561.3,750.476,561.92,750.535,563.369,750.991C570.614,753.265,574.805,758.985,574.805,766.597C574.805,774.63,570.257,780.769,562.92,782.642C560.961,783.142,557.647,783.356,555.688,783.109ZM561.474,774.691C564.115,773.482,565.571,771.414,566.003,768.255C566.57,764.115,565.132,760.61,562.268,759.149C557.225,756.576,551.288,758.963,550.19,764.006C549.787,765.854,549.994,769.56,550.571,770.839C551.491,772.878,553.35,774.431,555.688,775.115C557.233,775.567,560.005,775.364,561.474,774.691ZM664.233,783.104C661.091,782.798,658.293,782.006,655.631,780.669C654.201,779.95,653.567,779.241,653.227,777.977C652.548,775.457,655.333,772.698,657.841,773.404C658.275,773.526,659.505,773.938,660.574,774.319C663.092,775.216,666.074,775.582,668.193,775.254C669.947,774.983,670.745,774.556,671.064,773.718C671.525,772.503,671.134,772.301,665.351,770.768C658.697,769.005,655.807,767.291,654.39,764.268C653.858,763.131,653.796,762.751,653.796,760.584C653.796,758.318,653.841,758.073,654.503,756.675C655.939,753.643,658.841,751.437,662.366,750.697C664.326,750.285,669.059,750.282,671.352,750.691C674.478,751.248,676.884,752.104,677.746,752.965C679.46,754.68,679.17,757.271,677.107,758.665C675.937,759.455,675.026,759.483,672.423,758.808C669.239,757.982,665.344,757.907,663.758,758.64C661.801,759.544,661.575,760.875,663.242,761.666C663.686,761.877,665.757,762.485,667.843,763.018C673.574,764.481,675.605,765.436,677.606,767.607C679.18,769.314,679.504,770.274,679.504,773.218C679.504,775.506,679.448,775.865,678.909,777.015C677.764,779.458,675.209,781.574,672.253,782.527C671.192,782.869,667.556,783.346,666.431,783.291C666.129,783.276,665.14,783.192,664.233,783.104ZM241.784,782.697C241.286,782.465,240.594,781.9,240.245,781.442L239.612,780.609L239.612,770.926L239.612,761.243L239.062,760.273C238.163,758.685,237.621,758.414,235.156,758.318C232.375,758.21,231.224,758.628,228.717,760.656L226.868,762.152L226.73,766.092C226.655,768.259,226.581,771.99,226.566,774.384C226.535,779.278,226.352,780.345,225.377,781.343C224.376,782.367,223.511,782.737,222.115,782.738C220.122,782.74,218.47,781.558,217.955,779.763C217.852,779.403,217.868,773.501,217.991,766.552C218.237,752.703,218.237,752.706,219.628,751.484C221.609,749.745,224.722,750.167,226.223,752.378L226.896,753.37L227.651,752.835C231.726,749.945,238.342,749.543,242.517,751.932C245.073,753.395,247.138,756.213,247.97,759.375C248.308,760.656,248.333,761.784,248.22,770.324C248.099,779.385,248.071,779.892,247.635,780.792C246.962,782.182,245.722,782.96,244.038,783.049C243.05,783.101,242.446,783.007,241.784,782.697ZM380.266,782.757C377.227,782.021,374.382,779.724,372.995,776.887C371.504,773.837,371.479,773.579,371.647,763.027C371.784,754.457,371.834,753.534,372.205,752.81C373.746,749.806,377.829,749.53,379.779,752.298L380.419,753.208L380.382,758.873C380.362,761.989,380.284,765.873,380.209,767.505C379.929,773.576,381.034,775.3,385.192,775.277C387.387,775.266,388.628,774.796,390.784,773.16C393.325,771.232,393.069,772.341,393.268,762.436C393.455,753.122,393.461,753.079,394.663,751.985C395.68,751.06,396.589,750.753,398.043,750.846C399.793,750.957,400.972,751.691,401.649,753.089L402.13,754.084L401.883,766.782C401.737,774.312,401.542,779.778,401.405,780.213C400.321,783.654,395.138,784.075,393.475,780.857L393.052,780.037L392.357,780.558C391.156,781.46,388.916,782.469,387.405,782.789C385.563,783.18,381.945,783.163,380.266,782.757ZM466.15,782.793C465.389,782.452,464.663,781.798,464.116,780.962C463.766,780.427,463.733,779.531,463.733,770.699L463.733,761.023L463.198,760.089C462.36,758.627,461.269,758.204,458.613,758.315C456.704,758.394,456.338,758.481,455.105,759.142C454.347,759.548,453.103,760.452,452.339,761.152L450.95,762.425L450.811,771.006C450.664,780.063,450.645,780.223,449.589,781.425C448.152,783.061,445.093,783.173,443.408,781.651C441.945,780.329,441.991,780.934,442.237,766.497L442.458,753.455L443.098,752.425C444.528,750.123,447.635,749.707,449.721,751.539C450.151,751.917,450.616,752.493,450.753,752.819L451.002,753.412L452.424,752.507C454.66,751.084,456.486,750.543,459.448,750.423C462.399,750.303,464.188,750.639,466.307,751.709C468.245,752.687,470.247,754.759,471.207,756.781C472.563,759.637,472.645,760.442,472.515,769.702C472.362,780.621,472.348,780.735,471.057,781.941C469.885,783.035,467.582,783.435,466.15,782.793ZM593.152,782.69C588.43,781.313,585.308,777.542,584.695,772.476C584.605,771.736,584.614,767.146,584.714,762.276C584.889,753.773,584.915,753.387,585.373,752.572C587.028,749.628,591.378,749.649,593.042,752.61L593.54,753.496L593.378,762.345C593.194,772.429,593.26,773.032,594.685,774.282C595.579,775.067,596.562,775.319,598.535,775.269C600.881,775.209,602.621,774.35,605.072,772.043L606.226,770.957L606.25,767.088C606.263,764.961,606.338,761.036,606.415,758.367L606.555,753.513L607.184,752.607C607.982,751.456,609.29,750.806,610.806,750.806C612.277,750.806,613.198,751.199,614.081,752.205C614.878,753.112,615.103,753.766,615.113,755.2C615.15,760.429,614.714,779.235,614.539,779.919C614.061,781.796,612.395,783.091,610.448,783.101C608.75,783.11,607.012,782.056,606.437,780.669L606.177,780.041L605.206,780.71C603.923,781.592,602.244,782.347,600.631,782.765C598.825,783.234,594.883,783.194,593.152,782.69ZM699.939,782.671C694.039,781.398,689.865,777.469,688.38,771.79C687.711,769.23,687.708,764.829,688.373,762.122C689.819,756.241,693.55,752.211,698.881,750.77C700.229,750.406,701.234,750.306,703.564,750.306C705.894,750.306,706.899,750.406,708.247,750.77C714.585,752.483,718.83,757.841,719.317,764.744C719.509,767.469,718.913,768.821,717.111,769.742C716.209,770.203,716.084,770.207,706.585,770.077C700.327,769.992,696.972,770.021,696.972,770.162C696.972,770.599,697.891,772.162,698.627,772.977C699.044,773.438,700.003,774.101,700.76,774.45C702.098,775.068,702.233,775.085,705.652,775.08C709.165,775.075,709.169,775.074,711.364,774.256C713.959,773.29,714.546,773.256,715.99,773.99C717.556,774.785,717.956,775.433,717.956,777.173C717.956,778.342,717.86,778.73,717.424,779.31C716.774,780.176,714.233,781.524,711.694,782.349C709.988,782.904,709.484,782.962,705.871,783.027C702.59,783.086,701.579,783.025,699.939,782.671ZM710.253,762.396C709.763,760.807,708.427,759.321,706.741,758.489C705.805,758.028,705.342,757.952,703.455,757.952C700.96,757.952,699.844,758.347,698.416,759.733C697.673,760.455,696.753,761.949,696.753,762.434C696.753,762.687,698.756,762.78,705.612,762.845L710.406,762.891ZM416.172,782.599C415.052,782.242,413.813,780.902,413.596,779.812C413.497,779.312,413.518,773.199,413.642,766.228C413.839,755.217,413.916,753.466,414.227,752.893C415.827,749.946,420.179,749.709,421.888,752.475C422.339,753.204,422.387,753.226,422.833,752.903C425.268,751.138,427.172,750.484,429.895,750.48C432.212,750.476,433.018,750.826,434.043,752.285C434.555,753.013,434.682,753.426,434.682,754.367C434.682,757.002,432.902,758.492,429.75,758.495C429.066,758.496,427.908,758.682,427.177,758.91C425.765,759.349,423.261,760.989,422.711,761.834C422.439,762.252,422.353,763.849,422.225,770.894C422.059,779.981,422.012,780.362,420.931,781.538C419.848,782.716,417.901,783.15,416.172,782.599ZM629.221,782.578C628.108,782.164,627.353,781.445,626.845,780.317C626.398,779.323,626.398,779.053,626.849,759.595C626.989,753.583,627.015,753.3,627.497,752.52C628.945,750.18,632.309,749.806,634.262,751.768C634.758,752.266,635.209,752.815,635.264,752.987C635.342,753.23,635.587,753.149,636.341,752.633C639.862,750.221,644.068,749.652,646.215,751.297C647.165,752.024,647.751,753.222,647.752,754.435C647.753,755.827,647.205,756.879,646.052,757.697C645.265,758.255,644.901,758.345,642.825,758.495C640.842,758.638,640.268,758.771,639.066,759.363C638.286,759.747,637.155,760.525,636.553,761.091L635.458,762.122L635.286,771.021C635.115,779.845,635.109,779.926,634.595,780.758C633.52,782.496,631.154,783.298,629.221,782.578ZM730.848,782.414C729.871,781.931,728.97,780.813,728.716,779.77C728.59,779.248,728.756,767.958,729.186,747.949C729.352,740.192,729.465,739.744,731.516,738.697C732.428,738.232,734.363,738.14,735.356,738.515C736.126,738.806,737.118,739.73,737.551,740.56C737.949,741.323,737.948,744.621,737.536,765.637C737.235,781.038,737.276,780.591,736.05,781.706C734.655,782.975,732.557,783.26,730.848,782.414ZM753.772,782.47C752.711,781.981,752.039,781.284,751.59,780.209C751.295,779.503,751.28,778.226,751.465,769.665C751.581,764.308,751.678,759.567,751.68,759.13L751.684,758.337L750.294,758.225C747.78,758.023,746.246,756.825,746.028,754.895C745.735,752.296,747.605,750.591,750.75,750.587L751.904,750.586L751.904,748.968C751.904,745.669,752.833,743.087,754.747,741.062C756.761,738.933,759.266,737.964,762.671,737.995C765.858,738.024,768.858,739.107,770.012,740.645C770.539,741.347,770.724,743.117,770.363,743.989C769.634,745.75,767.588,746.69,765.527,746.212C763.404,745.719,761.44,746.085,760.912,747.072C760.771,747.335,760.602,748.267,760.536,749.142L760.415,750.735L763.865,750.877C767.741,751.037,768.471,751.252,769.44,752.523C769.934,753.171,770.031,753.521,770.031,754.651C770.031,755.794,769.936,756.129,769.416,756.811C768.318,758.25,767.839,758.386,763.879,758.386L760.363,758.386L760.184,768.714C760.085,774.394,759.909,779.407,759.793,779.855C759.169,782.268,756.163,783.574,753.772,782.471ZM135.352,782.471C128.969,782.318,128.552,782.214,127.332,780.484L126.672,779.549L126.729,773.362C126.76,769.959,126.833,765.593,126.892,763.66C126.95,761.726,127.059,756.387,127.133,751.794C127.279,742.799,127.314,742.536,128.497,741.275C129.576,740.126,130.067,740.039,135.399,740.045C146.292,740.057,150.027,740.557,154.088,742.548C161.68,746.27,166.062,753.876,165.608,762.544C165.099,772.269,158.418,780.048,148.868,782.035C146.461,782.536,142.873,782.652,135.352,782.471ZM147.656,773.999C150.824,772.973,153.562,771.003,155.047,768.681C156.797,765.946,157.517,761.67,156.8,758.276C155.993,754.459,153.71,751.477,150.269,749.745C147.641,748.422,146.153,748.156,140.601,748.014L135.853,747.893L135.71,756.875C135.631,761.815,135.504,767.819,135.428,770.216L135.29,774.576L140.869,774.483C145.439,774.407,146.666,774.32,147.656,773.999ZM260.659,751.147C257.058,749.47,254.933,744.477,256.112,740.463C256.553,738.965,257.71,736.741,258.783,735.331C259.809,733.983,260.156,733.839,260.156,734.762C260.156,736.106,261.387,737.676,264.199,739.922C265.299,740.8,266.368,741.708,266.575,741.94C267.246,742.693,267.901,744.485,268.013,745.87C268.201,748.215,266.87,750.509,264.827,751.363C263.657,751.852,261.987,751.765,260.659,751.147Z" fill="#ff3400" fill-opacity="0.6" transform="translate(448.611,445.623) translate(-448.611,-445.623)"/>
    <path id="BH-text-3" d="M529.223,351.99C525.42,351.566,521.928,350.45,519.367,348.843C517.366,347.587,515.845,346.128,516.041,345.65C517.08,343.111,517.956,339.552,518.452,335.852C519.142,330.714,518.735,321.343,517.786,316.516C517.655,315.847,517.554,315.125,517.404,314.537C517.319,314.624,517.154,314.972,517.016,315.266C516.743,315.85,515.744,318.358,514.733,319.659C513.681,321.013,512.058,322.618,510.315,324.03C508.491,325.507,502.098,329.585,501.959,329.361C501.888,329.245,501.726,327.89,501.599,326.349C500.892,317.768,502.648,309.831,506.88,302.482C510.774,295.719,516.924,290.629,529.211,283.999C537.507,279.524,539.832,278.126,543.042,275.683C547.757,272.094,550.415,268.153,550.415,264.747C550.415,264.156,550.513,263.672,550.632,263.672C550.943,263.672,553.329,266.718,554.935,269.165C558.93,275.251,560.784,280.524,561.389,287.512C562.106,295.81,561.007,304.655,558.229,312.949L557.069,316.413L558.191,316.271C562.225,315.762,566.034,314.218,567.627,312.446L568.613,311.349L568.764,312.241C569.03,313.817,568.389,318.829,567.445,322.554C564.815,332.928,560.047,340.363,553.028,345.037C550.226,346.903,544.622,349.704,541.966,350.566C538.276,351.765,532.74,352.384,529.223,351.99Z" fill="#ff3400" fill-opacity="1" transform="translate(535.136,307.89) translate(0,0) translate(-535.136,-307.89)"/>
    <script><![CDATA[/*
 KeyshapeJS v1.2.1 (c) 2018-2022 Pixofield Ltd | pixofield.com/keyshapejs/mit-license */
window.KeyshapeJS=function(){function r(a){return"undefined"!==typeof a}function u(a,b){return a&&0===a.indexOf(b)}function X(a){var b={},c;for(c in a)b[c]=a[c];return b}function F(a){if(!isFinite(a))throw Error("Non-finite value");}function Y(a){if(14>=a)return 16;var b=Z[a];b||(b=r(ka[a])?0|(a.toLowerCase().indexOf("color")===a.length-5?48:0):1);return b}function N(a){return 0<=a?Math.pow(a,1/3):-Math.pow(-a,1/3)}function la(a,b,c,d){if(0===a)return 0===b?b=-d/c:(a=Math.sqrt(c*c-4*b*d),d=(-c+a)/
(2*b),0<=d&&1>=d?b=d:(d=(-c-a)/(2*b),b=0<=d&&1>=d?d:0)),b;var e=c/a-b*b/(a*a)/3;c=b*b*b/(a*a*a)/13.5-b*c/(a*a)/3+d/a;var f=c*c/4+e*e*e/27;b=-b/(3*a);if(0>=f){if(0===e&&0===c)return-N(d/a);a=Math.sqrt(c*c/4-f);d=Math.acos(-c/2/a);c=Math.cos(d/3);d=Math.sqrt(3)*Math.sin(d/3);a=N(a);e=2*a*c+b;if(0<=e&&1>=e)return e;e=-a*(c+d)+b;if(0<=e&&1>=e)return e;e=a*(d-c)+b;if(0<=e&&1>=e)return e}else{a=N(-c/2+Math.sqrt(f));c=N(-c/2-Math.sqrt(f));d=a+c+b;if(0<=d&&1>=d)return d;d=-(a+c)/2+b;if(0<=d&&1>=d)return d}return 0}
function ma(a,b){if(48===a&&"number"===typeof b)return"rgba("+(b>>>24)+","+(b>>>16&255)+","+(b>>>8&255)+","+(b&255)/255+")";if(64===a)return b=b.map(function(f){return f+"px"}),b.join(",");if(96===a){for(var c="",d=b.length,e=0;e<d;e+=2)c+=b[e],c+=b[e+1].join(",");return c}if(80===a){if(0===b[0])return"none";c="";d=b.length;for(e=0;e<d;)c+=aa[b[e]],1===b[e]?c+="("+b[e+1]+") ":5===b[e]?(c+="("+b[e+1]+"px "+b[e+2]+"px "+b[e+3]+"px rgba("+(b[e+4]>>>24)+","+(b[e+4]>>16&255)+","+(b[e+4]>>8&255)+","+(b[e+
4]&255)/255+")) ",e+=3):c=2===b[e]?c+("("+b[e+1]+"px) "):7===b[e]?c+("("+b[e+1]+"deg) "):c+("("+(0>b[e+1]?0:b[e+1])+") "),e+=2;return c}return 32===a?b+"px":b}function B(a){return 0>=a?0:255<=a?255:a}function na(a,b,c,d){if(16===a||32===a)return(c-b)*d+b;if(0===a)return.5>d?b:c;if(112===a)return 0>=d?b:1<=d?c:"visible";if(48===a){if("number"===typeof b&&"number"===typeof c){a=1-d;var e=a*(b>>>16&255)+d*(c>>>16&255),f=a*(b>>>8&255)+d*(c>>>8&255),m=a*(b&255)+d*(c&255);return B(a*(b>>>24)+d*(c>>>24))<<
24|B(e)<<16|B(f)<<8|B(m)}return.5>d?b:c}if(64===a){0===b.length&&(b=[0]);0===c.length&&(c=[0]);a=b.length;b.length!==c.length&&(a=b.length*c.length);e=[];for(f=0;f<a;++f)m=b[f%b.length],m=(c[f%c.length]-m)*d+m,0>m&&(m=0),e.push(m);return e}if(96===a){if(b.length!==c.length)return.5>d?b:c;a=b.length;e=[];for(f=0;f<a;f+=2){if(b[f]!==c[f])return.5>d?b:c;e[f]=b[f];e[f+1]=[];for(m=0;m<b[f+1].length;++m)e[f+1].push((c[f+1][m]-b[f+1][m])*d+b[f+1][m])}return e}if(80===a){a=b.length;if(a!==c.length)return.5>
d?b:c;e=[];for(f=0;f<a;){if(b[f]!==c[f]||1===b[f])return.5>d?b:c;e[f]=b[f];e[f+1]=(c[f+1]-b[f+1])*d+b[f+1];if(5===b[f]){e[f+2]=(c[f+2]-b[f+2])*d+b[f+2];e[f+3]=(c[f+3]-b[f+3])*d+b[f+3];m=1-d;var k=b[f+4],h=c[f+4],g=m*(k>>>24)+d*(h>>>24),n=m*(k>>8&255)+d*(h>>8&255),p=m*(k&255)+d*(h&255);e[f+4]=(B(m*(k>>16&255)+d*(h>>16&255))<<16|B(n)<<8|B(p))+16777216*(B(g)|0);f+=3}f+=2}return e}return 0}function ba(a,b){a:{var c=a+b[2];for(var d=b[4].length,e=0;e<d;++e)if(c<b[4][e]){c=e;break a}c=d-1}d=b[2];e=b[4][c-
1]-d;d=(a-e)/(b[4][c]-d-e);if(b[6]&&b[6].length>c-1)if(e=b[6][c-1],1===e[0])if(0>=d)d=0;else if(1<=d)d=1;else{var f=e[1],m=e[3];d=la(3*f-3*m+1,-6*f+3*m,3*f,-d);d=3*d*(1-d)*(1-d)*e[2]+3*d*d*(1-d)*e[4]+d*d*d}else 2===e[0]?(e=e[1],d=Math.ceil(d*e)/e):3===e[0]&&(e=e[1],d=Math.floor(d*e)/e);return na(b[1]&240,b[5][c-1],b[5][c],d)}function O(){C||(z=(new Date).getTime()+ca)}function U(a){if(a||!J){for(var b=!1,c=0;c<D.length;++c)D[c].O(a)&&(b=!0);if(a)for(;0<K.length;)if(a=K.shift(),c=a[0],1===a[1])c.onfinish&&
(c.onfinish(),b=!0),c.N();else if(2===a[1]&&c.onloop)c.onloop();return b}}function da(){O();U(!0)&&!C?(J=!0,P(da)):J=!1}function Q(){J||(J=!0,P(da))}function ea(a,b){var c=[];a.split(b).forEach(function(d){c.push(parseFloat(d))});return c}function G(a){-1===a.indexOf(",")&&(a=a.replace(" ",","));return ea(a,",")}function fa(a){a._ks||(a._ks={});if(!a._ks.transform){for(var b=a._ks.transform=[],c=0;14>=c;++c)b[c]=0;b[10]=1;b[11]=1;if(a=a.getAttribute("transform")){a=a.trim().split(") ");for(c=a.length-
2;0<=c;--c)if(u(a[c],"translate(")){for(var d=0;d<c;d++)a.shift();break}c=a.shift();u(c,"translate(")&&(c=G(c.substring(10)),b[1]=c[0],b[2]=r(c[1])?c[1]:0,c=a.shift());u(c,"rotate(")&&(c=G(c.substring(7)),b[6]=c[0],c=a.shift());u(c,"skewX(")&&(c=G(c.substring(6)),b[7]=c[0],c=a.shift());u(c,"skewY(")&&(c=G(c.substring(6)),b[8]=c[0],c=a.shift());u(c,"scale(")&&(c=G(c.substring(6)),b[10]=c[0],b[11]=r(c[1])?c[1]:c[0],c=a.shift());u(c,"translate(")&&(c=G(c.substring(10)),b[13]=c[0],b[14]=r(c[1])?c[1]:
0)}}}function ha(a){this.m=a;this.I=[];this.G=[];this.D=0;this.B=this.g=this.i=null;this.o=this.j=this.l=0;this.h=1;this.s=this.K=this.A=!1}function H(a,b,c){b=a[b];void 0===b&&(b=a[c]);return b}function oa(a){return Array.isArray(a)?a:u(a,"cubic-bezier(")?(a=a.substring(13,a.length-1).split(","),[1,parseFloat(a[0]),parseFloat(a[1]),parseFloat(a[2]),parseFloat(a[3])]):u(a,"steps(")?(a=a.substring(6,a.length-1).split(","),[a[1]&&"start"===a[1].trim()?2:3,parseFloat(a[0])]):[0]}function pa(a){a=a.trim();
return u(a,"#")?(parseInt(a.substring(1),16)<<8)+255:u(a,"rgba(")?(a=a.substring(5,a.length-1),a=a.split(","),(parseInt(a[0],10)<<24)+(parseInt(a[1],10)<<16)+(parseInt(a[2],10)<<8)+255*parseFloat(a[3])<<0):a}function ia(a){!1===a.s&&(D.push(a),a.s=!0,!1!==a.m.autoplay&&a.play());return this}function V(a){if(!0===a.s){a._cancel();var b=D.indexOf(a);-1<b&&D.splice(b,1);b=K.indexOf(a);-1<b&&K.splice(b,1);a.s=!1}return this}var W=Error("Not in timeline list"),ja="mpath posX posY    rotate skewX skewY  scaleX scaleY  anchorX anchorY".split(" "),
qa=" translate translate    rotate skewX skewY  scale scale  translate translate".split(" "),aa="none url blur brightness contrast drop-shadow grayscale hue-rotate invert opacity saturate sepia".split(" "),P=window.requestAnimationFrame||window.webkitRequestAnimationFrame||window.mozRequestAnimationFrame||window.oRequestAnimationFrame||window.msRequestAnimationFrame||null;P||(P=function(a){window.setTimeout(a,16)});var ra=/apple/i.test(navigator.vendor),Z={d:97,fill:48,fillOpacity:16,filter:80,height:33,
opacity:16,offsetDistance:33,stroke:48,strokeDasharray:64,strokeDashoffset:32,strokeOpacity:16,strokeWidth:32,transform:1,visibility:113,width:33},ka=window.getComputedStyle(document.documentElement),J=!1,z=(new Date).getTime(),C,ca=0,D=[],K=[];ha.prototype={J:function(a){var b=0;if(null!==this.i){var c=this.u();0<this.h&&null!==c&&c>=this.j?this.o?(this.i=z-this.l/this.h,this.o--,b=2):(b=1,a?this.g=c:this.g=this.B?Math.max(this.B,this.j):this.j):0>this.h&&null!==c&&c<=this.l?this.o&&Infinity!==this.j?
(this.i=z-this.j/this.h,this.o--,b=2):(this.o=0,b=1,a?this.g=c:this.g=this.B?Math.min(this.B,this.l):this.l):null!==c&&0!==this.h&&(a&&null!==this.g&&(this.i=z-this.g/this.h),this.g=null)}this.B=this.u();return b},O:function(a){a&&(this.A&&(this.A=!1,null===this.i&&(0!==this.h&&null!==this.g?(this.i=z-this.g/this.h,this.g=null):this.i=z)),null===this.g&&null!==this.i&&(a=this.J(!1),0!==a&&K.push([this,a])));a=this.u();if(null===a)return!1;for(var b=this.I,c=this.G,d=0;d<b.length;++d){for(var e=b[d],
f=!1,m=0;m<c[d].length;++m){var k=c[d][m],h=k[0];if(null!==h){var g=k[2];var n=k[4].length,p=k[4][n-1]-g;g=0===p?k[5][n-1]:a<g?!k[9]||k[9][0]&1?k[5][0]:k[9][1]:a>=g+k[3]?!k[9]||k[9][0]&2?0===k[3]%p?k[5][n-1]:ba(k[3]%p,k):k[9][1]:ba((a-g)%p,k);0===h?(e._ks.mpath=k[8],e._ks.transform[h]=g,f=!0):14>=h?(e._ks.transform[h]=g,f=!0):(g=ma(k[1]&240,g),k[1]&1?e.setAttribute(h,g):e.style[h]=g)}}if(f){f=e;fa(f);m=f._ks.transform;k="";if(h=f._ks.mpath)n=m[0],0>n&&(n=0),100<n&&(n=100),n=n*h[2]/100,g=h[1].getPointAtLength(n),
k="translate("+g.x+","+g.y+") ",h[0]&&(.5>n?(n=g,g=h[1].getPointAtLength(.5)):n=h[1].getPointAtLength(n-.5),k+="rotate("+180*Math.atan2(g.y-n.y,g.x-n.x)/Math.PI+") ");for(h=1;h<m.length;++h)g=m[h],g!==(10===h||11===h?1:0)&&(k+=" "+qa[h]+"(",k=2>=h?k+(1===h?g+",0":"0,"+g):13<=h?k+(13===h?g+",0":"0,"+g):10<=h?k+(10===h?g+",1":"1,"+g):k+g,k+=")");f.setAttribute("transform",k)}ra&&e.setAttribute("opacity",e.getAttribute("opacity"))}return"running"===this.v()},N:function(){!1!==this.m.autoremove&&"finished"===
this.v()&&V(this)},H:function(){if(!this.K){this.K=!0;for(var a=this.I,b=this.G,c=0;c<a.length;++c)for(var d=a[c],e=0;e<b[c].length;++e)14>=b[c][e][0]&&fa(d)}},C:function(a){if("number"===typeof a)return[a,0];if(!r(this.m.markers)||!r(this.m.markers[a]))throw Error("Invalid marker: "+a);a=this.m.markers[a];return r(a.time)?[+a.time,+(a.dur||0)]:[+a,0]},play:function(a){r(a)&&null!==a&&(a=this.C(a)[0],F(a),0>this.h&&a<this.l&&(a=this.l),0<this.h&&a>this.j&&(a=this.j),this.F(a,!0));if(!this.s)throw W;
a=this.u();if(0<this.h&&(null===a||a>=this.j||a<this.l))this.g=this.l;else if(0>this.h&&(null===a||a<=this.l||a>this.j)){if(Infinity===this.j)throw Error("Cannot seek to Infinity");this.g=this.j}else 0===this.h&&null===a&&(this.g=this.l);if(null===this.g)return this;this.i=null;this.A=!0;this.H();Q();return this},pause:function(a){if(!this.s)throw W;r(a)&&(a=this.C(a)[0],F(a));if("paused"!==this.v()){O();var b=this.u();if(null===b)if(0<=this.h)this.g=this.l;else{if(Infinity===this.j)throw Error("Cannot seek to Infinity");
this.g=this.j}null!==this.i&&null===this.g&&(this.g=b);this.i=null;this.A=!1;this.J(!1);this.H();Q()}r(a)&&this.F(a,!0);return this},range:function(a,b){if(0===arguments.length)return{"in":this.l,out:this.j};var c=this.C(a)[0],d=this.D;r(b)&&(d=this.C(b)[0]);F(c);if(0>c||0>d||c>=d||isNaN(d))throw Error("Invalid range");var e=this.v();this.l=c;this.j=d;"finished"===e&&"running"===this.v()&&this.play();return this},loop:function(a){if(!r(a))return{count:this.o};this.o=!0===a?Infinity:Math.floor(a);
if(0>this.o||isNaN(this.o))this.o=0;return this},u:function(){return null!==this.g?this.g:null===this.i?null:(z-this.i)*this.h},F:function(a,b){b&&O();null!==a&&(this.H(),null!==this.g||null===this.i||0===this.h?(this.g=a,U(!1)):this.i=z-a/this.h,this.s||(this.i=null),this.B=null,this.J(!0),Q())},L:function(){return this.u()},time:function(a){if(r(a)){if(!this.s)throw W;a=this.C(a)[0];F(a);this.F(a,!0);return this}return this.L()},v:function(){var a=this.u();return this.A?"running":null===a?"idle":
null===this.i?"paused":0<this.h&&a>=this.j||0>this.h&&a<=this.l?"finished":"running"},state:function(){return this.v()},duration:function(){return this.D},M:function(a){F(a);O();var b=this.u();this.h=a;null!==b&&this.F(b,!1)},rate:function(a){return r(a)?(this.M(a),this):this.h},markers:function(a){return r(a)?(this.m.markers=X(a),this):r(this.m.markers)?this.m.markers:{}},marker:function(a){return r(this.m.markers)?this.m.markers[a]:void 0},_cancel:function(){if(!this.s||"idle"===this.v())return this;
this.i=this.g=null;this.A=!1;return this}};return{version:"1.2.1",animate:function(){var a={};1===arguments.length%2&&(a=X(arguments[arguments.length-1]));a=new ha(a);for(var b=arguments,c=0,d=0;d<b.length-1;d+=2){var e=b[d];var f=e instanceof Element?e:document.getElementById(e.substring(1));if(!f)throw Error("Invalid target: "+e);e=f;f=b[d+1];e._ks||(e._ks={});for(var m=[],k=0;k<f.length;++k){var h=f[k],g=H(h,"p","property");if("string"!==typeof g||-1!==g.indexOf("-")||""===g||!(0<Z[g]||0<=ja.indexOf(g)))throw Error("Invalid property: "+
g);var n=ja.indexOf(g);""!==g&&0<=n&&(g=n);n=Y(g);var p=H(h,"t","times");if(!p||2>p.length)throw Error("Not enough times");p=p.slice();if(!isFinite(p[0])||0>p[0])throw Error("Invalid time: "+p[0]);for(var w=1;w<p.length;++w)if(!isFinite(p[w])||0>p[w]||p[w]<p[w-1])throw Error("Invalid time: "+p[w]);w=p[0];var R=p[p.length-1]-w,S=h.iterations||0;1>S&&(S=1);R*=S;c<R+w&&(c=R+w);var I=H(h,"v","values");if(!I||I.length!==p.length)throw Error("Values do not match times");I=I.slice();for(var x=g,l=I,L=Y(x)&
240,q=0;q<l.length;++q)if(96===L){for(var E=l[q].substring(6,l[q].length-2).match(/[A-DF-Za-df-z][-+0-9eE., ]*/ig),M=[],t=0;t<E.length;++t){M.push(E[t][0]);for(var v=1<E[t].trim().length?E[t].substring(1).split(","):[],A=0;A<v.length;++A)v[A]=parseFloat(v[A]);M.push(v)}l[q]=M}else if(48===L)u(l[q],"#")?(E=9===l[q].length,l[q]=parseInt(l[q].substring(1),16),E||(l[q]=256*l[q]|255)):u(l[q],"url(")||"none"===l[q]||(console.warn("unsupported color: "+l[q]),l[q]=0);else if(80===L){E=l;M=q;t=l[q];if("none"===
t)t=[0];else{v=[];for(var y=t.indexOf("(");0<y;)if(A=aa.indexOf(t.substring(0,y)),0<=A){v.push(A);var T=t.indexOf(") ");0>T&&(T=t.length-1);y=t.substring(y+1,T).split(" ");5===A?(v.push(parseFloat(y[0])),v.push(parseFloat(y[1])),v.push(parseFloat(y[2])),v.push(pa(y[3]))):1===A?v.push(y[0]):v.push(parseFloat(y[0]));t=t.substring(T+1).trim();y=t.indexOf("(")}else break;t=v}E[M]=t}else 64===L?"none"!==l[q]?/^[0-9 .]*$/.test(l[q])?l[q]=ea(l[q]," "):(console.warn("unsupported value: "+l[q]),l[q]=[0]):
l[q]=[0]:32===L?(F(l[q]),l[q]=parseFloat(l[q])):0===x&&(l[q]=parseFloat(l[q]));x=H(h,"e","easing");l=p.length;for(x||(x=[]);x.length<l;)x.push([1,0,0,.58,1]);for(l=0;l<x.length;++l)x[l]=oa(x[l]);n=[g,n,w,R,p,I,x,S];p=H(h,"mp","motionPath");r(p)&&0===g&&(n[8]=[],n[8][0]=h.motionRotate,g=document.createElementNS("http://www.w3.org/2000/svg","path"),p||(p="M0,0"),g.setAttribute("d",p),n[8][1]=g,n[8][2]=g.getTotalLength());h=H(h,"f","fill");r(h)&&(n[9]=h.slice());m.push(n)}0<m.length&&(a.I.push(e),a.G.push(m))}a.D=
c;a.l=0;a.j=a.D;ia(a);return a},add:ia,remove:V,removeAll:function(){for(var a=D.length-1;0<=a;--a)V(D[a]);return this},timelines:function(){return D.slice()},globalPlay:function(){C&&(ca=C-(new Date).getTime(),C=void 0,Q());return this},globalPause:function(){C||(C=z,U(!1));return this},globalState:function(){return C?"paused":"running"}}}();
]]></script>
    <script>
    window.ks=document.ks=KeyshapeJS;
    document.tl = undefined;
    document.playNSFW = function(){
        document.tl = window.ks.animate("#big-leaf-nsfw",[{p:'mpath',t:[100,600],v:['0%','100%'],e:[[1,0.42,0,0.58,1],[0]],mp:"M46.6378,101.557L114.64,90.56"},{p:'rotate',t:[0,500],v:[0,9],e:[[1,0.42,0,0.58,1],[0]]},{p:'fillOpacity',t:[0,300,500],v:[1,1,0],e:[[0],[0],[0]]}],
"#path-nsfw",[{p:'strokeOpacity',t:[0,500,600],v:[1,1,0],e:[[0],[0],[0]]},{p:'strokeDashoffset',t:[0,1000],v:[493,1116],e:[[0],[0]]}],
"#ellipse19",[{p:'mpath',t:[0,400,500,700,800],v:['0%','10.008945%','15.817702%','99.307409%','100%'],e:[[1,0.433,0,0.645,0.74],[1,0.303,0.622,0.631,1],[1,0.42,0,0.58,1],[0],[0]],mp:"M449.945,566.1L449.945,588.5L449.945,601.5L449.945,414.65L449.945,416.2"},{p:'scaleX',t:[0,400,700,800],v:[1,0.9,1.5,1.4],e:[[0],[1,0.42,0,0.58,1],[0],[0]]},{p:'scaleY',t:[0,400,700,800],v:[1,1,1.5,1.4],e:[[0],[1,0.42,0,0.58,1],[0],[0]]},{p:'fillOpacity',t:[0,1000,1300],v:[1,1,0],e:[[0],[1,0.42,0,0.58,1],[0]]}],
"#JoinBottom",[{p:'mpath',t:[0,400,500],v:['0%','99.057042%','100%'],e:[[1,0.433964,0,0.659745,0.689593],[1,0.296462,0.607823,0.621891,1],[0]],mp:"M401.093,518.183L401.093,545.92L401.093,546.184"},{p:'scaleX',t:[0,400,500],v:[1,1,1],e:[[1,0.433964,0,0.659745,0.689593],[1,0.296462,0.607823,0.621891,1],[0]]},{p:'scaleY',t:[0,400,500],v:[1,1.261,0.1],e:[[1,0.433964,0,0.659745,0.689593],[1,0.296462,0.607823,0.621891,1],[0]]},{p:'fillOpacity',t:[0,500,600],v:[1,1,0],e:[[0],[1,0.42,0,1,1],[0]]}],
"#JoinBottom-2",[{p:'mpath',t:[0,400,500],v:['0%','50%','100%'],e:[[1,0.433964,0,0.659745,0.689593],[1,0.296462,0.607823,0.621891,1],[0]],mp:"M499.048,454.165L499.048,451.43L499.048,454.165"},{p:'scaleX',t:[0,400,500],v:[1,1,1],e:[[1,0.433964,0,0.659745,0.689593],[1,0.296462,0.607823,0.621891,1],[0]]},{p:'scaleY',t:[0,400,500],v:[1,1.348,0.2],e:[[1,0.433964,0,0.659745,0.689593],[1,0.296462,0.607823,0.621891,1],[0]]},{p:'fillOpacity',t:[0,500,600],v:[1,1,0],e:[[0],[0],[0]]}],
"#BH-text",[{p:'fillOpacity',t:[0,200],v:[1,0],e:[[0],[0]]}],
"#BH-text-2",[{p:'fillOpacity',t:[0,200],v:[0.6,0],e:[[0],[0]]}],
"#BH-text-3",[{p:'mpath',t:[0,500],v:['0%','100%'],e:[[1,0.42,0,0.58,1],[0]],mp:"M535.136,307.89L617.14,302.89"},{p:'rotate',t:[0,500],v:[0,30],e:[[1,0.42,0,0.58,1],[0]]},{p:'fillOpacity',t:[0,300,500],v:[1,1,0],e:[[0],[0],[0]]}],
{autoremove:false}).range(0,1300);
    };
    document.wobbleNSFW = function(){
        document.tl = window.ks.animate("#big-leaf-nsfw",[{p:'mpath',t:[0,900],v:['0%','0%'],e:[[0],[0]],mp:"M46.6378,101.557L46.6378,101.557"},{p:'rotate',t:[0,300,600],v:[0,10,0],e:[[1,0.42,0,0.58,1],[1,0.42,0,0.58,1],[0]]},{p:'fillOpacity',t:[0,900],v:[1,0.99],e:[[0],[0]]}],
"#path-nsfw",[{p:'strokeOpacity',t:[0,900],v:[1,1],e:[[0],[0]]},{p:'strokeDashoffset',t:[0,900],v:[493,493],e:[[0],[0]]}],
"#ellipse19",[{p:'mpath',t:[0,200,400,600,900],v:['0%','27.864597%','77.864597%','94.869792%','100%'],e:[[1,0.42,0,0.58,1],[1,0,0,0.58,1],[1,0.433,0,0.682,0.615],[1,0.289,0.579,0.606,1],[0]],mp:"M449.945,566.1L449.945,587.5L449.945,549.1L449.945,562.16L449.945,566.1"},{p:'scaleX',t:[0,200,400,600,900],v:[1,0.9,1,1,1],e:[[1,0.42,0,0.58,1],[1,0.42,0,0.58,1],[1,0.433,0,0.682,0.615],[1,0.289,0.579,0.606,1],[0]]},{p:'scaleY',t:[0,200,400,600,900],v:[1,1,0.8,0.954,1],e:[[1,0.42,0,0.58,1],[1,0.42,0,0.58,1],[1,0.433,0,0.682,0.615],[1,0.289,0.579,0.606,1],[0]]},{p:'fillOpacity',t:[0,900],v:[1,1],e:[[0],[0]]}],
"#JoinBottom",[{p:'mpath',t:[0,200,300,400,600,900],v:['0%','39.920851%','77.874223%','89.920851%','97.664096%','100%'],e:[[1,0.42,0,0.58,1],[1,0.42,0,0.71,0.5],[1,0.29,0.5,0.58,1],[1,0.433203,0,0.682003,0.615478],[1,0.288922,0.578991,0.606405,1],[0]],mp:"M401.093,518.183L401.093,545.92L401.093,519.55L401.093,511.18L401.09,516.56L401.093,518.183"},{p:'scaleX',t:[0,200,400,600,900],v:[1,1,1,1,1],e:[[1,0.42,0,0.58,1],[1,0.42,0,0.58,1],[1,0.433203,0,0.682003,0.615478],[1,0.288922,0.578991,0.606405,1],[0]]},{p:'scaleY',t:[0,200,400,600,900],v:[1,1.261,0.8,0.953645,1],e:[[1,0.42,0,0.58,1],[1,0.42,0,0.58,1],[1,0.433203,0,0.682003,0.615478],[1,0.288922,0.578991,0.606405,1],[0]]},{p:'fillOpacity',t:[0,900],v:[1,1],e:[[0],[0]]}],
"#JoinBottom-2",[{p:'mpath',t:[0,200,400,600,900],v:['0%','30.355099%','71.864437%','91.509338%','100%'],e:[[1,0.42,0,0.58,1],[1,0.42,0,0.58,1],[1,0.433203,0,0.682003,0.615478],[1,0.288922,0.578991,0.606405,1],[0]],mp:"M499.048,454.165L499.048,451.43L499.048,455.17L499.048,453.4L499.048,454.165"},{p:'scaleX',t:[0,200,400,600,900],v:[1,1,1,1,1],e:[[1,0.42,0,0.58,1],[1,0.42,0,0.58,1],[1,0.433203,0,0.682003,0.615478],[1,0.288922,0.578991,0.606405,1],[0]]},{p:'scaleY',t:[0,200,400,600,900],v:[1,1.248,0.75,0.953645,1],e:[[1,0.42,0,0.58,1],[1,0.42,0,0.58,1],[1,0.433203,0,0.682003,0.615478],[1,0.288922,0.578991,0.606405,1],[0]]},{p:'fillOpacity',t:[0,900],v:[1,1],e:[[0],[0]]}],
"#BH-text",[{p:'fillOpacity',t:[0,900],v:[1,1],e:[[0],[0]]}],
"#BH-text-2",[{p:'fillOpacity',t:[0,900],v:[0.6,0.6],e:[[0],[0]]}],
"#BH-text-3",[{p:'mpath',t:[0,200,500,700],v:['0%','38.868304%','88.868813%','100%'],e:[[1,0.42,0,0.58,1],[1,0.42,0,0.58,1],[1,0.42,0,0.58,1],[0]],mp:"M535.139,307.888L542.137,307.888L533.135,307.888L535.139,307.888"},{p:'rotate',t:[0,200,500,700],v:[0,8,-5,0],e:[[1,0.42,0,0.58,1],[1,0.42,0,0.58,1],[1,0.42,0,0.58,1],[0]]},{p:'fillOpacity',t:[0,900],v:[1,1],e:[[0],[0]]}],
{autoremove:false}).range(0,900);
    };
    </script>
    <style>
        pointer-events: none;
        -webkit-user-select: none;
        -webkit-touch-callout: none;
        -webkit-tap-highlight-color:
        rgba(255, 255, 255, 0);
        user-select: none;
    </style>
</svg>