<?xml version="1.0" encoding="UTF-8" standalone="no"?>
<svg xmlns="http://www.w3.org/2000/svg" shape-rendering="geometricPrecision" text-rendering="geometricPrecision" viewBox="0 0 900 900" style="white-space: pre;">
    <defs>
        <mask id="Mask-nsfw">
            <path id="path-nsfw" d="M0,0C19.8821,-33.9652,28.9947,-35.2079,28.9947,-35.2079C28.9947,-35.2079,43.9062,-40.5926,66.6878,-4.55631C89.4694,31.48,101.895,55.5042,154.086,56.3326C206.277,57.161,232.372,14.9116,241.899,-4.55631C251.426,-24.0242,247.697,-35.6222,242.727,-34.7937C237.757,-33.9652,190.951,-19.0536,132.133,-25.2668C73.3152,-31.48,66.2736,-40.1784,66.2736,-40.1784C66.2736,-40.1784,28.1663,-62.5457,102.31,-77.8715" stroke="#ffffff" fill="none" stroke-width="29.25" stroke-miterlimit="1" stroke-linecap="round" stroke-dasharray="1111" stroke-dashoffset="493" stroke-opacity="1" transform="translate(-6.57748,7.36129)"/>
        </mask>
    </defs>
    <g id="leaves-nsfw" transform="translate(491.018,297.364) translate(-76.4995,-52.7532)">
        <path id="big-leaf-nsfw" d="M0.0901294,0.457617C0.0901294,0.457617,-28.3353,-13.8871,-39.7107,-36.2215C-54.3016,-64.8691,-41.3099,-101.557,-41.3099,-101.557C-41.3099,-101.557,7.3596,-93.404,28.4122,-56.6583C43.0088,-31.181,22.54,-7.34637,22.54,-7.34637C22.54,-7.34637,20.0539,-22.9003,13.56,-37.1726C3.83177,-58.5534,-14.4439,-68.0646,-14.4439,-68.0646C-14.4439,-68.0646,-0.498459,-53.3353,2.82461,-33.2307C6.14768,-13.1261,0.0901294,0.457617,0.0901294,0.457617Z" fill="#65ffa0" stroke-width="0.25" stroke-linecap="square" stroke="none" opacity="1" fill-opacity="1" transform="translate(46.6378,101.557) translate(0,0) translate(0,0)"/>
        <path id="small-leaf-nsfw" d="M-0.916139,1.10248C-0.916139,1.10248,2.50415,-26.5131,20.9282,-37.5112C42.5519,-50.4192,68.4782,-47.3301,68.4782,-47.3301C68.4782,-47.3301,65.8905,-19.4953,52.4939,-3.02414C32.2232,21.8989,11.1093,12.2453,11.1093,12.2453C11.1093,12.2453,20.4859,6.4963,31.6297,-5.73767C41.7796,-16.8805,44.4908,-24.3657,44.4908,-24.3657C44.4908,-24.3657,39.5731,-19.087,26.9961,-11.2539C12.8684,-2.45503,-0.916139,1.10248,-0.916139,1.10248Z" fill="#65ffa0" stroke-width="0.25" stroke-linecap="square" stroke="none" opacity="1" fill-opacity="1" transform="translate(84.5208,91.4216) translate(0,0) translate(0,0)"/>
    </g>
    <path id="cup-bg-nsfw" d="M1.27198,0.3851C-9.04275,-0.414619,-6.33096,-13.4612,-6.33096,-13.4612C-6.33096,-13.4612,-4.36277,-25.3739,5.06384,-33.0395C13.1848,-39.6433,20.3788,-41.8892,29.3788,-41.3892C38.3788,-40.8892,45.0036,-37.3323,49.5036,-32.8323C54.0036,-28.3323,58.4122,-23.5093,63.0737,-12.2181C69.0313,2.21258,72.8772,15.1278,83.3772,26.6278C93.8772,38.1278,115.211,53.4026,144.877,53.4026C161.342,53.4026,176.745,50.4331,193.999,38.9848C211.378,27.4538,220.304,13.7067,228.606,-7.32475C230.804,-12.8918,230.608,-13.8282,230.96,-17.1056C231.008,-17.5563,231.026,-18.3234,230.921,-18.315C229.83,-18.2272,220.229,-14.7473,197.954,-11.4607C175.679,-8.17408,166.305,-5.70166,133.099,-6.96718C104.523,-8.05625,78.1603,-15.4727,63.1881,-22.7762C48.2159,-30.0797,40.7575,-43.3743,44.5085,-52.09C50.4606,-65.92,65.7229,-71.8426,80.6951,-77.6854C95.6673,-83.5282,105.564,-85.3207,108.828,-76.9131C112.469,-67.5355,104.9,-63.9432,98.2367,-62.1296C79.5918,-57.0547,69.4826,-50.3733,63.6792,-46.8547C61.8584,-45.7508,81.5833,-31.966,118.461,-28.0711C144.775,-25.2919,165.994,-25.913,187.652,-29.9332C208.993,-33.8946,216.479,-36.7268,230.012,-37.9671C245.859,-39.4195,252.689,-28.0257,250.827,-14.961C248.732,-0.259088,239.441,24.6982,222.373,41.6092C199.533,64.2394,177.858,71.3079,156.8,72.8487C127.702,74.9778,106.841,67.0355,95.2626,60.6304C77.4371,50.7696,65.1455,36.3652,57.2844,23.7476C49.5001,11.2534,48.269,5.20253,42.5287,-9.90644C38.4056,-20.7588,22.2921,-28.4393,13.7653,-11.0786C11.9627,-7.40848,11.742,1.19686,1.27198,0.3851Z" fill="#ff0088" stroke-linecap="square" stroke="none" fill-rule="nonzero" stroke-width="0.25" mask="url(#Mask-nsfw)" transform="translate(306,398.713)"/>
    <path id="ellipse18" d="M202.91,60.3379C165.213,60.3379,134.655,91.0056,134.655,128.837C134.655,147.004,141.847,164.428,154.645,177.274C167.448,190.121,184.808,197.338,202.91,197.338C221.012,197.338,238.372,190.121,251.17,177.274C263.973,164.428,271.165,147.004,271.165,128.837C271.165,91.0056,240.602,60.3379,202.91,60.3379ZM223.966,98.1835C237.879,98.1835,248.958,108.247,248.958,127.723C248.958,147.2,237.675,157.465,223.762,157.465C209.849,157.465,198.374,148.324,198.57,127.723C198.761,107.123,210.053,98.1835,223.966,98.1835ZM177.856,99.2852C178.691,99.3078,179.597,99.4078,180.57,99.6206C182.876,100.125,184.612,102.128,184.541,104.802C184.466,107.476,183.022,146.719,183.022,146.719L189.583,146.931C189.583,146.931,194.958,147.135,194.807,152.08C194.643,157.551,188.655,157.225,188.655,157.225L161.917,156.331C161.917,156.331,156.782,156.128,156.933,151.129C157.084,146.215,162.303,146.001,162.303,146.001L170.881,146.286L172.108,112.37L166.182,114.948C166.182,114.948,160.438,116.978,158.377,112.32C156.4,107.849,160.584,105.495,160.584,105.495L172.059,100.55C172.059,100.55,174.253,99.1874,177.856,99.2852ZM223.922,108.814C216.637,108.814,210.728,114.607,210.626,127.962C210.524,141.317,216.53,147.245,223.811,147.245C231.096,147.245,237,140.588,237,127.962C237,115.336,231.203,108.814,223.922,108.814Z" display="inline" fill="#ff0088" stroke-width="0.329022" fill-opacity="1" transform="translate(449.945,566.1) translate(0,0) translate(-202.91,-128.838)"/>
    <path id="JoinBottom" d="M0,0C0,0,20.4284,-18.9337,21.4249,-32.8847C22.4214,-46.8357,32.4485,-65.7218,49.8571,-64.9183C66.5685,-64.147,76.3383,-45.6359,76.7309,-29.8951C77.0328,-17.791,98.9931,1.34485,98.9931,1.34485C98.9931,1.34485,0,0,0,0Z" fill="#ff0088" stroke-width="0.329022" stroke="none" fill-opacity="1" transform="translate(401.093,518.183) translate(0,0) translate(0,0)"/>
    <path id="JoinBottom-2" d="M-2.62801,-6.38485C-2.62801,-6.38485,20.3307,-16.0676,21.4249,-35.6202C22.1401,-48.3997,32.4485,-65.6554,49.8571,-64.9204C66.5685,-64.2149,77.0197,-47.2858,76.7309,-32.8856C76.3781,-15.2964,100.189,-3.7677,100.189,-3.7677C100.189,-3.7677,-2.62801,-6.38485,-2.62801,-6.38485Z" fill="#ff0088" stroke-width="0.329022" stroke="none" fill-opacity="1" transform="translate(499.048,454.165) translate(0,0) rotate(180) translate(0,0)"/>
    <path id="path1" d="M473.401,209.046C466.762,208.529,459.131,206.613,453.845,204.137C450.346,202.498,448.923,200.542,449.164,197.703C449.354,195.464,450.597,193.742,452.805,192.655C454.132,192.002,454.461,191.933,456.148,191.945C457.88,191.958,458.199,192.037,460.41,192.997C465.062,195.016,469.223,195.954,474.39,196.147C483.515,196.49,487.57,193.453,488.459,185.612C488.582,184.522,488.656,183.602,488.623,183.569C488.589,183.536,487.763,183.891,486.786,184.359C482.773,186.278,479.519,186.987,474.729,186.987C470.913,186.987,468.334,186.579,464.832,185.421C455.272,182.261,448.631,174.973,447.032,165.887C446.362,162.078,446.697,156.446,447.818,152.664C449.607,146.633,454.669,140.839,460.884,137.711C464.876,135.701,468.792,134.72,473.533,134.542C479.697,134.309,484.226,135.372,488.969,138.164L490.8,139.242L491.823,138.082C492.453,137.367,493.33,136.685,494.109,136.302C495.241,135.746,495.604,135.681,497.575,135.681C499.621,135.681,499.882,135.733,501.244,136.403C503.054,137.294,504.346,138.695,504.859,140.322C505.214,141.448,505.193,142.497,504.406,163.53C503.5,187.761,503.437,188.544,502.055,192.81C500.854,196.519,499.175,199.319,496.582,201.937C493.092,205.462,488.695,207.642,483.069,208.636C481.128,208.979,475.567,209.215,473.401,209.046ZM480.322,173.933C481.87,173.508,484.592,172.107,486.694,170.652L488.342,169.512L488.491,166C488.573,164.068,488.672,160.221,488.711,157.45L488.782,152.412L486.804,150.917C483.224,148.211,480.836,147.292,476.79,147.066C473.043,146.855,469.375,147.604,466.77,149.111C464.176,150.612,461.995,153.764,461.317,156.995C460.877,159.089,460.891,163.176,461.345,165.001C462.875,171.164,468.504,174.644,476.477,174.359C477.927,174.307,479.658,174.115,480.322,173.933ZM190.927,207.781C188.751,207.194,186.907,205.654,186.043,203.7C185.626,202.757,185.61,202.41,185.748,197.426C186.139,183.35,187.883,139.761,188.083,139.062C188.968,135.965,192.866,133.845,196.575,134.443C198.871,134.813,200.628,135.897,202.039,137.817L202.478,138.415L204.456,137.433C208.684,135.333,211.971,134.597,217.09,134.602C221.249,134.606,223.307,134.933,226.811,136.144C232.786,138.211,237.691,141.967,241.027,147.031C244.1,151.696,245.382,157.313,244.797,163.543C244.123,170.704,241.897,175.411,236.91,180.219C234.71,182.339,233.129,183.466,230.493,184.791C226.425,186.835,222.771,187.8,218.298,188.007C213.01,188.253,208.768,187.387,204.241,185.136C202.672,184.356,201.367,183.74,201.341,183.766C201.315,183.793,201.134,187.964,200.94,193.036C200.746,198.108,200.495,202.61,200.382,203.04C199.46,206.549,194.878,208.846,190.927,207.781ZM219.177,174.58C222.491,173.717,225.821,171.308,227.136,168.822C228.319,166.586,228.764,164.761,228.894,161.609C229.096,156.708,228.101,153.554,225.569,151.062C220.518,146.094,211.378,145.725,204.198,150.199C201.246,152.04,201.558,151.028,201.283,159.631C201.152,163.74,200.998,167.597,200.942,168.202L200.839,169.302L202.153,170.365C205.123,172.77,208.632,174.397,211.926,174.898C213.711,175.17,217.562,175.001,219.177,174.58ZM290.369,207.932C287.669,207.327,286.003,206.116,284.963,204.004L284.244,202.544L284.623,192.074C285.994,154.168,286.564,139.98,286.745,139.303C287.261,137.376,289.027,135.573,291.19,134.764C292.645,134.22,295.558,134.289,297.153,134.905C298.422,135.395,300.089,136.785,300.835,137.976L301.172,138.512L302.15,137.939C302.687,137.624,303.965,137.02,304.988,136.597C313.648,133.015,324.256,134.127,332.297,139.461C334.333,140.811,337.198,143.563,338.849,145.755C343.36,151.741,344.784,159.999,342.74,168.311C339.835,180.123,327.726,188.584,314.539,188.016C309.666,187.806,306.088,186.872,302.201,184.795C301.042,184.176,300.069,183.699,300.038,183.735C300.006,183.772,299.821,188.053,299.626,193.25L299.272,202.698L298.599,204.065C297.953,205.381,296.828,206.536,295.542,207.205C294.202,207.902,291.764,208.244,290.369,207.932ZM317.954,174.572C320.918,173.807,324.098,171.589,325.601,169.238C325.966,168.668,326.534,167.41,326.863,166.443C327.671,164.073,327.882,159.13,327.282,156.623C325.971,151.147,321.893,147.93,315.331,147.195C310.686,146.675,306.216,147.908,301.773,150.935L300.256,151.969L299.953,160.592L299.65,169.216L300.283,169.879C301.649,171.312,305.761,173.663,308.078,174.337C310.976,175.179,315.21,175.28,317.954,174.572ZM426.988,187.865C424.575,187.361,422.497,185.801,421.639,183.851C421.032,182.471,421.032,182.319,421.652,165.842C422.095,154.068,422.059,152.92,421.191,150.953C419.991,148.236,417.784,147.214,413.13,147.22C410.439,147.224,408.558,147.603,406.606,148.534C405.029,149.287,402.048,151.373,400.406,152.873L399.261,153.918L398.814,166.882C398.567,174.012,398.311,180.327,398.244,180.916C397.977,183.265,396.216,185.414,393.794,186.348C392.065,187.014,389.502,187.014,387.773,186.348C385.578,185.502,383.877,183.619,383.401,181.507C383.305,181.083,383.567,171.637,383.988,160.3C384.591,144.046,384.816,139.646,385.086,138.83C385.574,137.348,386.916,135.938,388.648,135.085C389.997,134.421,390.284,134.363,392.207,134.365C394.002,134.367,394.475,134.449,395.534,134.944C397.129,135.689,398.385,136.835,399.046,138.149C399.336,138.725,399.59,139.231,399.611,139.272C399.632,139.313,400.589,138.786,401.736,138.101C405.561,135.819,409.015,134.807,413.855,134.551C427.487,133.831,437.007,142.056,437.036,154.578C437.039,155.907,436.837,162.631,436.586,169.519C436.246,178.875,436.047,182.344,435.799,183.23C435.351,184.83,433.503,186.716,431.736,187.377C430.264,187.927,428.267,188.133,426.988,187.865ZM591.284,187.782C589.532,187.395,588.454,186.812,587.284,185.617C585.366,183.658,585.412,184.285,585.99,168.142C586.46,155.028,586.469,154.04,586.134,152.6C585.443,149.634,583.885,148.076,581.001,147.464C579.312,147.105,575.359,147.155,573.807,147.553C571.112,148.246,567.372,150.48,564.76,152.957L563.689,153.973L563.294,165.262C562.763,180.49,562.673,181.835,562.111,182.923C561.542,184.024,560.033,185.484,558.852,186.073C555.072,187.962,550.094,186.494,548.34,182.975C547.851,181.993,547.778,181.566,547.778,179.661C547.778,177.702,548.282,163.433,549.52,130.343L549.934,119.291L550.516,118.101C552.272,114.513,557.211,113.046,561.072,114.965C562.998,115.923,564.585,117.967,564.83,119.805C564.898,120.319,564.794,124.831,564.597,129.831C564.401,134.832,564.281,138.963,564.329,139.012C564.378,139.061,565.161,138.662,566.068,138.125C569.48,136.108,572.362,135.145,576.386,134.677C579.082,134.363,583.017,134.512,585.437,135.019C594.333,136.882,600.38,143.391,601.362,152.161C601.499,153.378,601.396,158.342,601.029,168.306C600.512,182.337,600.486,182.722,599.987,183.812C599.013,185.939,596.919,187.436,594.33,187.856C592.696,188.121,592.833,188.124,591.284,187.782ZM634.808,187.602C633.791,187.489,631.848,187.116,630.491,186.773C624.813,185.339,620.625,182.967,616.914,179.082C612.407,174.365,610.183,168.519,610.183,161.389C610.183,148.044,618.297,138.029,631.466,135.122C637.434,133.804,645.156,134.172,650.83,136.046C657.573,138.272,663.18,142.986,666.205,148.975C669.673,155.84,669.724,165.469,666.33,172.634C662.402,180.926,654.369,186.404,644.348,187.624C642.037,187.906,637.445,187.895,634.808,187.602ZM643.808,174.667C646.517,173.918,648.12,173.006,649.952,171.171C652.671,168.445,653.705,165.623,653.736,160.84C653.766,156.214,652.825,153.612,650.146,150.92C647.63,148.391,643.859,147,639.514,147C635.906,147,632.85,147.906,630.286,149.735C626.892,152.157,625.324,155.746,625.289,161.169C625.26,165.897,626.181,168.488,628.854,171.192C632.36,174.739,638.436,176.151,643.808,174.667ZM694.712,187.536C692.337,187.15,689.473,186.183,687.797,185.2C684.796,183.44,682.609,180.323,681.883,176.77C681.545,175.118,681.554,174.179,682.025,161.235C682.3,153.658,682.471,147.315,682.404,147.14C682.308,146.889,681.656,146.805,679.355,146.744C676.72,146.674,676.333,146.612,675.473,146.12C673.559,145.026,672.846,142.416,673.958,140.578C674.505,139.675,689.916,127.053,691.237,126.426C693.151,125.518,695.374,125.868,696.876,127.315C698.105,128.499,698.298,129.294,698.136,132.516C698.063,133.955,698.044,135.14,698.093,135.15C698.141,135.16,700.455,135.248,703.235,135.345C707.55,135.497,708.465,135.59,709.497,135.982C712.981,137.306,714.479,140.829,712.916,144.023C712.236,145.413,711.401,146.184,709.717,146.977L708.508,147.546L703.091,147.473L697.673,147.4L697.547,149.011C697.378,151.183,696.747,169.635,696.75,172.312C696.753,174.744,696.994,175.179,698.469,175.423C699.8,175.643,702.733,175.577,703.674,175.306C704.158,175.167,705.346,175.044,706.316,175.033C707.887,175.014,708.237,175.09,709.547,175.736C711.201,176.549,712.371,177.757,712.758,179.046C713.184,180.47,713.074,181.944,712.446,183.204C711.503,185.096,709.807,186.171,706.271,187.12C704.429,187.615,703.567,187.71,700.378,187.775C697.85,187.826,696.019,187.749,694.712,187.536ZM260.318,187.2C257.381,186.463,255.176,184.142,254.951,181.549C254.858,180.484,255.529,160.269,256.182,144.468C256.397,139.271,256.656,138.388,258.439,136.785C259.934,135.44,261.567,134.849,263.782,134.849C266.235,134.849,267.786,135.464,269.418,137.085C271.559,139.209,271.477,137.838,270.715,158.878C269.87,182.201,269.879,182.038,269.353,183.252C268.334,185.602,265.717,187.236,262.793,187.346C261.887,187.38,260.773,187.315,260.318,187.2ZM358.812,187.114C356.057,186.353,353.946,184.138,353.637,181.682C353.46,180.272,355.023,140.433,355.292,139.502C356.201,136.356,360.164,134.241,363.883,134.915C367.602,135.589,369.795,137.886,369.957,141.276C370.101,144.292,368.54,181.963,368.231,182.922C368.055,183.47,367.443,184.311,366.609,185.153C365.474,186.298,365.042,186.574,363.776,186.965C362.118,187.478,360.323,187.531,358.812,187.114ZM261.045,130.497C258.683,130.034,256.309,128.251,255.31,126.191C254.531,124.584,254.563,122.051,255.383,120.379C256.123,118.87,257.571,117.492,259.239,116.71C260.372,116.179,260.727,116.126,263.123,116.126C265.518,116.126,265.873,116.179,267.006,116.71C268.599,117.457,270.012,118.761,270.825,120.237C271.392,121.267,271.465,121.611,271.461,123.267C271.456,125.534,270.986,126.731,269.531,128.185C267.423,130.294,264.32,131.139,261.045,130.497ZM359.835,130.521C357.397,130.079,354.908,128.162,353.945,125.985C353.434,124.831,353.347,122.534,353.762,121.149C354.364,119.138,356.345,117.266,358.777,116.41C359.787,116.054,360.439,115.987,362.232,116.052C364.192,116.124,364.606,116.214,365.895,116.849C367.727,117.751,369.391,119.506,369.918,121.095C370.471,122.759,370.281,125.034,369.464,126.534C368.158,128.934,365.611,130.459,362.639,130.62C361.683,130.672,360.421,130.627,359.835,130.521Z" fill="#ff0088" fill-opacity="1" transform="translate(449.602,452.628) translate(-449.602,-452.628)"/>
    <path id="path1-2" d="M437.261,790.753C436.112,790.162,435.438,789.132,435.438,787.97C435.438,786.757,436.014,785.861,437.373,784.959C438.386,784.286,439.233,783.3,439.233,782.792C439.233,782.729,438.947,782.529,438.598,782.348C434.999,780.488,435.049,775.479,438.684,773.603C439.924,772.963,442.351,772.986,443.721,773.649C444.816,774.179,445.837,775.336,446.23,776.492C446.54,777.402,446.55,779.447,446.257,782.224C445.966,784.986,445.206,786.624,443.357,788.467C440.835,790.981,439.022,791.661,437.261,790.753ZM210.168,783.079C202.083,782.48,195.403,778.135,192.153,771.362C190.864,768.676,190.29,766.261,190.13,762.847C189.792,755.672,191.833,750.064,196.356,745.738C198.271,743.908,199.482,743.086,201.999,741.912C209.086,738.605,217.729,738.945,225.549,742.837C227.737,743.926,228.423,744.506,228.852,745.629C229.625,747.654,228.69,749.708,226.638,750.492C225.326,750.993,224.235,750.817,221.92,749.732C218.593,748.173,217.062,747.853,212.915,747.855C209.562,747.856,209.156,747.9,207.515,748.449C201.906,750.325,198.785,754.976,198.783,761.462C198.782,764.441,199.208,766.304,200.421,768.637C202.762,773.137,207.507,775.401,214.014,775.124C217.074,774.993,218.396,774.696,221.562,773.427C224.116,772.403,225.327,772.316,226.641,773.06C227.883,773.763,228.516,774.794,228.516,776.114C228.516,778.264,227.807,779.134,224.996,780.432C220.18,782.656,215.566,783.48,210.168,783.079ZM509.067,783.08C505.202,782.582,502.496,780.552,501.506,777.408C501.168,776.335,501.143,775.309,501.251,767.246L501.371,758.276L500.13,758.275C498.396,758.273,497.363,757.935,496.706,757.155C496.065,756.392,495.965,755.301,496.451,754.365C496.93,753.443,505.7,745.689,506.645,745.352C507.715,744.971,508.875,745.304,509.64,746.212C510.153,746.823,510.205,747.062,510.205,748.811L510.205,750.738L513.285,750.87C515.928,750.983,516.491,751.072,517.251,751.5C519.716,752.885,519.732,756.356,517.28,757.881C516.532,758.346,516.221,758.386,513.355,758.386C511.643,758.386,510.198,758.436,510.144,758.496C510.09,758.557,509.982,762.219,509.903,766.635C509.781,773.419,509.808,774.73,510.074,775.094C510.34,775.459,510.637,775.521,512,775.502C512.886,775.489,514.132,775.402,514.768,775.309C519.225,774.654,520.968,780.139,516.931,782.115C515.676,782.728,512.883,783.323,511.414,783.29C510.93,783.279,509.874,783.185,509.067,783.08ZM555.389,783.097C551.936,782.707,547.266,781.107,545.962,779.868C544.568,778.543,544.308,776.895,545.242,775.301C545.879,774.214,546.503,773.763,547.835,773.428C548.737,773.201,549.007,773.249,551.37,774.067C554.41,775.117,556.901,775.525,559.128,775.337C561.696,775.12,563.115,774.125,562.636,772.877C562.441,772.37,560.958,771.792,557.886,771.027C549.236,768.874,546.141,766.692,545.358,762.192C544.518,757.371,547.499,752.723,552.467,751.108C554.86,750.331,559.557,750.134,562.72,750.679C566.312,751.298,568.421,752.043,569.356,753.025C571.016,754.767,570.709,757.263,568.663,758.655C567.47,759.467,566.661,759.494,563.962,758.815C561.986,758.317,561,758.195,558.87,758.182C556.451,758.168,556.136,758.214,555.135,758.728C554.41,759.101,553.971,759.493,553.83,759.894C553.366,761.212,554.304,761.747,559.293,763.01C565.167,764.498,567.669,765.682,569.398,767.792C571.525,770.387,571.837,774.385,570.168,777.657C569.541,778.885,567.498,780.873,566.087,781.628C563.691,782.909,559.191,783.527,555.389,783.097ZM656.6,783.095C652.863,782.632,649.602,781.041,646.975,778.401C644.111,775.523,642.802,772.418,642.548,767.903C642.178,761.32,644.87,755.76,649.909,752.699C650.61,752.273,652.117,751.602,653.259,751.207C655.282,750.507,655.429,750.489,659.07,750.482C663.249,750.475,664.509,750.709,667.2,751.989C672.092,754.315,675.158,758.599,675.897,764.139C677.077,772.987,672.283,780.579,664.212,782.644C662.208,783.156,658.746,783.362,656.6,783.095ZM661.545,775.102C663.913,774.472,665.566,773.076,666.628,770.811C667.155,769.687,667.2,769.362,667.2,766.626C667.2,763.822,667.166,763.591,666.584,762.407C665.814,760.838,664.174,759.337,662.52,758.687C660.751,757.991,657.841,758.005,655.999,758.717C654.347,759.355,652.582,760.982,651.951,762.449C650.441,765.96,651.102,770.853,653.397,773.148C655.328,775.079,658.644,775.874,661.545,775.102ZM695.775,783.081C693.195,782.705,691.329,781.839,690.003,780.401C688.853,779.153,688.285,778.041,687.994,776.467C687.785,775.338,687.839,761.344,688.06,759.101L688.142,758.277L686.899,758.276C684.197,758.273,682.91,757.457,682.91,755.746C682.91,755.188,683.013,754.541,683.138,754.306C683.263,754.072,685.458,752.001,688.015,749.703C693.074,745.156,693.578,744.847,695.097,745.353C696.494,745.818,696.973,746.741,696.973,748.971L696.973,750.806L699.005,750.825C703.122,750.862,704.188,751.195,705.267,752.781C705.614,753.291,705.762,753.83,705.762,754.585C705.762,755.842,705.379,756.687,704.457,757.463C703.351,758.393,702.435,758.572,699.491,758.433L696.822,758.307L696.678,763.271C696.598,766.002,696.533,769.75,696.533,771.601C696.533,774.957,696.534,774.967,697.088,775.33C697.642,775.693,698.934,775.678,701.424,775.279C702.71,775.074,703.733,775.37,704.675,776.221C706.919,778.249,706.026,781.33,702.874,782.438C700.531,783.261,698.359,783.458,695.775,783.082ZM243.742,782.573C240.67,781.579,238.538,779.822,237.267,777.239C236.567,775.817,236.536,775.647,236.536,773.223C236.536,770.827,236.574,770.611,237.244,769.197C238.574,766.387,241.137,764.392,244.813,763.304C246.221,762.888,247.11,762.815,251.882,762.727L257.34,762.626L257.191,761.832C256.844,759.982,255.961,759.147,253.755,758.581C251.796,758.08,248.473,758.26,245.195,759.046C242.392,759.718,241.571,759.689,240.362,758.875C238.291,757.479,238.216,754.433,240.216,752.928C241.116,752.25,244.605,751.132,247.253,750.672C248.721,750.417,250.159,750.346,252.466,750.415C255.303,750.5,255.861,750.583,257.556,751.175C260.892,752.339,263.398,754.535,264.808,757.527C265.987,760.03,266.083,761.063,265.956,769.916C265.824,779.133,265.705,780.396,264.863,781.501C263.104,783.806,258.991,783.546,257.589,781.041C257.385,780.677,257.253,780.707,255.771,781.453C253.324,782.685,251.351,783.107,248.091,783.096C245.81,783.088,245.047,782.996,243.742,782.573ZM253.831,774.702C254.712,774.279,255.852,773.623,256.366,773.244C257.287,772.565,257.3,772.538,257.3,771.217L257.3,769.878L252.74,769.976C247.716,770.084,246.495,770.333,245.632,771.426C244.991,772.238,245.158,773.674,245.994,774.547C246.779,775.367,247.936,775.633,250.316,775.544C251.969,775.481,252.45,775.366,253.831,774.702ZM316.736,782.752C311.887,781.678,308.244,779.077,306.235,775.255C304.848,772.614,304.466,770.795,304.469,766.846C304.472,763.779,304.532,763.245,305.068,761.473C307.142,754.621,311.622,750.912,318.614,750.258C321.878,749.953,326.087,750.844,328.553,752.361C332.83,754.993,335.309,759.138,335.845,764.556C336.102,767.156,335.402,768.867,333.731,769.719C332.914,770.136,332.465,770.165,326.993,770.155C323.769,770.149,319.372,770.079,317.223,769.999L313.315,769.855L313.557,770.49C314.257,772.333,316.006,774.064,317.797,774.689C318.708,775.007,319.609,775.084,322.339,775.078C325.725,775.071,325.757,775.066,327.913,774.254C330.313,773.351,330.976,773.277,332.176,773.778C333.756,774.438,334.644,775.66,334.644,777.173C334.644,779.366,332.794,780.867,328.271,782.347C326.549,782.91,326.088,782.963,322.339,783.025C319.268,783.076,317.898,783.01,316.736,782.752ZM326.733,762.34C326.011,760.44,324.569,759.008,322.651,758.285C320.927,757.635,318.368,757.731,316.745,758.507C315.398,759.15,314.082,760.44,313.54,761.647L313.13,762.561L314.933,762.685C315.924,762.753,319.032,762.827,321.839,762.85L326.942,762.891ZM382.324,782.756C377.923,781.587,374.675,777.935,373.855,773.234C373.598,771.762,373.576,769.874,373.73,762.492C373.908,754.02,373.943,753.488,374.381,752.629C375.382,750.667,377.933,749.829,380.019,750.776C380.96,751.204,382.289,752.554,382.379,753.176C382.409,753.383,382.434,757.804,382.434,763.001L382.434,772.449L382.954,773.357C383.772,774.783,384.888,775.291,387.158,775.271C388.308,775.261,389.395,775.117,389.986,774.896C391.148,774.462,393.347,772.91,394.437,771.756L395.235,770.911L395.38,762.451C395.516,754.496,395.552,753.935,395.983,753.044C396.634,751.694,397.836,750.956,399.564,750.846C401.018,750.754,401.927,751.06,402.944,751.985C404.182,753.111,404.151,752.701,403.982,765.85C403.897,772.501,403.741,778.567,403.637,779.331C403.408,781.005,402.671,782.088,401.356,782.685C399.174,783.676,396.341,782.701,395.5,780.669L395.24,780.042L394.268,780.71C392.986,781.592,391.306,782.347,389.694,782.766C388.025,783.199,383.972,783.194,382.324,782.756ZM626.085,782.697C625.588,782.465,624.896,781.9,624.547,781.442L623.914,780.61L623.914,770.926C623.914,761.446,623.904,761.224,623.443,760.364C622.574,758.743,621.6,758.276,619.087,758.276C616.395,758.276,614.684,759.066,611.887,761.598L611.066,762.341L610.934,770.691C610.856,775.602,610.705,779.357,610.566,779.81C609.363,783.739,603.395,783.73,602.267,779.796C602.021,778.939,602.674,742.202,602.955,741.093C603.933,737.231,609.836,737.051,611.176,740.842C611.413,741.512,611.447,742.89,611.341,747.489L611.207,753.291L612.177,752.69C614.84,751.041,617.168,750.376,620.308,750.37C625.894,750.359,630.153,753.253,631.976,758.301C632.479,759.694,632.483,759.777,632.455,769.742C632.427,779.545,632.416,779.803,631.953,780.759C631.263,782.184,630.039,782.959,628.34,783.049C627.351,783.101,626.747,783.007,626.085,782.697ZM279.82,782.476C278.683,781.96,277.576,780.691,277.388,779.69C277.307,779.256,277.352,773.217,277.489,766.27C277.718,754.61,277.769,753.578,278.152,752.827C278.919,751.324,280.192,750.586,282.017,750.586C283.541,750.586,284.738,751.16,285.568,752.287C285.902,752.741,286.19,753.14,286.208,753.173C286.225,753.205,286.823,752.847,287.535,752.377C289.385,751.156,291.139,750.57,293.335,750.441C294.991,750.343,295.313,750.389,296.179,750.843C299.151,752.403,299.426,756.165,296.685,757.772C295.862,758.254,295.299,758.386,293.54,758.508C290.934,758.688,289.208,759.406,287.448,761.041L286.285,762.122L286.186,766.297C285.837,781.148,285.918,779.789,285.318,780.813C284.28,782.584,281.745,783.351,279.82,782.476ZM349.686,782.473C348.636,781.996,347.702,780.957,347.426,779.959C347.311,779.539,347.302,775.693,347.406,770.682C347.503,765.974,347.588,761.257,347.595,760.199L347.607,758.277L346.674,758.276C344.576,758.273,343.052,757.487,342.305,756.023C341.417,754.283,342.169,752.017,343.937,751.102C344.336,750.896,345.301,750.711,346.178,750.673L347.717,750.607L347.855,748.455C348.09,744.765,348.838,742.94,350.987,740.801C353.174,738.625,356.485,737.611,359.95,738.056C364.175,738.598,366.504,740.186,366.504,742.524C366.504,743.872,365.823,745.154,364.754,745.818C364.094,746.229,363.729,746.29,362.329,746.225C358.76,746.058,358.007,746.094,357.446,746.462C356.826,746.868,356.396,748.224,356.396,749.772L356.396,750.74L359.847,750.894C363.674,751.065,364.412,751.276,365.318,752.465C366.819,754.433,365.938,757.262,363.539,758.178C362.753,758.479,361.996,758.531,359.476,758.462C356.51,758.381,356.376,758.396,356.291,758.822C356.242,759.066,356.139,763.812,356.061,769.368C355.912,780.126,355.889,780.347,354.793,781.539C353.618,782.817,351.354,783.231,349.686,782.473ZM417.753,782.435C416.78,781.94,416.124,781.194,415.713,780.114C415.537,779.652,415.57,774.354,415.835,760.48C416.217,740.488,416.206,740.644,417.214,739.53C418.22,738.418,420.676,737.923,422.245,738.515C423.02,738.808,424.008,739.731,424.447,740.573C424.844,741.333,424.842,743.884,424.432,765.757C424.134,781.66,424.256,780.641,422.467,782.087C421.753,782.664,421.415,782.774,420.16,782.837C418.987,782.895,418.499,782.814,417.753,782.435ZM481.091,782.541C480.205,782.08,479.475,781.377,479.053,780.579C478.672,779.858,478.659,776.36,478.98,760.914C479.107,754.766,479.191,753.444,479.487,752.894C480.542,750.93,483.029,750.06,485.108,750.927C486.25,751.403,487.322,752.509,487.584,753.481C487.801,754.289,487.5,777.139,487.243,779.363C486.999,781.468,485.267,782.887,482.945,782.885C482.288,782.884,481.454,782.729,481.091,782.541ZM529.809,754.616C528.57,754.005,528.21,753.232,527.643,749.961C527.357,748.311,527.059,745.625,526.982,743.993C526.853,741.274,526.879,740.951,527.291,740.147C528.159,738.455,529.6,737.579,531.516,737.579C533.441,737.579,535.301,738.746,535.899,740.328C536.253,741.264,536.179,743.782,535.705,746.961C534.868,752.568,534.388,753.849,532.822,754.659C532.009,755.079,530.712,755.061,529.809,754.616ZM481.859,747.964C480.025,747.406,478.949,746.279,478.534,744.481C478.086,742.541,478.881,740.724,480.611,739.735C482.546,738.629,484.853,738.812,486.475,740.201C487.599,741.163,488.013,742.066,488.013,743.555C488.013,745.018,487.617,745.905,486.524,746.891C485.26,748.032,483.45,748.448,481.859,747.964Z" fill="#ff0088" fill-opacity="0.6" transform="translate(449.602,452.628) translate(-449.602,-452.628)"/>
    <script><![CDATA[/*
 KeyshapeJS v1.2.1 (c) 2018-2022 Pixofield Ltd | pixofield.com/keyshapejs/mit-license */
window.KeyshapeJS=function(){function r(a){return"undefined"!==typeof a}function u(a,b){return a&&0===a.indexOf(b)}function X(a){var b={},c;for(c in a)b[c]=a[c];return b}function F(a){if(!isFinite(a))throw Error("Non-finite value");}function Y(a){if(14>=a)return 16;var b=Z[a];b||(b=r(ka[a])?0|(a.toLowerCase().indexOf("color")===a.length-5?48:0):1);return b}function N(a){return 0<=a?Math.pow(a,1/3):-Math.pow(-a,1/3)}function la(a,b,c,d){if(0===a)return 0===b?b=-d/c:(a=Math.sqrt(c*c-4*b*d),d=(-c+a)/
(2*b),0<=d&&1>=d?b=d:(d=(-c-a)/(2*b),b=0<=d&&1>=d?d:0)),b;var e=c/a-b*b/(a*a)/3;c=b*b*b/(a*a*a)/13.5-b*c/(a*a)/3+d/a;var f=c*c/4+e*e*e/27;b=-b/(3*a);if(0>=f){if(0===e&&0===c)return-N(d/a);a=Math.sqrt(c*c/4-f);d=Math.acos(-c/2/a);c=Math.cos(d/3);d=Math.sqrt(3)*Math.sin(d/3);a=N(a);e=2*a*c+b;if(0<=e&&1>=e)return e;e=-a*(c+d)+b;if(0<=e&&1>=e)return e;e=a*(d-c)+b;if(0<=e&&1>=e)return e}else{a=N(-c/2+Math.sqrt(f));c=N(-c/2-Math.sqrt(f));d=a+c+b;if(0<=d&&1>=d)return d;d=-(a+c)/2+b;if(0<=d&&1>=d)return d}return 0}
function ma(a,b){if(48===a&&"number"===typeof b)return"rgba("+(b>>>24)+","+(b>>>16&255)+","+(b>>>8&255)+","+(b&255)/255+")";if(64===a)return b=b.map(function(f){return f+"px"}),b.join(",");if(96===a){for(var c="",d=b.length,e=0;e<d;e+=2)c+=b[e],c+=b[e+1].join(",");return c}if(80===a){if(0===b[0])return"none";c="";d=b.length;for(e=0;e<d;)c+=aa[b[e]],1===b[e]?c+="("+b[e+1]+") ":5===b[e]?(c+="("+b[e+1]+"px "+b[e+2]+"px "+b[e+3]+"px rgba("+(b[e+4]>>>24)+","+(b[e+4]>>16&255)+","+(b[e+4]>>8&255)+","+(b[e+
4]&255)/255+")) ",e+=3):c=2===b[e]?c+("("+b[e+1]+"px) "):7===b[e]?c+("("+b[e+1]+"deg) "):c+("("+(0>b[e+1]?0:b[e+1])+") "),e+=2;return c}return 32===a?b+"px":b}function B(a){return 0>=a?0:255<=a?255:a}function na(a,b,c,d){if(16===a||32===a)return(c-b)*d+b;if(0===a)return.5>d?b:c;if(112===a)return 0>=d?b:1<=d?c:"visible";if(48===a){if("number"===typeof b&&"number"===typeof c){a=1-d;var e=a*(b>>>16&255)+d*(c>>>16&255),f=a*(b>>>8&255)+d*(c>>>8&255),m=a*(b&255)+d*(c&255);return B(a*(b>>>24)+d*(c>>>24))<<
24|B(e)<<16|B(f)<<8|B(m)}return.5>d?b:c}if(64===a){0===b.length&&(b=[0]);0===c.length&&(c=[0]);a=b.length;b.length!==c.length&&(a=b.length*c.length);e=[];for(f=0;f<a;++f)m=b[f%b.length],m=(c[f%c.length]-m)*d+m,0>m&&(m=0),e.push(m);return e}if(96===a){if(b.length!==c.length)return.5>d?b:c;a=b.length;e=[];for(f=0;f<a;f+=2){if(b[f]!==c[f])return.5>d?b:c;e[f]=b[f];e[f+1]=[];for(m=0;m<b[f+1].length;++m)e[f+1].push((c[f+1][m]-b[f+1][m])*d+b[f+1][m])}return e}if(80===a){a=b.length;if(a!==c.length)return.5>
d?b:c;e=[];for(f=0;f<a;){if(b[f]!==c[f]||1===b[f])return.5>d?b:c;e[f]=b[f];e[f+1]=(c[f+1]-b[f+1])*d+b[f+1];if(5===b[f]){e[f+2]=(c[f+2]-b[f+2])*d+b[f+2];e[f+3]=(c[f+3]-b[f+3])*d+b[f+3];m=1-d;var k=b[f+4],h=c[f+4],g=m*(k>>>24)+d*(h>>>24),n=m*(k>>8&255)+d*(h>>8&255),p=m*(k&255)+d*(h&255);e[f+4]=(B(m*(k>>16&255)+d*(h>>16&255))<<16|B(n)<<8|B(p))+16777216*(B(g)|0);f+=3}f+=2}return e}return 0}function ba(a,b){a:{var c=a+b[2];for(var d=b[4].length,e=0;e<d;++e)if(c<b[4][e]){c=e;break a}c=d-1}d=b[2];e=b[4][c-
1]-d;d=(a-e)/(b[4][c]-d-e);if(b[6]&&b[6].length>c-1)if(e=b[6][c-1],1===e[0])if(0>=d)d=0;else if(1<=d)d=1;else{var f=e[1],m=e[3];d=la(3*f-3*m+1,-6*f+3*m,3*f,-d);d=3*d*(1-d)*(1-d)*e[2]+3*d*d*(1-d)*e[4]+d*d*d}else 2===e[0]?(e=e[1],d=Math.ceil(d*e)/e):3===e[0]&&(e=e[1],d=Math.floor(d*e)/e);return na(b[1]&240,b[5][c-1],b[5][c],d)}function O(){C||(z=(new Date).getTime()+ca)}function U(a){if(a||!J){for(var b=!1,c=0;c<D.length;++c)D[c].O(a)&&(b=!0);if(a)for(;0<K.length;)if(a=K.shift(),c=a[0],1===a[1])c.onfinish&&
(c.onfinish(),b=!0),c.N();else if(2===a[1]&&c.onloop)c.onloop();return b}}function da(){O();U(!0)&&!C?(J=!0,P(da)):J=!1}function Q(){J||(J=!0,P(da))}function ea(a,b){var c=[];a.split(b).forEach(function(d){c.push(parseFloat(d))});return c}function G(a){-1===a.indexOf(",")&&(a=a.replace(" ",","));return ea(a,",")}function fa(a){a._ks||(a._ks={});if(!a._ks.transform){for(var b=a._ks.transform=[],c=0;14>=c;++c)b[c]=0;b[10]=1;b[11]=1;if(a=a.getAttribute("transform")){a=a.trim().split(") ");for(c=a.length-
2;0<=c;--c)if(u(a[c],"translate(")){for(var d=0;d<c;d++)a.shift();break}c=a.shift();u(c,"translate(")&&(c=G(c.substring(10)),b[1]=c[0],b[2]=r(c[1])?c[1]:0,c=a.shift());u(c,"rotate(")&&(c=G(c.substring(7)),b[6]=c[0],c=a.shift());u(c,"skewX(")&&(c=G(c.substring(6)),b[7]=c[0],c=a.shift());u(c,"skewY(")&&(c=G(c.substring(6)),b[8]=c[0],c=a.shift());u(c,"scale(")&&(c=G(c.substring(6)),b[10]=c[0],b[11]=r(c[1])?c[1]:c[0],c=a.shift());u(c,"translate(")&&(c=G(c.substring(10)),b[13]=c[0],b[14]=r(c[1])?c[1]:
0)}}}function ha(a){this.m=a;this.I=[];this.G=[];this.D=0;this.B=this.g=this.i=null;this.o=this.j=this.l=0;this.h=1;this.s=this.K=this.A=!1}function H(a,b,c){b=a[b];void 0===b&&(b=a[c]);return b}function oa(a){return Array.isArray(a)?a:u(a,"cubic-bezier(")?(a=a.substring(13,a.length-1).split(","),[1,parseFloat(a[0]),parseFloat(a[1]),parseFloat(a[2]),parseFloat(a[3])]):u(a,"steps(")?(a=a.substring(6,a.length-1).split(","),[a[1]&&"start"===a[1].trim()?2:3,parseFloat(a[0])]):[0]}function pa(a){a=a.trim();
return u(a,"#")?(parseInt(a.substring(1),16)<<8)+255:u(a,"rgba(")?(a=a.substring(5,a.length-1),a=a.split(","),(parseInt(a[0],10)<<24)+(parseInt(a[1],10)<<16)+(parseInt(a[2],10)<<8)+255*parseFloat(a[3])<<0):a}function ia(a){!1===a.s&&(D.push(a),a.s=!0,!1!==a.m.autoplay&&a.play());return this}function V(a){if(!0===a.s){a._cancel();var b=D.indexOf(a);-1<b&&D.splice(b,1);b=K.indexOf(a);-1<b&&K.splice(b,1);a.s=!1}return this}var W=Error("Not in timeline list"),ja="mpath posX posY    rotate skewX skewY  scaleX scaleY  anchorX anchorY".split(" "),
qa=" translate translate    rotate skewX skewY  scale scale  translate translate".split(" "),aa="none url blur brightness contrast drop-shadow grayscale hue-rotate invert opacity saturate sepia".split(" "),P=window.requestAnimationFrame||window.webkitRequestAnimationFrame||window.mozRequestAnimationFrame||window.oRequestAnimationFrame||window.msRequestAnimationFrame||null;P||(P=function(a){window.setTimeout(a,16)});var ra=/apple/i.test(navigator.vendor),Z={d:97,fill:48,fillOpacity:16,filter:80,height:33,
opacity:16,offsetDistance:33,stroke:48,strokeDasharray:64,strokeDashoffset:32,strokeOpacity:16,strokeWidth:32,transform:1,visibility:113,width:33},ka=window.getComputedStyle(document.documentElement),J=!1,z=(new Date).getTime(),C,ca=0,D=[],K=[];ha.prototype={J:function(a){var b=0;if(null!==this.i){var c=this.u();0<this.h&&null!==c&&c>=this.j?this.o?(this.i=z-this.l/this.h,this.o--,b=2):(b=1,a?this.g=c:this.g=this.B?Math.max(this.B,this.j):this.j):0>this.h&&null!==c&&c<=this.l?this.o&&Infinity!==this.j?
(this.i=z-this.j/this.h,this.o--,b=2):(this.o=0,b=1,a?this.g=c:this.g=this.B?Math.min(this.B,this.l):this.l):null!==c&&0!==this.h&&(a&&null!==this.g&&(this.i=z-this.g/this.h),this.g=null)}this.B=this.u();return b},O:function(a){a&&(this.A&&(this.A=!1,null===this.i&&(0!==this.h&&null!==this.g?(this.i=z-this.g/this.h,this.g=null):this.i=z)),null===this.g&&null!==this.i&&(a=this.J(!1),0!==a&&K.push([this,a])));a=this.u();if(null===a)return!1;for(var b=this.I,c=this.G,d=0;d<b.length;++d){for(var e=b[d],
f=!1,m=0;m<c[d].length;++m){var k=c[d][m],h=k[0];if(null!==h){var g=k[2];var n=k[4].length,p=k[4][n-1]-g;g=0===p?k[5][n-1]:a<g?!k[9]||k[9][0]&1?k[5][0]:k[9][1]:a>=g+k[3]?!k[9]||k[9][0]&2?0===k[3]%p?k[5][n-1]:ba(k[3]%p,k):k[9][1]:ba((a-g)%p,k);0===h?(e._ks.mpath=k[8],e._ks.transform[h]=g,f=!0):14>=h?(e._ks.transform[h]=g,f=!0):(g=ma(k[1]&240,g),k[1]&1?e.setAttribute(h,g):e.style[h]=g)}}if(f){f=e;fa(f);m=f._ks.transform;k="";if(h=f._ks.mpath)n=m[0],0>n&&(n=0),100<n&&(n=100),n=n*h[2]/100,g=h[1].getPointAtLength(n),
k="translate("+g.x+","+g.y+") ",h[0]&&(.5>n?(n=g,g=h[1].getPointAtLength(.5)):n=h[1].getPointAtLength(n-.5),k+="rotate("+180*Math.atan2(g.y-n.y,g.x-n.x)/Math.PI+") ");for(h=1;h<m.length;++h)g=m[h],g!==(10===h||11===h?1:0)&&(k+=" "+qa[h]+"(",k=2>=h?k+(1===h?g+",0":"0,"+g):13<=h?k+(13===h?g+",0":"0,"+g):10<=h?k+(10===h?g+",1":"1,"+g):k+g,k+=")");f.setAttribute("transform",k)}ra&&e.setAttribute("opacity",e.getAttribute("opacity"))}return"running"===this.v()},N:function(){!1!==this.m.autoremove&&"finished"===
this.v()&&V(this)},H:function(){if(!this.K){this.K=!0;for(var a=this.I,b=this.G,c=0;c<a.length;++c)for(var d=a[c],e=0;e<b[c].length;++e)14>=b[c][e][0]&&fa(d)}},C:function(a){if("number"===typeof a)return[a,0];if(!r(this.m.markers)||!r(this.m.markers[a]))throw Error("Invalid marker: "+a);a=this.m.markers[a];return r(a.time)?[+a.time,+(a.dur||0)]:[+a,0]},play:function(a){r(a)&&null!==a&&(a=this.C(a)[0],F(a),0>this.h&&a<this.l&&(a=this.l),0<this.h&&a>this.j&&(a=this.j),this.F(a,!0));if(!this.s)throw W;
a=this.u();if(0<this.h&&(null===a||a>=this.j||a<this.l))this.g=this.l;else if(0>this.h&&(null===a||a<=this.l||a>this.j)){if(Infinity===this.j)throw Error("Cannot seek to Infinity");this.g=this.j}else 0===this.h&&null===a&&(this.g=this.l);if(null===this.g)return this;this.i=null;this.A=!0;this.H();Q();return this},pause:function(a){if(!this.s)throw W;r(a)&&(a=this.C(a)[0],F(a));if("paused"!==this.v()){O();var b=this.u();if(null===b)if(0<=this.h)this.g=this.l;else{if(Infinity===this.j)throw Error("Cannot seek to Infinity");
this.g=this.j}null!==this.i&&null===this.g&&(this.g=b);this.i=null;this.A=!1;this.J(!1);this.H();Q()}r(a)&&this.F(a,!0);return this},range:function(a,b){if(0===arguments.length)return{"in":this.l,out:this.j};var c=this.C(a)[0],d=this.D;r(b)&&(d=this.C(b)[0]);F(c);if(0>c||0>d||c>=d||isNaN(d))throw Error("Invalid range");var e=this.v();this.l=c;this.j=d;"finished"===e&&"running"===this.v()&&this.play();return this},loop:function(a){if(!r(a))return{count:this.o};this.o=!0===a?Infinity:Math.floor(a);
if(0>this.o||isNaN(this.o))this.o=0;return this},u:function(){return null!==this.g?this.g:null===this.i?null:(z-this.i)*this.h},F:function(a,b){b&&O();null!==a&&(this.H(),null!==this.g||null===this.i||0===this.h?(this.g=a,U(!1)):this.i=z-a/this.h,this.s||(this.i=null),this.B=null,this.J(!0),Q())},L:function(){return this.u()},time:function(a){if(r(a)){if(!this.s)throw W;a=this.C(a)[0];F(a);this.F(a,!0);return this}return this.L()},v:function(){var a=this.u();return this.A?"running":null===a?"idle":
null===this.i?"paused":0<this.h&&a>=this.j||0>this.h&&a<=this.l?"finished":"running"},state:function(){return this.v()},duration:function(){return this.D},M:function(a){F(a);O();var b=this.u();this.h=a;null!==b&&this.F(b,!1)},rate:function(a){return r(a)?(this.M(a),this):this.h},markers:function(a){return r(a)?(this.m.markers=X(a),this):r(this.m.markers)?this.m.markers:{}},marker:function(a){return r(this.m.markers)?this.m.markers[a]:void 0},_cancel:function(){if(!this.s||"idle"===this.v())return this;
this.i=this.g=null;this.A=!1;return this}};return{version:"1.2.1",animate:function(){var a={};1===arguments.length%2&&(a=X(arguments[arguments.length-1]));a=new ha(a);for(var b=arguments,c=0,d=0;d<b.length-1;d+=2){var e=b[d];var f=e instanceof Element?e:document.getElementById(e.substring(1));if(!f)throw Error("Invalid target: "+e);e=f;f=b[d+1];e._ks||(e._ks={});for(var m=[],k=0;k<f.length;++k){var h=f[k],g=H(h,"p","property");if("string"!==typeof g||-1!==g.indexOf("-")||""===g||!(0<Z[g]||0<=ja.indexOf(g)))throw Error("Invalid property: "+
g);var n=ja.indexOf(g);""!==g&&0<=n&&(g=n);n=Y(g);var p=H(h,"t","times");if(!p||2>p.length)throw Error("Not enough times");p=p.slice();if(!isFinite(p[0])||0>p[0])throw Error("Invalid time: "+p[0]);for(var w=1;w<p.length;++w)if(!isFinite(p[w])||0>p[w]||p[w]<p[w-1])throw Error("Invalid time: "+p[w]);w=p[0];var R=p[p.length-1]-w,S=h.iterations||0;1>S&&(S=1);R*=S;c<R+w&&(c=R+w);var I=H(h,"v","values");if(!I||I.length!==p.length)throw Error("Values do not match times");I=I.slice();for(var x=g,l=I,L=Y(x)&
240,q=0;q<l.length;++q)if(96===L){for(var E=l[q].substring(6,l[q].length-2).match(/[A-DF-Za-df-z][-+0-9eE., ]*/ig),M=[],t=0;t<E.length;++t){M.push(E[t][0]);for(var v=1<E[t].trim().length?E[t].substring(1).split(","):[],A=0;A<v.length;++A)v[A]=parseFloat(v[A]);M.push(v)}l[q]=M}else if(48===L)u(l[q],"#")?(E=9===l[q].length,l[q]=parseInt(l[q].substring(1),16),E||(l[q]=256*l[q]|255)):u(l[q],"url(")||"none"===l[q]||(console.warn("unsupported color: "+l[q]),l[q]=0);else if(80===L){E=l;M=q;t=l[q];if("none"===
t)t=[0];else{v=[];for(var y=t.indexOf("(");0<y;)if(A=aa.indexOf(t.substring(0,y)),0<=A){v.push(A);var T=t.indexOf(") ");0>T&&(T=t.length-1);y=t.substring(y+1,T).split(" ");5===A?(v.push(parseFloat(y[0])),v.push(parseFloat(y[1])),v.push(parseFloat(y[2])),v.push(pa(y[3]))):1===A?v.push(y[0]):v.push(parseFloat(y[0]));t=t.substring(T+1).trim();y=t.indexOf("(")}else break;t=v}E[M]=t}else 64===L?"none"!==l[q]?/^[0-9 .]*$/.test(l[q])?l[q]=ea(l[q]," "):(console.warn("unsupported value: "+l[q]),l[q]=[0]):
l[q]=[0]:32===L?(F(l[q]),l[q]=parseFloat(l[q])):0===x&&(l[q]=parseFloat(l[q]));x=H(h,"e","easing");l=p.length;for(x||(x=[]);x.length<l;)x.push([1,0,0,.58,1]);for(l=0;l<x.length;++l)x[l]=oa(x[l]);n=[g,n,w,R,p,I,x,S];p=H(h,"mp","motionPath");r(p)&&0===g&&(n[8]=[],n[8][0]=h.motionRotate,g=document.createElementNS("http://www.w3.org/2000/svg","path"),p||(p="M0,0"),g.setAttribute("d",p),n[8][1]=g,n[8][2]=g.getTotalLength());h=H(h,"f","fill");r(h)&&(n[9]=h.slice());m.push(n)}0<m.length&&(a.I.push(e),a.G.push(m))}a.D=
c;a.l=0;a.j=a.D;ia(a);return a},add:ia,remove:V,removeAll:function(){for(var a=D.length-1;0<=a;--a)V(D[a]);return this},timelines:function(){return D.slice()},globalPlay:function(){C&&(ca=C-(new Date).getTime(),C=void 0,Q());return this},globalPause:function(){C||(C=z,U(!1));return this},globalState:function(){return C?"paused":"running"}}}();
]]></script>
    <script>
    window.ks=document.ks=KeyshapeJS;
    document.tl = undefined;
    document.playNSFW = function(){
        document.tl = window.ks.animate("#big-leaf-nsfw",[{p:'mpath',t:[100,600],v:['0%','100%'],e:[[1,0.42,0,0.58,1],[0]],mp:"M46.6378,101.557L114.64,90.56"},{p:'rotate',t:[0,500],v:[0,9],e:[[1,0.42,0,0.58,1],[0]]},{p:'fillOpacity',t:[0,300,500],v:[1,1,0],e:[[0],[0],[0]]}],
"#small-leaf-nsfw",[{p:'mpath',t:[0,500],v:['0%','100%'],e:[[1,0.42,0,0.58,1],[0]],mp:"M84.5208,91.4216L161.52,74.42"},{p:'rotate',t:[0,500],v:[0,12],e:[[1,0.42,0,0.58,1],[0]]},{p:'fillOpacity',t:[0,300,500],v:[1,1,0],e:[[0],[0],[0]]}],
"#path-nsfw",[{p:'strokeOpacity',t:[0,500,600],v:[1,1,0],e:[[0],[0],[0]]},{p:'strokeDashoffset',t:[0,1000],v:[493,1116],e:[[0],[0]]}],
"#ellipse18",[{p:'mpath',t:[0,400,500,700,800],v:['0%','10.008945%','15.817702%','99.307409%','100%'],e:[[1,0.433,0,0.645,0.74],[1,0.303,0.622,0.631,1],[1,0.42,0,0.58,1],[0],[0]],mp:"M449.945,566.1L449.945,588.5L449.945,601.5L449.945,414.65L449.945,416.2"},{p:'scaleX',t:[0,400,700,800],v:[1,0.9,1.5,1.4],e:[[0],[1,0.42,0,0.58,1],[0],[0]]},{p:'scaleY',t:[0,400,700,800],v:[1,1,1.5,1.4],e:[[0],[1,0.42,0,0.58,1],[0],[0]]},{p:'fillOpacity',t:[0,1000,1300],v:[1,1,0],e:[[0],[1,0.42,0,0.58,1],[0]]}],
"#JoinBottom",[{p:'mpath',t:[0,400,500],v:['0%','99.057042%','100%'],e:[[1,0.433964,0,0.659745,0.689593],[1,0.296462,0.607823,0.621891,1],[0]],mp:"M401.093,518.183L401.093,545.92L401.093,546.184"},{p:'scaleX',t:[0,400,500],v:[1,1,1],e:[[1,0.433964,0,0.659745,0.689593],[1,0.296462,0.607823,0.621891,1],[0]]},{p:'scaleY',t:[0,400,500],v:[1,1.261,0.1],e:[[1,0.433964,0,0.659745,0.689593],[1,0.296462,0.607823,0.621891,1],[0]]},{p:'fillOpacity',t:[0,500,600],v:[1,1,0],e:[[0],[1,0.42,0,1,1],[0]]}],
"#JoinBottom-2",[{p:'mpath',t:[0,400,500],v:['0%','50%','100%'],e:[[1,0.433964,0,0.659745,0.689593],[1,0.296462,0.607823,0.621891,1],[0]],mp:"M499.048,454.165L499.048,451.43L499.048,454.165"},{p:'scaleX',t:[0,400,500],v:[1,1,1],e:[[1,0.433964,0,0.659745,0.689593],[1,0.296462,0.607823,0.621891,1],[0]]},{p:'scaleY',t:[0,400,500],v:[1,1.348,0.2],e:[[1,0.433964,0,0.659745,0.689593],[1,0.296462,0.607823,0.621891,1],[0]]},{p:'fillOpacity',t:[0,500,600],v:[1,1,0],e:[[0],[0],[0]]}],
"#path1",[{p:'fillOpacity',t:[0,200],v:[1,0],e:[[0],[0]]}],
"#path1-2",[{p:'fillOpacity',t:[0,200],v:[0.6,0],e:[[0],[0]]}],
{autoremove:false}).range(0,1300);
    };
    document.wobbleNSFW = function(){
        document.tl = window.ks.animate("#big-leaf-nsfw",[{p:'mpath',t:[0,900],v:['0%','0%'],e:[[0],[0]],mp:"M46.6378,101.557L46.6378,101.557"},{p:'rotate',t:[0,300,600],v:[0,10,0],e:[[1,0.42,0,0.58,1],[1,0.42,0,0.58,1],[0]]},{p:'fillOpacity',t:[0,900],v:[1,0.99],e:[[0],[0]]}],
"#small-leaf-nsfw",[{p:'mpath',t:[0,900],v:['0%','0%'],e:[[0],[0]],mp:"M84.5208,91.4216L84.5208,91.4216"},{p:'rotate',t:[0,200,500,700],v:[0,8,-5,0],e:[[1,0.42,0,0.58,1],[1,0.42,0,0.58,1],[1,0.42,0,0.58,1],[0]]},{p:'fillOpacity',t:[0,900],v:[1,1],e:[[0],[0]]}],
"#path-nsfw",[{p:'strokeOpacity',t:[0,900],v:[1,1],e:[[0],[0]]},{p:'strokeDashoffset',t:[0,900],v:[493,493],e:[[0],[0]]}],
"#ellipse18",[{p:'mpath',t:[0,200,400,600,900],v:['0%','27.864597%','77.864597%','94.869792%','100%'],e:[[1,0.42,0,0.58,1],[1,0,0,0.58,1],[1,0.433,0,0.682,0.615],[1,0.289,0.579,0.606,1],[0]],mp:"M449.945,566.1L449.945,587.5L449.945,549.1L449.945,562.16L449.945,566.1"},{p:'scaleX',t:[0,200,400,600,900],v:[1,0.9,1,1,1],e:[[1,0.42,0,0.58,1],[1,0.42,0,0.58,1],[1,0.433,0,0.682,0.615],[1,0.289,0.579,0.606,1],[0]]},{p:'scaleY',t:[0,200,400,600,900],v:[1,1,0.8,0.954,1],e:[[1,0.42,0,0.58,1],[1,0.42,0,0.58,1],[1,0.433,0,0.682,0.615],[1,0.289,0.579,0.606,1],[0]]},{p:'fillOpacity',t:[0,900],v:[1,1],e:[[0],[0]]}],
"#JoinBottom",[{p:'mpath',t:[0,200,300,400,600,900],v:['0%','39.920851%','77.874223%','89.920851%','97.664096%','100%'],e:[[1,0.42,0,0.58,1],[1,0.42,0,0.71,0.5],[1,0.29,0.5,0.58,1],[1,0.433203,0,0.682003,0.615478],[1,0.288922,0.578991,0.606405,1],[0]],mp:"M401.093,518.183L401.093,545.92L401.093,519.55L401.093,511.18L401.09,516.56L401.093,518.183"},{p:'scaleX',t:[0,200,400,600,900],v:[1,1,1,1,1],e:[[1,0.42,0,0.58,1],[1,0.42,0,0.58,1],[1,0.433203,0,0.682003,0.615478],[1,0.288922,0.578991,0.606405,1],[0]]},{p:'scaleY',t:[0,200,400,600,900],v:[1,1.261,0.8,0.953645,1],e:[[1,0.42,0,0.58,1],[1,0.42,0,0.58,1],[1,0.433203,0,0.682003,0.615478],[1,0.288922,0.578991,0.606405,1],[0]]},{p:'fillOpacity',t:[0,900],v:[1,1],e:[[0],[0]]}],
"#JoinBottom-2",[{p:'mpath',t:[0,200,400,600,900],v:['0%','30.355099%','71.864437%','91.509338%','100%'],e:[[1,0.42,0,0.58,1],[1,0.42,0,0.58,1],[1,0.433203,0,0.682003,0.615478],[1,0.288922,0.578991,0.606405,1],[0]],mp:"M499.048,454.165L499.048,451.43L499.048,455.17L499.048,453.4L499.048,454.165"},{p:'scaleX',t:[0,200,400,600,900],v:[1,1,1,1,1],e:[[1,0.42,0,0.58,1],[1,0.42,0,0.58,1],[1,0.433203,0,0.682003,0.615478],[1,0.288922,0.578991,0.606405,1],[0]]},{p:'scaleY',t:[0,200,400,600,900],v:[1,1.248,0.75,0.953645,1],e:[[1,0.42,0,0.58,1],[1,0.42,0,0.58,1],[1,0.433203,0,0.682003,0.615478],[1,0.288922,0.578991,0.606405,1],[0]]},{p:'fillOpacity',t:[0,900],v:[1,1],e:[[0],[0]]}],
"#path1",[{p:'fillOpacity',t:[0,900],v:[1,1],e:[[0],[0]]}],
"#path1-2",[{p:'fillOpacity',t:[0,900],v:[0.6,0.6],e:[[0],[0]]}],
{autoremove:false}).range(0,900);
    };
    </script>
    <style>
        pointer-events: none;
        -webkit-user-select: none;
        -webkit-touch-callout: none;
        -webkit-tap-highlight-color:
        rgba(255, 255, 255, 0);
        user-select: none;
    </style>
</svg>