<?xml version="1.0" encoding="UTF-8" standalone="no"?>
<svg xmlns="http://www.w3.org/2000/svg" shape-rendering="geometricPrecision" text-rendering="geometricPrecision" viewBox="0 0 900 900" style="white-space: pre;">
    <defs>
        <mask id="Mask-nsfw">
            <path id="path-nsfw" d="M0,0C19.8821,-33.9652,28.9947,-35.2079,28.9947,-35.2079C28.9947,-35.2079,43.9062,-40.5926,66.6878,-4.55631C89.4694,31.48,101.895,55.5042,154.086,56.3326C206.277,57.161,232.372,14.9116,241.899,-4.55631C251.426,-24.0242,247.697,-35.6222,242.727,-34.7937C237.757,-33.9652,190.951,-19.0536,132.133,-25.2668C73.3152,-31.48,66.2736,-40.1784,66.2736,-40.1784C66.2736,-40.1784,28.1663,-62.5457,102.31,-77.8715" stroke="#ffffff" fill="none" stroke-width="29.25" stroke-miterlimit="1" stroke-linecap="round" stroke-dasharray="1111" stroke-dashoffset="515" stroke-opacity="1" transform="translate(-6.57748,7.36129)"/>
        </mask>
    </defs>
    <path id="cup-bg-nsfw" d="M1.27198,0.3851C-9.04275,-0.414619,-6.33096,-13.4612,-6.33096,-13.4612C-6.33096,-13.4612,-4.36277,-25.3739,5.06384,-33.0395C13.1848,-39.6433,20.3788,-41.8892,29.3788,-41.3892C38.3788,-40.8892,45.0036,-37.3323,49.5036,-32.8323C54.0036,-28.3323,58.4122,-23.5093,63.0737,-12.2181C69.0313,2.21258,72.8772,15.1278,83.3772,26.6278C93.8772,38.1278,115.211,53.4026,144.877,53.4026C161.342,53.4026,176.745,50.4331,193.999,38.9848C211.378,27.4538,220.304,13.7067,228.606,-7.32475C230.804,-12.8918,230.608,-13.8282,230.96,-17.1056C231.008,-17.5563,231.026,-18.3234,230.921,-18.315C229.83,-18.2272,220.229,-14.7473,197.954,-11.4607C175.679,-8.17408,166.305,-5.70166,133.099,-6.96718C104.523,-8.05625,78.1603,-15.4727,63.1881,-22.7762C48.2159,-30.0797,40.7575,-43.3743,44.5085,-52.09C50.4606,-65.92,65.7229,-71.8426,80.6951,-77.6854C95.6673,-83.5282,105.564,-85.3207,108.828,-76.9131C112.469,-67.5355,104.9,-63.9432,98.2367,-62.1296C79.5918,-57.0547,69.4826,-50.3733,63.6792,-46.8547C61.8584,-45.7508,81.5833,-31.966,118.461,-28.0711C144.775,-25.2919,165.994,-25.913,187.652,-29.9332C208.993,-33.8946,216.479,-36.7268,230.012,-37.9671C245.859,-39.4195,252.689,-28.0257,250.827,-14.961C248.732,-0.259088,239.441,24.6982,222.373,41.6092C199.533,64.2394,177.858,71.3079,156.8,72.8487C127.702,74.9778,106.841,67.0355,95.2626,60.6304C77.4371,50.7696,65.1455,36.3652,57.2844,23.7476C49.5001,11.2534,48.269,5.20253,42.5287,-9.90644C38.4056,-20.7588,22.2921,-28.4393,13.7653,-11.0786C11.9627,-7.40848,11.742,1.19686,1.27198,0.3851Z" fill="#ff0000" stroke-linecap="square" stroke="none" fill-rule="nonzero" stroke-width="0.25" mask="url(#Mask-nsfw)" transform="translate(306,398.713)"/>
    <path id="ellipse21" d="M152.802,110.316C134.699,110.316,117.338,117.534,104.537,130.381C91.737,143.228,84.5459,160.65,84.5463,178.818C84.5459,196.982,91.737,214.404,104.537,227.251C117.338,240.098,134.699,247.316,152.802,247.316C170.903,247.316,188.263,240.098,201.066,227.251C213.864,214.404,221.056,196.982,221.056,178.818C221.056,160.65,213.864,143.228,201.066,130.381C188.263,117.534,170.903,110.316,152.802,110.316ZM174.599,147.248C177.633,147.172,180.791,147.474,183.826,148.416C193.536,151.432,197.57,158.638,197.57,165.789C197.57,172.946,193.128,178.259,187.095,183.114C181.067,187.969,167.98,194.925,166.016,197.706L190.733,197.635C190.733,197.635,197.166,197.564,197.166,203.201C197.166,208.838,190.587,208.696,190.587,208.696L158.94,208.714C158.94,208.714,151.834,209.278,151.681,202.175C151.528,195.072,157.505,189.604,161.747,186.383C165.99,183.167,176.318,176.926,180.045,174.425C187.504,169.419,187.015,162.911,182.293,159.659C179.912,158.02,174.177,157.931,169.668,158.691C164.502,159.557,160.113,161.192,160.113,161.192C160.113,161.192,154.578,162.409,153.316,158.278C151.982,153.92,155.053,151.637,159.091,150.309C161.863,149.393,167.927,147.417,174.599,147.248ZM128.597,148.016C129.472,148.039,130.425,148.145,131.448,148.367C133.873,148.9,135.702,151.006,135.626,153.818C135.55,156.634,134.028,197.906,134.028,197.906L140.931,198.133C140.931,198.133,146.585,198.346,146.427,203.548C146.252,209.3,139.953,208.958,139.953,208.958L111.832,208.016C111.832,208.016,106.425,207.803,106.586,202.544C106.744,197.377,112.238,197.151,112.238,197.151L121.258,197.453L122.55,161.778L116.315,164.492C116.315,164.492,110.275,166.625,108.106,161.725C106.024,157.021,110.427,154.546,110.427,154.546L122.495,149.345C122.495,149.345,124.804,147.91,128.597,148.016Z" display="inline" fill="#ff0000" stroke-width="0.329022" fill-opacity="1" transform="translate(449.945,566.1) translate(0,0) translate(-152.801,-178.816)"/>
    <path id="JoinBottom" d="M0,0C0,0,20.4284,-18.9337,21.4249,-32.8847C22.4214,-46.8357,32.4485,-65.7218,49.8571,-64.9183C66.5685,-64.147,76.3383,-45.6359,76.7309,-29.8951C77.0328,-17.791,98.9931,1.34485,98.9931,1.34485C98.9931,1.34485,0,0,0,0Z" fill="#ff0000" stroke-width="0.329022" stroke="none" fill-opacity="1" transform="translate(401.093,518.183) translate(0,0) translate(0,0)"/>
    <path id="JoinBottom-2" d="M-2.62801,-6.38485C-2.62801,-6.38485,20.3307,-16.0676,21.4249,-35.6202C22.1401,-48.3997,32.4485,-65.6554,49.8571,-64.9204C66.5685,-64.2149,77.0197,-47.2858,76.7309,-32.8856C76.3781,-15.2964,100.189,-3.7677,100.189,-3.7677C100.189,-3.7677,-2.62801,-6.38485,-2.62801,-6.38485Z" fill="#ff0000" stroke-width="0.329022" stroke="none" fill-opacity="1" transform="translate(499.048,454.165) translate(0,0) rotate(180) translate(0,0)"/>
    <path id="RH-text" d="M353.455,193.994C352.985,193.883,352.219,193.579,351.752,193.316C350.983,192.884,350.904,192.755,350.907,191.946C350.91,191.11,351.347,188.897,351.681,188.031C351.817,187.677,351.604,187.646,349.004,187.643C339.017,187.629,331.644,184.997,326.294,179.536C321.281,174.419,319.245,168.159,319.735,159.37C320.078,153.209,322.462,147.163,326.254,142.842C329.085,139.615,333.772,136.753,337.955,135.697C345.656,133.752,354.727,134.712,360.672,138.1C366.634,141.497,370.592,146.646,372.38,153.332C372.873,155.175,372.951,155.923,372.967,158.972C372.985,162.296,372.956,162.546,372.444,163.549C371.307,165.774,368.888,167.227,366.069,167.38C365.16,167.429,357.999,167.261,350.156,167.008C342.312,166.754,335.847,166.594,335.789,166.652C335.541,166.901,336.98,169.315,338.094,170.518C340.93,173.581,345.414,174.653,353.65,174.234C357.717,174.028,359.293,173.75,362.238,172.723C365.466,171.597,368.11,169.739,368.841,168.083C369.052,167.604,369.301,167.212,369.394,167.212C369.661,167.212,370.401,169.838,370.689,171.807C371.093,174.567,370.86,179.677,370.242,181.604C369.291,184.574,367.531,187.302,364.866,189.936C361.639,193.126,356.914,194.806,353.455,193.994ZM356.834,154.852C356.828,154.099,355.606,152.104,354.429,150.927C352.243,148.741,349.073,147.539,345.63,147.589C342.307,147.638,339.307,148.911,337.196,151.168C336.258,152.17,335.097,154.123,335.316,154.33C335.369,154.38,339.862,154.565,345.3,154.741C350.739,154.918,355.559,155.076,356.012,155.094C356.543,155.115,356.835,155.029,356.834,154.852ZM532.779,187.847C530.901,187.405,528.765,185.845,528.01,184.364C527.113,182.606,527.102,182.285,527.549,171.035C527.783,165.13,527.957,160.285,527.934,160.269C527.682,160.08,497.256,159.214,497.079,159.39C496.992,159.478,496.741,164.264,496.521,170.027C496.237,177.466,496.028,180.835,495.801,181.643C495.378,183.145,493.703,184.993,492.01,185.824C490.882,186.378,490.533,186.438,488.452,186.438C486.416,186.438,485.999,186.37,484.904,185.856C482.523,184.74,480.995,182.653,480.831,180.292C480.78,179.563,481.231,166.483,481.834,151.223L482.93,123.48L483.461,122.319C484.225,120.65,485.209,119.641,486.872,118.822C489.645,117.456,493.135,117.772,495.526,119.605C496.719,120.519,497.811,122.138,498.078,123.386C498.225,124.078,498.161,127.695,497.87,135.064C497.638,140.935,497.484,145.775,497.528,145.819C497.675,145.966,528.215,146.859,528.353,146.72C528.428,146.645,528.674,141.906,528.898,136.188C529.122,130.471,529.367,125.447,529.442,125.024C529.651,123.843,530.632,122.212,531.699,121.273C535.455,117.967,541.897,119.226,544.101,123.697C544.719,124.951,544.712,125.915,543.942,145.459C543.635,153.254,543.384,160.253,543.384,161.012C543.384,162.654,543.411,162.65,545.539,160.719C546.981,159.411,548.212,157.571,548.216,156.72C548.225,154.476,550.559,159.809,551.401,163.999C552.522,169.578,551.827,174.168,549.176,178.69C546.193,183.778,543,186.337,538.134,187.541C535.882,188.099,534.244,188.192,532.779,187.847ZM299.459,187.643C297.038,187.234,294.854,185.633,293.985,183.631C293.518,182.558,293.483,182.147,293.439,177.319C293.399,172.858,293.329,171.923,292.931,170.442C291.838,166.391,289.854,164.136,286.523,163.16C285.039,162.725,280.769,162.443,273.12,162.273C269.918,162.202,266.729,162.088,266.034,162.02C265.339,161.951,264.765,161.979,264.759,162.082C264.753,162.184,264.574,166.481,264.361,171.63L263.974,180.993L263.377,182.213C262.658,183.681,261.411,184.857,259.743,185.639C258.667,186.144,258.226,186.218,256.311,186.218C254.363,186.218,253.964,186.148,252.795,185.601C251.168,184.84,249.557,183.184,249.079,181.78C248.875,181.18,248.73,180.027,248.73,178.995C248.73,177.159,250.622,127.224,250.779,124.914C250.903,123.082,251.639,121.506,252.936,120.293C254.516,118.815,255.676,118.365,258.189,118.256C260.77,118.144,282.466,118.812,285.645,119.101C302.078,120.595,311.547,128.833,310.842,141.022C310.68,143.82,310.291,145.379,309.142,147.842C307.671,150.991,305.237,153.893,302.498,155.761L301.445,156.48L302.828,157.948C307.332,162.727,309.197,169.06,308.858,178.418C308.706,182.613,308.446,183.627,307.14,185.111C305.228,187.282,302.55,188.165,299.459,187.643ZM284.436,148.746C286.7,148.423,288.433,147.944,290.027,147.201C292.029,146.268,293.197,145.234,293.924,143.754C294.472,142.638,294.543,142.252,294.542,140.405C294.541,138.674,294.454,138.142,294.035,137.288C293.04,135.263,291.003,133.967,287.533,133.152C284.221,132.373,282.293,132.233,269.879,131.869L264.99,131.726L264.985,132.495C264.982,132.918,264.84,136.673,264.669,140.84C264.498,145.006,264.382,148.44,264.412,148.47C264.507,148.565,275.287,148.906,279.162,148.936C281.217,148.953,283.59,148.867,284.436,148.746ZM425.688,187.651C424.238,187.343,422.556,186.377,421.436,185.209L420.401,184.129L418.329,185.11C407.538,190.222,393.338,187.199,385.633,178.151C381.763,173.607,379.991,168.924,379.748,162.598C379.429,154.312,382.066,147.551,387.704,142.195C395.963,134.35,409.387,132.439,419.54,137.663L421.436,138.638L421.445,137.16C421.45,136.346,421.584,132.556,421.744,128.736C422.021,122.105,422.059,121.737,422.585,120.587C424.498,116.407,430.339,114.955,434.309,117.672C435.514,118.497,436.595,119.852,437.002,121.047C437.365,122.115,437.324,124.794,436.707,140.442C436.405,148.096,435.912,160.587,435.611,168.201C435.311,175.814,434.977,182.346,434.869,182.715C434.344,184.52,432.809,186.198,430.877,187.08C429.511,187.703,427.155,187.963,425.688,187.651ZM411.942,174.115C413.908,173.712,416.64,172.492,418.812,171.048C420.06,170.219,420.338,169.928,420.342,169.447C420.345,169.124,420.49,165.455,420.664,161.293C420.914,155.341,420.925,153.658,420.714,153.404C420.059,152.614,417.423,150.832,415.613,149.956C412.947,148.665,410.72,148.233,407.398,148.363C404.312,148.483,402.327,149.1,400.075,150.639C396.637,152.988,395.11,156.846,395.347,162.582C395.512,166.572,396.379,168.808,398.611,170.991C401.59,173.906,406.899,175.15,411.942,174.115ZM581.151,187.636C572.635,186.878,565.308,183.018,560.733,176.88C559.483,175.203,557.774,171.643,557.135,169.385C555.465,163.485,555.917,155.745,558.233,150.58C558.547,149.878,559.195,148.182,559.672,146.81C561.994,140.133,565.064,136.358,571.403,132.385C578.553,127.904,581.616,125.073,581.616,122.946C581.616,122.178,581.821,122.24,582.868,123.322C585.356,125.893,587.531,130.939,587.545,134.168L587.549,135.071L589.229,135.223C591.426,135.423,595.339,136.443,597.547,137.393C606.019,141.038,611.551,148.143,612.81,156.995C612.93,157.841,613.03,159.67,613.032,161.06C613.041,168.529,610.597,174.848,605.819,179.715C599.865,185.78,591.275,188.538,581.151,187.636ZM588.757,174.01C591.069,173.295,592.224,172.627,593.923,171.025C596.696,168.409,597.81,165.097,597.603,160.085C597.475,156.983,596.994,155.306,595.674,153.362C593.552,150.238,590.003,148.432,585.446,148.159C579.845,147.824,575.022,150.298,572.935,154.578C571.106,158.327,571.015,164.522,572.738,168.043C573.433,169.463,575.327,171.552,576.733,172.451C580.061,174.576,584.9,175.203,588.757,174.01ZM640.393,187.631C633.546,186.705,628.943,183.624,627.118,178.746C626.216,176.335,626.183,174.788,626.739,161.06C627.026,153.99,627.224,148.163,627.178,148.112C627.133,148.06,625.935,147.952,624.516,147.871C621.697,147.71,621.176,147.566,620.08,146.643C618.061,144.945,618.069,141.936,620.096,140.043C621.902,138.357,635.189,127.626,635.885,127.291C637.026,126.743,639.002,126.653,640.164,127.096C641.353,127.551,642.807,129.085,643.122,130.22C643.267,130.74,643.304,131.964,643.218,133.394L643.078,135.72L645.78,135.865C647.266,135.945,649.247,136.011,650.182,136.011C654.526,136.011,657.523,138.291,657.805,141.812C658.019,144.481,656.713,146.724,654.203,147.994L652.918,148.645L647.809,148.589C644.999,148.559,642.692,148.559,642.682,148.589C642.556,148.976,641.719,173.215,641.816,173.692C642.032,174.764,642.656,174.94,645.667,174.778C651.421,174.469,652.586,174.524,653.796,175.163C655.133,175.869,656.404,177.147,656.862,178.246C657.266,179.216,657.305,181.21,656.944,182.415C656.017,185.51,651.34,187.585,644.897,187.759C643.266,187.803,641.239,187.746,640.393,187.631Z" fill="#ff0000" fill-opacity="1" transform="translate(450.107,456.073) translate(-450.107,-456.073)"/>
    <path id="RH-text-2" d="M350.501,795.378C349.073,794.671,348.399,793.508,348.305,791.585C348.263,790.728,348.388,781.87,348.583,771.901C348.927,754.334,348.952,753.747,349.398,752.826C350.669,750.2,354.772,749.796,356.634,752.113L357.299,752.94L358.964,752.104C361.135,751.013,363.089,750.586,365.908,750.586C370.48,750.586,373.908,752.019,377.165,755.295C379.419,757.561,380.54,759.441,381.219,762.096C382.882,768.596,381.153,775.01,376.605,779.221C373.627,781.978,370.001,783.357,365.735,783.355C362.573,783.353,360.62,782.803,357.256,780.966C357.184,780.927,357.064,783.585,356.989,786.872L356.853,792.849L356.24,793.838C355.066,795.734,352.571,796.403,350.501,795.378ZM368.759,774.681C371.854,773.167,373.323,770.15,373.033,765.903C372.872,763.539,372.397,762.26,371.177,760.902C368.675,758.12,364.434,757.544,360.488,759.45C359.627,759.865,358.577,760.502,358.154,760.864L357.385,761.523L357.316,766.792L357.247,772.061L358.137,772.822C360.345,774.712,362.439,775.432,365.443,775.334C367.207,775.276,367.77,775.165,368.759,774.681ZM211.487,783.096C206.07,782.254,201.826,779.39,199.768,775.188C198.564,772.729,198.193,771.215,198.039,768.12C197.756,762.462,199.274,758.06,202.69,754.641C205.848,751.479,208.442,750.498,213.684,750.485C217.302,750.476,218.919,750.817,221.477,752.131C226.241,754.578,229.395,759.858,229.395,765.384C229.395,768.156,228.811,769.234,226.873,770.044C226.091,770.37,225.067,770.39,216.488,770.244L206.971,770.083L207.211,770.714C208.331,773.66,210.754,775.143,214.798,775.357C217.442,775.497,219.446,775.189,221.666,774.301C224.159,773.304,225.927,773.492,227.238,774.894C228.762,776.524,228.545,778.976,226.765,780.244C225.744,780.971,223.058,782.153,221.25,782.671C219.374,783.208,213.775,783.452,211.487,783.096ZM220.386,762.772C220.386,762.154,219.501,760.687,218.602,759.815C216.843,758.108,213.546,757.473,210.999,758.351C209.569,758.844,207.844,760.365,207.227,761.677C206.972,762.221,206.763,762.715,206.763,762.774C206.763,762.833,208.814,762.911,211.322,762.946C213.83,762.981,216.895,763.033,218.134,763.06C220.037,763.103,220.386,763.058,220.386,762.772ZM291.717,783.003C290.847,782.693,289.76,781.798,289.306,781.018C289.122,780.702,289.05,777.866,289.05,770.911L289.05,761.243L288.501,760.272C287.68,758.821,286.677,758.383,284.216,758.399C281.526,758.417,279.83,759.2,277.24,761.617L276.196,762.592L276.176,767.191C276.164,769.72,276.09,773.686,276.011,776.004C275.851,780.678,275.838,780.721,274.152,782.086C272.732,783.235,270.227,783.127,268.712,781.852C267.289,780.654,267.323,780.991,267.485,769.702C267.866,743.206,267.921,741.393,268.378,740.519C268.725,739.855,269.712,738.884,270.374,738.557C272.343,737.581,275.002,738.418,276.153,740.375L276.666,741.248L276.534,747.347L276.401,753.447L277.837,752.568C280.125,751.167,281.607,750.752,284.744,750.634C286.465,750.569,287.921,750.63,288.699,750.8C292.473,751.626,295.665,754.425,297.032,758.106C297.88,760.388,297.95,761.653,297.758,771.134C297.56,780.914,297.574,780.807,296.266,782.05C295,783.252,293.373,783.593,291.717,783.003ZM315.659,782.99C310.071,781.574,306.761,777.044,307.557,771.901C307.887,769.773,308.751,768.099,310.349,766.498C311.92,764.922,313.71,763.994,316.541,763.289C318.256,762.861,319.092,762.801,323.404,762.791L328.314,762.781L328.205,761.963C328.038,760.716,327.287,759.69,326.121,759.116C325.172,758.649,324.801,758.606,321.68,758.608C318.693,758.61,317.99,758.683,315.967,759.205C314.131,759.68,313.484,759.761,312.798,759.603C311.021,759.193,309.814,757.75,309.814,756.036C309.814,753.934,310.836,752.89,313.832,751.932C323.958,748.693,332.454,750.775,335.643,757.278C337.109,760.268,337.145,760.649,336.926,771.07C336.733,780.24,336.724,780.369,336.221,781.179C335.194,782.83,333.236,783.627,331.407,783.138C330.219,782.821,329.008,781.978,328.669,781.234L328.438,780.726L327.091,781.458C324.801,782.702,323.023,783.135,319.812,783.232C317.755,783.294,316.593,783.226,315.659,782.99ZM323.547,775.373C324.638,775.103,326.615,774.058,327.536,773.265C328.11,772.771,328.255,772.454,328.374,771.426L328.518,770.183L326.586,770.022C323.995,769.807,320.261,770.023,318.614,770.486C317.125,770.904,316.187,771.762,316.187,772.707C316.187,773.6,316.851,774.747,317.589,775.13C318.872,775.794,321.426,775.898,323.547,775.373ZM399.243,783.091C397.341,782.806,394.284,781.846,392.49,780.972C391.261,780.373,390.702,779.95,390.267,779.292C388.637,776.83,390.539,773.46,393.569,773.442C394.013,773.439,395.114,773.733,396.016,774.094C398.72,775.177,400.347,775.463,403.308,775.377C405.451,775.315,406.08,775.219,406.666,774.867C407.433,774.405,407.906,773.311,407.54,772.842C407.221,772.431,405.253,771.76,401.87,770.908C396.725,769.613,394.503,768.606,392.568,766.696C391.978,766.114,391.236,765.093,390.92,764.429C390.402,763.342,390.344,762.966,390.344,760.688C390.344,758.249,390.372,758.1,391.098,756.623C392.502,753.768,395.024,751.812,398.442,750.93C402.322,749.929,408.507,750.461,412.779,752.164C414.465,752.836,415.334,753.998,415.334,755.578C415.334,756.76,414.951,757.681,414.151,758.427C412.99,759.507,411.386,759.643,408.749,758.884C407.352,758.483,406.487,758.393,403.967,758.39C401.192,758.387,400.8,758.435,399.965,758.881C398.892,759.454,398.49,760.069,398.683,760.84C398.867,761.57,400.101,762.095,403.837,763.031C405.48,763.442,407.466,763.987,408.252,764.241C411.772,765.38,414.382,767.347,415.478,769.689C415.985,770.772,416.05,771.185,416.051,773.328C416.052,775.593,416.008,775.838,415.347,777.233C413.982,780.115,411.098,782.226,407.477,782.993C405.819,783.344,401.294,783.398,399.243,783.091ZM455.771,783.005C452.988,782.375,450.827,780.779,449.801,778.595C448.898,776.675,448.871,775.9,449.221,762.067L449.317,758.276L447.67,758.276C445.895,758.276,444.991,757.958,444.41,757.13C444.005,756.551,443.972,755.065,444.35,754.401C444.497,754.143,446.724,752.045,449.3,749.739C454.184,745.367,454.626,745.087,456.126,745.417C456.493,745.497,457.094,745.906,457.461,746.324C458.1,747.051,458.13,747.174,458.13,749.055L458.13,751.025L461.027,751.025C464.378,751.025,465.439,751.367,466.378,752.748C467.115,753.833,467.137,755.694,466.425,756.74C465.386,758.266,465.051,758.379,461.327,758.456L457.962,758.526L457.801,766.607C457.687,772.268,457.71,774.822,457.876,775.132C458.187,775.713,459.936,775.959,461.305,775.614C461.856,775.476,462.898,775.405,463.621,775.457C465.918,775.624,467.366,777.31,467.045,779.445C466.687,781.839,464.234,783.12,459.778,783.243C458.049,783.29,456.669,783.208,455.771,783.005ZM486.584,782.974C478.835,781.251,473.989,775.144,473.96,767.065C473.942,762.155,475.462,758.268,478.655,755.065C480.138,753.577,480.777,753.117,482.52,752.286C485.518,750.855,487.27,750.482,490.869,750.507C494.389,750.532,496.355,750.973,499.219,752.38C501.859,753.677,504.48,756.299,505.772,758.936C507.158,761.765,507.447,763.125,507.448,766.846C507.448,769.507,507.366,770.32,506.947,771.78C505.385,777.231,501.241,781.332,495.813,782.798C493.896,783.316,488.579,783.417,486.584,782.974ZM493.842,774.954C497.192,773.701,498.838,770.996,498.841,766.74C498.843,764.329,498.543,763.139,497.553,761.627C496.057,759.344,493.367,758.13,490.246,758.33C486.969,758.54,484.831,759.843,483.572,762.401C482.858,763.852,482.849,763.908,482.852,766.951C482.855,769.653,482.914,770.159,483.336,771.069C485.06,774.788,489.7,776.504,493.842,774.954ZM528.662,782.996C522.479,781.752,517.87,777.469,516.353,771.557C515.797,769.393,515.732,765.288,516.215,762.972C517.47,756.962,521.609,752.645,527.7,750.991C530.149,750.327,535.044,750.327,537.516,750.991C542.25,752.264,545.75,755.089,547.768,759.265C548.893,761.593,549.349,763.743,549.351,766.736C549.356,773.965,545.899,779.486,539.747,782.075C536.898,783.274,532.046,783.677,528.662,782.996ZM535.868,774.933C537.579,774.292,539.394,772.471,540.095,770.689C540.786,768.935,540.859,764.956,540.234,763.163C539.667,761.535,538.046,759.828,536.307,759.025C535.057,758.448,534.702,758.386,532.617,758.388C530.555,758.39,530.17,758.455,528.992,759.004C525.948,760.421,524.487,763.024,524.487,767.03C524.487,768.925,524.991,770.85,525.829,772.155C527.759,775.163,532.066,776.355,535.868,774.933ZM604.831,783.005C603.785,782.632,603.017,781.931,602.458,780.84C602.045,780.034,602.034,779.666,602.183,771.137C602.355,761.329,602.304,760.786,601.082,759.491C600.231,758.589,598.438,758.157,596.463,758.378C594.351,758.615,592.552,759.571,590.382,761.61L589.371,762.561L589.231,771.112C589.072,780.814,589.053,780.922,587.285,782.147C586.491,782.698,586.18,782.776,584.785,782.776C583.368,782.776,583.089,782.703,582.262,782.117C580.399,780.796,580.46,781.236,580.61,770.142C580.921,747.025,581.093,741.276,581.494,740.509C582.247,739.067,583.665,738.216,585.349,738.194C586.831,738.175,588.019,738.74,588.965,739.913L589.636,740.744L589.61,747.097L589.583,753.449L590.269,752.998C592.964,751.222,595.149,750.594,598.65,750.589C602.752,750.583,605.274,751.598,607.771,754.258C609.306,755.894,610.244,757.767,610.718,760.144C611.024,761.675,611.047,763.08,610.898,771.021L610.726,780.139L610.127,781.162C609.081,782.946,606.848,783.724,604.831,783.005ZM633.684,783.012C624.963,781.186,619.858,773.88,620.945,764.779C621.441,760.624,622.77,757.761,625.446,755.085C626.808,753.722,627.635,753.109,629.077,752.39C631.963,750.951,633.881,750.526,637.537,750.515C641.2,750.504,642.761,750.835,645.666,752.24C647.973,753.356,649.49,754.551,651.025,756.465C653.218,759.199,654.124,761.848,654.287,765.996C654.504,771.529,653.103,775.376,649.613,778.832C647.89,780.538,645.654,781.84,643.03,782.667C641.063,783.287,635.907,783.477,633.684,783.012ZM639.229,775.387C641.741,774.854,643.813,773.362,644.776,771.393C645.088,770.757,645.455,769.444,645.6,768.452C646.449,762.624,643.453,758.584,638.086,758.322C635.087,758.176,632.689,759.177,631.107,761.237C629.896,762.816,629.651,763.768,629.638,766.955C629.627,769.586,629.672,769.908,630.198,771.03C631.001,772.742,631.975,773.761,633.545,774.534C635.632,775.561,637.261,775.805,639.229,775.387ZM672.858,783.004C670.155,782.392,668.049,780.801,666.932,778.527L666.321,777.283L666.353,767.779L666.384,758.276L664.749,758.276C662.863,758.276,661.986,757.923,661.491,756.965C661.103,756.216,661.058,755.137,661.388,754.52C661.714,753.912,670.827,745.744,671.444,745.507C672.225,745.208,673.221,745.275,673.893,745.672C674.93,746.285,675.22,747.041,675.22,749.137L675.22,751.025L678.131,751.03C682.025,751.036,683.048,751.482,683.91,753.544C684.408,754.736,684.175,756.095,683.302,757.088C682.169,758.379,681.748,758.496,678.232,758.496L675.071,758.496L674.934,766.47C674.859,770.856,674.855,774.664,674.925,774.932C675.134,775.732,676.106,775.851,679.834,775.531C681.578,775.381,681.752,775.405,682.466,775.892C683.764,776.78,684.283,777.755,684.175,779.105C684.029,780.915,682.911,782.08,680.623,782.804C679.074,783.295,674.644,783.409,672.858,783.005ZM242.578,782.945C240.85,782.682,239.26,781.443,238.922,780.095C238.839,779.763,238.865,773.691,238.98,766.601L239.189,753.71L239.84,752.662C240.697,751.283,241.814,750.695,243.568,750.699C245.147,750.703,246.106,751.187,247.089,752.477L247.761,753.358L249.006,752.508C250.755,751.313,252.446,750.757,254.692,750.636C257.021,750.511,257.902,750.775,258.921,751.904C260.748,753.925,260.341,756.728,258.038,758C257.382,758.362,256.553,758.543,254.921,758.681C252.26,758.906,250.386,759.707,248.729,761.326L247.691,762.341L247.552,770.971C247.406,780.016,247.347,780.546,246.36,781.637C245.575,782.506,243.778,783.127,242.578,782.945ZM157.654,782.62C156.607,782.255,155.661,781.441,155.233,780.539C154.863,779.76,154.847,779.057,154.984,769.705C155.376,743.073,155.362,743.484,155.874,742.505C156.292,741.704,157.293,740.779,158.053,740.492C158.818,740.203,169.186,740.193,174.133,740.476C178.329,740.716,180.388,741.19,183.157,742.553C187.603,744.742,190.18,748.67,190.438,753.652C190.761,759.902,187.353,765.105,181.547,767.222C178.534,768.321,177.285,768.452,170.233,768.41L163.696,768.371L163.694,769.201C163.689,771.404,163.444,778.704,163.35,779.494C163.067,781.843,160.096,783.474,157.654,782.62ZM177.243,759.945C179.02,759.388,180.423,758.333,181.039,757.089C182.181,754.785,181.788,751.977,180.106,750.426C178.223,748.691,175.439,748.169,168.068,748.169L163.916,748.169L163.916,750.221C163.916,751.35,163.851,754.065,163.772,756.255L163.628,760.237L165.804,760.323C170.378,760.504,176.059,760.316,177.243,759.945ZM695.325,782.591C692.942,781.511,691.785,778.908,692.615,776.491C693.499,773.914,696.446,772.618,699.5,773.463C700.73,773.804,702.342,775.458,702.685,776.731C703.225,778.735,702.436,780.919,700.744,782.107C699.884,782.711,699.607,782.781,697.888,782.833C696.64,782.87,695.757,782.787,695.325,782.591ZM716.418,782.468C715.391,781.991,714.237,780.839,713.905,779.96C713.517,778.93,713.62,776.817,714.105,775.867C714.642,774.815,715.846,773.799,716.951,773.468C719.615,772.67,722.459,773.713,723.581,775.901C724.051,776.817,724.148,778.946,723.766,779.96C723.454,780.787,722.318,781.949,721.316,782.465C720.211,783.035,717.644,783.037,716.418,782.468ZM737.886,782.655C735.623,781.747,734.341,779.127,734.986,776.731C735.346,775.393,736.941,773.799,738.282,773.436C740.674,772.789,743.299,773.62,744.546,775.419C745.283,776.483,745.527,778.384,745.094,779.695C744.734,780.786,743.642,781.988,742.568,782.476C741.606,782.913,738.797,783.02,737.886,782.655Z" fill="#ff0000" fill-opacity="0.6" transform="translate(450.107,456.073) translate(-450.107,-456.073)"/>
    <path id="RH-text-bl" d="M458.35,350.897C449.195,349.269,438.373,343.688,431.969,337.291C428.178,333.504,424.278,326.648,421.838,319.482C418.441,309.509,418.238,296.94,421.322,287.702C422.684,283.624,425.021,279.546,428.953,274.387C430.795,271.97,433.456,268.945,433.74,268.945C433.843,268.945,433.875,269.464,433.811,270.099C433.596,272.216,434.395,275.018,435.969,277.67C436.375,278.353,437.618,279.858,438.731,281.014L440.756,283.118L440.766,280.92C440.828,266.915,446.137,253.412,455.885,242.468C457.642,240.495,460.603,237.795,462.192,236.715L463.032,236.144L462.879,236.67C461.914,239.989,461.807,240.729,461.933,243.237C462.075,246.072,462.531,247.938,463.794,250.868C466.117,256.252,469.295,260.321,479.118,270.483C486.3,277.913,489.25,281.732,491.762,286.853C493.209,289.801,494.147,292.507,494.873,295.826C495.313,297.833,495.361,298.66,495.356,303.992C495.351,309.031,495.278,310.354,494.873,312.781C493.916,318.524,492.476,323.983,490.584,329.043C490.042,330.495,489.384,332.667,489.124,333.87C488.863,335.073,488.612,336.095,488.566,336.141C488.52,336.188,488.215,335.696,487.888,335.05C486.698,332.696,485.713,331.432,482.419,328.033C476.667,322.098,474.593,318.815,474.171,314.978L474.026,313.66L473.35,315.092C471.854,318.261,469.989,324.545,469.247,328.921C468.056,335.943,468.311,341.347,470.134,347.7C470.548,349.141,470.809,350.395,470.715,350.486C470.621,350.577,469.718,350.807,468.708,350.997C466.177,351.473,461.328,351.427,458.35,350.897Z" fill="#ff0000" fill-opacity="1" transform="translate(457.249,293.735) translate(0,0) translate(-457.249,-293.735)"/>
    <path id="RH-text-bl-2" d="M521.704,351.677C513.157,350.126,506.693,344.132,503.62,334.906C502.454,331.408,502.189,329.631,502.205,325.415C502.217,321.984,502.293,321.214,502.909,318.274C503.288,316.461,504.08,313.544,504.669,311.792C508.659,299.924,513.693,294.846,530.424,285.815C535.467,283.093,538.41,281.309,540.967,279.423C545.707,275.926,548.218,272.338,548.218,269.061C548.218,268.393,548.303,267.847,548.406,267.847C548.966,267.847,553.053,273.671,554.891,277.088C556.109,279.353,557.473,283.413,558.024,286.414C558.536,289.205,558.608,299.318,558.139,302.454C557.341,307.781,556.147,312.292,554.39,316.62L553.299,319.309L554.329,319.163C557.548,318.707,560.623,317.355,561.777,315.888C562.028,315.569,562.309,315.308,562.4,315.308C562.68,315.308,562.322,319.305,561.826,321.712C560.656,327.387,557.589,334.594,554.733,338.379C552.963,340.725,550.126,343.46,547.921,344.949C544.423,347.309,538.359,349.991,534.924,350.696C528.782,351.958,524.857,352.249,521.704,351.677Z" fill="#ff0000" fill-opacity="1" transform="translate(535.136,307.89) translate(0,0) translate(-532.351,-309.902)"/>
    <path id="_a0" d="M0.0122643,-0.165621C7.38536,-2.07245,9.03697,-5.97605,10.6403,-10.6403C12.2436,-15.3045,9.75339,-28.6709,9.75339,-28.6709C9.75339,-28.6709,7.11816,-23.5611,-6.20351,-19.5026C-12.7982,-17.4935,-11.5148,-9.91151,-10.4945,-6.99636C-9.47424,-4.08121,-5.91624,1.36761,0.0122643,-0.165621Z" stroke="none" fill="#ff0000" stroke-width="29.25" stroke-miterlimit="1" stroke-linecap="round" fill-opacity="1" transform="translate(400.31,337.861) translate(0,0) translate(0,0)"/>
    <script><![CDATA[/*
 KeyshapeJS v1.2.1 (c) 2018-2022 Pixofield Ltd | pixofield.com/keyshapejs/mit-license */
window.KeyshapeJS=function(){function r(a){return"undefined"!==typeof a}function u(a,b){return a&&0===a.indexOf(b)}function X(a){var b={},c;for(c in a)b[c]=a[c];return b}function F(a){if(!isFinite(a))throw Error("Non-finite value");}function Y(a){if(14>=a)return 16;var b=Z[a];b||(b=r(ka[a])?0|(a.toLowerCase().indexOf("color")===a.length-5?48:0):1);return b}function N(a){return 0<=a?Math.pow(a,1/3):-Math.pow(-a,1/3)}function la(a,b,c,d){if(0===a)return 0===b?b=-d/c:(a=Math.sqrt(c*c-4*b*d),d=(-c+a)/
(2*b),0<=d&&1>=d?b=d:(d=(-c-a)/(2*b),b=0<=d&&1>=d?d:0)),b;var e=c/a-b*b/(a*a)/3;c=b*b*b/(a*a*a)/13.5-b*c/(a*a)/3+d/a;var f=c*c/4+e*e*e/27;b=-b/(3*a);if(0>=f){if(0===e&&0===c)return-N(d/a);a=Math.sqrt(c*c/4-f);d=Math.acos(-c/2/a);c=Math.cos(d/3);d=Math.sqrt(3)*Math.sin(d/3);a=N(a);e=2*a*c+b;if(0<=e&&1>=e)return e;e=-a*(c+d)+b;if(0<=e&&1>=e)return e;e=a*(d-c)+b;if(0<=e&&1>=e)return e}else{a=N(-c/2+Math.sqrt(f));c=N(-c/2-Math.sqrt(f));d=a+c+b;if(0<=d&&1>=d)return d;d=-(a+c)/2+b;if(0<=d&&1>=d)return d}return 0}
function ma(a,b){if(48===a&&"number"===typeof b)return"rgba("+(b>>>24)+","+(b>>>16&255)+","+(b>>>8&255)+","+(b&255)/255+")";if(64===a)return b=b.map(function(f){return f+"px"}),b.join(",");if(96===a){for(var c="",d=b.length,e=0;e<d;e+=2)c+=b[e],c+=b[e+1].join(",");return c}if(80===a){if(0===b[0])return"none";c="";d=b.length;for(e=0;e<d;)c+=aa[b[e]],1===b[e]?c+="("+b[e+1]+") ":5===b[e]?(c+="("+b[e+1]+"px "+b[e+2]+"px "+b[e+3]+"px rgba("+(b[e+4]>>>24)+","+(b[e+4]>>16&255)+","+(b[e+4]>>8&255)+","+(b[e+
4]&255)/255+")) ",e+=3):c=2===b[e]?c+("("+b[e+1]+"px) "):7===b[e]?c+("("+b[e+1]+"deg) "):c+("("+(0>b[e+1]?0:b[e+1])+") "),e+=2;return c}return 32===a?b+"px":b}function B(a){return 0>=a?0:255<=a?255:a}function na(a,b,c,d){if(16===a||32===a)return(c-b)*d+b;if(0===a)return.5>d?b:c;if(112===a)return 0>=d?b:1<=d?c:"visible";if(48===a){if("number"===typeof b&&"number"===typeof c){a=1-d;var e=a*(b>>>16&255)+d*(c>>>16&255),f=a*(b>>>8&255)+d*(c>>>8&255),m=a*(b&255)+d*(c&255);return B(a*(b>>>24)+d*(c>>>24))<<
24|B(e)<<16|B(f)<<8|B(m)}return.5>d?b:c}if(64===a){0===b.length&&(b=[0]);0===c.length&&(c=[0]);a=b.length;b.length!==c.length&&(a=b.length*c.length);e=[];for(f=0;f<a;++f)m=b[f%b.length],m=(c[f%c.length]-m)*d+m,0>m&&(m=0),e.push(m);return e}if(96===a){if(b.length!==c.length)return.5>d?b:c;a=b.length;e=[];for(f=0;f<a;f+=2){if(b[f]!==c[f])return.5>d?b:c;e[f]=b[f];e[f+1]=[];for(m=0;m<b[f+1].length;++m)e[f+1].push((c[f+1][m]-b[f+1][m])*d+b[f+1][m])}return e}if(80===a){a=b.length;if(a!==c.length)return.5>
d?b:c;e=[];for(f=0;f<a;){if(b[f]!==c[f]||1===b[f])return.5>d?b:c;e[f]=b[f];e[f+1]=(c[f+1]-b[f+1])*d+b[f+1];if(5===b[f]){e[f+2]=(c[f+2]-b[f+2])*d+b[f+2];e[f+3]=(c[f+3]-b[f+3])*d+b[f+3];m=1-d;var k=b[f+4],h=c[f+4],g=m*(k>>>24)+d*(h>>>24),n=m*(k>>8&255)+d*(h>>8&255),p=m*(k&255)+d*(h&255);e[f+4]=(B(m*(k>>16&255)+d*(h>>16&255))<<16|B(n)<<8|B(p))+16777216*(B(g)|0);f+=3}f+=2}return e}return 0}function ba(a,b){a:{var c=a+b[2];for(var d=b[4].length,e=0;e<d;++e)if(c<b[4][e]){c=e;break a}c=d-1}d=b[2];e=b[4][c-
1]-d;d=(a-e)/(b[4][c]-d-e);if(b[6]&&b[6].length>c-1)if(e=b[6][c-1],1===e[0])if(0>=d)d=0;else if(1<=d)d=1;else{var f=e[1],m=e[3];d=la(3*f-3*m+1,-6*f+3*m,3*f,-d);d=3*d*(1-d)*(1-d)*e[2]+3*d*d*(1-d)*e[4]+d*d*d}else 2===e[0]?(e=e[1],d=Math.ceil(d*e)/e):3===e[0]&&(e=e[1],d=Math.floor(d*e)/e);return na(b[1]&240,b[5][c-1],b[5][c],d)}function O(){C||(z=(new Date).getTime()+ca)}function U(a){if(a||!J){for(var b=!1,c=0;c<D.length;++c)D[c].O(a)&&(b=!0);if(a)for(;0<K.length;)if(a=K.shift(),c=a[0],1===a[1])c.onfinish&&
(c.onfinish(),b=!0),c.N();else if(2===a[1]&&c.onloop)c.onloop();return b}}function da(){O();U(!0)&&!C?(J=!0,P(da)):J=!1}function Q(){J||(J=!0,P(da))}function ea(a,b){var c=[];a.split(b).forEach(function(d){c.push(parseFloat(d))});return c}function G(a){-1===a.indexOf(",")&&(a=a.replace(" ",","));return ea(a,",")}function fa(a){a._ks||(a._ks={});if(!a._ks.transform){for(var b=a._ks.transform=[],c=0;14>=c;++c)b[c]=0;b[10]=1;b[11]=1;if(a=a.getAttribute("transform")){a=a.trim().split(") ");for(c=a.length-
2;0<=c;--c)if(u(a[c],"translate(")){for(var d=0;d<c;d++)a.shift();break}c=a.shift();u(c,"translate(")&&(c=G(c.substring(10)),b[1]=c[0],b[2]=r(c[1])?c[1]:0,c=a.shift());u(c,"rotate(")&&(c=G(c.substring(7)),b[6]=c[0],c=a.shift());u(c,"skewX(")&&(c=G(c.substring(6)),b[7]=c[0],c=a.shift());u(c,"skewY(")&&(c=G(c.substring(6)),b[8]=c[0],c=a.shift());u(c,"scale(")&&(c=G(c.substring(6)),b[10]=c[0],b[11]=r(c[1])?c[1]:c[0],c=a.shift());u(c,"translate(")&&(c=G(c.substring(10)),b[13]=c[0],b[14]=r(c[1])?c[1]:
0)}}}function ha(a){this.m=a;this.I=[];this.G=[];this.D=0;this.B=this.g=this.i=null;this.o=this.j=this.l=0;this.h=1;this.s=this.K=this.A=!1}function H(a,b,c){b=a[b];void 0===b&&(b=a[c]);return b}function oa(a){return Array.isArray(a)?a:u(a,"cubic-bezier(")?(a=a.substring(13,a.length-1).split(","),[1,parseFloat(a[0]),parseFloat(a[1]),parseFloat(a[2]),parseFloat(a[3])]):u(a,"steps(")?(a=a.substring(6,a.length-1).split(","),[a[1]&&"start"===a[1].trim()?2:3,parseFloat(a[0])]):[0]}function pa(a){a=a.trim();
return u(a,"#")?(parseInt(a.substring(1),16)<<8)+255:u(a,"rgba(")?(a=a.substring(5,a.length-1),a=a.split(","),(parseInt(a[0],10)<<24)+(parseInt(a[1],10)<<16)+(parseInt(a[2],10)<<8)+255*parseFloat(a[3])<<0):a}function ia(a){!1===a.s&&(D.push(a),a.s=!0,!1!==a.m.autoplay&&a.play());return this}function V(a){if(!0===a.s){a._cancel();var b=D.indexOf(a);-1<b&&D.splice(b,1);b=K.indexOf(a);-1<b&&K.splice(b,1);a.s=!1}return this}var W=Error("Not in timeline list"),ja="mpath posX posY    rotate skewX skewY  scaleX scaleY  anchorX anchorY".split(" "),
qa=" translate translate    rotate skewX skewY  scale scale  translate translate".split(" "),aa="none url blur brightness contrast drop-shadow grayscale hue-rotate invert opacity saturate sepia".split(" "),P=window.requestAnimationFrame||window.webkitRequestAnimationFrame||window.mozRequestAnimationFrame||window.oRequestAnimationFrame||window.msRequestAnimationFrame||null;P||(P=function(a){window.setTimeout(a,16)});var ra=/apple/i.test(navigator.vendor),Z={d:97,fill:48,fillOpacity:16,filter:80,height:33,
opacity:16,offsetDistance:33,stroke:48,strokeDasharray:64,strokeDashoffset:32,strokeOpacity:16,strokeWidth:32,transform:1,visibility:113,width:33},ka=window.getComputedStyle(document.documentElement),J=!1,z=(new Date).getTime(),C,ca=0,D=[],K=[];ha.prototype={J:function(a){var b=0;if(null!==this.i){var c=this.u();0<this.h&&null!==c&&c>=this.j?this.o?(this.i=z-this.l/this.h,this.o--,b=2):(b=1,a?this.g=c:this.g=this.B?Math.max(this.B,this.j):this.j):0>this.h&&null!==c&&c<=this.l?this.o&&Infinity!==this.j?
(this.i=z-this.j/this.h,this.o--,b=2):(this.o=0,b=1,a?this.g=c:this.g=this.B?Math.min(this.B,this.l):this.l):null!==c&&0!==this.h&&(a&&null!==this.g&&(this.i=z-this.g/this.h),this.g=null)}this.B=this.u();return b},O:function(a){a&&(this.A&&(this.A=!1,null===this.i&&(0!==this.h&&null!==this.g?(this.i=z-this.g/this.h,this.g=null):this.i=z)),null===this.g&&null!==this.i&&(a=this.J(!1),0!==a&&K.push([this,a])));a=this.u();if(null===a)return!1;for(var b=this.I,c=this.G,d=0;d<b.length;++d){for(var e=b[d],
f=!1,m=0;m<c[d].length;++m){var k=c[d][m],h=k[0];if(null!==h){var g=k[2];var n=k[4].length,p=k[4][n-1]-g;g=0===p?k[5][n-1]:a<g?!k[9]||k[9][0]&1?k[5][0]:k[9][1]:a>=g+k[3]?!k[9]||k[9][0]&2?0===k[3]%p?k[5][n-1]:ba(k[3]%p,k):k[9][1]:ba((a-g)%p,k);0===h?(e._ks.mpath=k[8],e._ks.transform[h]=g,f=!0):14>=h?(e._ks.transform[h]=g,f=!0):(g=ma(k[1]&240,g),k[1]&1?e.setAttribute(h,g):e.style[h]=g)}}if(f){f=e;fa(f);m=f._ks.transform;k="";if(h=f._ks.mpath)n=m[0],0>n&&(n=0),100<n&&(n=100),n=n*h[2]/100,g=h[1].getPointAtLength(n),
k="translate("+g.x+","+g.y+") ",h[0]&&(.5>n?(n=g,g=h[1].getPointAtLength(.5)):n=h[1].getPointAtLength(n-.5),k+="rotate("+180*Math.atan2(g.y-n.y,g.x-n.x)/Math.PI+") ");for(h=1;h<m.length;++h)g=m[h],g!==(10===h||11===h?1:0)&&(k+=" "+qa[h]+"(",k=2>=h?k+(1===h?g+",0":"0,"+g):13<=h?k+(13===h?g+",0":"0,"+g):10<=h?k+(10===h?g+",1":"1,"+g):k+g,k+=")");f.setAttribute("transform",k)}ra&&e.setAttribute("opacity",e.getAttribute("opacity"))}return"running"===this.v()},N:function(){!1!==this.m.autoremove&&"finished"===
this.v()&&V(this)},H:function(){if(!this.K){this.K=!0;for(var a=this.I,b=this.G,c=0;c<a.length;++c)for(var d=a[c],e=0;e<b[c].length;++e)14>=b[c][e][0]&&fa(d)}},C:function(a){if("number"===typeof a)return[a,0];if(!r(this.m.markers)||!r(this.m.markers[a]))throw Error("Invalid marker: "+a);a=this.m.markers[a];return r(a.time)?[+a.time,+(a.dur||0)]:[+a,0]},play:function(a){r(a)&&null!==a&&(a=this.C(a)[0],F(a),0>this.h&&a<this.l&&(a=this.l),0<this.h&&a>this.j&&(a=this.j),this.F(a,!0));if(!this.s)throw W;
a=this.u();if(0<this.h&&(null===a||a>=this.j||a<this.l))this.g=this.l;else if(0>this.h&&(null===a||a<=this.l||a>this.j)){if(Infinity===this.j)throw Error("Cannot seek to Infinity");this.g=this.j}else 0===this.h&&null===a&&(this.g=this.l);if(null===this.g)return this;this.i=null;this.A=!0;this.H();Q();return this},pause:function(a){if(!this.s)throw W;r(a)&&(a=this.C(a)[0],F(a));if("paused"!==this.v()){O();var b=this.u();if(null===b)if(0<=this.h)this.g=this.l;else{if(Infinity===this.j)throw Error("Cannot seek to Infinity");
this.g=this.j}null!==this.i&&null===this.g&&(this.g=b);this.i=null;this.A=!1;this.J(!1);this.H();Q()}r(a)&&this.F(a,!0);return this},range:function(a,b){if(0===arguments.length)return{"in":this.l,out:this.j};var c=this.C(a)[0],d=this.D;r(b)&&(d=this.C(b)[0]);F(c);if(0>c||0>d||c>=d||isNaN(d))throw Error("Invalid range");var e=this.v();this.l=c;this.j=d;"finished"===e&&"running"===this.v()&&this.play();return this},loop:function(a){if(!r(a))return{count:this.o};this.o=!0===a?Infinity:Math.floor(a);
if(0>this.o||isNaN(this.o))this.o=0;return this},u:function(){return null!==this.g?this.g:null===this.i?null:(z-this.i)*this.h},F:function(a,b){b&&O();null!==a&&(this.H(),null!==this.g||null===this.i||0===this.h?(this.g=a,U(!1)):this.i=z-a/this.h,this.s||(this.i=null),this.B=null,this.J(!0),Q())},L:function(){return this.u()},time:function(a){if(r(a)){if(!this.s)throw W;a=this.C(a)[0];F(a);this.F(a,!0);return this}return this.L()},v:function(){var a=this.u();return this.A?"running":null===a?"idle":
null===this.i?"paused":0<this.h&&a>=this.j||0>this.h&&a<=this.l?"finished":"running"},state:function(){return this.v()},duration:function(){return this.D},M:function(a){F(a);O();var b=this.u();this.h=a;null!==b&&this.F(b,!1)},rate:function(a){return r(a)?(this.M(a),this):this.h},markers:function(a){return r(a)?(this.m.markers=X(a),this):r(this.m.markers)?this.m.markers:{}},marker:function(a){return r(this.m.markers)?this.m.markers[a]:void 0},_cancel:function(){if(!this.s||"idle"===this.v())return this;
this.i=this.g=null;this.A=!1;return this}};return{version:"1.2.1",animate:function(){var a={};1===arguments.length%2&&(a=X(arguments[arguments.length-1]));a=new ha(a);for(var b=arguments,c=0,d=0;d<b.length-1;d+=2){var e=b[d];var f=e instanceof Element?e:document.getElementById(e.substring(1));if(!f)throw Error("Invalid target: "+e);e=f;f=b[d+1];e._ks||(e._ks={});for(var m=[],k=0;k<f.length;++k){var h=f[k],g=H(h,"p","property");if("string"!==typeof g||-1!==g.indexOf("-")||""===g||!(0<Z[g]||0<=ja.indexOf(g)))throw Error("Invalid property: "+
g);var n=ja.indexOf(g);""!==g&&0<=n&&(g=n);n=Y(g);var p=H(h,"t","times");if(!p||2>p.length)throw Error("Not enough times");p=p.slice();if(!isFinite(p[0])||0>p[0])throw Error("Invalid time: "+p[0]);for(var w=1;w<p.length;++w)if(!isFinite(p[w])||0>p[w]||p[w]<p[w-1])throw Error("Invalid time: "+p[w]);w=p[0];var R=p[p.length-1]-w,S=h.iterations||0;1>S&&(S=1);R*=S;c<R+w&&(c=R+w);var I=H(h,"v","values");if(!I||I.length!==p.length)throw Error("Values do not match times");I=I.slice();for(var x=g,l=I,L=Y(x)&
240,q=0;q<l.length;++q)if(96===L){for(var E=l[q].substring(6,l[q].length-2).match(/[A-DF-Za-df-z][-+0-9eE., ]*/ig),M=[],t=0;t<E.length;++t){M.push(E[t][0]);for(var v=1<E[t].trim().length?E[t].substring(1).split(","):[],A=0;A<v.length;++A)v[A]=parseFloat(v[A]);M.push(v)}l[q]=M}else if(48===L)u(l[q],"#")?(E=9===l[q].length,l[q]=parseInt(l[q].substring(1),16),E||(l[q]=256*l[q]|255)):u(l[q],"url(")||"none"===l[q]||(console.warn("unsupported color: "+l[q]),l[q]=0);else if(80===L){E=l;M=q;t=l[q];if("none"===
t)t=[0];else{v=[];for(var y=t.indexOf("(");0<y;)if(A=aa.indexOf(t.substring(0,y)),0<=A){v.push(A);var T=t.indexOf(") ");0>T&&(T=t.length-1);y=t.substring(y+1,T).split(" ");5===A?(v.push(parseFloat(y[0])),v.push(parseFloat(y[1])),v.push(parseFloat(y[2])),v.push(pa(y[3]))):1===A?v.push(y[0]):v.push(parseFloat(y[0]));t=t.substring(T+1).trim();y=t.indexOf("(")}else break;t=v}E[M]=t}else 64===L?"none"!==l[q]?/^[0-9 .]*$/.test(l[q])?l[q]=ea(l[q]," "):(console.warn("unsupported value: "+l[q]),l[q]=[0]):
l[q]=[0]:32===L?(F(l[q]),l[q]=parseFloat(l[q])):0===x&&(l[q]=parseFloat(l[q]));x=H(h,"e","easing");l=p.length;for(x||(x=[]);x.length<l;)x.push([1,0,0,.58,1]);for(l=0;l<x.length;++l)x[l]=oa(x[l]);n=[g,n,w,R,p,I,x,S];p=H(h,"mp","motionPath");r(p)&&0===g&&(n[8]=[],n[8][0]=h.motionRotate,g=document.createElementNS("http://www.w3.org/2000/svg","path"),p||(p="M0,0"),g.setAttribute("d",p),n[8][1]=g,n[8][2]=g.getTotalLength());h=H(h,"f","fill");r(h)&&(n[9]=h.slice());m.push(n)}0<m.length&&(a.I.push(e),a.G.push(m))}a.D=
c;a.l=0;a.j=a.D;ia(a);return a},add:ia,remove:V,removeAll:function(){for(var a=D.length-1;0<=a;--a)V(D[a]);return this},timelines:function(){return D.slice()},globalPlay:function(){C&&(ca=C-(new Date).getTime(),C=void 0,Q());return this},globalPause:function(){C||(C=z,U(!1));return this},globalState:function(){return C?"paused":"running"}}}();
]]></script>
    <script>
    window.ks=document.ks=KeyshapeJS;
    document.tl = undefined;
    document.playNSFW = function(){
        document.tl = window.ks.animate("#path-nsfw",[{p:'strokeOpacity',t:[0,500,600],v:[1,1,0],e:[[0],[0],[0]]},{p:'strokeDashoffset',t:[0,1000],v:[515,1116],e:[[0],[0]]}],
"#ellipse21",[{p:'mpath',t:[0,400,500,700,800],v:['0%','10.008945%','15.817702%','99.307409%','100%'],e:[[1,0.433,0,0.645,0.74],[1,0.303,0.622,0.631,1],[1,0.42,0,0.58,1],[0],[0]],mp:"M449.945,566.1L449.945,588.5L449.945,601.5L449.945,414.65L449.945,416.2"},{p:'scaleX',t:[0,400,700,800],v:[1,0.9,1.5,1.4],e:[[0],[1,0.42,0,0.58,1],[0],[0]]},{p:'scaleY',t:[0,400,700,800],v:[1,1,1.5,1.4],e:[[0],[1,0.42,0,0.58,1],[0],[0]]},{p:'fillOpacity',t:[0,1000,1300],v:[1,1,0],e:[[0],[1,0.42,0,0.58,1],[0]]}],
"#JoinBottom",[{p:'mpath',t:[0,400,500],v:['0%','99.057042%','100%'],e:[[1,0.433964,0,0.659745,0.689593],[1,0.296462,0.607823,0.621891,1],[0]],mp:"M401.093,518.183L401.093,545.92L401.093,546.184"},{p:'scaleX',t:[0,400,500],v:[1,1,1],e:[[1,0.433964,0,0.659745,0.689593],[1,0.296462,0.607823,0.621891,1],[0]]},{p:'scaleY',t:[0,400,500],v:[1,1.261,0.1],e:[[1,0.433964,0,0.659745,0.689593],[1,0.296462,0.607823,0.621891,1],[0]]},{p:'fillOpacity',t:[0,500,600],v:[1,1,0],e:[[0],[1,0.42,0,1,1],[0]]}],
"#JoinBottom-2",[{p:'mpath',t:[0,400,500],v:['0%','50%','100%'],e:[[1,0.433964,0,0.659745,0.689593],[1,0.296462,0.607823,0.621891,1],[0]],mp:"M499.048,454.165L499.048,451.43L499.048,454.165"},{p:'scaleX',t:[0,400,500],v:[1,1,1],e:[[1,0.433964,0,0.659745,0.689593],[1,0.296462,0.607823,0.621891,1],[0]]},{p:'scaleY',t:[0,400,500],v:[1,1.348,0.2],e:[[1,0.433964,0,0.659745,0.689593],[1,0.296462,0.607823,0.621891,1],[0]]},{p:'fillOpacity',t:[0,500,600],v:[1,1,0],e:[[0],[0],[0]]}],
"#RH-text",[{p:'fillOpacity',t:[0,200],v:[1,0],e:[[0],[0]]}],
"#RH-text-2",[{p:'fillOpacity',t:[0,200],v:[0.6,0],e:[[0],[0]]}],
"#RH-text-bl",[{p:'mpath',t:[100,600],v:['0%','100%'],e:[[1,0.42,0,0.58,1],[0]],mp:"M457.249,293.735L550.248,269.731"},{p:'rotate',t:[0,600],v:[0,22],e:[[1,0.42,0,0.58,1],[0]]},{p:'fillOpacity',t:[0,300,500],v:[1,1,0],e:[[0],[0],[0]]}],
"#RH-text-bl-2",[{p:'mpath',t:[0,500],v:['0%','100%'],e:[[1,0.42,0,0.58,1],[0]],mp:"M535.136,307.89L617.14,302.89"},{p:'rotate',t:[0,500],v:[0,30],e:[[1,0.42,0,0.58,1],[0]]},{p:'fillOpacity',t:[0,300,500],v:[1,1,0],e:[[0],[0],[0]]}],
"#_a0",[{p:'mpath',t:[0,100],v:['0%','100%'],e:[[0],[0]],mp:"M400.31,337.861L366.31,356.86"},{p:'fillOpacity',t:[0,100],v:[1,0],e:[[0],[0]]}],
{autoremove:false}).range(0,1300);
    };
    document.wobbleNSFW = function(){
        document.tl = window.ks.animate("#path-nsfw",[{p:'strokeOpacity',t:[0,900],v:[1,1],e:[[0],[0]]},{p:'strokeDashoffset',t:[0,900],v:[515,515],e:[[0],[0]]}],
"#ellipse21",[{p:'mpath',t:[0,200,400,600,900],v:['0%','27.864597%','77.864597%','94.869792%','100%'],e:[[1,0.42,0,0.58,1],[1,0,0,0.58,1],[1,0.433,0,0.682,0.615],[1,0.289,0.579,0.606,1],[0]],mp:"M449.945,566.1L449.945,587.5L449.945,549.1L449.945,562.16L449.945,566.1"},{p:'scaleX',t:[0,200,400,600,900],v:[1,0.9,1,1,1],e:[[1,0.42,0,0.58,1],[1,0.42,0,0.58,1],[1,0.433,0,0.682,0.615],[1,0.289,0.579,0.606,1],[0]]},{p:'scaleY',t:[0,200,400,600,900],v:[1,1,0.8,0.954,1],e:[[1,0.42,0,0.58,1],[1,0.42,0,0.58,1],[1,0.433,0,0.682,0.615],[1,0.289,0.579,0.606,1],[0]]},{p:'fillOpacity',t:[0,900],v:[1,1],e:[[0],[0]]}],
"#JoinBottom",[{p:'mpath',t:[0,200,300,400,600,900],v:['0%','39.920851%','77.874223%','89.920851%','97.664096%','100%'],e:[[1,0.42,0,0.58,1],[1,0.42,0,0.71,0.5],[1,0.29,0.5,0.58,1],[1,0.433203,0,0.682003,0.615478],[1,0.288922,0.578991,0.606405,1],[0]],mp:"M401.093,518.183L401.093,545.92L401.093,519.55L401.093,511.18L401.09,516.56L401.093,518.183"},{p:'scaleX',t:[0,200,400,600,900],v:[1,1,1,1,1],e:[[1,0.42,0,0.58,1],[1,0.42,0,0.58,1],[1,0.433203,0,0.682003,0.615478],[1,0.288922,0.578991,0.606405,1],[0]]},{p:'scaleY',t:[0,200,400,600,900],v:[1,1.261,0.8,0.953645,1],e:[[1,0.42,0,0.58,1],[1,0.42,0,0.58,1],[1,0.433203,0,0.682003,0.615478],[1,0.288922,0.578991,0.606405,1],[0]]},{p:'fillOpacity',t:[0,900],v:[1,1],e:[[0],[0]]}],
"#JoinBottom-2",[{p:'mpath',t:[0,200,400,600,900],v:['0%','30.355099%','71.864437%','91.509338%','100%'],e:[[1,0.42,0,0.58,1],[1,0.42,0,0.58,1],[1,0.433203,0,0.682003,0.615478],[1,0.288922,0.578991,0.606405,1],[0]],mp:"M499.048,454.165L499.048,451.43L499.048,455.17L499.048,453.4L499.048,454.165"},{p:'scaleX',t:[0,200,400,600,900],v:[1,1,1,1,1],e:[[1,0.42,0,0.58,1],[1,0.42,0,0.58,1],[1,0.433203,0,0.682003,0.615478],[1,0.288922,0.578991,0.606405,1],[0]]},{p:'scaleY',t:[0,200,400,600,900],v:[1,1.248,0.75,0.953645,1],e:[[1,0.42,0,0.58,1],[1,0.42,0,0.58,1],[1,0.433203,0,0.682003,0.615478],[1,0.288922,0.578991,0.606405,1],[0]]},{p:'fillOpacity',t:[0,900],v:[1,1],e:[[0],[0]]}],
"#RH-text",[{p:'fillOpacity',t:[0,900],v:[1,1],e:[[0],[0]]}],
"#RH-text-2",[{p:'fillOpacity',t:[0,900],v:[0.6,0.6],e:[[0],[0]]}],
"#_a0",[{p:'mpath',t:[0,900],v:['0%','0%'],e:[[0],[0]],mp:"M400.31,337.861L400.31,337.861"},{p:'fillOpacity',t:[0,900],v:[1,1],e:[[0],[0]]}],
"#RH-text-bl",[{p:'mpath',t:[0,300,600,900],v:['0%','50%','100%','100%'],e:[[1,0.42,0,0.58,1],[1,0.42,0,0.58,1],[0],[0]],mp:"M457.249,293.735L465.25,290.73L457.249,293.735L457.249,293.735"},{p:'rotate',t:[0,300,600,900],v:[0,10,0,0],e:[[1,0.42,0,0.58,1],[1,0.42,0,0.58,1],[0],[0]]},{p:'fillOpacity',t:[0,900],v:[1,1],e:[[0],[0]]}],
"#RH-text-bl-2",[{p:'mpath',t:[0,200,500,700],v:['0%','38.869339%','88.869339%','100%'],e:[[1,0.42,0,0.58,1],[1,0.42,0,0.58,1],[1,0.42,0,0.58,1],[0]],mp:"M535.139,307.888L542.137,307.888L533.135,307.888L535.139,307.888"},{p:'rotate',t:[0,200,500,700],v:[0,8,-5,0],e:[[1,0.42,0,0.58,1],[1,0.42,0,0.58,1],[1,0.42,0,0.58,1],[0]]},{p:'fillOpacity',t:[0,900],v:[1,1],e:[[0],[0]]}],
{autoremove:false}).range(0,900);
    };
    </script>
    <style>
        pointer-events: none;
        -webkit-user-select: none;
        -webkit-touch-callout: none;
        -webkit-tap-highlight-color:
        rgba(255, 255, 255, 0);
        user-select: none;
    </style>
</svg>